M48
; DRILL file {KiCad (5.1.2)-2} date 8/10/2019 10:07:09 PM
; FORMAT={-:-/ absolute / inch / decimal}
; #@! TF.CreationDate,2019-08-10T22:07:09-04:00
; #@! TF.GenerationSoftware,Kicad,Pcbnew,(5.1.2)-2
; #@! TF.FileFunction,Plated,1,2,PTH
FMAT,2
INCH
T1C0.0079
T2C0.0299
T3C0.0315
T4C0.0394
T5C0.0472
T6C0.0512
T7C0.0701
%
G90
G05
T1
X9.66Y-3.705
X9.66Y-4.005
X9.7Y-3.405
X9.75Y-4.91
X9.76Y-4.46
X9.76Y-4.53
X9.76Y-4.6
X9.76Y-4.66
X9.78Y-4.87
X9.78Y-4.95
X9.84Y-4.43
X9.84Y-4.71
X9.9187Y-4.0061
X9.93Y-4.46
X9.93Y-4.52
X9.93Y-4.59
X9.93Y-4.66
X10.03Y-4.91
X10.06Y-4.87
X10.06Y-4.95
X10.1509Y-4.0101
X10.28Y-3.405
X10.3Y-4.91
X10.33Y-4.87
X10.33Y-4.95
X10.35Y-4.99
X10.3557Y-4.0455
X10.43Y-4.99
X10.4856Y-4.1243
X10.5Y-3.94
X10.505Y-3.66
X10.51Y-4.99
X10.6Y-3.405
X10.705Y-3.595
X10.855Y-3.8487
X11.05Y-3.595
X11.08Y-3.76
X11.09Y-3.8487
X11.115Y-3.405
X11.19Y-3.65
X11.195Y-4.03
X11.23Y-4.985
X11.2651Y-4.1439
X11.3Y-4.985
X11.32Y-3.89
X11.36Y-4.985
X11.37Y-4.005
X11.38Y-3.855
X11.4Y-4.91
X11.43Y-4.87
X11.43Y-4.95
X11.47Y-3.795
X11.47Y-4.065
X11.54Y-3.645
X11.55Y-4.055
X11.56Y-3.945
X11.58Y-3.835
X11.585Y-3.645
X11.68Y-4.91
X11.71Y-4.87
X11.71Y-4.95
X11.87Y-4.12
X11.88Y-4.02
X11.92Y-4.27
X11.96Y-3.97
X11.96Y-4.91
X11.99Y-4.87
X11.99Y-4.95
X12.03Y-4.24
X12.06Y-4.02
X12.06Y-4.12
X12.23Y-4.91
X12.25Y-4.32
X12.26Y-4.87
X12.26Y-4.95
X12.2904Y-4.3204
X12.305Y-4.085
X12.3183Y-4.3283
X12.33Y-3.935
X12.37Y-4.72
X12.39Y-4.38
X12.44Y-4.2
X12.4579Y-4.5829
X12.47Y-4.115
X12.47Y-4.4
X12.5Y-3.965
X12.51Y-4.91
X12.5252Y-4.5612
X12.53Y-4.4
X12.54Y-4.87
X12.54Y-4.95
X12.55Y-4.535
X12.5722Y-4.0928
X12.6261Y-4.32
X12.6328Y-4.289
X12.645Y-4.51
X12.6556Y-4.2144
X12.6575Y-4.2725
X12.6727Y-4.0256
X12.715Y-4.555
X12.7757Y-4.6743
X12.7772Y-4.63
X12.78Y-4.91
X12.7842Y-3.9211
X12.7843Y-4.7057
X12.8Y-4.505
X12.81Y-4.87
X12.81Y-4.95
X12.85Y-4.74
X12.86Y-4.71
X12.8753Y-3.9983
X12.8852Y-4.1855
X12.9095Y-4.1774
X12.91Y-4.65
X12.9266Y-4.1584
X12.95Y-4.5
X12.965Y-3.9349
X12.967Y-4.1763
X13.025Y-4.685
X13.0303Y-4.1707
X13.0368Y-4.2109
X13.05Y-4.75
X13.06Y-4.565
X13.06Y-4.91
X13.0691Y-4.1312
X13.09Y-4.87
X13.09Y-4.95
X13.1234Y-4.1557
X13.13Y-4.305
X13.15Y-4.48
X13.175Y-4.765
X13.18Y-3.395
X13.3Y-4.53
X13.32Y-4.64
X13.33Y-4.91
X13.36Y-4.87
X13.36Y-4.95
X13.39Y-4.415
X13.3943Y-4.5757
X13.44Y-4.415
X13.4572Y-4.5628
X13.57Y-3.405
X13.57Y-4.71
X13.61Y-4.91
X13.64Y-4.87
X13.64Y-4.95
X13.685Y-4.99
X13.74Y-4.53
X13.74Y-4.735
X13.745Y-4.8225
X13.75Y-4.16
X13.7525Y-4.99
X13.76Y-4.29
X13.82Y-4.71
X13.84Y-4.08
X13.85Y-4.37
X13.88Y-4.71
X13.92Y-4.52
X13.92Y-4.6
X13.92Y-4.67
X13.93Y-4.22
X13.94Y-4.1
X13.95Y-4.33
X13.95Y-4.49
X13.95Y-4.56
X13.95Y-4.64
X13.95Y-4.73
X14.0Y-4.52
X14.0Y-4.61
X14.0Y-4.68
X14.0Y-4.75
X14.01Y-4.425
X14.03Y-3.415
X14.035Y-3.765
X14.035Y-4.135
T2
X10.1612Y-3.5933
X10.1612Y-3.6933
X10.1612Y-3.7933
X10.2612Y-3.5433
X10.2612Y-3.6433
X10.2612Y-3.7433
X13.4305Y-3.5913
X13.4305Y-3.6913
X13.4305Y-3.7913
X13.5305Y-3.5413
X13.5305Y-3.6413
X13.5305Y-3.7413
T3
X12.735Y-3.435
X12.735Y-3.735
X12.835Y-3.435
X12.835Y-3.735
X12.935Y-3.435
X12.935Y-3.735
X13.035Y-3.435
X13.035Y-3.735
X11.76Y-3.435
X11.76Y-3.735
X11.86Y-3.435
X11.86Y-3.735
X11.96Y-3.435
X11.96Y-3.735
X12.06Y-3.435
X12.06Y-3.735
X12.16Y-3.435
X12.16Y-3.735
X12.26Y-3.435
X12.26Y-3.735
X12.36Y-3.435
X12.36Y-3.735
X12.46Y-3.435
X12.46Y-3.735
T4
X13.3Y-4.095
X13.3Y-4.195
X13.3Y-4.295
X13.4Y-4.095
X13.4Y-4.195
X13.4Y-4.295
T5
X11.9147Y-5.64
X12.0525Y-5.64
X12.1903Y-5.64
X12.3281Y-5.64
X12.4659Y-5.64
X12.6037Y-5.64
X12.7415Y-5.64
X12.8793Y-5.64
X13.0171Y-5.64
X13.1549Y-5.64
X13.2927Y-5.64
X13.4305Y-5.64
X13.5683Y-5.64
X13.7061Y-5.64
X13.8439Y-5.64
X13.9817Y-5.64
X11.37Y-3.515
X11.37Y-3.615
X11.37Y-3.715
X9.71Y-5.64
X9.8478Y-5.64
X9.9856Y-5.64
X10.1234Y-5.64
X10.2612Y-5.64
X10.399Y-5.64
X10.5368Y-5.64
X10.6746Y-5.64
X10.8124Y-5.64
X10.9502Y-5.64
X11.088Y-5.64
X11.2257Y-5.64
X11.3635Y-5.64
X11.5013Y-5.64
X11.6391Y-5.64
X11.7769Y-5.64
T6
X10.685Y-3.715
X10.935Y-3.715
T7
X10.96Y-4.0994
X10.96Y-4.49
X11.0939Y-4.0994
X11.0939Y-4.49
X10.635Y-4.0994
X10.635Y-4.49
X10.7689Y-4.0994
X10.7689Y-4.49
T0
M30
