G04 #@! TF.GenerationSoftware,KiCad,Pcbnew,5.1.3-ffb9f22~84~ubuntu16.04.1*
G04 #@! TF.CreationDate,2019-08-12T11:52:22-04:00*
G04 #@! TF.ProjectId,usb-serial-interface_panelized,7573622d-7365-4726-9961-6c2d696e7465,rev?*
G04 #@! TF.SameCoordinates,Original*
G04 #@! TF.FileFunction,Soldermask,Bot*
G04 #@! TF.FilePolarity,Negative*
%FSLAX46Y46*%
G04 Gerber Fmt 4.6, Leading zero omitted, Abs format (unit mm)*
G04 Created by KiCad (PCBNEW 5.1.3-ffb9f22~84~ubuntu16.04.1) date 2019-08-12 11:52:22*
%MOMM*%
%LPD*%
G04 APERTURE LIST*
%ADD10C,0.100000*%
G04 APERTURE END LIST*
D10*
G36*
X134492009Y-156618586D02*
G01*
X134892565Y-156784502D01*
X134892567Y-156784503D01*
X135253058Y-157025375D01*
X135559631Y-157331948D01*
X135800503Y-157692439D01*
X135800504Y-157692441D01*
X135966420Y-158092997D01*
X136051002Y-158518223D01*
X136051002Y-158951785D01*
X135966420Y-159377011D01*
X135800504Y-159777567D01*
X135800503Y-159777569D01*
X135559631Y-160138060D01*
X135253058Y-160444633D01*
X134892567Y-160685505D01*
X134892566Y-160685506D01*
X134892565Y-160685506D01*
X134492009Y-160851422D01*
X134066783Y-160936004D01*
X133633221Y-160936004D01*
X133207995Y-160851422D01*
X132807439Y-160685506D01*
X132807438Y-160685506D01*
X132807437Y-160685505D01*
X132446946Y-160444633D01*
X132140373Y-160138060D01*
X131899501Y-159777569D01*
X131899500Y-159777567D01*
X131733584Y-159377011D01*
X131649002Y-158951785D01*
X131649002Y-158518223D01*
X131733584Y-158092997D01*
X131899500Y-157692441D01*
X131899501Y-157692439D01*
X132140373Y-157331948D01*
X132446946Y-157025375D01*
X132807437Y-156784503D01*
X132807439Y-156784502D01*
X133207995Y-156618586D01*
X133633221Y-156534004D01*
X134066783Y-156534004D01*
X134492009Y-156618586D01*
X134492009Y-156618586D01*
G37*
G36*
X84517007Y-156618586D02*
G01*
X84917563Y-156784502D01*
X84917565Y-156784503D01*
X85278056Y-157025375D01*
X85584629Y-157331948D01*
X85825501Y-157692439D01*
X85825502Y-157692441D01*
X85991418Y-158092997D01*
X86076000Y-158518223D01*
X86076000Y-158951785D01*
X85991418Y-159377011D01*
X85825502Y-159777567D01*
X85825501Y-159777569D01*
X85584629Y-160138060D01*
X85278056Y-160444633D01*
X84917565Y-160685505D01*
X84917564Y-160685506D01*
X84917563Y-160685506D01*
X84517007Y-160851422D01*
X84091781Y-160936004D01*
X83658219Y-160936004D01*
X83232993Y-160851422D01*
X82832437Y-160685506D01*
X82832436Y-160685506D01*
X82832435Y-160685505D01*
X82471944Y-160444633D01*
X82165371Y-160138060D01*
X81924499Y-159777569D01*
X81924498Y-159777567D01*
X81758582Y-159377011D01*
X81674000Y-158951785D01*
X81674000Y-158518223D01*
X81758582Y-158092997D01*
X81924498Y-157692441D01*
X81924499Y-157692439D01*
X82165371Y-157331948D01*
X82471944Y-157025375D01*
X82832435Y-156784503D01*
X82832437Y-156784502D01*
X83232993Y-156618586D01*
X83658219Y-156534004D01*
X84091781Y-156534004D01*
X84517007Y-156618586D01*
X84517007Y-156618586D01*
G37*
G36*
X125517007Y-156368586D02*
G01*
X125917563Y-156534502D01*
X125917565Y-156534503D01*
X126278056Y-156775375D01*
X126584629Y-157081948D01*
X126751673Y-157331948D01*
X126825502Y-157442441D01*
X126991418Y-157842997D01*
X127076000Y-158268223D01*
X127076000Y-158701785D01*
X126991418Y-159127011D01*
X126887864Y-159377011D01*
X126825501Y-159527569D01*
X126584629Y-159888060D01*
X126278056Y-160194633D01*
X125917565Y-160435505D01*
X125917564Y-160435506D01*
X125917563Y-160435506D01*
X125517007Y-160601422D01*
X125091781Y-160686004D01*
X124658219Y-160686004D01*
X124232993Y-160601422D01*
X123832437Y-160435506D01*
X123832436Y-160435506D01*
X123832435Y-160435505D01*
X123471944Y-160194633D01*
X123165371Y-159888060D01*
X122924499Y-159527569D01*
X122862136Y-159377011D01*
X122758582Y-159127011D01*
X122674000Y-158701785D01*
X122674000Y-158268223D01*
X122758582Y-157842997D01*
X122924498Y-157442441D01*
X122998327Y-157331948D01*
X123165371Y-157081948D01*
X123471944Y-156775375D01*
X123832435Y-156534503D01*
X123832437Y-156534502D01*
X124232993Y-156368586D01*
X124658219Y-156284004D01*
X125091781Y-156284004D01*
X125517007Y-156368586D01*
X125517007Y-156368586D01*
G37*
G36*
X175492009Y-156368586D02*
G01*
X175892565Y-156534502D01*
X175892567Y-156534503D01*
X176253058Y-156775375D01*
X176559631Y-157081948D01*
X176726675Y-157331948D01*
X176800504Y-157442441D01*
X176966420Y-157842997D01*
X177051002Y-158268223D01*
X177051002Y-158701785D01*
X176966420Y-159127011D01*
X176862866Y-159377011D01*
X176800503Y-159527569D01*
X176559631Y-159888060D01*
X176253058Y-160194633D01*
X175892567Y-160435505D01*
X175892566Y-160435506D01*
X175892565Y-160435506D01*
X175492009Y-160601422D01*
X175066783Y-160686004D01*
X174633221Y-160686004D01*
X174207995Y-160601422D01*
X173807439Y-160435506D01*
X173807438Y-160435506D01*
X173807437Y-160435505D01*
X173446946Y-160194633D01*
X173140373Y-159888060D01*
X172899501Y-159527569D01*
X172837138Y-159377011D01*
X172733584Y-159127011D01*
X172649002Y-158701785D01*
X172649002Y-158268223D01*
X172733584Y-157842997D01*
X172899500Y-157442441D01*
X172973329Y-157331948D01*
X173140373Y-157081948D01*
X173446946Y-156775375D01*
X173807437Y-156534503D01*
X173807439Y-156534502D01*
X174207995Y-156368586D01*
X174633221Y-156284004D01*
X175066783Y-156284004D01*
X175492009Y-156368586D01*
X175492009Y-156368586D01*
G37*
G36*
X90303331Y-150773215D02*
G01*
X90631092Y-150908978D01*
X90926070Y-151106076D01*
X91176928Y-151356934D01*
X91374026Y-151651912D01*
X91509789Y-151979673D01*
X91579000Y-152327620D01*
X91579000Y-152682388D01*
X91509789Y-153030335D01*
X91374026Y-153358096D01*
X91176928Y-153653074D01*
X90926070Y-153903932D01*
X90631092Y-154101030D01*
X90303331Y-154236793D01*
X89955384Y-154306004D01*
X89600616Y-154306004D01*
X89252669Y-154236793D01*
X88924908Y-154101030D01*
X88629930Y-153903932D01*
X88379072Y-153653074D01*
X88181974Y-153358096D01*
X88046211Y-153030335D01*
X87977000Y-152682388D01*
X87977000Y-152327620D01*
X88046211Y-151979673D01*
X88181974Y-151651912D01*
X88379072Y-151356934D01*
X88629930Y-151106076D01*
X88924908Y-150908978D01*
X89252669Y-150773215D01*
X89600616Y-150704004D01*
X89955384Y-150704004D01*
X90303331Y-150773215D01*
X90303331Y-150773215D01*
G37*
G36*
X140278333Y-150773215D02*
G01*
X140606094Y-150908978D01*
X140901072Y-151106076D01*
X141151930Y-151356934D01*
X141349028Y-151651912D01*
X141484791Y-151979673D01*
X141554002Y-152327620D01*
X141554002Y-152682388D01*
X141484791Y-153030335D01*
X141349028Y-153358096D01*
X141151930Y-153653074D01*
X140901072Y-153903932D01*
X140606094Y-154101030D01*
X140278333Y-154236793D01*
X139930386Y-154306004D01*
X139575618Y-154306004D01*
X139227671Y-154236793D01*
X138899910Y-154101030D01*
X138604932Y-153903932D01*
X138354074Y-153653074D01*
X138156976Y-153358096D01*
X138021213Y-153030335D01*
X137952002Y-152682388D01*
X137952002Y-152327620D01*
X138021213Y-151979673D01*
X138156976Y-151651912D01*
X138354074Y-151356934D01*
X138604932Y-151106076D01*
X138899910Y-150908978D01*
X139227671Y-150773215D01*
X139575618Y-150704004D01*
X139930386Y-150704004D01*
X140278333Y-150773215D01*
X140278333Y-150773215D01*
G37*
G36*
X171816973Y-150001208D02*
G01*
X171978873Y-150033412D01*
X172283885Y-150159752D01*
X172558389Y-150343170D01*
X172791836Y-150576617D01*
X172975254Y-150851121D01*
X173101594Y-151156133D01*
X173166002Y-151479932D01*
X173166002Y-151810076D01*
X173101594Y-152133875D01*
X172975254Y-152438887D01*
X172791836Y-152713391D01*
X172558389Y-152946838D01*
X172283885Y-153130256D01*
X171978873Y-153256596D01*
X171655075Y-153321004D01*
X171324929Y-153321004D01*
X171001131Y-153256596D01*
X170696119Y-153130256D01*
X170421615Y-152946838D01*
X170188168Y-152713391D01*
X170004750Y-152438887D01*
X169878410Y-152133875D01*
X169814002Y-151810076D01*
X169814002Y-151479932D01*
X169878410Y-151156133D01*
X170004750Y-150851121D01*
X170188168Y-150576617D01*
X170421615Y-150343170D01*
X170696119Y-150159752D01*
X171001131Y-150033412D01*
X171163031Y-150001208D01*
X171324929Y-149969004D01*
X171655075Y-149969004D01*
X171816973Y-150001208D01*
X171816973Y-150001208D01*
G37*
G36*
X121841971Y-150001208D02*
G01*
X122003871Y-150033412D01*
X122308883Y-150159752D01*
X122583387Y-150343170D01*
X122816834Y-150576617D01*
X123000252Y-150851121D01*
X123126592Y-151156133D01*
X123191000Y-151479932D01*
X123191000Y-151810076D01*
X123126592Y-152133875D01*
X123000252Y-152438887D01*
X122816834Y-152713391D01*
X122583387Y-152946838D01*
X122308883Y-153130256D01*
X122003871Y-153256596D01*
X121680073Y-153321004D01*
X121349927Y-153321004D01*
X121026129Y-153256596D01*
X120721117Y-153130256D01*
X120446613Y-152946838D01*
X120213166Y-152713391D01*
X120029748Y-152438887D01*
X119903408Y-152133875D01*
X119839000Y-151810076D01*
X119839000Y-151479932D01*
X119903408Y-151156133D01*
X120029748Y-150851121D01*
X120213166Y-150576617D01*
X120446613Y-150343170D01*
X120721117Y-150159752D01*
X121026129Y-150033412D01*
X121188029Y-150001208D01*
X121349927Y-149969004D01*
X121680073Y-149969004D01*
X121841971Y-150001208D01*
X121841971Y-150001208D01*
G37*
G36*
X113436000Y-150546004D02*
G01*
X111814000Y-150546004D01*
X111814000Y-148924004D01*
X113436000Y-148924004D01*
X113436000Y-150546004D01*
X113436000Y-150546004D01*
G37*
G36*
X163411002Y-150546004D02*
G01*
X161789002Y-150546004D01*
X161789002Y-148924004D01*
X163411002Y-148924004D01*
X163411002Y-150546004D01*
X163411002Y-150546004D01*
G37*
G36*
X115401560Y-147685170D02*
G01*
X115549153Y-147746305D01*
X115681982Y-147835059D01*
X115794945Y-147948022D01*
X115883699Y-148080851D01*
X115944834Y-148228444D01*
X115976000Y-148385127D01*
X115976000Y-148544881D01*
X115944834Y-148701564D01*
X115883699Y-148849157D01*
X115794945Y-148981986D01*
X115681982Y-149094949D01*
X115549153Y-149183703D01*
X115549152Y-149183704D01*
X115549151Y-149183704D01*
X115401560Y-149244838D01*
X115244878Y-149276004D01*
X115085122Y-149276004D01*
X114928440Y-149244838D01*
X114780849Y-149183704D01*
X114780848Y-149183704D01*
X114780847Y-149183703D01*
X114648018Y-149094949D01*
X114535055Y-148981986D01*
X114446301Y-148849157D01*
X114385166Y-148701564D01*
X114354000Y-148544881D01*
X114354000Y-148385127D01*
X114385166Y-148228444D01*
X114446301Y-148080851D01*
X114535055Y-147948022D01*
X114648018Y-147835059D01*
X114780847Y-147746305D01*
X114928440Y-147685170D01*
X115085122Y-147654004D01*
X115244878Y-147654004D01*
X115401560Y-147685170D01*
X115401560Y-147685170D01*
G37*
G36*
X165376562Y-147685170D02*
G01*
X165524155Y-147746305D01*
X165656984Y-147835059D01*
X165769947Y-147948022D01*
X165858701Y-148080851D01*
X165919836Y-148228444D01*
X165951002Y-148385127D01*
X165951002Y-148544881D01*
X165919836Y-148701564D01*
X165858701Y-148849157D01*
X165769947Y-148981986D01*
X165656984Y-149094949D01*
X165524155Y-149183703D01*
X165524154Y-149183704D01*
X165524153Y-149183704D01*
X165376562Y-149244838D01*
X165219880Y-149276004D01*
X165060124Y-149276004D01*
X164903442Y-149244838D01*
X164755851Y-149183704D01*
X164755850Y-149183704D01*
X164755849Y-149183703D01*
X164623020Y-149094949D01*
X164510057Y-148981986D01*
X164421303Y-148849157D01*
X164360168Y-148701564D01*
X164329002Y-148544881D01*
X164329002Y-148385127D01*
X164360168Y-148228444D01*
X164421303Y-148080851D01*
X164510057Y-147948022D01*
X164623020Y-147835059D01*
X164755849Y-147746305D01*
X164903442Y-147685170D01*
X165060124Y-147654004D01*
X165219880Y-147654004D01*
X165376562Y-147685170D01*
X165376562Y-147685170D01*
G37*
G36*
X92601512Y-146838931D02*
G01*
X92750812Y-146868628D01*
X92914784Y-146936548D01*
X93062354Y-147035151D01*
X93187853Y-147160650D01*
X93286456Y-147308220D01*
X93346523Y-147453233D01*
X93358068Y-147474833D01*
X93373613Y-147493775D01*
X93392555Y-147509320D01*
X93414166Y-147520871D01*
X93437615Y-147527984D01*
X93462001Y-147530386D01*
X93486387Y-147527984D01*
X93509836Y-147520871D01*
X93531447Y-147509320D01*
X93550389Y-147493775D01*
X93565934Y-147474833D01*
X93577485Y-147453222D01*
X93584598Y-147429773D01*
X93587000Y-147405387D01*
X93587000Y-146834004D01*
X95389000Y-146834004D01*
X95389000Y-148636004D01*
X93587000Y-148636004D01*
X93587000Y-148064621D01*
X93584598Y-148040235D01*
X93577485Y-148016786D01*
X93565934Y-147995175D01*
X93550389Y-147976233D01*
X93531447Y-147960688D01*
X93509836Y-147949137D01*
X93486387Y-147942024D01*
X93462001Y-147939622D01*
X93437615Y-147942024D01*
X93414166Y-147949137D01*
X93392555Y-147960688D01*
X93373613Y-147976233D01*
X93358068Y-147995175D01*
X93346523Y-148016775D01*
X93286456Y-148161788D01*
X93187853Y-148309358D01*
X93062354Y-148434857D01*
X92914784Y-148533460D01*
X92750812Y-148601380D01*
X92601512Y-148631077D01*
X92576742Y-148636004D01*
X92399258Y-148636004D01*
X92374488Y-148631077D01*
X92225188Y-148601380D01*
X92061216Y-148533460D01*
X91913646Y-148434857D01*
X91788147Y-148309358D01*
X91689544Y-148161788D01*
X91621624Y-147997816D01*
X91587000Y-147823745D01*
X91587000Y-147646263D01*
X91621624Y-147472192D01*
X91689544Y-147308220D01*
X91788147Y-147160650D01*
X91913646Y-147035151D01*
X92061216Y-146936548D01*
X92225188Y-146868628D01*
X92374488Y-146838931D01*
X92399258Y-146834004D01*
X92576742Y-146834004D01*
X92601512Y-146838931D01*
X92601512Y-146838931D01*
G37*
G36*
X142576514Y-146838931D02*
G01*
X142725814Y-146868628D01*
X142889786Y-146936548D01*
X143037356Y-147035151D01*
X143162855Y-147160650D01*
X143261458Y-147308220D01*
X143321525Y-147453233D01*
X143333070Y-147474833D01*
X143348615Y-147493775D01*
X143367557Y-147509320D01*
X143389168Y-147520871D01*
X143412617Y-147527984D01*
X143437003Y-147530386D01*
X143461389Y-147527984D01*
X143484838Y-147520871D01*
X143506449Y-147509320D01*
X143525391Y-147493775D01*
X143540936Y-147474833D01*
X143552487Y-147453222D01*
X143559600Y-147429773D01*
X143562002Y-147405387D01*
X143562002Y-146834004D01*
X145364002Y-146834004D01*
X145364002Y-148636004D01*
X143562002Y-148636004D01*
X143562002Y-148064621D01*
X143559600Y-148040235D01*
X143552487Y-148016786D01*
X143540936Y-147995175D01*
X143525391Y-147976233D01*
X143506449Y-147960688D01*
X143484838Y-147949137D01*
X143461389Y-147942024D01*
X143437003Y-147939622D01*
X143412617Y-147942024D01*
X143389168Y-147949137D01*
X143367557Y-147960688D01*
X143348615Y-147976233D01*
X143333070Y-147995175D01*
X143321525Y-148016775D01*
X143261458Y-148161788D01*
X143162855Y-148309358D01*
X143037356Y-148434857D01*
X142889786Y-148533460D01*
X142725814Y-148601380D01*
X142576514Y-148631077D01*
X142551744Y-148636004D01*
X142374260Y-148636004D01*
X142349490Y-148631077D01*
X142200190Y-148601380D01*
X142036218Y-148533460D01*
X141888648Y-148434857D01*
X141763149Y-148309358D01*
X141664546Y-148161788D01*
X141596626Y-147997816D01*
X141562002Y-147823745D01*
X141562002Y-147646263D01*
X141596626Y-147472192D01*
X141664546Y-147308220D01*
X141763149Y-147160650D01*
X141888648Y-147035151D01*
X142036218Y-146936548D01*
X142200190Y-146868628D01*
X142349490Y-146838931D01*
X142374260Y-146834004D01*
X142551744Y-146834004D01*
X142576514Y-146838931D01*
X142576514Y-146838931D01*
G37*
G36*
X162836562Y-146415170D02*
G01*
X162984155Y-146476305D01*
X163116984Y-146565059D01*
X163229947Y-146678022D01*
X163268690Y-146736004D01*
X163318702Y-146810853D01*
X163379836Y-146958444D01*
X163411002Y-147115126D01*
X163411002Y-147274882D01*
X163379836Y-147431564D01*
X163347629Y-147509320D01*
X163318701Y-147579157D01*
X163229947Y-147711986D01*
X163116984Y-147824949D01*
X162984155Y-147913703D01*
X162984154Y-147913704D01*
X162984153Y-147913704D01*
X162836562Y-147974838D01*
X162679880Y-148006004D01*
X162520124Y-148006004D01*
X162363442Y-147974838D01*
X162215851Y-147913704D01*
X162215850Y-147913704D01*
X162215849Y-147913703D01*
X162083020Y-147824949D01*
X161970057Y-147711986D01*
X161881303Y-147579157D01*
X161852376Y-147509320D01*
X161820168Y-147431564D01*
X161789002Y-147274882D01*
X161789002Y-147115126D01*
X161820168Y-146958444D01*
X161881302Y-146810853D01*
X161931315Y-146736004D01*
X161970057Y-146678022D01*
X162083020Y-146565059D01*
X162215849Y-146476305D01*
X162363442Y-146415170D01*
X162520124Y-146384004D01*
X162679880Y-146384004D01*
X162836562Y-146415170D01*
X162836562Y-146415170D01*
G37*
G36*
X112861560Y-146415170D02*
G01*
X113009153Y-146476305D01*
X113141982Y-146565059D01*
X113254945Y-146678022D01*
X113293688Y-146736004D01*
X113343700Y-146810853D01*
X113404834Y-146958444D01*
X113436000Y-147115126D01*
X113436000Y-147274882D01*
X113404834Y-147431564D01*
X113372627Y-147509320D01*
X113343699Y-147579157D01*
X113254945Y-147711986D01*
X113141982Y-147824949D01*
X113009153Y-147913703D01*
X113009152Y-147913704D01*
X113009151Y-147913704D01*
X112861560Y-147974838D01*
X112704878Y-148006004D01*
X112545122Y-148006004D01*
X112388440Y-147974838D01*
X112240849Y-147913704D01*
X112240848Y-147913704D01*
X112240847Y-147913703D01*
X112108018Y-147824949D01*
X111995055Y-147711986D01*
X111906301Y-147579157D01*
X111877374Y-147509320D01*
X111845166Y-147431564D01*
X111814000Y-147274882D01*
X111814000Y-147115126D01*
X111845166Y-146958444D01*
X111906300Y-146810853D01*
X111956313Y-146736004D01*
X111995055Y-146678022D01*
X112108018Y-146565059D01*
X112240847Y-146476305D01*
X112388440Y-146415170D01*
X112545122Y-146384004D01*
X112704878Y-146384004D01*
X112861560Y-146415170D01*
X112861560Y-146415170D01*
G37*
G36*
X115316477Y-145128246D02*
G01*
X115401560Y-145145170D01*
X115549153Y-145206305D01*
X115681982Y-145295059D01*
X115794945Y-145408022D01*
X115833688Y-145466004D01*
X115883700Y-145540853D01*
X115944834Y-145688444D01*
X115976000Y-145845126D01*
X115976000Y-146004882D01*
X115956805Y-146101380D01*
X115944834Y-146161564D01*
X115883699Y-146309157D01*
X115794945Y-146441986D01*
X115681982Y-146554949D01*
X115549153Y-146643703D01*
X115549152Y-146643704D01*
X115549151Y-146643704D01*
X115401560Y-146704838D01*
X115244878Y-146736004D01*
X115085122Y-146736004D01*
X114928440Y-146704838D01*
X114780849Y-146643704D01*
X114780848Y-146643704D01*
X114780847Y-146643703D01*
X114648018Y-146554949D01*
X114535055Y-146441986D01*
X114446301Y-146309157D01*
X114385166Y-146161564D01*
X114373195Y-146101380D01*
X114354000Y-146004882D01*
X114354000Y-145845126D01*
X114385166Y-145688444D01*
X114446300Y-145540853D01*
X114496313Y-145466004D01*
X114535055Y-145408022D01*
X114648018Y-145295059D01*
X114780847Y-145206305D01*
X114928440Y-145145170D01*
X115013523Y-145128246D01*
X115085122Y-145114004D01*
X115244878Y-145114004D01*
X115316477Y-145128246D01*
X115316477Y-145128246D01*
G37*
G36*
X165291479Y-145128246D02*
G01*
X165376562Y-145145170D01*
X165524155Y-145206305D01*
X165656984Y-145295059D01*
X165769947Y-145408022D01*
X165808690Y-145466004D01*
X165858702Y-145540853D01*
X165919836Y-145688444D01*
X165951002Y-145845126D01*
X165951002Y-146004882D01*
X165931807Y-146101380D01*
X165919836Y-146161564D01*
X165858701Y-146309157D01*
X165769947Y-146441986D01*
X165656984Y-146554949D01*
X165524155Y-146643703D01*
X165524154Y-146643704D01*
X165524153Y-146643704D01*
X165376562Y-146704838D01*
X165219880Y-146736004D01*
X165060124Y-146736004D01*
X164903442Y-146704838D01*
X164755851Y-146643704D01*
X164755850Y-146643704D01*
X164755849Y-146643703D01*
X164623020Y-146554949D01*
X164510057Y-146441986D01*
X164421303Y-146309157D01*
X164360168Y-146161564D01*
X164348197Y-146101380D01*
X164329002Y-146004882D01*
X164329002Y-145845126D01*
X164360168Y-145688444D01*
X164421302Y-145540853D01*
X164471315Y-145466004D01*
X164510057Y-145408022D01*
X164623020Y-145295059D01*
X164755849Y-145206305D01*
X164903442Y-145145170D01*
X164988525Y-145128246D01*
X165060124Y-145114004D01*
X165219880Y-145114004D01*
X165291479Y-145128246D01*
X165291479Y-145128246D01*
G37*
G36*
X142576514Y-144338931D02*
G01*
X142725814Y-144368628D01*
X142889786Y-144436548D01*
X143037356Y-144535151D01*
X143162855Y-144660650D01*
X143261458Y-144808220D01*
X143329378Y-144972192D01*
X143340407Y-145027642D01*
X143347518Y-145051082D01*
X143359069Y-145072693D01*
X143374615Y-145091635D01*
X143393557Y-145107180D01*
X143415167Y-145118731D01*
X143438616Y-145125844D01*
X143463002Y-145128246D01*
X143487389Y-145125844D01*
X143510837Y-145118731D01*
X143532448Y-145107180D01*
X143551390Y-145091634D01*
X143566935Y-145072692D01*
X143578486Y-145051082D01*
X143585597Y-145027642D01*
X143596626Y-144972192D01*
X143664546Y-144808220D01*
X143763149Y-144660650D01*
X143888648Y-144535151D01*
X144036218Y-144436548D01*
X144200190Y-144368628D01*
X144349490Y-144338931D01*
X144374260Y-144334004D01*
X144551744Y-144334004D01*
X144576514Y-144338931D01*
X144725814Y-144368628D01*
X144889786Y-144436548D01*
X145037356Y-144535151D01*
X145162855Y-144660650D01*
X145261458Y-144808220D01*
X145329378Y-144972192D01*
X145364002Y-145146263D01*
X145364002Y-145323745D01*
X145329378Y-145497816D01*
X145261458Y-145661788D01*
X145162855Y-145809358D01*
X145037356Y-145934857D01*
X144889786Y-146033460D01*
X144725814Y-146101380D01*
X144576514Y-146131077D01*
X144551744Y-146136004D01*
X144374260Y-146136004D01*
X144349490Y-146131077D01*
X144200190Y-146101380D01*
X144036218Y-146033460D01*
X143888648Y-145934857D01*
X143763149Y-145809358D01*
X143664546Y-145661788D01*
X143596626Y-145497816D01*
X143585597Y-145442366D01*
X143578486Y-145418926D01*
X143566935Y-145397315D01*
X143551389Y-145378373D01*
X143532447Y-145362828D01*
X143510837Y-145351277D01*
X143487388Y-145344164D01*
X143463002Y-145341762D01*
X143438615Y-145344164D01*
X143415167Y-145351277D01*
X143393556Y-145362828D01*
X143374614Y-145378374D01*
X143359069Y-145397316D01*
X143347518Y-145418926D01*
X143340407Y-145442366D01*
X143329378Y-145497816D01*
X143261458Y-145661788D01*
X143162855Y-145809358D01*
X143037356Y-145934857D01*
X142889786Y-146033460D01*
X142725814Y-146101380D01*
X142576514Y-146131077D01*
X142551744Y-146136004D01*
X142374260Y-146136004D01*
X142349490Y-146131077D01*
X142200190Y-146101380D01*
X142036218Y-146033460D01*
X141888648Y-145934857D01*
X141763149Y-145809358D01*
X141664546Y-145661788D01*
X141596626Y-145497816D01*
X141562002Y-145323745D01*
X141562002Y-145146263D01*
X141596626Y-144972192D01*
X141664546Y-144808220D01*
X141763149Y-144660650D01*
X141888648Y-144535151D01*
X142036218Y-144436548D01*
X142200190Y-144368628D01*
X142349490Y-144338931D01*
X142374260Y-144334004D01*
X142551744Y-144334004D01*
X142576514Y-144338931D01*
X142576514Y-144338931D01*
G37*
G36*
X92601512Y-144338931D02*
G01*
X92750812Y-144368628D01*
X92914784Y-144436548D01*
X93062354Y-144535151D01*
X93187853Y-144660650D01*
X93286456Y-144808220D01*
X93354376Y-144972192D01*
X93365405Y-145027642D01*
X93372516Y-145051082D01*
X93384067Y-145072693D01*
X93399613Y-145091635D01*
X93418555Y-145107180D01*
X93440165Y-145118731D01*
X93463614Y-145125844D01*
X93488000Y-145128246D01*
X93512387Y-145125844D01*
X93535835Y-145118731D01*
X93557446Y-145107180D01*
X93576388Y-145091634D01*
X93591933Y-145072692D01*
X93603484Y-145051082D01*
X93610595Y-145027642D01*
X93621624Y-144972192D01*
X93689544Y-144808220D01*
X93788147Y-144660650D01*
X93913646Y-144535151D01*
X94061216Y-144436548D01*
X94225188Y-144368628D01*
X94374488Y-144338931D01*
X94399258Y-144334004D01*
X94576742Y-144334004D01*
X94601512Y-144338931D01*
X94750812Y-144368628D01*
X94914784Y-144436548D01*
X95062354Y-144535151D01*
X95187853Y-144660650D01*
X95286456Y-144808220D01*
X95354376Y-144972192D01*
X95389000Y-145146263D01*
X95389000Y-145323745D01*
X95354376Y-145497816D01*
X95286456Y-145661788D01*
X95187853Y-145809358D01*
X95062354Y-145934857D01*
X94914784Y-146033460D01*
X94750812Y-146101380D01*
X94601512Y-146131077D01*
X94576742Y-146136004D01*
X94399258Y-146136004D01*
X94374488Y-146131077D01*
X94225188Y-146101380D01*
X94061216Y-146033460D01*
X93913646Y-145934857D01*
X93788147Y-145809358D01*
X93689544Y-145661788D01*
X93621624Y-145497816D01*
X93610595Y-145442366D01*
X93603484Y-145418926D01*
X93591933Y-145397315D01*
X93576387Y-145378373D01*
X93557445Y-145362828D01*
X93535835Y-145351277D01*
X93512386Y-145344164D01*
X93488000Y-145341762D01*
X93463613Y-145344164D01*
X93440165Y-145351277D01*
X93418554Y-145362828D01*
X93399612Y-145378374D01*
X93384067Y-145397316D01*
X93372516Y-145418926D01*
X93365405Y-145442366D01*
X93354376Y-145497816D01*
X93286456Y-145661788D01*
X93187853Y-145809358D01*
X93062354Y-145934857D01*
X92914784Y-146033460D01*
X92750812Y-146101380D01*
X92601512Y-146131077D01*
X92576742Y-146136004D01*
X92399258Y-146136004D01*
X92374488Y-146131077D01*
X92225188Y-146101380D01*
X92061216Y-146033460D01*
X91913646Y-145934857D01*
X91788147Y-145809358D01*
X91689544Y-145661788D01*
X91621624Y-145497816D01*
X91587000Y-145323745D01*
X91587000Y-145146263D01*
X91621624Y-144972192D01*
X91689544Y-144808220D01*
X91788147Y-144660650D01*
X91913646Y-144535151D01*
X92061216Y-144436548D01*
X92225188Y-144368628D01*
X92374488Y-144338931D01*
X92399258Y-144334004D01*
X92576742Y-144334004D01*
X92601512Y-144338931D01*
X92601512Y-144338931D01*
G37*
G36*
X162836562Y-143875170D02*
G01*
X162984155Y-143936305D01*
X163116984Y-144025059D01*
X163229947Y-144138022D01*
X163318701Y-144270851D01*
X163379836Y-144418444D01*
X163411002Y-144575127D01*
X163411002Y-144734881D01*
X163379836Y-144891564D01*
X163318701Y-145039157D01*
X163229947Y-145171986D01*
X163116984Y-145284949D01*
X162984155Y-145373703D01*
X162984154Y-145373704D01*
X162984153Y-145373704D01*
X162836562Y-145434838D01*
X162679880Y-145466004D01*
X162520124Y-145466004D01*
X162363442Y-145434838D01*
X162215851Y-145373704D01*
X162215850Y-145373704D01*
X162215849Y-145373703D01*
X162083020Y-145284949D01*
X161970057Y-145171986D01*
X161881303Y-145039157D01*
X161820168Y-144891564D01*
X161789002Y-144734881D01*
X161789002Y-144575127D01*
X161820168Y-144418444D01*
X161881303Y-144270851D01*
X161970057Y-144138022D01*
X162083020Y-144025059D01*
X162215849Y-143936305D01*
X162363442Y-143875170D01*
X162520124Y-143844004D01*
X162679880Y-143844004D01*
X162836562Y-143875170D01*
X162836562Y-143875170D01*
G37*
G36*
X112861560Y-143875170D02*
G01*
X113009153Y-143936305D01*
X113141982Y-144025059D01*
X113254945Y-144138022D01*
X113343699Y-144270851D01*
X113404834Y-144418444D01*
X113436000Y-144575127D01*
X113436000Y-144734881D01*
X113404834Y-144891564D01*
X113343699Y-145039157D01*
X113254945Y-145171986D01*
X113141982Y-145284949D01*
X113009153Y-145373703D01*
X113009152Y-145373704D01*
X113009151Y-145373704D01*
X112861560Y-145434838D01*
X112704878Y-145466004D01*
X112545122Y-145466004D01*
X112388440Y-145434838D01*
X112240849Y-145373704D01*
X112240848Y-145373704D01*
X112240847Y-145373703D01*
X112108018Y-145284949D01*
X111995055Y-145171986D01*
X111906301Y-145039157D01*
X111845166Y-144891564D01*
X111814000Y-144734881D01*
X111814000Y-144575127D01*
X111845166Y-144418444D01*
X111906301Y-144270851D01*
X111995055Y-144138022D01*
X112108018Y-144025059D01*
X112240847Y-143936305D01*
X112388440Y-143875170D01*
X112545122Y-143844004D01*
X112704878Y-143844004D01*
X112861560Y-143875170D01*
X112861560Y-143875170D01*
G37*
G36*
X165376562Y-142605170D02*
G01*
X165524155Y-142666305D01*
X165656984Y-142755059D01*
X165769947Y-142868022D01*
X165858701Y-143000851D01*
X165919836Y-143148444D01*
X165951002Y-143305127D01*
X165951002Y-143464881D01*
X165919836Y-143621564D01*
X165858701Y-143769157D01*
X165769947Y-143901986D01*
X165656984Y-144014949D01*
X165524155Y-144103703D01*
X165524154Y-144103704D01*
X165524153Y-144103704D01*
X165376562Y-144164838D01*
X165219880Y-144196004D01*
X165060124Y-144196004D01*
X164903442Y-144164838D01*
X164755851Y-144103704D01*
X164755850Y-144103704D01*
X164755849Y-144103703D01*
X164623020Y-144014949D01*
X164510057Y-143901986D01*
X164421303Y-143769157D01*
X164360168Y-143621564D01*
X164329002Y-143464881D01*
X164329002Y-143305127D01*
X164360168Y-143148444D01*
X164421303Y-143000851D01*
X164510057Y-142868022D01*
X164623020Y-142755059D01*
X164755849Y-142666305D01*
X164903442Y-142605170D01*
X165060124Y-142574004D01*
X165219880Y-142574004D01*
X165376562Y-142605170D01*
X165376562Y-142605170D01*
G37*
G36*
X115401560Y-142605170D02*
G01*
X115549153Y-142666305D01*
X115681982Y-142755059D01*
X115794945Y-142868022D01*
X115883699Y-143000851D01*
X115944834Y-143148444D01*
X115976000Y-143305127D01*
X115976000Y-143464881D01*
X115944834Y-143621564D01*
X115883699Y-143769157D01*
X115794945Y-143901986D01*
X115681982Y-144014949D01*
X115549153Y-144103703D01*
X115549152Y-144103704D01*
X115549151Y-144103704D01*
X115401560Y-144164838D01*
X115244878Y-144196004D01*
X115085122Y-144196004D01*
X114928440Y-144164838D01*
X114780849Y-144103704D01*
X114780848Y-144103704D01*
X114780847Y-144103703D01*
X114648018Y-144014949D01*
X114535055Y-143901986D01*
X114446301Y-143769157D01*
X114385166Y-143621564D01*
X114354000Y-143464881D01*
X114354000Y-143305127D01*
X114385166Y-143148444D01*
X114446301Y-143000851D01*
X114535055Y-142868022D01*
X114648018Y-142755059D01*
X114780847Y-142666305D01*
X114928440Y-142605170D01*
X115085122Y-142574004D01*
X115244878Y-142574004D01*
X115401560Y-142605170D01*
X115401560Y-142605170D01*
G37*
G36*
X171978873Y-139873412D02*
G01*
X172283885Y-139999752D01*
X172558389Y-140183170D01*
X172791836Y-140416617D01*
X172975254Y-140691121D01*
X173101594Y-140996133D01*
X173166002Y-141319932D01*
X173166002Y-141650076D01*
X173101594Y-141973875D01*
X172975254Y-142278887D01*
X172791836Y-142553391D01*
X172558389Y-142786838D01*
X172283885Y-142970256D01*
X171978873Y-143096596D01*
X171816973Y-143128800D01*
X171655075Y-143161004D01*
X171324929Y-143161004D01*
X171163031Y-143128800D01*
X171001131Y-143096596D01*
X170696119Y-142970256D01*
X170421615Y-142786838D01*
X170188168Y-142553391D01*
X170004750Y-142278887D01*
X169878410Y-141973875D01*
X169814002Y-141650076D01*
X169814002Y-141319932D01*
X169878410Y-140996133D01*
X170004750Y-140691121D01*
X170188168Y-140416617D01*
X170421615Y-140183170D01*
X170696119Y-139999752D01*
X171001131Y-139873412D01*
X171324929Y-139809004D01*
X171655075Y-139809004D01*
X171978873Y-139873412D01*
X171978873Y-139873412D01*
G37*
G36*
X122003871Y-139873412D02*
G01*
X122308883Y-139999752D01*
X122583387Y-140183170D01*
X122816834Y-140416617D01*
X123000252Y-140691121D01*
X123126592Y-140996133D01*
X123191000Y-141319932D01*
X123191000Y-141650076D01*
X123126592Y-141973875D01*
X123000252Y-142278887D01*
X122816834Y-142553391D01*
X122583387Y-142786838D01*
X122308883Y-142970256D01*
X122003871Y-143096596D01*
X121841971Y-143128800D01*
X121680073Y-143161004D01*
X121349927Y-143161004D01*
X121188029Y-143128800D01*
X121026129Y-143096596D01*
X120721117Y-142970256D01*
X120446613Y-142786838D01*
X120213166Y-142553391D01*
X120029748Y-142278887D01*
X119903408Y-141973875D01*
X119839000Y-141650076D01*
X119839000Y-141319932D01*
X119903408Y-140996133D01*
X120029748Y-140691121D01*
X120213166Y-140416617D01*
X120446613Y-140183170D01*
X120721117Y-139999752D01*
X121026129Y-139873412D01*
X121349927Y-139809004D01*
X121680073Y-139809004D01*
X122003871Y-139873412D01*
X122003871Y-139873412D01*
G37*
G36*
X90303331Y-138733215D02*
G01*
X90631092Y-138868978D01*
X90926070Y-139066076D01*
X91176928Y-139316934D01*
X91374026Y-139611912D01*
X91509789Y-139939673D01*
X91579000Y-140287620D01*
X91579000Y-140642388D01*
X91509789Y-140990335D01*
X91374026Y-141318096D01*
X91176928Y-141613074D01*
X90926070Y-141863932D01*
X90631092Y-142061030D01*
X90303331Y-142196793D01*
X89955384Y-142266004D01*
X89600616Y-142266004D01*
X89252669Y-142196793D01*
X88924908Y-142061030D01*
X88629930Y-141863932D01*
X88379072Y-141613074D01*
X88181974Y-141318096D01*
X88046211Y-140990335D01*
X87977000Y-140642388D01*
X87977000Y-140287620D01*
X88046211Y-139939673D01*
X88181974Y-139611912D01*
X88379072Y-139316934D01*
X88629930Y-139066076D01*
X88924908Y-138868978D01*
X89252669Y-138733215D01*
X89600616Y-138664004D01*
X89955384Y-138664004D01*
X90303331Y-138733215D01*
X90303331Y-138733215D01*
G37*
G36*
X140278333Y-138733215D02*
G01*
X140606094Y-138868978D01*
X140901072Y-139066076D01*
X141151930Y-139316934D01*
X141349028Y-139611912D01*
X141484791Y-139939673D01*
X141554002Y-140287620D01*
X141554002Y-140642388D01*
X141484791Y-140990335D01*
X141349028Y-141318096D01*
X141151930Y-141613074D01*
X140901072Y-141863932D01*
X140606094Y-142061030D01*
X140278333Y-142196793D01*
X139930386Y-142266004D01*
X139575618Y-142266004D01*
X139227671Y-142196793D01*
X138899910Y-142061030D01*
X138604932Y-141863932D01*
X138354074Y-141613074D01*
X138156976Y-141318096D01*
X138021213Y-140990335D01*
X137952002Y-140642388D01*
X137952002Y-140287620D01*
X138021213Y-139939673D01*
X138156976Y-139611912D01*
X138354074Y-139316934D01*
X138604932Y-139066076D01*
X138899910Y-138868978D01*
X139227671Y-138733215D01*
X139575618Y-138664004D01*
X139930386Y-138664004D01*
X140278333Y-138733215D01*
X140278333Y-138733215D01*
G37*
G36*
X175492009Y-132563586D02*
G01*
X175892565Y-132729502D01*
X175892567Y-132729503D01*
X176253058Y-132970375D01*
X176559631Y-133276948D01*
X176800503Y-133637439D01*
X176800504Y-133637441D01*
X176966420Y-134037997D01*
X177051002Y-134463223D01*
X177051002Y-134896785D01*
X176966420Y-135322011D01*
X176800504Y-135722567D01*
X176800503Y-135722569D01*
X176559631Y-136083060D01*
X176253058Y-136389633D01*
X175892567Y-136630505D01*
X175892566Y-136630506D01*
X175892565Y-136630506D01*
X175492009Y-136796422D01*
X175066783Y-136881004D01*
X174633221Y-136881004D01*
X174207995Y-136796422D01*
X173807439Y-136630506D01*
X173807438Y-136630506D01*
X173807437Y-136630505D01*
X173446946Y-136389633D01*
X173140373Y-136083060D01*
X172899501Y-135722569D01*
X172899500Y-135722567D01*
X172733584Y-135322011D01*
X172649002Y-134896785D01*
X172649002Y-134463223D01*
X172733584Y-134037997D01*
X172899500Y-133637441D01*
X172899501Y-133637439D01*
X173140373Y-133276948D01*
X173446946Y-132970375D01*
X173807437Y-132729503D01*
X173807439Y-132729502D01*
X174207995Y-132563586D01*
X174633221Y-132479004D01*
X175066783Y-132479004D01*
X175492009Y-132563586D01*
X175492009Y-132563586D01*
G37*
G36*
X125517007Y-132563586D02*
G01*
X125917563Y-132729502D01*
X125917565Y-132729503D01*
X126278056Y-132970375D01*
X126584629Y-133276948D01*
X126825501Y-133637439D01*
X126825502Y-133637441D01*
X126991418Y-134037997D01*
X127076000Y-134463223D01*
X127076000Y-134896785D01*
X126991418Y-135322011D01*
X126825502Y-135722567D01*
X126825501Y-135722569D01*
X126584629Y-136083060D01*
X126278056Y-136389633D01*
X125917565Y-136630505D01*
X125917564Y-136630506D01*
X125917563Y-136630506D01*
X125517007Y-136796422D01*
X125091781Y-136881004D01*
X124658219Y-136881004D01*
X124232993Y-136796422D01*
X123832437Y-136630506D01*
X123832436Y-136630506D01*
X123832435Y-136630505D01*
X123471944Y-136389633D01*
X123165371Y-136083060D01*
X122924499Y-135722569D01*
X122924498Y-135722567D01*
X122758582Y-135322011D01*
X122674000Y-134896785D01*
X122674000Y-134463223D01*
X122758582Y-134037997D01*
X122924498Y-133637441D01*
X122924499Y-133637439D01*
X123165371Y-133276948D01*
X123471944Y-132970375D01*
X123832435Y-132729503D01*
X123832437Y-132729502D01*
X124232993Y-132563586D01*
X124658219Y-132479004D01*
X125091781Y-132479004D01*
X125517007Y-132563586D01*
X125517007Y-132563586D01*
G37*
G36*
X84517007Y-132563586D02*
G01*
X84917563Y-132729502D01*
X84917565Y-132729503D01*
X85278056Y-132970375D01*
X85584629Y-133276948D01*
X85825501Y-133637439D01*
X85825502Y-133637441D01*
X85991418Y-134037997D01*
X86076000Y-134463223D01*
X86076000Y-134896785D01*
X85991418Y-135322011D01*
X85825502Y-135722567D01*
X85825501Y-135722569D01*
X85584629Y-136083060D01*
X85278056Y-136389633D01*
X84917565Y-136630505D01*
X84917564Y-136630506D01*
X84917563Y-136630506D01*
X84517007Y-136796422D01*
X84091781Y-136881004D01*
X83658219Y-136881004D01*
X83232993Y-136796422D01*
X82832437Y-136630506D01*
X82832436Y-136630506D01*
X82832435Y-136630505D01*
X82471944Y-136389633D01*
X82165371Y-136083060D01*
X81924499Y-135722569D01*
X81924498Y-135722567D01*
X81758582Y-135322011D01*
X81674000Y-134896785D01*
X81674000Y-134463223D01*
X81758582Y-134037997D01*
X81924498Y-133637441D01*
X81924499Y-133637439D01*
X82165371Y-133276948D01*
X82471944Y-132970375D01*
X82832435Y-132729503D01*
X82832437Y-132729502D01*
X83232993Y-132563586D01*
X83658219Y-132479004D01*
X84091781Y-132479004D01*
X84517007Y-132563586D01*
X84517007Y-132563586D01*
G37*
G36*
X134492009Y-132563586D02*
G01*
X134892565Y-132729502D01*
X134892567Y-132729503D01*
X135253058Y-132970375D01*
X135559631Y-133276948D01*
X135800503Y-133637439D01*
X135800504Y-133637441D01*
X135966420Y-134037997D01*
X136051002Y-134463223D01*
X136051002Y-134896785D01*
X135966420Y-135322011D01*
X135800504Y-135722567D01*
X135800503Y-135722569D01*
X135559631Y-136083060D01*
X135253058Y-136389633D01*
X134892567Y-136630505D01*
X134892566Y-136630506D01*
X134892565Y-136630506D01*
X134492009Y-136796422D01*
X134066783Y-136881004D01*
X133633221Y-136881004D01*
X133207995Y-136796422D01*
X132807439Y-136630506D01*
X132807438Y-136630506D01*
X132807437Y-136630505D01*
X132446946Y-136389633D01*
X132140373Y-136083060D01*
X131899501Y-135722569D01*
X131899500Y-135722567D01*
X131733584Y-135322011D01*
X131649002Y-134896785D01*
X131649002Y-134463223D01*
X131733584Y-134037997D01*
X131899500Y-133637441D01*
X131899501Y-133637439D01*
X132140373Y-133276948D01*
X132446946Y-132970375D01*
X132807437Y-132729503D01*
X132807439Y-132729502D01*
X133207995Y-132563586D01*
X133633221Y-132479004D01*
X134066783Y-132479004D01*
X134492009Y-132563586D01*
X134492009Y-132563586D01*
G37*
G36*
X84517007Y-123568584D02*
G01*
X84917563Y-123734500D01*
X84917565Y-123734501D01*
X85278056Y-123975373D01*
X85584629Y-124281946D01*
X85825501Y-124642437D01*
X85825502Y-124642439D01*
X85991418Y-125042995D01*
X86076000Y-125468221D01*
X86076000Y-125901783D01*
X85991418Y-126327009D01*
X85825502Y-126727565D01*
X85825501Y-126727567D01*
X85584629Y-127088058D01*
X85278056Y-127394631D01*
X84917565Y-127635503D01*
X84917564Y-127635504D01*
X84917563Y-127635504D01*
X84517007Y-127801420D01*
X84091781Y-127886002D01*
X83658219Y-127886002D01*
X83232993Y-127801420D01*
X82832437Y-127635504D01*
X82832436Y-127635504D01*
X82832435Y-127635503D01*
X82471944Y-127394631D01*
X82165371Y-127088058D01*
X81924499Y-126727567D01*
X81924498Y-126727565D01*
X81758582Y-126327009D01*
X81674000Y-125901783D01*
X81674000Y-125468221D01*
X81758582Y-125042995D01*
X81924498Y-124642439D01*
X81924499Y-124642437D01*
X82165371Y-124281946D01*
X82471944Y-123975373D01*
X82832435Y-123734501D01*
X82832437Y-123734500D01*
X83232993Y-123568584D01*
X83658219Y-123484002D01*
X84091781Y-123484002D01*
X84517007Y-123568584D01*
X84517007Y-123568584D01*
G37*
G36*
X134492009Y-123568584D02*
G01*
X134892565Y-123734500D01*
X134892567Y-123734501D01*
X135253058Y-123975373D01*
X135559631Y-124281946D01*
X135800503Y-124642437D01*
X135800504Y-124642439D01*
X135966420Y-125042995D01*
X136051002Y-125468221D01*
X136051002Y-125901783D01*
X135966420Y-126327009D01*
X135800504Y-126727565D01*
X135800503Y-126727567D01*
X135559631Y-127088058D01*
X135253058Y-127394631D01*
X134892567Y-127635503D01*
X134892566Y-127635504D01*
X134892565Y-127635504D01*
X134492009Y-127801420D01*
X134066783Y-127886002D01*
X133633221Y-127886002D01*
X133207995Y-127801420D01*
X132807439Y-127635504D01*
X132807438Y-127635504D01*
X132807437Y-127635503D01*
X132446946Y-127394631D01*
X132140373Y-127088058D01*
X131899501Y-126727567D01*
X131899500Y-126727565D01*
X131733584Y-126327009D01*
X131649002Y-125901783D01*
X131649002Y-125468221D01*
X131733584Y-125042995D01*
X131899500Y-124642439D01*
X131899501Y-124642437D01*
X132140373Y-124281946D01*
X132446946Y-123975373D01*
X132807437Y-123734501D01*
X132807439Y-123734500D01*
X133207995Y-123568584D01*
X133633221Y-123484002D01*
X134066783Y-123484002D01*
X134492009Y-123568584D01*
X134492009Y-123568584D01*
G37*
G36*
X175492009Y-123318584D02*
G01*
X175892565Y-123484500D01*
X175892567Y-123484501D01*
X176253058Y-123725373D01*
X176559631Y-124031946D01*
X176726675Y-124281946D01*
X176800504Y-124392439D01*
X176966420Y-124792995D01*
X177051002Y-125218221D01*
X177051002Y-125651783D01*
X176966420Y-126077009D01*
X176862866Y-126327009D01*
X176800503Y-126477567D01*
X176559631Y-126838058D01*
X176253058Y-127144631D01*
X175892567Y-127385503D01*
X175892566Y-127385504D01*
X175892565Y-127385504D01*
X175492009Y-127551420D01*
X175066783Y-127636002D01*
X174633221Y-127636002D01*
X174207995Y-127551420D01*
X173807439Y-127385504D01*
X173807438Y-127385504D01*
X173807437Y-127385503D01*
X173446946Y-127144631D01*
X173140373Y-126838058D01*
X172899501Y-126477567D01*
X172837138Y-126327009D01*
X172733584Y-126077009D01*
X172649002Y-125651783D01*
X172649002Y-125218221D01*
X172733584Y-124792995D01*
X172899500Y-124392439D01*
X172973329Y-124281946D01*
X173140373Y-124031946D01*
X173446946Y-123725373D01*
X173807437Y-123484501D01*
X173807439Y-123484500D01*
X174207995Y-123318584D01*
X174633221Y-123234002D01*
X175066783Y-123234002D01*
X175492009Y-123318584D01*
X175492009Y-123318584D01*
G37*
G36*
X125517007Y-123318584D02*
G01*
X125917563Y-123484500D01*
X125917565Y-123484501D01*
X126278056Y-123725373D01*
X126584629Y-124031946D01*
X126751673Y-124281946D01*
X126825502Y-124392439D01*
X126991418Y-124792995D01*
X127076000Y-125218221D01*
X127076000Y-125651783D01*
X126991418Y-126077009D01*
X126887864Y-126327009D01*
X126825501Y-126477567D01*
X126584629Y-126838058D01*
X126278056Y-127144631D01*
X125917565Y-127385503D01*
X125917564Y-127385504D01*
X125917563Y-127385504D01*
X125517007Y-127551420D01*
X125091781Y-127636002D01*
X124658219Y-127636002D01*
X124232993Y-127551420D01*
X123832437Y-127385504D01*
X123832436Y-127385504D01*
X123832435Y-127385503D01*
X123471944Y-127144631D01*
X123165371Y-126838058D01*
X122924499Y-126477567D01*
X122862136Y-126327009D01*
X122758582Y-126077009D01*
X122674000Y-125651783D01*
X122674000Y-125218221D01*
X122758582Y-124792995D01*
X122924498Y-124392439D01*
X122998327Y-124281946D01*
X123165371Y-124031946D01*
X123471944Y-123725373D01*
X123832435Y-123484501D01*
X123832437Y-123484500D01*
X124232993Y-123318584D01*
X124658219Y-123234002D01*
X125091781Y-123234002D01*
X125517007Y-123318584D01*
X125517007Y-123318584D01*
G37*
G36*
X140278333Y-117723213D02*
G01*
X140606094Y-117858976D01*
X140901072Y-118056074D01*
X141151930Y-118306932D01*
X141349028Y-118601910D01*
X141484791Y-118929671D01*
X141554002Y-119277618D01*
X141554002Y-119632386D01*
X141484791Y-119980333D01*
X141349028Y-120308094D01*
X141151930Y-120603072D01*
X140901072Y-120853930D01*
X140606094Y-121051028D01*
X140278333Y-121186791D01*
X139930386Y-121256002D01*
X139575618Y-121256002D01*
X139227671Y-121186791D01*
X138899910Y-121051028D01*
X138604932Y-120853930D01*
X138354074Y-120603072D01*
X138156976Y-120308094D01*
X138021213Y-119980333D01*
X137952002Y-119632386D01*
X137952002Y-119277618D01*
X138021213Y-118929671D01*
X138156976Y-118601910D01*
X138354074Y-118306932D01*
X138604932Y-118056074D01*
X138899910Y-117858976D01*
X139227671Y-117723213D01*
X139575618Y-117654002D01*
X139930386Y-117654002D01*
X140278333Y-117723213D01*
X140278333Y-117723213D01*
G37*
G36*
X90303331Y-117723213D02*
G01*
X90631092Y-117858976D01*
X90926070Y-118056074D01*
X91176928Y-118306932D01*
X91374026Y-118601910D01*
X91509789Y-118929671D01*
X91579000Y-119277618D01*
X91579000Y-119632386D01*
X91509789Y-119980333D01*
X91374026Y-120308094D01*
X91176928Y-120603072D01*
X90926070Y-120853930D01*
X90631092Y-121051028D01*
X90303331Y-121186791D01*
X89955384Y-121256002D01*
X89600616Y-121256002D01*
X89252669Y-121186791D01*
X88924908Y-121051028D01*
X88629930Y-120853930D01*
X88379072Y-120603072D01*
X88181974Y-120308094D01*
X88046211Y-119980333D01*
X87977000Y-119632386D01*
X87977000Y-119277618D01*
X88046211Y-118929671D01*
X88181974Y-118601910D01*
X88379072Y-118306932D01*
X88629930Y-118056074D01*
X88924908Y-117858976D01*
X89252669Y-117723213D01*
X89600616Y-117654002D01*
X89955384Y-117654002D01*
X90303331Y-117723213D01*
X90303331Y-117723213D01*
G37*
G36*
X171978873Y-116983410D02*
G01*
X172283885Y-117109750D01*
X172558389Y-117293168D01*
X172791836Y-117526615D01*
X172975254Y-117801119D01*
X173101594Y-118106131D01*
X173166002Y-118429930D01*
X173166002Y-118760074D01*
X173101594Y-119083873D01*
X172975254Y-119388885D01*
X172791836Y-119663389D01*
X172558389Y-119896836D01*
X172283885Y-120080254D01*
X171978873Y-120206594D01*
X171816973Y-120238798D01*
X171655075Y-120271002D01*
X171324929Y-120271002D01*
X171163031Y-120238798D01*
X171001131Y-120206594D01*
X170696119Y-120080254D01*
X170421615Y-119896836D01*
X170188168Y-119663389D01*
X170004750Y-119388885D01*
X169878410Y-119083873D01*
X169814002Y-118760074D01*
X169814002Y-118429930D01*
X169878410Y-118106131D01*
X170004750Y-117801119D01*
X170188168Y-117526615D01*
X170421615Y-117293168D01*
X170696119Y-117109750D01*
X171001131Y-116983410D01*
X171324929Y-116919002D01*
X171655075Y-116919002D01*
X171978873Y-116983410D01*
X171978873Y-116983410D01*
G37*
G36*
X122003871Y-116983410D02*
G01*
X122308883Y-117109750D01*
X122583387Y-117293168D01*
X122816834Y-117526615D01*
X123000252Y-117801119D01*
X123126592Y-118106131D01*
X123191000Y-118429930D01*
X123191000Y-118760074D01*
X123126592Y-119083873D01*
X123000252Y-119388885D01*
X122816834Y-119663389D01*
X122583387Y-119896836D01*
X122308883Y-120080254D01*
X122003871Y-120206594D01*
X121841971Y-120238798D01*
X121680073Y-120271002D01*
X121349927Y-120271002D01*
X121188029Y-120238798D01*
X121026129Y-120206594D01*
X120721117Y-120080254D01*
X120446613Y-119896836D01*
X120213166Y-119663389D01*
X120029748Y-119388885D01*
X119903408Y-119083873D01*
X119839000Y-118760074D01*
X119839000Y-118429930D01*
X119903408Y-118106131D01*
X120029748Y-117801119D01*
X120213166Y-117526615D01*
X120446613Y-117293168D01*
X120721117Y-117109750D01*
X121026129Y-116983410D01*
X121349927Y-116919002D01*
X121680073Y-116919002D01*
X122003871Y-116983410D01*
X122003871Y-116983410D01*
G37*
G36*
X163411002Y-117496002D02*
G01*
X161789002Y-117496002D01*
X161789002Y-115874002D01*
X163411002Y-115874002D01*
X163411002Y-117496002D01*
X163411002Y-117496002D01*
G37*
G36*
X113436000Y-117496002D02*
G01*
X111814000Y-117496002D01*
X111814000Y-115874002D01*
X113436000Y-115874002D01*
X113436000Y-117496002D01*
X113436000Y-117496002D01*
G37*
G36*
X165376562Y-114635168D02*
G01*
X165524155Y-114696303D01*
X165656984Y-114785057D01*
X165769947Y-114898020D01*
X165858701Y-115030849D01*
X165919836Y-115178442D01*
X165951002Y-115335125D01*
X165951002Y-115494879D01*
X165919836Y-115651562D01*
X165858701Y-115799155D01*
X165769947Y-115931984D01*
X165656984Y-116044947D01*
X165524155Y-116133701D01*
X165524154Y-116133702D01*
X165524153Y-116133702D01*
X165376562Y-116194836D01*
X165219880Y-116226002D01*
X165060124Y-116226002D01*
X164903442Y-116194836D01*
X164755851Y-116133702D01*
X164755850Y-116133702D01*
X164755849Y-116133701D01*
X164623020Y-116044947D01*
X164510057Y-115931984D01*
X164421303Y-115799155D01*
X164360168Y-115651562D01*
X164329002Y-115494879D01*
X164329002Y-115335125D01*
X164360168Y-115178442D01*
X164421303Y-115030849D01*
X164510057Y-114898020D01*
X164623020Y-114785057D01*
X164755849Y-114696303D01*
X164903442Y-114635168D01*
X165060124Y-114604002D01*
X165219880Y-114604002D01*
X165376562Y-114635168D01*
X165376562Y-114635168D01*
G37*
G36*
X115401560Y-114635168D02*
G01*
X115549153Y-114696303D01*
X115681982Y-114785057D01*
X115794945Y-114898020D01*
X115883699Y-115030849D01*
X115944834Y-115178442D01*
X115976000Y-115335125D01*
X115976000Y-115494879D01*
X115944834Y-115651562D01*
X115883699Y-115799155D01*
X115794945Y-115931984D01*
X115681982Y-116044947D01*
X115549153Y-116133701D01*
X115549152Y-116133702D01*
X115549151Y-116133702D01*
X115401560Y-116194836D01*
X115244878Y-116226002D01*
X115085122Y-116226002D01*
X114928440Y-116194836D01*
X114780849Y-116133702D01*
X114780848Y-116133702D01*
X114780847Y-116133701D01*
X114648018Y-116044947D01*
X114535055Y-115931984D01*
X114446301Y-115799155D01*
X114385166Y-115651562D01*
X114354000Y-115494879D01*
X114354000Y-115335125D01*
X114385166Y-115178442D01*
X114446301Y-115030849D01*
X114535055Y-114898020D01*
X114648018Y-114785057D01*
X114780847Y-114696303D01*
X114928440Y-114635168D01*
X115085122Y-114604002D01*
X115244878Y-114604002D01*
X115401560Y-114635168D01*
X115401560Y-114635168D01*
G37*
G36*
X142576514Y-113788929D02*
G01*
X142725814Y-113818626D01*
X142889786Y-113886546D01*
X143037356Y-113985149D01*
X143162855Y-114110648D01*
X143261458Y-114258218D01*
X143321525Y-114403231D01*
X143333070Y-114424831D01*
X143348615Y-114443773D01*
X143367557Y-114459318D01*
X143389168Y-114470869D01*
X143412617Y-114477982D01*
X143437003Y-114480384D01*
X143461389Y-114477982D01*
X143484838Y-114470869D01*
X143506449Y-114459318D01*
X143525391Y-114443773D01*
X143540936Y-114424831D01*
X143552487Y-114403220D01*
X143559600Y-114379771D01*
X143562002Y-114355385D01*
X143562002Y-113784002D01*
X145364002Y-113784002D01*
X145364002Y-115586002D01*
X143562002Y-115586002D01*
X143562002Y-115014619D01*
X143559600Y-114990233D01*
X143552487Y-114966784D01*
X143540936Y-114945173D01*
X143525391Y-114926231D01*
X143506449Y-114910686D01*
X143484838Y-114899135D01*
X143461389Y-114892022D01*
X143437003Y-114889620D01*
X143412617Y-114892022D01*
X143389168Y-114899135D01*
X143367557Y-114910686D01*
X143348615Y-114926231D01*
X143333070Y-114945173D01*
X143321525Y-114966773D01*
X143261458Y-115111786D01*
X143162855Y-115259356D01*
X143037356Y-115384855D01*
X142889786Y-115483458D01*
X142725814Y-115551378D01*
X142576514Y-115581075D01*
X142551744Y-115586002D01*
X142374260Y-115586002D01*
X142349490Y-115581075D01*
X142200190Y-115551378D01*
X142036218Y-115483458D01*
X141888648Y-115384855D01*
X141763149Y-115259356D01*
X141664546Y-115111786D01*
X141596626Y-114947814D01*
X141562002Y-114773743D01*
X141562002Y-114596261D01*
X141596626Y-114422190D01*
X141664546Y-114258218D01*
X141763149Y-114110648D01*
X141888648Y-113985149D01*
X142036218Y-113886546D01*
X142200190Y-113818626D01*
X142349490Y-113788929D01*
X142374260Y-113784002D01*
X142551744Y-113784002D01*
X142576514Y-113788929D01*
X142576514Y-113788929D01*
G37*
G36*
X92601512Y-113788929D02*
G01*
X92750812Y-113818626D01*
X92914784Y-113886546D01*
X93062354Y-113985149D01*
X93187853Y-114110648D01*
X93286456Y-114258218D01*
X93346523Y-114403231D01*
X93358068Y-114424831D01*
X93373613Y-114443773D01*
X93392555Y-114459318D01*
X93414166Y-114470869D01*
X93437615Y-114477982D01*
X93462001Y-114480384D01*
X93486387Y-114477982D01*
X93509836Y-114470869D01*
X93531447Y-114459318D01*
X93550389Y-114443773D01*
X93565934Y-114424831D01*
X93577485Y-114403220D01*
X93584598Y-114379771D01*
X93587000Y-114355385D01*
X93587000Y-113784002D01*
X95389000Y-113784002D01*
X95389000Y-115586002D01*
X93587000Y-115586002D01*
X93587000Y-115014619D01*
X93584598Y-114990233D01*
X93577485Y-114966784D01*
X93565934Y-114945173D01*
X93550389Y-114926231D01*
X93531447Y-114910686D01*
X93509836Y-114899135D01*
X93486387Y-114892022D01*
X93462001Y-114889620D01*
X93437615Y-114892022D01*
X93414166Y-114899135D01*
X93392555Y-114910686D01*
X93373613Y-114926231D01*
X93358068Y-114945173D01*
X93346523Y-114966773D01*
X93286456Y-115111786D01*
X93187853Y-115259356D01*
X93062354Y-115384855D01*
X92914784Y-115483458D01*
X92750812Y-115551378D01*
X92601512Y-115581075D01*
X92576742Y-115586002D01*
X92399258Y-115586002D01*
X92374488Y-115581075D01*
X92225188Y-115551378D01*
X92061216Y-115483458D01*
X91913646Y-115384855D01*
X91788147Y-115259356D01*
X91689544Y-115111786D01*
X91621624Y-114947814D01*
X91587000Y-114773743D01*
X91587000Y-114596261D01*
X91621624Y-114422190D01*
X91689544Y-114258218D01*
X91788147Y-114110648D01*
X91913646Y-113985149D01*
X92061216Y-113886546D01*
X92225188Y-113818626D01*
X92374488Y-113788929D01*
X92399258Y-113784002D01*
X92576742Y-113784002D01*
X92601512Y-113788929D01*
X92601512Y-113788929D01*
G37*
G36*
X162836562Y-113365168D02*
G01*
X162984155Y-113426303D01*
X163116984Y-113515057D01*
X163229947Y-113628020D01*
X163268690Y-113686002D01*
X163318702Y-113760851D01*
X163379836Y-113908442D01*
X163411002Y-114065124D01*
X163411002Y-114224880D01*
X163379836Y-114381562D01*
X163347629Y-114459318D01*
X163318701Y-114529155D01*
X163229947Y-114661984D01*
X163116984Y-114774947D01*
X162984155Y-114863701D01*
X162984154Y-114863702D01*
X162984153Y-114863702D01*
X162836562Y-114924836D01*
X162679880Y-114956002D01*
X162520124Y-114956002D01*
X162363442Y-114924836D01*
X162215851Y-114863702D01*
X162215850Y-114863702D01*
X162215849Y-114863701D01*
X162083020Y-114774947D01*
X161970057Y-114661984D01*
X161881303Y-114529155D01*
X161852376Y-114459318D01*
X161820168Y-114381562D01*
X161789002Y-114224880D01*
X161789002Y-114065124D01*
X161820168Y-113908442D01*
X161881302Y-113760851D01*
X161931315Y-113686002D01*
X161970057Y-113628020D01*
X162083020Y-113515057D01*
X162215849Y-113426303D01*
X162363442Y-113365168D01*
X162520124Y-113334002D01*
X162679880Y-113334002D01*
X162836562Y-113365168D01*
X162836562Y-113365168D01*
G37*
G36*
X112861560Y-113365168D02*
G01*
X113009153Y-113426303D01*
X113141982Y-113515057D01*
X113254945Y-113628020D01*
X113293688Y-113686002D01*
X113343700Y-113760851D01*
X113404834Y-113908442D01*
X113436000Y-114065124D01*
X113436000Y-114224880D01*
X113404834Y-114381562D01*
X113372627Y-114459318D01*
X113343699Y-114529155D01*
X113254945Y-114661984D01*
X113141982Y-114774947D01*
X113009153Y-114863701D01*
X113009152Y-114863702D01*
X113009151Y-114863702D01*
X112861560Y-114924836D01*
X112704878Y-114956002D01*
X112545122Y-114956002D01*
X112388440Y-114924836D01*
X112240849Y-114863702D01*
X112240848Y-114863702D01*
X112240847Y-114863701D01*
X112108018Y-114774947D01*
X111995055Y-114661984D01*
X111906301Y-114529155D01*
X111877374Y-114459318D01*
X111845166Y-114381562D01*
X111814000Y-114224880D01*
X111814000Y-114065124D01*
X111845166Y-113908442D01*
X111906300Y-113760851D01*
X111956313Y-113686002D01*
X111995055Y-113628020D01*
X112108018Y-113515057D01*
X112240847Y-113426303D01*
X112388440Y-113365168D01*
X112545122Y-113334002D01*
X112704878Y-113334002D01*
X112861560Y-113365168D01*
X112861560Y-113365168D01*
G37*
G36*
X115316477Y-112078244D02*
G01*
X115401560Y-112095168D01*
X115549153Y-112156303D01*
X115681982Y-112245057D01*
X115794945Y-112358020D01*
X115833688Y-112416002D01*
X115883700Y-112490851D01*
X115944834Y-112638442D01*
X115976000Y-112795124D01*
X115976000Y-112954880D01*
X115956805Y-113051378D01*
X115944834Y-113111562D01*
X115883699Y-113259155D01*
X115794945Y-113391984D01*
X115681982Y-113504947D01*
X115549153Y-113593701D01*
X115549152Y-113593702D01*
X115549151Y-113593702D01*
X115401560Y-113654836D01*
X115244878Y-113686002D01*
X115085122Y-113686002D01*
X114928440Y-113654836D01*
X114780849Y-113593702D01*
X114780848Y-113593702D01*
X114780847Y-113593701D01*
X114648018Y-113504947D01*
X114535055Y-113391984D01*
X114446301Y-113259155D01*
X114385166Y-113111562D01*
X114373195Y-113051378D01*
X114354000Y-112954880D01*
X114354000Y-112795124D01*
X114385166Y-112638442D01*
X114446300Y-112490851D01*
X114496313Y-112416002D01*
X114535055Y-112358020D01*
X114648018Y-112245057D01*
X114780847Y-112156303D01*
X114928440Y-112095168D01*
X115013523Y-112078244D01*
X115085122Y-112064002D01*
X115244878Y-112064002D01*
X115316477Y-112078244D01*
X115316477Y-112078244D01*
G37*
G36*
X165291479Y-112078244D02*
G01*
X165376562Y-112095168D01*
X165524155Y-112156303D01*
X165656984Y-112245057D01*
X165769947Y-112358020D01*
X165808690Y-112416002D01*
X165858702Y-112490851D01*
X165919836Y-112638442D01*
X165951002Y-112795124D01*
X165951002Y-112954880D01*
X165931807Y-113051378D01*
X165919836Y-113111562D01*
X165858701Y-113259155D01*
X165769947Y-113391984D01*
X165656984Y-113504947D01*
X165524155Y-113593701D01*
X165524154Y-113593702D01*
X165524153Y-113593702D01*
X165376562Y-113654836D01*
X165219880Y-113686002D01*
X165060124Y-113686002D01*
X164903442Y-113654836D01*
X164755851Y-113593702D01*
X164755850Y-113593702D01*
X164755849Y-113593701D01*
X164623020Y-113504947D01*
X164510057Y-113391984D01*
X164421303Y-113259155D01*
X164360168Y-113111562D01*
X164348197Y-113051378D01*
X164329002Y-112954880D01*
X164329002Y-112795124D01*
X164360168Y-112638442D01*
X164421302Y-112490851D01*
X164471315Y-112416002D01*
X164510057Y-112358020D01*
X164623020Y-112245057D01*
X164755849Y-112156303D01*
X164903442Y-112095168D01*
X164988525Y-112078244D01*
X165060124Y-112064002D01*
X165219880Y-112064002D01*
X165291479Y-112078244D01*
X165291479Y-112078244D01*
G37*
G36*
X92601512Y-111288929D02*
G01*
X92750812Y-111318626D01*
X92914784Y-111386546D01*
X93062354Y-111485149D01*
X93187853Y-111610648D01*
X93286456Y-111758218D01*
X93354376Y-111922190D01*
X93365405Y-111977640D01*
X93372516Y-112001080D01*
X93384067Y-112022691D01*
X93399613Y-112041633D01*
X93418555Y-112057178D01*
X93440165Y-112068729D01*
X93463614Y-112075842D01*
X93488000Y-112078244D01*
X93512387Y-112075842D01*
X93535835Y-112068729D01*
X93557446Y-112057178D01*
X93576388Y-112041632D01*
X93591933Y-112022690D01*
X93603484Y-112001080D01*
X93610595Y-111977640D01*
X93621624Y-111922190D01*
X93689544Y-111758218D01*
X93788147Y-111610648D01*
X93913646Y-111485149D01*
X94061216Y-111386546D01*
X94225188Y-111318626D01*
X94374488Y-111288929D01*
X94399258Y-111284002D01*
X94576742Y-111284002D01*
X94601512Y-111288929D01*
X94750812Y-111318626D01*
X94914784Y-111386546D01*
X95062354Y-111485149D01*
X95187853Y-111610648D01*
X95286456Y-111758218D01*
X95354376Y-111922190D01*
X95389000Y-112096261D01*
X95389000Y-112273743D01*
X95354376Y-112447814D01*
X95286456Y-112611786D01*
X95187853Y-112759356D01*
X95062354Y-112884855D01*
X94914784Y-112983458D01*
X94750812Y-113051378D01*
X94601512Y-113081075D01*
X94576742Y-113086002D01*
X94399258Y-113086002D01*
X94374488Y-113081075D01*
X94225188Y-113051378D01*
X94061216Y-112983458D01*
X93913646Y-112884855D01*
X93788147Y-112759356D01*
X93689544Y-112611786D01*
X93621624Y-112447814D01*
X93610595Y-112392364D01*
X93603484Y-112368924D01*
X93591933Y-112347313D01*
X93576387Y-112328371D01*
X93557445Y-112312826D01*
X93535835Y-112301275D01*
X93512386Y-112294162D01*
X93488000Y-112291760D01*
X93463613Y-112294162D01*
X93440165Y-112301275D01*
X93418554Y-112312826D01*
X93399612Y-112328372D01*
X93384067Y-112347314D01*
X93372516Y-112368924D01*
X93365405Y-112392364D01*
X93354376Y-112447814D01*
X93286456Y-112611786D01*
X93187853Y-112759356D01*
X93062354Y-112884855D01*
X92914784Y-112983458D01*
X92750812Y-113051378D01*
X92601512Y-113081075D01*
X92576742Y-113086002D01*
X92399258Y-113086002D01*
X92374488Y-113081075D01*
X92225188Y-113051378D01*
X92061216Y-112983458D01*
X91913646Y-112884855D01*
X91788147Y-112759356D01*
X91689544Y-112611786D01*
X91621624Y-112447814D01*
X91587000Y-112273743D01*
X91587000Y-112096261D01*
X91621624Y-111922190D01*
X91689544Y-111758218D01*
X91788147Y-111610648D01*
X91913646Y-111485149D01*
X92061216Y-111386546D01*
X92225188Y-111318626D01*
X92374488Y-111288929D01*
X92399258Y-111284002D01*
X92576742Y-111284002D01*
X92601512Y-111288929D01*
X92601512Y-111288929D01*
G37*
G36*
X142576514Y-111288929D02*
G01*
X142725814Y-111318626D01*
X142889786Y-111386546D01*
X143037356Y-111485149D01*
X143162855Y-111610648D01*
X143261458Y-111758218D01*
X143329378Y-111922190D01*
X143340407Y-111977640D01*
X143347518Y-112001080D01*
X143359069Y-112022691D01*
X143374615Y-112041633D01*
X143393557Y-112057178D01*
X143415167Y-112068729D01*
X143438616Y-112075842D01*
X143463002Y-112078244D01*
X143487389Y-112075842D01*
X143510837Y-112068729D01*
X143532448Y-112057178D01*
X143551390Y-112041632D01*
X143566935Y-112022690D01*
X143578486Y-112001080D01*
X143585597Y-111977640D01*
X143596626Y-111922190D01*
X143664546Y-111758218D01*
X143763149Y-111610648D01*
X143888648Y-111485149D01*
X144036218Y-111386546D01*
X144200190Y-111318626D01*
X144349490Y-111288929D01*
X144374260Y-111284002D01*
X144551744Y-111284002D01*
X144576514Y-111288929D01*
X144725814Y-111318626D01*
X144889786Y-111386546D01*
X145037356Y-111485149D01*
X145162855Y-111610648D01*
X145261458Y-111758218D01*
X145329378Y-111922190D01*
X145364002Y-112096261D01*
X145364002Y-112273743D01*
X145329378Y-112447814D01*
X145261458Y-112611786D01*
X145162855Y-112759356D01*
X145037356Y-112884855D01*
X144889786Y-112983458D01*
X144725814Y-113051378D01*
X144576514Y-113081075D01*
X144551744Y-113086002D01*
X144374260Y-113086002D01*
X144349490Y-113081075D01*
X144200190Y-113051378D01*
X144036218Y-112983458D01*
X143888648Y-112884855D01*
X143763149Y-112759356D01*
X143664546Y-112611786D01*
X143596626Y-112447814D01*
X143585597Y-112392364D01*
X143578486Y-112368924D01*
X143566935Y-112347313D01*
X143551389Y-112328371D01*
X143532447Y-112312826D01*
X143510837Y-112301275D01*
X143487388Y-112294162D01*
X143463002Y-112291760D01*
X143438615Y-112294162D01*
X143415167Y-112301275D01*
X143393556Y-112312826D01*
X143374614Y-112328372D01*
X143359069Y-112347314D01*
X143347518Y-112368924D01*
X143340407Y-112392364D01*
X143329378Y-112447814D01*
X143261458Y-112611786D01*
X143162855Y-112759356D01*
X143037356Y-112884855D01*
X142889786Y-112983458D01*
X142725814Y-113051378D01*
X142576514Y-113081075D01*
X142551744Y-113086002D01*
X142374260Y-113086002D01*
X142349490Y-113081075D01*
X142200190Y-113051378D01*
X142036218Y-112983458D01*
X141888648Y-112884855D01*
X141763149Y-112759356D01*
X141664546Y-112611786D01*
X141596626Y-112447814D01*
X141562002Y-112273743D01*
X141562002Y-112096261D01*
X141596626Y-111922190D01*
X141664546Y-111758218D01*
X141763149Y-111610648D01*
X141888648Y-111485149D01*
X142036218Y-111386546D01*
X142200190Y-111318626D01*
X142349490Y-111288929D01*
X142374260Y-111284002D01*
X142551744Y-111284002D01*
X142576514Y-111288929D01*
X142576514Y-111288929D01*
G37*
G36*
X162836562Y-110825168D02*
G01*
X162984155Y-110886303D01*
X163116984Y-110975057D01*
X163229947Y-111088020D01*
X163318701Y-111220849D01*
X163379836Y-111368442D01*
X163411002Y-111525125D01*
X163411002Y-111684879D01*
X163379836Y-111841562D01*
X163318701Y-111989155D01*
X163229947Y-112121984D01*
X163116984Y-112234947D01*
X162984155Y-112323701D01*
X162984154Y-112323702D01*
X162984153Y-112323702D01*
X162836562Y-112384836D01*
X162679880Y-112416002D01*
X162520124Y-112416002D01*
X162363442Y-112384836D01*
X162215851Y-112323702D01*
X162215850Y-112323702D01*
X162215849Y-112323701D01*
X162083020Y-112234947D01*
X161970057Y-112121984D01*
X161881303Y-111989155D01*
X161820168Y-111841562D01*
X161789002Y-111684879D01*
X161789002Y-111525125D01*
X161820168Y-111368442D01*
X161881303Y-111220849D01*
X161970057Y-111088020D01*
X162083020Y-110975057D01*
X162215849Y-110886303D01*
X162363442Y-110825168D01*
X162520124Y-110794002D01*
X162679880Y-110794002D01*
X162836562Y-110825168D01*
X162836562Y-110825168D01*
G37*
G36*
X112861560Y-110825168D02*
G01*
X113009153Y-110886303D01*
X113141982Y-110975057D01*
X113254945Y-111088020D01*
X113343699Y-111220849D01*
X113404834Y-111368442D01*
X113436000Y-111525125D01*
X113436000Y-111684879D01*
X113404834Y-111841562D01*
X113343699Y-111989155D01*
X113254945Y-112121984D01*
X113141982Y-112234947D01*
X113009153Y-112323701D01*
X113009152Y-112323702D01*
X113009151Y-112323702D01*
X112861560Y-112384836D01*
X112704878Y-112416002D01*
X112545122Y-112416002D01*
X112388440Y-112384836D01*
X112240849Y-112323702D01*
X112240848Y-112323702D01*
X112240847Y-112323701D01*
X112108018Y-112234947D01*
X111995055Y-112121984D01*
X111906301Y-111989155D01*
X111845166Y-111841562D01*
X111814000Y-111684879D01*
X111814000Y-111525125D01*
X111845166Y-111368442D01*
X111906301Y-111220849D01*
X111995055Y-111088020D01*
X112108018Y-110975057D01*
X112240847Y-110886303D01*
X112388440Y-110825168D01*
X112545122Y-110794002D01*
X112704878Y-110794002D01*
X112861560Y-110825168D01*
X112861560Y-110825168D01*
G37*
G36*
X115401560Y-109555168D02*
G01*
X115549153Y-109616303D01*
X115681982Y-109705057D01*
X115794945Y-109818020D01*
X115883699Y-109950849D01*
X115944834Y-110098442D01*
X115976000Y-110255125D01*
X115976000Y-110414879D01*
X115944834Y-110571562D01*
X115883699Y-110719155D01*
X115794945Y-110851984D01*
X115681982Y-110964947D01*
X115549153Y-111053701D01*
X115549152Y-111053702D01*
X115549151Y-111053702D01*
X115401560Y-111114836D01*
X115244878Y-111146002D01*
X115085122Y-111146002D01*
X114928440Y-111114836D01*
X114780849Y-111053702D01*
X114780848Y-111053702D01*
X114780847Y-111053701D01*
X114648018Y-110964947D01*
X114535055Y-110851984D01*
X114446301Y-110719155D01*
X114385166Y-110571562D01*
X114354000Y-110414879D01*
X114354000Y-110255125D01*
X114385166Y-110098442D01*
X114446301Y-109950849D01*
X114535055Y-109818020D01*
X114648018Y-109705057D01*
X114780847Y-109616303D01*
X114928440Y-109555168D01*
X115085122Y-109524002D01*
X115244878Y-109524002D01*
X115401560Y-109555168D01*
X115401560Y-109555168D01*
G37*
G36*
X165376562Y-109555168D02*
G01*
X165524155Y-109616303D01*
X165656984Y-109705057D01*
X165769947Y-109818020D01*
X165858701Y-109950849D01*
X165919836Y-110098442D01*
X165951002Y-110255125D01*
X165951002Y-110414879D01*
X165919836Y-110571562D01*
X165858701Y-110719155D01*
X165769947Y-110851984D01*
X165656984Y-110964947D01*
X165524155Y-111053701D01*
X165524154Y-111053702D01*
X165524153Y-111053702D01*
X165376562Y-111114836D01*
X165219880Y-111146002D01*
X165060124Y-111146002D01*
X164903442Y-111114836D01*
X164755851Y-111053702D01*
X164755850Y-111053702D01*
X164755849Y-111053701D01*
X164623020Y-110964947D01*
X164510057Y-110851984D01*
X164421303Y-110719155D01*
X164360168Y-110571562D01*
X164329002Y-110414879D01*
X164329002Y-110255125D01*
X164360168Y-110098442D01*
X164421303Y-109950849D01*
X164510057Y-109818020D01*
X164623020Y-109705057D01*
X164755849Y-109616303D01*
X164903442Y-109555168D01*
X165060124Y-109524002D01*
X165219880Y-109524002D01*
X165376562Y-109555168D01*
X165376562Y-109555168D01*
G37*
G36*
X171978873Y-106823410D02*
G01*
X172283885Y-106949750D01*
X172558389Y-107133168D01*
X172791836Y-107366615D01*
X172975254Y-107641119D01*
X173101594Y-107946131D01*
X173166002Y-108269930D01*
X173166002Y-108600074D01*
X173101594Y-108923873D01*
X172975254Y-109228885D01*
X172791836Y-109503389D01*
X172558389Y-109736836D01*
X172283885Y-109920254D01*
X171978873Y-110046594D01*
X171816973Y-110078798D01*
X171655075Y-110111002D01*
X171324929Y-110111002D01*
X171163031Y-110078798D01*
X171001131Y-110046594D01*
X170696119Y-109920254D01*
X170421615Y-109736836D01*
X170188168Y-109503389D01*
X170004750Y-109228885D01*
X169878410Y-108923873D01*
X169814002Y-108600074D01*
X169814002Y-108269930D01*
X169878410Y-107946131D01*
X170004750Y-107641119D01*
X170188168Y-107366615D01*
X170421615Y-107133168D01*
X170696119Y-106949750D01*
X171001131Y-106823410D01*
X171324929Y-106759002D01*
X171655075Y-106759002D01*
X171978873Y-106823410D01*
X171978873Y-106823410D01*
G37*
G36*
X122003871Y-106823410D02*
G01*
X122308883Y-106949750D01*
X122583387Y-107133168D01*
X122816834Y-107366615D01*
X123000252Y-107641119D01*
X123126592Y-107946131D01*
X123191000Y-108269930D01*
X123191000Y-108600074D01*
X123126592Y-108923873D01*
X123000252Y-109228885D01*
X122816834Y-109503389D01*
X122583387Y-109736836D01*
X122308883Y-109920254D01*
X122003871Y-110046594D01*
X121841971Y-110078798D01*
X121680073Y-110111002D01*
X121349927Y-110111002D01*
X121188029Y-110078798D01*
X121026129Y-110046594D01*
X120721117Y-109920254D01*
X120446613Y-109736836D01*
X120213166Y-109503389D01*
X120029748Y-109228885D01*
X119903408Y-108923873D01*
X119839000Y-108600074D01*
X119839000Y-108269930D01*
X119903408Y-107946131D01*
X120029748Y-107641119D01*
X120213166Y-107366615D01*
X120446613Y-107133168D01*
X120721117Y-106949750D01*
X121026129Y-106823410D01*
X121349927Y-106759002D01*
X121680073Y-106759002D01*
X122003871Y-106823410D01*
X122003871Y-106823410D01*
G37*
G36*
X140278333Y-105683213D02*
G01*
X140606094Y-105818976D01*
X140901072Y-106016074D01*
X141151930Y-106266932D01*
X141349028Y-106561910D01*
X141484791Y-106889671D01*
X141554002Y-107237618D01*
X141554002Y-107592386D01*
X141484791Y-107940333D01*
X141349028Y-108268094D01*
X141151930Y-108563072D01*
X140901072Y-108813930D01*
X140606094Y-109011028D01*
X140278333Y-109146791D01*
X139930386Y-109216002D01*
X139575618Y-109216002D01*
X139227671Y-109146791D01*
X138899910Y-109011028D01*
X138604932Y-108813930D01*
X138354074Y-108563072D01*
X138156976Y-108268094D01*
X138021213Y-107940333D01*
X137952002Y-107592386D01*
X137952002Y-107237618D01*
X138021213Y-106889671D01*
X138156976Y-106561910D01*
X138354074Y-106266932D01*
X138604932Y-106016074D01*
X138899910Y-105818976D01*
X139227671Y-105683213D01*
X139575618Y-105614002D01*
X139930386Y-105614002D01*
X140278333Y-105683213D01*
X140278333Y-105683213D01*
G37*
G36*
X90303331Y-105683213D02*
G01*
X90631092Y-105818976D01*
X90926070Y-106016074D01*
X91176928Y-106266932D01*
X91374026Y-106561910D01*
X91509789Y-106889671D01*
X91579000Y-107237618D01*
X91579000Y-107592386D01*
X91509789Y-107940333D01*
X91374026Y-108268094D01*
X91176928Y-108563072D01*
X90926070Y-108813930D01*
X90631092Y-109011028D01*
X90303331Y-109146791D01*
X89955384Y-109216002D01*
X89600616Y-109216002D01*
X89252669Y-109146791D01*
X88924908Y-109011028D01*
X88629930Y-108813930D01*
X88379072Y-108563072D01*
X88181974Y-108268094D01*
X88046211Y-107940333D01*
X87977000Y-107592386D01*
X87977000Y-107237618D01*
X88046211Y-106889671D01*
X88181974Y-106561910D01*
X88379072Y-106266932D01*
X88629930Y-106016074D01*
X88924908Y-105818976D01*
X89252669Y-105683213D01*
X89600616Y-105614002D01*
X89955384Y-105614002D01*
X90303331Y-105683213D01*
X90303331Y-105683213D01*
G37*
G36*
X134492009Y-99513584D02*
G01*
X134892565Y-99679500D01*
X134892567Y-99679501D01*
X135253058Y-99920373D01*
X135559631Y-100226946D01*
X135800503Y-100587437D01*
X135800504Y-100587439D01*
X135966420Y-100987995D01*
X136051002Y-101413221D01*
X136051002Y-101846783D01*
X135966420Y-102272009D01*
X135800504Y-102672565D01*
X135800503Y-102672567D01*
X135559631Y-103033058D01*
X135253058Y-103339631D01*
X134892567Y-103580503D01*
X134892566Y-103580504D01*
X134892565Y-103580504D01*
X134492009Y-103746420D01*
X134066783Y-103831002D01*
X133633221Y-103831002D01*
X133207995Y-103746420D01*
X132807439Y-103580504D01*
X132807438Y-103580504D01*
X132807437Y-103580503D01*
X132446946Y-103339631D01*
X132140373Y-103033058D01*
X131899501Y-102672567D01*
X131899500Y-102672565D01*
X131733584Y-102272009D01*
X131649002Y-101846783D01*
X131649002Y-101413221D01*
X131733584Y-100987995D01*
X131899500Y-100587439D01*
X131899501Y-100587437D01*
X132140373Y-100226946D01*
X132446946Y-99920373D01*
X132807437Y-99679501D01*
X132807439Y-99679500D01*
X133207995Y-99513584D01*
X133633221Y-99429002D01*
X134066783Y-99429002D01*
X134492009Y-99513584D01*
X134492009Y-99513584D01*
G37*
G36*
X84517007Y-99513584D02*
G01*
X84917563Y-99679500D01*
X84917565Y-99679501D01*
X85278056Y-99920373D01*
X85584629Y-100226946D01*
X85825501Y-100587437D01*
X85825502Y-100587439D01*
X85991418Y-100987995D01*
X86076000Y-101413221D01*
X86076000Y-101846783D01*
X85991418Y-102272009D01*
X85825502Y-102672565D01*
X85825501Y-102672567D01*
X85584629Y-103033058D01*
X85278056Y-103339631D01*
X84917565Y-103580503D01*
X84917564Y-103580504D01*
X84917563Y-103580504D01*
X84517007Y-103746420D01*
X84091781Y-103831002D01*
X83658219Y-103831002D01*
X83232993Y-103746420D01*
X82832437Y-103580504D01*
X82832436Y-103580504D01*
X82832435Y-103580503D01*
X82471944Y-103339631D01*
X82165371Y-103033058D01*
X81924499Y-102672567D01*
X81924498Y-102672565D01*
X81758582Y-102272009D01*
X81674000Y-101846783D01*
X81674000Y-101413221D01*
X81758582Y-100987995D01*
X81924498Y-100587439D01*
X81924499Y-100587437D01*
X82165371Y-100226946D01*
X82471944Y-99920373D01*
X82832435Y-99679501D01*
X82832437Y-99679500D01*
X83232993Y-99513584D01*
X83658219Y-99429002D01*
X84091781Y-99429002D01*
X84517007Y-99513584D01*
X84517007Y-99513584D01*
G37*
G36*
X175492009Y-99513584D02*
G01*
X175892565Y-99679500D01*
X175892567Y-99679501D01*
X176253058Y-99920373D01*
X176559631Y-100226946D01*
X176800503Y-100587437D01*
X176800504Y-100587439D01*
X176966420Y-100987995D01*
X177051002Y-101413221D01*
X177051002Y-101846783D01*
X176966420Y-102272009D01*
X176800504Y-102672565D01*
X176800503Y-102672567D01*
X176559631Y-103033058D01*
X176253058Y-103339631D01*
X175892567Y-103580503D01*
X175892566Y-103580504D01*
X175892565Y-103580504D01*
X175492009Y-103746420D01*
X175066783Y-103831002D01*
X174633221Y-103831002D01*
X174207995Y-103746420D01*
X173807439Y-103580504D01*
X173807438Y-103580504D01*
X173807437Y-103580503D01*
X173446946Y-103339631D01*
X173140373Y-103033058D01*
X172899501Y-102672567D01*
X172899500Y-102672565D01*
X172733584Y-102272009D01*
X172649002Y-101846783D01*
X172649002Y-101413221D01*
X172733584Y-100987995D01*
X172899500Y-100587439D01*
X172899501Y-100587437D01*
X173140373Y-100226946D01*
X173446946Y-99920373D01*
X173807437Y-99679501D01*
X173807439Y-99679500D01*
X174207995Y-99513584D01*
X174633221Y-99429002D01*
X175066783Y-99429002D01*
X175492009Y-99513584D01*
X175492009Y-99513584D01*
G37*
G36*
X125517007Y-99513584D02*
G01*
X125917563Y-99679500D01*
X125917565Y-99679501D01*
X126278056Y-99920373D01*
X126584629Y-100226946D01*
X126825501Y-100587437D01*
X126825502Y-100587439D01*
X126991418Y-100987995D01*
X127076000Y-101413221D01*
X127076000Y-101846783D01*
X126991418Y-102272009D01*
X126825502Y-102672565D01*
X126825501Y-102672567D01*
X126584629Y-103033058D01*
X126278056Y-103339631D01*
X125917565Y-103580503D01*
X125917564Y-103580504D01*
X125917563Y-103580504D01*
X125517007Y-103746420D01*
X125091781Y-103831002D01*
X124658219Y-103831002D01*
X124232993Y-103746420D01*
X123832437Y-103580504D01*
X123832436Y-103580504D01*
X123832435Y-103580503D01*
X123471944Y-103339631D01*
X123165371Y-103033058D01*
X122924499Y-102672567D01*
X122924498Y-102672565D01*
X122758582Y-102272009D01*
X122674000Y-101846783D01*
X122674000Y-101413221D01*
X122758582Y-100987995D01*
X122924498Y-100587439D01*
X122924499Y-100587437D01*
X123165371Y-100226946D01*
X123471944Y-99920373D01*
X123832435Y-99679501D01*
X123832437Y-99679500D01*
X124232993Y-99513584D01*
X124658219Y-99429002D01*
X125091781Y-99429002D01*
X125517007Y-99513584D01*
X125517007Y-99513584D01*
G37*
G36*
X134492009Y-90518582D02*
G01*
X134892565Y-90684498D01*
X134892567Y-90684499D01*
X135253058Y-90925371D01*
X135559631Y-91231944D01*
X135800503Y-91592435D01*
X135800504Y-91592437D01*
X135966420Y-91992993D01*
X136051002Y-92418219D01*
X136051002Y-92851781D01*
X135966420Y-93277007D01*
X135800504Y-93677563D01*
X135800503Y-93677565D01*
X135559631Y-94038056D01*
X135253058Y-94344629D01*
X134892567Y-94585501D01*
X134892566Y-94585502D01*
X134892565Y-94585502D01*
X134492009Y-94751418D01*
X134066783Y-94836000D01*
X133633221Y-94836000D01*
X133207995Y-94751418D01*
X132807439Y-94585502D01*
X132807438Y-94585502D01*
X132807437Y-94585501D01*
X132446946Y-94344629D01*
X132140373Y-94038056D01*
X131899501Y-93677565D01*
X131899500Y-93677563D01*
X131733584Y-93277007D01*
X131649002Y-92851781D01*
X131649002Y-92418219D01*
X131733584Y-91992993D01*
X131899500Y-91592437D01*
X131899501Y-91592435D01*
X132140373Y-91231944D01*
X132446946Y-90925371D01*
X132807437Y-90684499D01*
X132807439Y-90684498D01*
X133207995Y-90518582D01*
X133633221Y-90434000D01*
X134066783Y-90434000D01*
X134492009Y-90518582D01*
X134492009Y-90518582D01*
G37*
G36*
X84517007Y-90518582D02*
G01*
X84917563Y-90684498D01*
X84917565Y-90684499D01*
X85278056Y-90925371D01*
X85584629Y-91231944D01*
X85825501Y-91592435D01*
X85825502Y-91592437D01*
X85991418Y-91992993D01*
X86076000Y-92418219D01*
X86076000Y-92851781D01*
X85991418Y-93277007D01*
X85825502Y-93677563D01*
X85825501Y-93677565D01*
X85584629Y-94038056D01*
X85278056Y-94344629D01*
X84917565Y-94585501D01*
X84917564Y-94585502D01*
X84917563Y-94585502D01*
X84517007Y-94751418D01*
X84091781Y-94836000D01*
X83658219Y-94836000D01*
X83232993Y-94751418D01*
X82832437Y-94585502D01*
X82832436Y-94585502D01*
X82832435Y-94585501D01*
X82471944Y-94344629D01*
X82165371Y-94038056D01*
X81924499Y-93677565D01*
X81924498Y-93677563D01*
X81758582Y-93277007D01*
X81674000Y-92851781D01*
X81674000Y-92418219D01*
X81758582Y-91992993D01*
X81924498Y-91592437D01*
X81924499Y-91592435D01*
X82165371Y-91231944D01*
X82471944Y-90925371D01*
X82832435Y-90684499D01*
X82832437Y-90684498D01*
X83232993Y-90518582D01*
X83658219Y-90434000D01*
X84091781Y-90434000D01*
X84517007Y-90518582D01*
X84517007Y-90518582D01*
G37*
G36*
X125517007Y-90268582D02*
G01*
X125917563Y-90434498D01*
X125917565Y-90434499D01*
X126278056Y-90675371D01*
X126584629Y-90981944D01*
X126751673Y-91231944D01*
X126825502Y-91342437D01*
X126991418Y-91742993D01*
X127076000Y-92168219D01*
X127076000Y-92601781D01*
X126991418Y-93027007D01*
X126887864Y-93277007D01*
X126825501Y-93427565D01*
X126584629Y-93788056D01*
X126278056Y-94094629D01*
X125917565Y-94335501D01*
X125917564Y-94335502D01*
X125917563Y-94335502D01*
X125517007Y-94501418D01*
X125091781Y-94586000D01*
X124658219Y-94586000D01*
X124232993Y-94501418D01*
X123832437Y-94335502D01*
X123832436Y-94335502D01*
X123832435Y-94335501D01*
X123471944Y-94094629D01*
X123165371Y-93788056D01*
X122924499Y-93427565D01*
X122862136Y-93277007D01*
X122758582Y-93027007D01*
X122674000Y-92601781D01*
X122674000Y-92168219D01*
X122758582Y-91742993D01*
X122924498Y-91342437D01*
X122998327Y-91231944D01*
X123165371Y-90981944D01*
X123471944Y-90675371D01*
X123832435Y-90434499D01*
X123832437Y-90434498D01*
X124232993Y-90268582D01*
X124658219Y-90184000D01*
X125091781Y-90184000D01*
X125517007Y-90268582D01*
X125517007Y-90268582D01*
G37*
G36*
X175492009Y-90268582D02*
G01*
X175892565Y-90434498D01*
X175892567Y-90434499D01*
X176253058Y-90675371D01*
X176559631Y-90981944D01*
X176726675Y-91231944D01*
X176800504Y-91342437D01*
X176966420Y-91742993D01*
X177051002Y-92168219D01*
X177051002Y-92601781D01*
X176966420Y-93027007D01*
X176862866Y-93277007D01*
X176800503Y-93427565D01*
X176559631Y-93788056D01*
X176253058Y-94094629D01*
X175892567Y-94335501D01*
X175892566Y-94335502D01*
X175892565Y-94335502D01*
X175492009Y-94501418D01*
X175066783Y-94586000D01*
X174633221Y-94586000D01*
X174207995Y-94501418D01*
X173807439Y-94335502D01*
X173807438Y-94335502D01*
X173807437Y-94335501D01*
X173446946Y-94094629D01*
X173140373Y-93788056D01*
X172899501Y-93427565D01*
X172837138Y-93277007D01*
X172733584Y-93027007D01*
X172649002Y-92601781D01*
X172649002Y-92168219D01*
X172733584Y-91742993D01*
X172899500Y-91342437D01*
X172973329Y-91231944D01*
X173140373Y-90981944D01*
X173446946Y-90675371D01*
X173807437Y-90434499D01*
X173807439Y-90434498D01*
X174207995Y-90268582D01*
X174633221Y-90184000D01*
X175066783Y-90184000D01*
X175492009Y-90268582D01*
X175492009Y-90268582D01*
G37*
G36*
X140278333Y-84673211D02*
G01*
X140606094Y-84808974D01*
X140901072Y-85006072D01*
X141151930Y-85256930D01*
X141349028Y-85551908D01*
X141484791Y-85879669D01*
X141554002Y-86227616D01*
X141554002Y-86582384D01*
X141484791Y-86930331D01*
X141349028Y-87258092D01*
X141151930Y-87553070D01*
X140901072Y-87803928D01*
X140606094Y-88001026D01*
X140278333Y-88136789D01*
X139930386Y-88206000D01*
X139575618Y-88206000D01*
X139227671Y-88136789D01*
X138899910Y-88001026D01*
X138604932Y-87803928D01*
X138354074Y-87553070D01*
X138156976Y-87258092D01*
X138021213Y-86930331D01*
X137952002Y-86582384D01*
X137952002Y-86227616D01*
X138021213Y-85879669D01*
X138156976Y-85551908D01*
X138354074Y-85256930D01*
X138604932Y-85006072D01*
X138899910Y-84808974D01*
X139227671Y-84673211D01*
X139575618Y-84604000D01*
X139930386Y-84604000D01*
X140278333Y-84673211D01*
X140278333Y-84673211D01*
G37*
G36*
X90303331Y-84673211D02*
G01*
X90631092Y-84808974D01*
X90926070Y-85006072D01*
X91176928Y-85256930D01*
X91374026Y-85551908D01*
X91509789Y-85879669D01*
X91579000Y-86227616D01*
X91579000Y-86582384D01*
X91509789Y-86930331D01*
X91374026Y-87258092D01*
X91176928Y-87553070D01*
X90926070Y-87803928D01*
X90631092Y-88001026D01*
X90303331Y-88136789D01*
X89955384Y-88206000D01*
X89600616Y-88206000D01*
X89252669Y-88136789D01*
X88924908Y-88001026D01*
X88629930Y-87803928D01*
X88379072Y-87553070D01*
X88181974Y-87258092D01*
X88046211Y-86930331D01*
X87977000Y-86582384D01*
X87977000Y-86227616D01*
X88046211Y-85879669D01*
X88181974Y-85551908D01*
X88379072Y-85256930D01*
X88629930Y-85006072D01*
X88924908Y-84808974D01*
X89252669Y-84673211D01*
X89600616Y-84604000D01*
X89955384Y-84604000D01*
X90303331Y-84673211D01*
X90303331Y-84673211D01*
G37*
G36*
X171816973Y-83901204D02*
G01*
X171978873Y-83933408D01*
X172283885Y-84059748D01*
X172558389Y-84243166D01*
X172791836Y-84476613D01*
X172975254Y-84751117D01*
X173101594Y-85056129D01*
X173166002Y-85379928D01*
X173166002Y-85710072D01*
X173101594Y-86033871D01*
X172975254Y-86338883D01*
X172791836Y-86613387D01*
X172558389Y-86846834D01*
X172283885Y-87030252D01*
X171978873Y-87156592D01*
X171816973Y-87188796D01*
X171655075Y-87221000D01*
X171324929Y-87221000D01*
X171001131Y-87156592D01*
X170696119Y-87030252D01*
X170421615Y-86846834D01*
X170188168Y-86613387D01*
X170004750Y-86338883D01*
X169878410Y-86033871D01*
X169814002Y-85710072D01*
X169814002Y-85379928D01*
X169878410Y-85056129D01*
X170004750Y-84751117D01*
X170188168Y-84476613D01*
X170421615Y-84243166D01*
X170696119Y-84059748D01*
X171001131Y-83933408D01*
X171163031Y-83901204D01*
X171324929Y-83869000D01*
X171655075Y-83869000D01*
X171816973Y-83901204D01*
X171816973Y-83901204D01*
G37*
G36*
X121841971Y-83901204D02*
G01*
X122003871Y-83933408D01*
X122308883Y-84059748D01*
X122583387Y-84243166D01*
X122816834Y-84476613D01*
X123000252Y-84751117D01*
X123126592Y-85056129D01*
X123191000Y-85379928D01*
X123191000Y-85710072D01*
X123126592Y-86033871D01*
X123000252Y-86338883D01*
X122816834Y-86613387D01*
X122583387Y-86846834D01*
X122308883Y-87030252D01*
X122003871Y-87156592D01*
X121841971Y-87188796D01*
X121680073Y-87221000D01*
X121349927Y-87221000D01*
X121026129Y-87156592D01*
X120721117Y-87030252D01*
X120446613Y-86846834D01*
X120213166Y-86613387D01*
X120029748Y-86338883D01*
X119903408Y-86033871D01*
X119839000Y-85710072D01*
X119839000Y-85379928D01*
X119903408Y-85056129D01*
X120029748Y-84751117D01*
X120213166Y-84476613D01*
X120446613Y-84243166D01*
X120721117Y-84059748D01*
X121026129Y-83933408D01*
X121188029Y-83901204D01*
X121349927Y-83869000D01*
X121680073Y-83869000D01*
X121841971Y-83901204D01*
X121841971Y-83901204D01*
G37*
G36*
X113436000Y-84446000D02*
G01*
X111814000Y-84446000D01*
X111814000Y-82824000D01*
X113436000Y-82824000D01*
X113436000Y-84446000D01*
X113436000Y-84446000D01*
G37*
G36*
X163411002Y-84446000D02*
G01*
X161789002Y-84446000D01*
X161789002Y-82824000D01*
X163411002Y-82824000D01*
X163411002Y-84446000D01*
X163411002Y-84446000D01*
G37*
G36*
X115401560Y-81585166D02*
G01*
X115549153Y-81646301D01*
X115681982Y-81735055D01*
X115794945Y-81848018D01*
X115883699Y-81980847D01*
X115944834Y-82128440D01*
X115976000Y-82285123D01*
X115976000Y-82444877D01*
X115944834Y-82601560D01*
X115883699Y-82749153D01*
X115794945Y-82881982D01*
X115681982Y-82994945D01*
X115549153Y-83083699D01*
X115549152Y-83083700D01*
X115549151Y-83083700D01*
X115401560Y-83144834D01*
X115244878Y-83176000D01*
X115085122Y-83176000D01*
X114928440Y-83144834D01*
X114780849Y-83083700D01*
X114780848Y-83083700D01*
X114780847Y-83083699D01*
X114648018Y-82994945D01*
X114535055Y-82881982D01*
X114446301Y-82749153D01*
X114385166Y-82601560D01*
X114354000Y-82444877D01*
X114354000Y-82285123D01*
X114385166Y-82128440D01*
X114446301Y-81980847D01*
X114535055Y-81848018D01*
X114648018Y-81735055D01*
X114780847Y-81646301D01*
X114928440Y-81585166D01*
X115085122Y-81554000D01*
X115244878Y-81554000D01*
X115401560Y-81585166D01*
X115401560Y-81585166D01*
G37*
G36*
X165376562Y-81585166D02*
G01*
X165524155Y-81646301D01*
X165656984Y-81735055D01*
X165769947Y-81848018D01*
X165858701Y-81980847D01*
X165919836Y-82128440D01*
X165951002Y-82285123D01*
X165951002Y-82444877D01*
X165919836Y-82601560D01*
X165858701Y-82749153D01*
X165769947Y-82881982D01*
X165656984Y-82994945D01*
X165524155Y-83083699D01*
X165524154Y-83083700D01*
X165524153Y-83083700D01*
X165376562Y-83144834D01*
X165219880Y-83176000D01*
X165060124Y-83176000D01*
X164903442Y-83144834D01*
X164755851Y-83083700D01*
X164755850Y-83083700D01*
X164755849Y-83083699D01*
X164623020Y-82994945D01*
X164510057Y-82881982D01*
X164421303Y-82749153D01*
X164360168Y-82601560D01*
X164329002Y-82444877D01*
X164329002Y-82285123D01*
X164360168Y-82128440D01*
X164421303Y-81980847D01*
X164510057Y-81848018D01*
X164623020Y-81735055D01*
X164755849Y-81646301D01*
X164903442Y-81585166D01*
X165060124Y-81554000D01*
X165219880Y-81554000D01*
X165376562Y-81585166D01*
X165376562Y-81585166D01*
G37*
G36*
X142576514Y-80738927D02*
G01*
X142725814Y-80768624D01*
X142889786Y-80836544D01*
X143037356Y-80935147D01*
X143162855Y-81060646D01*
X143261458Y-81208216D01*
X143321525Y-81353229D01*
X143333070Y-81374829D01*
X143348615Y-81393771D01*
X143367557Y-81409316D01*
X143389168Y-81420867D01*
X143412617Y-81427980D01*
X143437003Y-81430382D01*
X143461389Y-81427980D01*
X143484838Y-81420867D01*
X143506449Y-81409316D01*
X143525391Y-81393771D01*
X143540936Y-81374829D01*
X143552487Y-81353218D01*
X143559600Y-81329769D01*
X143562002Y-81305383D01*
X143562002Y-80734000D01*
X145364002Y-80734000D01*
X145364002Y-82536000D01*
X143562002Y-82536000D01*
X143562002Y-81964617D01*
X143559600Y-81940231D01*
X143552487Y-81916782D01*
X143540936Y-81895171D01*
X143525391Y-81876229D01*
X143506449Y-81860684D01*
X143484838Y-81849133D01*
X143461389Y-81842020D01*
X143437003Y-81839618D01*
X143412617Y-81842020D01*
X143389168Y-81849133D01*
X143367557Y-81860684D01*
X143348615Y-81876229D01*
X143333070Y-81895171D01*
X143321525Y-81916771D01*
X143261458Y-82061784D01*
X143162855Y-82209354D01*
X143037356Y-82334853D01*
X142889786Y-82433456D01*
X142725814Y-82501376D01*
X142576514Y-82531073D01*
X142551744Y-82536000D01*
X142374260Y-82536000D01*
X142349490Y-82531073D01*
X142200190Y-82501376D01*
X142036218Y-82433456D01*
X141888648Y-82334853D01*
X141763149Y-82209354D01*
X141664546Y-82061784D01*
X141596626Y-81897812D01*
X141562002Y-81723741D01*
X141562002Y-81546259D01*
X141596626Y-81372188D01*
X141664546Y-81208216D01*
X141763149Y-81060646D01*
X141888648Y-80935147D01*
X142036218Y-80836544D01*
X142200190Y-80768624D01*
X142349490Y-80738927D01*
X142374260Y-80734000D01*
X142551744Y-80734000D01*
X142576514Y-80738927D01*
X142576514Y-80738927D01*
G37*
G36*
X92601512Y-80738927D02*
G01*
X92750812Y-80768624D01*
X92914784Y-80836544D01*
X93062354Y-80935147D01*
X93187853Y-81060646D01*
X93286456Y-81208216D01*
X93346523Y-81353229D01*
X93358068Y-81374829D01*
X93373613Y-81393771D01*
X93392555Y-81409316D01*
X93414166Y-81420867D01*
X93437615Y-81427980D01*
X93462001Y-81430382D01*
X93486387Y-81427980D01*
X93509836Y-81420867D01*
X93531447Y-81409316D01*
X93550389Y-81393771D01*
X93565934Y-81374829D01*
X93577485Y-81353218D01*
X93584598Y-81329769D01*
X93587000Y-81305383D01*
X93587000Y-80734000D01*
X95389000Y-80734000D01*
X95389000Y-82536000D01*
X93587000Y-82536000D01*
X93587000Y-81964617D01*
X93584598Y-81940231D01*
X93577485Y-81916782D01*
X93565934Y-81895171D01*
X93550389Y-81876229D01*
X93531447Y-81860684D01*
X93509836Y-81849133D01*
X93486387Y-81842020D01*
X93462001Y-81839618D01*
X93437615Y-81842020D01*
X93414166Y-81849133D01*
X93392555Y-81860684D01*
X93373613Y-81876229D01*
X93358068Y-81895171D01*
X93346523Y-81916771D01*
X93286456Y-82061784D01*
X93187853Y-82209354D01*
X93062354Y-82334853D01*
X92914784Y-82433456D01*
X92750812Y-82501376D01*
X92601512Y-82531073D01*
X92576742Y-82536000D01*
X92399258Y-82536000D01*
X92374488Y-82531073D01*
X92225188Y-82501376D01*
X92061216Y-82433456D01*
X91913646Y-82334853D01*
X91788147Y-82209354D01*
X91689544Y-82061784D01*
X91621624Y-81897812D01*
X91587000Y-81723741D01*
X91587000Y-81546259D01*
X91621624Y-81372188D01*
X91689544Y-81208216D01*
X91788147Y-81060646D01*
X91913646Y-80935147D01*
X92061216Y-80836544D01*
X92225188Y-80768624D01*
X92374488Y-80738927D01*
X92399258Y-80734000D01*
X92576742Y-80734000D01*
X92601512Y-80738927D01*
X92601512Y-80738927D01*
G37*
G36*
X162836562Y-80315166D02*
G01*
X162984155Y-80376301D01*
X163116984Y-80465055D01*
X163229947Y-80578018D01*
X163268690Y-80636000D01*
X163318702Y-80710849D01*
X163379836Y-80858440D01*
X163411002Y-81015122D01*
X163411002Y-81174878D01*
X163379836Y-81331560D01*
X163347629Y-81409316D01*
X163318701Y-81479153D01*
X163229947Y-81611982D01*
X163116984Y-81724945D01*
X162984155Y-81813699D01*
X162984154Y-81813700D01*
X162984153Y-81813700D01*
X162836562Y-81874834D01*
X162679880Y-81906000D01*
X162520124Y-81906000D01*
X162363442Y-81874834D01*
X162215851Y-81813700D01*
X162215850Y-81813700D01*
X162215849Y-81813699D01*
X162083020Y-81724945D01*
X161970057Y-81611982D01*
X161881303Y-81479153D01*
X161852376Y-81409316D01*
X161820168Y-81331560D01*
X161789002Y-81174878D01*
X161789002Y-81015122D01*
X161820168Y-80858440D01*
X161881302Y-80710849D01*
X161931315Y-80636000D01*
X161970057Y-80578018D01*
X162083020Y-80465055D01*
X162215849Y-80376301D01*
X162363442Y-80315166D01*
X162520124Y-80284000D01*
X162679880Y-80284000D01*
X162836562Y-80315166D01*
X162836562Y-80315166D01*
G37*
G36*
X112861560Y-80315166D02*
G01*
X113009153Y-80376301D01*
X113141982Y-80465055D01*
X113254945Y-80578018D01*
X113293688Y-80636000D01*
X113343700Y-80710849D01*
X113404834Y-80858440D01*
X113436000Y-81015122D01*
X113436000Y-81174878D01*
X113404834Y-81331560D01*
X113372627Y-81409316D01*
X113343699Y-81479153D01*
X113254945Y-81611982D01*
X113141982Y-81724945D01*
X113009153Y-81813699D01*
X113009152Y-81813700D01*
X113009151Y-81813700D01*
X112861560Y-81874834D01*
X112704878Y-81906000D01*
X112545122Y-81906000D01*
X112388440Y-81874834D01*
X112240849Y-81813700D01*
X112240848Y-81813700D01*
X112240847Y-81813699D01*
X112108018Y-81724945D01*
X111995055Y-81611982D01*
X111906301Y-81479153D01*
X111877374Y-81409316D01*
X111845166Y-81331560D01*
X111814000Y-81174878D01*
X111814000Y-81015122D01*
X111845166Y-80858440D01*
X111906300Y-80710849D01*
X111956313Y-80636000D01*
X111995055Y-80578018D01*
X112108018Y-80465055D01*
X112240847Y-80376301D01*
X112388440Y-80315166D01*
X112545122Y-80284000D01*
X112704878Y-80284000D01*
X112861560Y-80315166D01*
X112861560Y-80315166D01*
G37*
G36*
X165291479Y-79028242D02*
G01*
X165376562Y-79045166D01*
X165524155Y-79106301D01*
X165656984Y-79195055D01*
X165769947Y-79308018D01*
X165808690Y-79366000D01*
X165858702Y-79440849D01*
X165919836Y-79588440D01*
X165951002Y-79745122D01*
X165951002Y-79904878D01*
X165931807Y-80001376D01*
X165919836Y-80061560D01*
X165858701Y-80209153D01*
X165769947Y-80341982D01*
X165656984Y-80454945D01*
X165524155Y-80543699D01*
X165524154Y-80543700D01*
X165524153Y-80543700D01*
X165376562Y-80604834D01*
X165219880Y-80636000D01*
X165060124Y-80636000D01*
X164903442Y-80604834D01*
X164755851Y-80543700D01*
X164755850Y-80543700D01*
X164755849Y-80543699D01*
X164623020Y-80454945D01*
X164510057Y-80341982D01*
X164421303Y-80209153D01*
X164360168Y-80061560D01*
X164348197Y-80001376D01*
X164329002Y-79904878D01*
X164329002Y-79745122D01*
X164360168Y-79588440D01*
X164421302Y-79440849D01*
X164471315Y-79366000D01*
X164510057Y-79308018D01*
X164623020Y-79195055D01*
X164755849Y-79106301D01*
X164903442Y-79045166D01*
X164988525Y-79028242D01*
X165060124Y-79014000D01*
X165219880Y-79014000D01*
X165291479Y-79028242D01*
X165291479Y-79028242D01*
G37*
G36*
X115316477Y-79028242D02*
G01*
X115401560Y-79045166D01*
X115549153Y-79106301D01*
X115681982Y-79195055D01*
X115794945Y-79308018D01*
X115833688Y-79366000D01*
X115883700Y-79440849D01*
X115944834Y-79588440D01*
X115976000Y-79745122D01*
X115976000Y-79904878D01*
X115956805Y-80001376D01*
X115944834Y-80061560D01*
X115883699Y-80209153D01*
X115794945Y-80341982D01*
X115681982Y-80454945D01*
X115549153Y-80543699D01*
X115549152Y-80543700D01*
X115549151Y-80543700D01*
X115401560Y-80604834D01*
X115244878Y-80636000D01*
X115085122Y-80636000D01*
X114928440Y-80604834D01*
X114780849Y-80543700D01*
X114780848Y-80543700D01*
X114780847Y-80543699D01*
X114648018Y-80454945D01*
X114535055Y-80341982D01*
X114446301Y-80209153D01*
X114385166Y-80061560D01*
X114373195Y-80001376D01*
X114354000Y-79904878D01*
X114354000Y-79745122D01*
X114385166Y-79588440D01*
X114446300Y-79440849D01*
X114496313Y-79366000D01*
X114535055Y-79308018D01*
X114648018Y-79195055D01*
X114780847Y-79106301D01*
X114928440Y-79045166D01*
X115013523Y-79028242D01*
X115085122Y-79014000D01*
X115244878Y-79014000D01*
X115316477Y-79028242D01*
X115316477Y-79028242D01*
G37*
G36*
X92601512Y-78238927D02*
G01*
X92750812Y-78268624D01*
X92914784Y-78336544D01*
X93062354Y-78435147D01*
X93187853Y-78560646D01*
X93286456Y-78708216D01*
X93354376Y-78872188D01*
X93365405Y-78927638D01*
X93372516Y-78951078D01*
X93384067Y-78972689D01*
X93399613Y-78991631D01*
X93418555Y-79007176D01*
X93440165Y-79018727D01*
X93463614Y-79025840D01*
X93488000Y-79028242D01*
X93512387Y-79025840D01*
X93535835Y-79018727D01*
X93557446Y-79007176D01*
X93576388Y-78991630D01*
X93591933Y-78972688D01*
X93603484Y-78951078D01*
X93610595Y-78927638D01*
X93621624Y-78872188D01*
X93689544Y-78708216D01*
X93788147Y-78560646D01*
X93913646Y-78435147D01*
X94061216Y-78336544D01*
X94225188Y-78268624D01*
X94374488Y-78238927D01*
X94399258Y-78234000D01*
X94576742Y-78234000D01*
X94601512Y-78238927D01*
X94750812Y-78268624D01*
X94914784Y-78336544D01*
X95062354Y-78435147D01*
X95187853Y-78560646D01*
X95286456Y-78708216D01*
X95354376Y-78872188D01*
X95389000Y-79046259D01*
X95389000Y-79223741D01*
X95354376Y-79397812D01*
X95286456Y-79561784D01*
X95187853Y-79709354D01*
X95062354Y-79834853D01*
X94914784Y-79933456D01*
X94750812Y-80001376D01*
X94601512Y-80031073D01*
X94576742Y-80036000D01*
X94399258Y-80036000D01*
X94374488Y-80031073D01*
X94225188Y-80001376D01*
X94061216Y-79933456D01*
X93913646Y-79834853D01*
X93788147Y-79709354D01*
X93689544Y-79561784D01*
X93621624Y-79397812D01*
X93610595Y-79342362D01*
X93603484Y-79318922D01*
X93591933Y-79297311D01*
X93576387Y-79278369D01*
X93557445Y-79262824D01*
X93535835Y-79251273D01*
X93512386Y-79244160D01*
X93488000Y-79241758D01*
X93463613Y-79244160D01*
X93440165Y-79251273D01*
X93418554Y-79262824D01*
X93399612Y-79278370D01*
X93384067Y-79297312D01*
X93372516Y-79318922D01*
X93365405Y-79342362D01*
X93354376Y-79397812D01*
X93286456Y-79561784D01*
X93187853Y-79709354D01*
X93062354Y-79834853D01*
X92914784Y-79933456D01*
X92750812Y-80001376D01*
X92601512Y-80031073D01*
X92576742Y-80036000D01*
X92399258Y-80036000D01*
X92374488Y-80031073D01*
X92225188Y-80001376D01*
X92061216Y-79933456D01*
X91913646Y-79834853D01*
X91788147Y-79709354D01*
X91689544Y-79561784D01*
X91621624Y-79397812D01*
X91587000Y-79223741D01*
X91587000Y-79046259D01*
X91621624Y-78872188D01*
X91689544Y-78708216D01*
X91788147Y-78560646D01*
X91913646Y-78435147D01*
X92061216Y-78336544D01*
X92225188Y-78268624D01*
X92374488Y-78238927D01*
X92399258Y-78234000D01*
X92576742Y-78234000D01*
X92601512Y-78238927D01*
X92601512Y-78238927D01*
G37*
G36*
X142576514Y-78238927D02*
G01*
X142725814Y-78268624D01*
X142889786Y-78336544D01*
X143037356Y-78435147D01*
X143162855Y-78560646D01*
X143261458Y-78708216D01*
X143329378Y-78872188D01*
X143340407Y-78927638D01*
X143347518Y-78951078D01*
X143359069Y-78972689D01*
X143374615Y-78991631D01*
X143393557Y-79007176D01*
X143415167Y-79018727D01*
X143438616Y-79025840D01*
X143463002Y-79028242D01*
X143487389Y-79025840D01*
X143510837Y-79018727D01*
X143532448Y-79007176D01*
X143551390Y-78991630D01*
X143566935Y-78972688D01*
X143578486Y-78951078D01*
X143585597Y-78927638D01*
X143596626Y-78872188D01*
X143664546Y-78708216D01*
X143763149Y-78560646D01*
X143888648Y-78435147D01*
X144036218Y-78336544D01*
X144200190Y-78268624D01*
X144349490Y-78238927D01*
X144374260Y-78234000D01*
X144551744Y-78234000D01*
X144576514Y-78238927D01*
X144725814Y-78268624D01*
X144889786Y-78336544D01*
X145037356Y-78435147D01*
X145162855Y-78560646D01*
X145261458Y-78708216D01*
X145329378Y-78872188D01*
X145364002Y-79046259D01*
X145364002Y-79223741D01*
X145329378Y-79397812D01*
X145261458Y-79561784D01*
X145162855Y-79709354D01*
X145037356Y-79834853D01*
X144889786Y-79933456D01*
X144725814Y-80001376D01*
X144576514Y-80031073D01*
X144551744Y-80036000D01*
X144374260Y-80036000D01*
X144349490Y-80031073D01*
X144200190Y-80001376D01*
X144036218Y-79933456D01*
X143888648Y-79834853D01*
X143763149Y-79709354D01*
X143664546Y-79561784D01*
X143596626Y-79397812D01*
X143585597Y-79342362D01*
X143578486Y-79318922D01*
X143566935Y-79297311D01*
X143551389Y-79278369D01*
X143532447Y-79262824D01*
X143510837Y-79251273D01*
X143487388Y-79244160D01*
X143463002Y-79241758D01*
X143438615Y-79244160D01*
X143415167Y-79251273D01*
X143393556Y-79262824D01*
X143374614Y-79278370D01*
X143359069Y-79297312D01*
X143347518Y-79318922D01*
X143340407Y-79342362D01*
X143329378Y-79397812D01*
X143261458Y-79561784D01*
X143162855Y-79709354D01*
X143037356Y-79834853D01*
X142889786Y-79933456D01*
X142725814Y-80001376D01*
X142576514Y-80031073D01*
X142551744Y-80036000D01*
X142374260Y-80036000D01*
X142349490Y-80031073D01*
X142200190Y-80001376D01*
X142036218Y-79933456D01*
X141888648Y-79834853D01*
X141763149Y-79709354D01*
X141664546Y-79561784D01*
X141596626Y-79397812D01*
X141562002Y-79223741D01*
X141562002Y-79046259D01*
X141596626Y-78872188D01*
X141664546Y-78708216D01*
X141763149Y-78560646D01*
X141888648Y-78435147D01*
X142036218Y-78336544D01*
X142200190Y-78268624D01*
X142349490Y-78238927D01*
X142374260Y-78234000D01*
X142551744Y-78234000D01*
X142576514Y-78238927D01*
X142576514Y-78238927D01*
G37*
G36*
X162836562Y-77775166D02*
G01*
X162984155Y-77836301D01*
X163116984Y-77925055D01*
X163229947Y-78038018D01*
X163318701Y-78170847D01*
X163379836Y-78318440D01*
X163411002Y-78475123D01*
X163411002Y-78634877D01*
X163379836Y-78791560D01*
X163318701Y-78939153D01*
X163229947Y-79071982D01*
X163116984Y-79184945D01*
X162984155Y-79273699D01*
X162984154Y-79273700D01*
X162984153Y-79273700D01*
X162836562Y-79334834D01*
X162679880Y-79366000D01*
X162520124Y-79366000D01*
X162363442Y-79334834D01*
X162215851Y-79273700D01*
X162215850Y-79273700D01*
X162215849Y-79273699D01*
X162083020Y-79184945D01*
X161970057Y-79071982D01*
X161881303Y-78939153D01*
X161820168Y-78791560D01*
X161789002Y-78634877D01*
X161789002Y-78475123D01*
X161820168Y-78318440D01*
X161881303Y-78170847D01*
X161970057Y-78038018D01*
X162083020Y-77925055D01*
X162215849Y-77836301D01*
X162363442Y-77775166D01*
X162520124Y-77744000D01*
X162679880Y-77744000D01*
X162836562Y-77775166D01*
X162836562Y-77775166D01*
G37*
G36*
X112861560Y-77775166D02*
G01*
X113009153Y-77836301D01*
X113141982Y-77925055D01*
X113254945Y-78038018D01*
X113343699Y-78170847D01*
X113404834Y-78318440D01*
X113436000Y-78475123D01*
X113436000Y-78634877D01*
X113404834Y-78791560D01*
X113343699Y-78939153D01*
X113254945Y-79071982D01*
X113141982Y-79184945D01*
X113009153Y-79273699D01*
X113009152Y-79273700D01*
X113009151Y-79273700D01*
X112861560Y-79334834D01*
X112704878Y-79366000D01*
X112545122Y-79366000D01*
X112388440Y-79334834D01*
X112240849Y-79273700D01*
X112240848Y-79273700D01*
X112240847Y-79273699D01*
X112108018Y-79184945D01*
X111995055Y-79071982D01*
X111906301Y-78939153D01*
X111845166Y-78791560D01*
X111814000Y-78634877D01*
X111814000Y-78475123D01*
X111845166Y-78318440D01*
X111906301Y-78170847D01*
X111995055Y-78038018D01*
X112108018Y-77925055D01*
X112240847Y-77836301D01*
X112388440Y-77775166D01*
X112545122Y-77744000D01*
X112704878Y-77744000D01*
X112861560Y-77775166D01*
X112861560Y-77775166D01*
G37*
G36*
X165376562Y-76505166D02*
G01*
X165524155Y-76566301D01*
X165656984Y-76655055D01*
X165769947Y-76768018D01*
X165858701Y-76900847D01*
X165919836Y-77048440D01*
X165951002Y-77205123D01*
X165951002Y-77364877D01*
X165919836Y-77521560D01*
X165858701Y-77669153D01*
X165769947Y-77801982D01*
X165656984Y-77914945D01*
X165524155Y-78003699D01*
X165524154Y-78003700D01*
X165524153Y-78003700D01*
X165376562Y-78064834D01*
X165219880Y-78096000D01*
X165060124Y-78096000D01*
X164903442Y-78064834D01*
X164755851Y-78003700D01*
X164755850Y-78003700D01*
X164755849Y-78003699D01*
X164623020Y-77914945D01*
X164510057Y-77801982D01*
X164421303Y-77669153D01*
X164360168Y-77521560D01*
X164329002Y-77364877D01*
X164329002Y-77205123D01*
X164360168Y-77048440D01*
X164421303Y-76900847D01*
X164510057Y-76768018D01*
X164623020Y-76655055D01*
X164755849Y-76566301D01*
X164903442Y-76505166D01*
X165060124Y-76474000D01*
X165219880Y-76474000D01*
X165376562Y-76505166D01*
X165376562Y-76505166D01*
G37*
G36*
X115401560Y-76505166D02*
G01*
X115549153Y-76566301D01*
X115681982Y-76655055D01*
X115794945Y-76768018D01*
X115883699Y-76900847D01*
X115944834Y-77048440D01*
X115976000Y-77205123D01*
X115976000Y-77364877D01*
X115944834Y-77521560D01*
X115883699Y-77669153D01*
X115794945Y-77801982D01*
X115681982Y-77914945D01*
X115549153Y-78003699D01*
X115549152Y-78003700D01*
X115549151Y-78003700D01*
X115401560Y-78064834D01*
X115244878Y-78096000D01*
X115085122Y-78096000D01*
X114928440Y-78064834D01*
X114780849Y-78003700D01*
X114780848Y-78003700D01*
X114780847Y-78003699D01*
X114648018Y-77914945D01*
X114535055Y-77801982D01*
X114446301Y-77669153D01*
X114385166Y-77521560D01*
X114354000Y-77364877D01*
X114354000Y-77205123D01*
X114385166Y-77048440D01*
X114446301Y-76900847D01*
X114535055Y-76768018D01*
X114648018Y-76655055D01*
X114780847Y-76566301D01*
X114928440Y-76505166D01*
X115085122Y-76474000D01*
X115244878Y-76474000D01*
X115401560Y-76505166D01*
X115401560Y-76505166D01*
G37*
G36*
X122003871Y-73773408D02*
G01*
X122308883Y-73899748D01*
X122583387Y-74083166D01*
X122816834Y-74316613D01*
X123000252Y-74591117D01*
X123126592Y-74896129D01*
X123191000Y-75219928D01*
X123191000Y-75550072D01*
X123126592Y-75873871D01*
X123000252Y-76178883D01*
X122816834Y-76453387D01*
X122583387Y-76686834D01*
X122308883Y-76870252D01*
X122003871Y-76996592D01*
X121841971Y-77028796D01*
X121680073Y-77061000D01*
X121349927Y-77061000D01*
X121188029Y-77028796D01*
X121026129Y-76996592D01*
X120721117Y-76870252D01*
X120446613Y-76686834D01*
X120213166Y-76453387D01*
X120029748Y-76178883D01*
X119903408Y-75873871D01*
X119839000Y-75550072D01*
X119839000Y-75219928D01*
X119903408Y-74896129D01*
X120029748Y-74591117D01*
X120213166Y-74316613D01*
X120446613Y-74083166D01*
X120721117Y-73899748D01*
X121026129Y-73773408D01*
X121349927Y-73709000D01*
X121680073Y-73709000D01*
X122003871Y-73773408D01*
X122003871Y-73773408D01*
G37*
G36*
X171978873Y-73773408D02*
G01*
X172283885Y-73899748D01*
X172558389Y-74083166D01*
X172791836Y-74316613D01*
X172975254Y-74591117D01*
X173101594Y-74896129D01*
X173166002Y-75219928D01*
X173166002Y-75550072D01*
X173101594Y-75873871D01*
X172975254Y-76178883D01*
X172791836Y-76453387D01*
X172558389Y-76686834D01*
X172283885Y-76870252D01*
X171978873Y-76996592D01*
X171655075Y-77061000D01*
X171324929Y-77061000D01*
X171163031Y-77028796D01*
X171001131Y-76996592D01*
X170696119Y-76870252D01*
X170421615Y-76686834D01*
X170188168Y-76453387D01*
X170004750Y-76178883D01*
X169878410Y-75873871D01*
X169814002Y-75550072D01*
X169814002Y-75219928D01*
X169878410Y-74896129D01*
X170004750Y-74591117D01*
X170188168Y-74316613D01*
X170421615Y-74083166D01*
X170696119Y-73899748D01*
X171001131Y-73773408D01*
X171324929Y-73709000D01*
X171655075Y-73709000D01*
X171978873Y-73773408D01*
X171978873Y-73773408D01*
G37*
G36*
X90303331Y-72633211D02*
G01*
X90631092Y-72768974D01*
X90926070Y-72966072D01*
X91176928Y-73216930D01*
X91374026Y-73511908D01*
X91509789Y-73839669D01*
X91579000Y-74187616D01*
X91579000Y-74542384D01*
X91509789Y-74890331D01*
X91374026Y-75218092D01*
X91176928Y-75513070D01*
X90926070Y-75763928D01*
X90631092Y-75961026D01*
X90303331Y-76096789D01*
X89955384Y-76166000D01*
X89600616Y-76166000D01*
X89252669Y-76096789D01*
X88924908Y-75961026D01*
X88629930Y-75763928D01*
X88379072Y-75513070D01*
X88181974Y-75218092D01*
X88046211Y-74890331D01*
X87977000Y-74542384D01*
X87977000Y-74187616D01*
X88046211Y-73839669D01*
X88181974Y-73511908D01*
X88379072Y-73216930D01*
X88629930Y-72966072D01*
X88924908Y-72768974D01*
X89252669Y-72633211D01*
X89600616Y-72564000D01*
X89955384Y-72564000D01*
X90303331Y-72633211D01*
X90303331Y-72633211D01*
G37*
G36*
X140278333Y-72633211D02*
G01*
X140606094Y-72768974D01*
X140901072Y-72966072D01*
X141151930Y-73216930D01*
X141349028Y-73511908D01*
X141484791Y-73839669D01*
X141554002Y-74187616D01*
X141554002Y-74542384D01*
X141484791Y-74890331D01*
X141349028Y-75218092D01*
X141151930Y-75513070D01*
X140901072Y-75763928D01*
X140606094Y-75961026D01*
X140278333Y-76096789D01*
X139930386Y-76166000D01*
X139575618Y-76166000D01*
X139227671Y-76096789D01*
X138899910Y-75961026D01*
X138604932Y-75763928D01*
X138354074Y-75513070D01*
X138156976Y-75218092D01*
X138021213Y-74890331D01*
X137952002Y-74542384D01*
X137952002Y-74187616D01*
X138021213Y-73839669D01*
X138156976Y-73511908D01*
X138354074Y-73216930D01*
X138604932Y-72966072D01*
X138899910Y-72768974D01*
X139227671Y-72633211D01*
X139575618Y-72564000D01*
X139930386Y-72564000D01*
X140278333Y-72633211D01*
X140278333Y-72633211D01*
G37*
G36*
X84517007Y-66463582D02*
G01*
X84917563Y-66629498D01*
X84917565Y-66629499D01*
X85278056Y-66870371D01*
X85584629Y-67176944D01*
X85825501Y-67537435D01*
X85825502Y-67537437D01*
X85991418Y-67937993D01*
X86076000Y-68363219D01*
X86076000Y-68796781D01*
X85991418Y-69222007D01*
X85825502Y-69622563D01*
X85825501Y-69622565D01*
X85584629Y-69983056D01*
X85278056Y-70289629D01*
X84917565Y-70530501D01*
X84917564Y-70530502D01*
X84917563Y-70530502D01*
X84517007Y-70696418D01*
X84091781Y-70781000D01*
X83658219Y-70781000D01*
X83232993Y-70696418D01*
X82832437Y-70530502D01*
X82832436Y-70530502D01*
X82832435Y-70530501D01*
X82471944Y-70289629D01*
X82165371Y-69983056D01*
X81924499Y-69622565D01*
X81924498Y-69622563D01*
X81758582Y-69222007D01*
X81674000Y-68796781D01*
X81674000Y-68363219D01*
X81758582Y-67937993D01*
X81924498Y-67537437D01*
X81924499Y-67537435D01*
X82165371Y-67176944D01*
X82471944Y-66870371D01*
X82832435Y-66629499D01*
X82832437Y-66629498D01*
X83232993Y-66463582D01*
X83658219Y-66379000D01*
X84091781Y-66379000D01*
X84517007Y-66463582D01*
X84517007Y-66463582D01*
G37*
G36*
X125517007Y-66463582D02*
G01*
X125917563Y-66629498D01*
X125917565Y-66629499D01*
X126278056Y-66870371D01*
X126584629Y-67176944D01*
X126825501Y-67537435D01*
X126825502Y-67537437D01*
X126991418Y-67937993D01*
X127076000Y-68363219D01*
X127076000Y-68796781D01*
X126991418Y-69222007D01*
X126825502Y-69622563D01*
X126825501Y-69622565D01*
X126584629Y-69983056D01*
X126278056Y-70289629D01*
X125917565Y-70530501D01*
X125917564Y-70530502D01*
X125917563Y-70530502D01*
X125517007Y-70696418D01*
X125091781Y-70781000D01*
X124658219Y-70781000D01*
X124232993Y-70696418D01*
X123832437Y-70530502D01*
X123832436Y-70530502D01*
X123832435Y-70530501D01*
X123471944Y-70289629D01*
X123165371Y-69983056D01*
X122924499Y-69622565D01*
X122924498Y-69622563D01*
X122758582Y-69222007D01*
X122674000Y-68796781D01*
X122674000Y-68363219D01*
X122758582Y-67937993D01*
X122924498Y-67537437D01*
X122924499Y-67537435D01*
X123165371Y-67176944D01*
X123471944Y-66870371D01*
X123832435Y-66629499D01*
X123832437Y-66629498D01*
X124232993Y-66463582D01*
X124658219Y-66379000D01*
X125091781Y-66379000D01*
X125517007Y-66463582D01*
X125517007Y-66463582D01*
G37*
G36*
X175492009Y-66463582D02*
G01*
X175892565Y-66629498D01*
X175892567Y-66629499D01*
X176253058Y-66870371D01*
X176559631Y-67176944D01*
X176800503Y-67537435D01*
X176800504Y-67537437D01*
X176966420Y-67937993D01*
X177051002Y-68363219D01*
X177051002Y-68796781D01*
X176966420Y-69222007D01*
X176800504Y-69622563D01*
X176800503Y-69622565D01*
X176559631Y-69983056D01*
X176253058Y-70289629D01*
X175892567Y-70530501D01*
X175892566Y-70530502D01*
X175892565Y-70530502D01*
X175492009Y-70696418D01*
X175066783Y-70781000D01*
X174633221Y-70781000D01*
X174207995Y-70696418D01*
X173807439Y-70530502D01*
X173807438Y-70530502D01*
X173807437Y-70530501D01*
X173446946Y-70289629D01*
X173140373Y-69983056D01*
X172899501Y-69622565D01*
X172899500Y-69622563D01*
X172733584Y-69222007D01*
X172649002Y-68796781D01*
X172649002Y-68363219D01*
X172733584Y-67937993D01*
X172899500Y-67537437D01*
X172899501Y-67537435D01*
X173140373Y-67176944D01*
X173446946Y-66870371D01*
X173807437Y-66629499D01*
X173807439Y-66629498D01*
X174207995Y-66463582D01*
X174633221Y-66379000D01*
X175066783Y-66379000D01*
X175492009Y-66463582D01*
X175492009Y-66463582D01*
G37*
G36*
X134492009Y-66463582D02*
G01*
X134892565Y-66629498D01*
X134892567Y-66629499D01*
X135253058Y-66870371D01*
X135559631Y-67176944D01*
X135800503Y-67537435D01*
X135800504Y-67537437D01*
X135966420Y-67937993D01*
X136051002Y-68363219D01*
X136051002Y-68796781D01*
X135966420Y-69222007D01*
X135800504Y-69622563D01*
X135800503Y-69622565D01*
X135559631Y-69983056D01*
X135253058Y-70289629D01*
X134892567Y-70530501D01*
X134892566Y-70530502D01*
X134892565Y-70530502D01*
X134492009Y-70696418D01*
X134066783Y-70781000D01*
X133633221Y-70781000D01*
X133207995Y-70696418D01*
X132807439Y-70530502D01*
X132807438Y-70530502D01*
X132807437Y-70530501D01*
X132446946Y-70289629D01*
X132140373Y-69983056D01*
X131899501Y-69622565D01*
X131899500Y-69622563D01*
X131733584Y-69222007D01*
X131649002Y-68796781D01*
X131649002Y-68363219D01*
X131733584Y-67937993D01*
X131899500Y-67537437D01*
X131899501Y-67537435D01*
X132140373Y-67176944D01*
X132446946Y-66870371D01*
X132807437Y-66629499D01*
X132807439Y-66629498D01*
X133207995Y-66463582D01*
X133633221Y-66379000D01*
X134066783Y-66379000D01*
X134492009Y-66463582D01*
X134492009Y-66463582D01*
G37*
M02*
