M48
; DRILL file {KiCad 5.1.3-ffb9f22~84~ubuntu16.04.1} date Sat 10 Aug 2019 09:44:08 PM EDT
; FORMAT={-:-/ absolute / inch / decimal}
; #@! TF.CreationDate,2019-08-10T21:44:08-04:00
; #@! TF.GenerationSoftware,Kicad,Pcbnew,5.1.3-ffb9f22~84~ubuntu16.04.1
; #@! TF.FileFunction,NonPlated,1,2,NPTH
FMAT,2
INCH
T1C0.1280
T2C0.1693
%
G90
G05
T1
X4.7841Y-5.5703
X4.7841Y-5.9703
X6.7535Y-4.2691
X4.7841Y-4.2691
X4.7841Y-4.6691
X4.7841Y-2.9679
X4.7841Y-3.3679
X6.7535Y-5.5703
X6.7535Y-5.9703
X6.7535Y-2.9679
X6.7535Y-3.3679
X6.7535Y-4.6691
T2
X4.9163Y-4.0012
X6.8858Y-4.9384
X3.3022Y-4.0012
X5.2717Y-4.0012
X5.2717Y-2.7
X3.3022Y-5.3024
X4.9163Y-6.2396
X3.3022Y-2.7
X5.2717Y-6.2494
X4.9163Y-2.7
X5.2717Y-3.647
X3.3022Y-3.647
X3.3022Y-4.9482
X6.8858Y-4.0012
X4.9163Y-5.3024
X6.8858Y-6.2396
X6.8858Y-3.6372
X5.2717Y-5.3024
X4.9163Y-4.9384
X5.2717Y-4.9482
X3.3022Y-6.2494
X6.8858Y-5.3024
X4.9163Y-3.6372
X6.8858Y-2.7
T0
M30
