M48
; DRILL file {KiCad 5.1.3-ffb9f22~84~ubuntu16.04.1} date Sat 10 Aug 2019 09:44:08 PM EDT
; FORMAT={-:-/ absolute / inch / decimal}
; #@! TF.CreationDate,2019-08-10T21:44:08-04:00
; #@! TF.GenerationSoftware,Kicad,Pcbnew,5.1.3-ffb9f22~84~ubuntu16.04.1
; #@! TF.FileFunction,Plated,1,2,PTH
FMAT,2
INCH
T1C0.0079
T2C0.0299
T3C0.0362
T4C0.0917
%
G90
G05
T1
X3.225Y-3.225
X3.225Y-4.5262
X3.225Y-5.8274
X3.5Y-2.6
X3.5Y-3.9012
X3.5Y-5.2024
X3.5581Y-3.7848
X3.5581Y-5.086
X3.5581Y-6.3872
X3.82Y-3.355
X3.82Y-4.6562
X3.82Y-5.9574
X3.94Y-3.39
X3.94Y-4.6912
X3.94Y-5.9924
X3.97Y-3.29
X3.97Y-4.5912
X3.97Y-5.8924
X4.025Y-3.1
X4.025Y-4.4012
X4.025Y-5.7024
X4.0801Y-3.3056
X4.0801Y-4.6068
X4.0801Y-5.9079
X4.11Y-3.165
X4.11Y-4.4662
X4.11Y-5.7674
X4.1486Y-3.7848
X4.1486Y-5.086
X4.1486Y-6.3872
X4.15Y-2.6
X4.15Y-3.9012
X4.15Y-5.2024
X4.2Y-3.275
X4.2Y-4.5762
X4.2Y-5.8774
X4.235Y-3.415
X4.235Y-4.7162
X4.235Y-6.0174
X4.275Y-3.15
X4.275Y-4.4512
X4.275Y-5.7524
X4.675Y-3.7848
X4.675Y-5.086
X4.675Y-6.3872
X4.75Y-2.6
X4.75Y-3.9012
X4.75Y-5.2024
X5.05Y-3.2
X5.05Y-4.5012
X5.05Y-5.8024
X5.1945Y-3.225
X5.1945Y-4.5262
X5.1945Y-5.8274
X5.4695Y-2.6
X5.4695Y-3.9012
X5.4695Y-5.2024
X5.5276Y-3.7848
X5.5276Y-5.086
X5.5276Y-6.3872
X5.7895Y-3.355
X5.7895Y-4.6562
X5.7895Y-5.9574
X5.9095Y-3.39
X5.9095Y-4.6912
X5.9095Y-5.9924
X5.9395Y-3.29
X5.9395Y-4.5912
X5.9395Y-5.8924
X5.9945Y-3.1
X5.9945Y-4.4012
X5.9945Y-5.7024
X6.0496Y-3.3056
X6.0496Y-4.6068
X6.0496Y-5.9079
X6.0795Y-3.165
X6.0795Y-4.4662
X6.0795Y-5.7674
X6.1181Y-3.7848
X6.1181Y-5.086
X6.1181Y-6.3872
X6.1195Y-2.6
X6.1195Y-3.9012
X6.1195Y-5.2024
X6.1695Y-3.275
X6.1695Y-4.5762
X6.1695Y-5.8774
X6.2045Y-3.415
X6.2045Y-4.7162
X6.2045Y-6.0174
X6.2445Y-3.15
X6.2445Y-4.4512
X6.2445Y-5.7524
X6.6445Y-3.7848
X6.6445Y-5.086
X6.6445Y-6.3872
X6.7195Y-2.6
X6.7195Y-3.9012
X6.7195Y-5.2024
X7.0195Y-3.2
X7.0195Y-4.5012
X7.0195Y-5.8024
T2
X6.4035Y-3.0927
X6.4035Y-3.1927
X6.4035Y-3.2927
X6.5035Y-3.0427
X6.5035Y-3.1427
X6.5035Y-3.2427
X6.4035Y-4.3939
X6.4035Y-4.4939
X6.4035Y-4.5939
X6.5035Y-4.3439
X6.5035Y-4.4439
X6.5035Y-4.5439
X4.4341Y-4.3939
X4.4341Y-4.4939
X4.4341Y-4.5939
X4.5341Y-4.3439
X4.5341Y-4.4439
X4.5341Y-4.5439
X4.4341Y-3.0927
X4.4341Y-3.1927
X4.4341Y-3.2927
X4.5341Y-3.0427
X4.5341Y-3.1427
X4.5341Y-3.2427
X6.4035Y-5.6951
X6.4035Y-5.7951
X6.4035Y-5.8951
X6.5035Y-5.6451
X6.5035Y-5.7451
X6.5035Y-5.8451
X4.4341Y-5.6951
X4.4341Y-5.7951
X4.4341Y-5.8951
X4.5341Y-5.6451
X4.5341Y-5.7451
X4.5341Y-5.8451
T3
X5.6107Y-3.1156
X5.6107Y-3.214
X5.6895Y-3.1156
X5.6895Y-3.214
X3.6413Y-3.1156
X3.6413Y-3.214
X3.72Y-3.1156
X3.72Y-3.214
X5.6107Y-4.4167
X5.6107Y-4.5152
X5.6895Y-4.4167
X5.6895Y-4.5152
X3.6413Y-4.4167
X3.6413Y-4.5152
X3.72Y-4.4167
X3.72Y-4.5152
X5.6107Y-5.7179
X5.6107Y-5.8163
X5.6895Y-5.7179
X5.6895Y-5.8163
X3.6413Y-5.7179
X3.6413Y-5.8163
X3.72Y-5.7179
X3.72Y-5.8163
T4
X5.5041Y-2.9278
X5.5041Y-3.4018
X3.5346Y-2.9278
X3.5346Y-3.4018
X5.5041Y-4.2289
X5.5041Y-4.703
X3.5346Y-4.2289
X3.5346Y-4.703
X5.5041Y-5.5301
X5.5041Y-6.0041
X3.5346Y-5.5301
X3.5346Y-6.0041
T0
M30
