G04 #@! TF.GenerationSoftware,KiCad,Pcbnew,(5.1.2)-2*
G04 #@! TF.CreationDate,2020-04-12T20:05:54-04:00*
G04 #@! TF.ProjectId,usb-serial-interface,7573622d-7365-4726-9961-6c2d696e7465,rev?*
G04 #@! TF.SameCoordinates,Original*
G04 #@! TF.FileFunction,Legend,Bot*
G04 #@! TF.FilePolarity,Positive*
%FSLAX46Y46*%
G04 Gerber Fmt 4.6, Leading zero omitted, Abs format (unit mm)*
G04 Created by KiCad (PCBNEW (5.1.2)-2) date 2020-04-12 20:05:54*
%MOMM*%
%LPD*%
G04 APERTURE LIST*
%ADD10C,0.152400*%
%ADD11C,0.177800*%
%ADD12C,0.010000*%
G04 APERTURE END LIST*
D10*
X124776428Y-89158185D02*
X125199761Y-89158185D01*
X125199761Y-89823423D02*
X125199761Y-88553423D01*
X124595000Y-88553423D01*
X123929761Y-89823423D02*
X124050714Y-89762947D01*
X124111190Y-89702471D01*
X124171666Y-89581519D01*
X124171666Y-89218661D01*
X124111190Y-89097709D01*
X124050714Y-89037233D01*
X123929761Y-88976757D01*
X123748333Y-88976757D01*
X123627380Y-89037233D01*
X123566904Y-89097709D01*
X123506428Y-89218661D01*
X123506428Y-89581519D01*
X123566904Y-89702471D01*
X123627380Y-89762947D01*
X123748333Y-89823423D01*
X123929761Y-89823423D01*
X122962142Y-89823423D02*
X122962142Y-88976757D01*
X122962142Y-89218661D02*
X122901666Y-89097709D01*
X122841190Y-89037233D01*
X122720238Y-88976757D01*
X122599285Y-88976757D01*
X121208333Y-89823423D02*
X121208333Y-88976757D01*
X121208333Y-89097709D02*
X121147857Y-89037233D01*
X121026904Y-88976757D01*
X120845476Y-88976757D01*
X120724523Y-89037233D01*
X120664047Y-89158185D01*
X120664047Y-89823423D01*
X120664047Y-89158185D02*
X120603571Y-89037233D01*
X120482619Y-88976757D01*
X120301190Y-88976757D01*
X120180238Y-89037233D01*
X120119761Y-89158185D01*
X120119761Y-89823423D01*
X119333571Y-89823423D02*
X119454523Y-89762947D01*
X119515000Y-89702471D01*
X119575476Y-89581519D01*
X119575476Y-89218661D01*
X119515000Y-89097709D01*
X119454523Y-89037233D01*
X119333571Y-88976757D01*
X119152142Y-88976757D01*
X119031190Y-89037233D01*
X118970714Y-89097709D01*
X118910238Y-89218661D01*
X118910238Y-89581519D01*
X118970714Y-89702471D01*
X119031190Y-89762947D01*
X119152142Y-89823423D01*
X119333571Y-89823423D01*
X118365952Y-89823423D02*
X118365952Y-88976757D01*
X118365952Y-89218661D02*
X118305476Y-89097709D01*
X118245000Y-89037233D01*
X118124047Y-88976757D01*
X118003095Y-88976757D01*
X117095952Y-89762947D02*
X117216904Y-89823423D01*
X117458809Y-89823423D01*
X117579761Y-89762947D01*
X117640238Y-89641995D01*
X117640238Y-89158185D01*
X117579761Y-89037233D01*
X117458809Y-88976757D01*
X117216904Y-88976757D01*
X117095952Y-89037233D01*
X117035476Y-89158185D01*
X117035476Y-89279138D01*
X117640238Y-89400090D01*
X115523571Y-89823423D02*
X115523571Y-88976757D01*
X115523571Y-88553423D02*
X115584047Y-88613900D01*
X115523571Y-88674376D01*
X115463095Y-88613900D01*
X115523571Y-88553423D01*
X115523571Y-88674376D01*
X114918809Y-88976757D02*
X114918809Y-89823423D01*
X114918809Y-89097709D02*
X114858333Y-89037233D01*
X114737380Y-88976757D01*
X114555952Y-88976757D01*
X114435000Y-89037233D01*
X114374523Y-89158185D01*
X114374523Y-89823423D01*
X113951190Y-88976757D02*
X113467380Y-88976757D01*
X113769761Y-89823423D02*
X113769761Y-88734852D01*
X113709285Y-88613900D01*
X113588333Y-88553423D01*
X113467380Y-88553423D01*
X112862619Y-89823423D02*
X112983571Y-89762947D01*
X113044047Y-89702471D01*
X113104523Y-89581519D01*
X113104523Y-89218661D01*
X113044047Y-89097709D01*
X112983571Y-89037233D01*
X112862619Y-88976757D01*
X112681190Y-88976757D01*
X112560238Y-89037233D01*
X112499761Y-89097709D01*
X112439285Y-89218661D01*
X112439285Y-89581519D01*
X112499761Y-89702471D01*
X112560238Y-89762947D01*
X112681190Y-89823423D01*
X112862619Y-89823423D01*
X111895000Y-89823423D02*
X111895000Y-88976757D01*
X111895000Y-89218661D02*
X111834523Y-89097709D01*
X111774047Y-89037233D01*
X111653095Y-88976757D01*
X111532142Y-88976757D01*
X111108809Y-89823423D02*
X111108809Y-88976757D01*
X111108809Y-89097709D02*
X111048333Y-89037233D01*
X110927380Y-88976757D01*
X110745952Y-88976757D01*
X110625000Y-89037233D01*
X110564523Y-89158185D01*
X110564523Y-89823423D01*
X110564523Y-89158185D02*
X110504047Y-89037233D01*
X110383095Y-88976757D01*
X110201666Y-88976757D01*
X110080714Y-89037233D01*
X110020238Y-89158185D01*
X110020238Y-89823423D01*
X108871190Y-89823423D02*
X108871190Y-89158185D01*
X108931666Y-89037233D01*
X109052619Y-88976757D01*
X109294523Y-88976757D01*
X109415476Y-89037233D01*
X108871190Y-89762947D02*
X108992142Y-89823423D01*
X109294523Y-89823423D01*
X109415476Y-89762947D01*
X109475952Y-89641995D01*
X109475952Y-89521042D01*
X109415476Y-89400090D01*
X109294523Y-89339614D01*
X108992142Y-89339614D01*
X108871190Y-89279138D01*
X108447857Y-88976757D02*
X107964047Y-88976757D01*
X108266428Y-88553423D02*
X108266428Y-89641995D01*
X108205952Y-89762947D01*
X108085000Y-89823423D01*
X107964047Y-89823423D01*
X107540714Y-89823423D02*
X107540714Y-88976757D01*
X107540714Y-88553423D02*
X107601190Y-88613900D01*
X107540714Y-88674376D01*
X107480238Y-88613900D01*
X107540714Y-88553423D01*
X107540714Y-88674376D01*
X106754523Y-89823423D02*
X106875476Y-89762947D01*
X106935952Y-89702471D01*
X106996428Y-89581519D01*
X106996428Y-89218661D01*
X106935952Y-89097709D01*
X106875476Y-89037233D01*
X106754523Y-88976757D01*
X106573095Y-88976757D01*
X106452142Y-89037233D01*
X106391666Y-89097709D01*
X106331190Y-89218661D01*
X106331190Y-89581519D01*
X106391666Y-89702471D01*
X106452142Y-89762947D01*
X106573095Y-89823423D01*
X106754523Y-89823423D01*
X105786904Y-88976757D02*
X105786904Y-89823423D01*
X105786904Y-89097709D02*
X105726428Y-89037233D01*
X105605476Y-88976757D01*
X105424047Y-88976757D01*
X105303095Y-89037233D01*
X105242619Y-89158185D01*
X105242619Y-89823423D01*
X104577380Y-89762947D02*
X104577380Y-89823423D01*
X104637857Y-89944376D01*
X104698333Y-90004852D01*
X103065476Y-89823423D02*
X103065476Y-88976757D01*
X103065476Y-88553423D02*
X103125952Y-88613900D01*
X103065476Y-88674376D01*
X103005000Y-88613900D01*
X103065476Y-88553423D01*
X103065476Y-88674376D01*
X102460714Y-88976757D02*
X102460714Y-89823423D01*
X102460714Y-89097709D02*
X102400238Y-89037233D01*
X102279285Y-88976757D01*
X102097857Y-88976757D01*
X101976904Y-89037233D01*
X101916428Y-89158185D01*
X101916428Y-89823423D01*
X100767380Y-89762947D02*
X100888333Y-89823423D01*
X101130238Y-89823423D01*
X101251190Y-89762947D01*
X101311666Y-89702471D01*
X101372142Y-89581519D01*
X101372142Y-89218661D01*
X101311666Y-89097709D01*
X101251190Y-89037233D01*
X101130238Y-88976757D01*
X100888333Y-88976757D01*
X100767380Y-89037233D01*
X100041666Y-89823423D02*
X100162619Y-89762947D01*
X100223095Y-89641995D01*
X100223095Y-88553423D01*
X99013571Y-88976757D02*
X99013571Y-89823423D01*
X99557857Y-88976757D02*
X99557857Y-89641995D01*
X99497380Y-89762947D01*
X99376428Y-89823423D01*
X99195000Y-89823423D01*
X99074047Y-89762947D01*
X99013571Y-89702471D01*
X97864523Y-89823423D02*
X97864523Y-88553423D01*
X97864523Y-89762947D02*
X97985476Y-89823423D01*
X98227380Y-89823423D01*
X98348333Y-89762947D01*
X98408809Y-89702471D01*
X98469285Y-89581519D01*
X98469285Y-89218661D01*
X98408809Y-89097709D01*
X98348333Y-89037233D01*
X98227380Y-88976757D01*
X97985476Y-88976757D01*
X97864523Y-89037233D01*
X97259761Y-89823423D02*
X97259761Y-88976757D01*
X97259761Y-88553423D02*
X97320238Y-88613900D01*
X97259761Y-88674376D01*
X97199285Y-88613900D01*
X97259761Y-88553423D01*
X97259761Y-88674376D01*
X96655000Y-88976757D02*
X96655000Y-89823423D01*
X96655000Y-89097709D02*
X96594523Y-89037233D01*
X96473571Y-88976757D01*
X96292142Y-88976757D01*
X96171190Y-89037233D01*
X96110714Y-89158185D01*
X96110714Y-89823423D01*
X94961666Y-88976757D02*
X94961666Y-90004852D01*
X95022142Y-90125804D01*
X95082619Y-90186280D01*
X95203571Y-90246757D01*
X95385000Y-90246757D01*
X95505952Y-90186280D01*
X94961666Y-89762947D02*
X95082619Y-89823423D01*
X95324523Y-89823423D01*
X95445476Y-89762947D01*
X95505952Y-89702471D01*
X95566428Y-89581519D01*
X95566428Y-89218661D01*
X95505952Y-89097709D01*
X95445476Y-89037233D01*
X95324523Y-88976757D01*
X95082619Y-88976757D01*
X94961666Y-89037233D01*
X93449761Y-89762947D02*
X93328809Y-89823423D01*
X93086904Y-89823423D01*
X92965952Y-89762947D01*
X92905476Y-89641995D01*
X92905476Y-89581519D01*
X92965952Y-89460566D01*
X93086904Y-89400090D01*
X93268333Y-89400090D01*
X93389285Y-89339614D01*
X93449761Y-89218661D01*
X93449761Y-89158185D01*
X93389285Y-89037233D01*
X93268333Y-88976757D01*
X93086904Y-88976757D01*
X92965952Y-89037233D01*
X91816904Y-89762947D02*
X91937857Y-89823423D01*
X92179761Y-89823423D01*
X92300714Y-89762947D01*
X92361190Y-89702471D01*
X92421666Y-89581519D01*
X92421666Y-89218661D01*
X92361190Y-89097709D01*
X92300714Y-89037233D01*
X92179761Y-88976757D01*
X91937857Y-88976757D01*
X91816904Y-89037233D01*
X91272619Y-89823423D02*
X91272619Y-88553423D01*
X90728333Y-89823423D02*
X90728333Y-89158185D01*
X90788809Y-89037233D01*
X90909761Y-88976757D01*
X91091190Y-88976757D01*
X91212142Y-89037233D01*
X91272619Y-89097709D01*
X89639761Y-89762947D02*
X89760714Y-89823423D01*
X90002619Y-89823423D01*
X90123571Y-89762947D01*
X90184047Y-89641995D01*
X90184047Y-89158185D01*
X90123571Y-89037233D01*
X90002619Y-88976757D01*
X89760714Y-88976757D01*
X89639761Y-89037233D01*
X89579285Y-89158185D01*
X89579285Y-89279138D01*
X90184047Y-89400090D01*
X89035000Y-89823423D02*
X89035000Y-88976757D01*
X89035000Y-89097709D02*
X88974523Y-89037233D01*
X88853571Y-88976757D01*
X88672142Y-88976757D01*
X88551190Y-89037233D01*
X88490714Y-89158185D01*
X88490714Y-89823423D01*
X88490714Y-89158185D02*
X88430238Y-89037233D01*
X88309285Y-88976757D01*
X88127857Y-88976757D01*
X88006904Y-89037233D01*
X87946428Y-89158185D01*
X87946428Y-89823423D01*
X86797380Y-89823423D02*
X86797380Y-89158185D01*
X86857857Y-89037233D01*
X86978809Y-88976757D01*
X87220714Y-88976757D01*
X87341666Y-89037233D01*
X86797380Y-89762947D02*
X86918333Y-89823423D01*
X87220714Y-89823423D01*
X87341666Y-89762947D01*
X87402142Y-89641995D01*
X87402142Y-89521042D01*
X87341666Y-89400090D01*
X87220714Y-89339614D01*
X86918333Y-89339614D01*
X86797380Y-89279138D01*
X86374047Y-88976757D02*
X85890238Y-88976757D01*
X86192619Y-88553423D02*
X86192619Y-89641995D01*
X86132142Y-89762947D01*
X86011190Y-89823423D01*
X85890238Y-89823423D01*
X85466904Y-89823423D02*
X85466904Y-88976757D01*
X85466904Y-88553423D02*
X85527380Y-88613900D01*
X85466904Y-88674376D01*
X85406428Y-88613900D01*
X85466904Y-88553423D01*
X85466904Y-88674376D01*
X84317857Y-89762947D02*
X84438809Y-89823423D01*
X84680714Y-89823423D01*
X84801666Y-89762947D01*
X84862142Y-89702471D01*
X84922619Y-89581519D01*
X84922619Y-89218661D01*
X84862142Y-89097709D01*
X84801666Y-89037233D01*
X84680714Y-88976757D01*
X84438809Y-88976757D01*
X84317857Y-89037233D01*
X83834047Y-89762947D02*
X83713095Y-89823423D01*
X83471190Y-89823423D01*
X83350238Y-89762947D01*
X83289761Y-89641995D01*
X83289761Y-89581519D01*
X83350238Y-89460566D01*
X83471190Y-89400090D01*
X83652619Y-89400090D01*
X83773571Y-89339614D01*
X83834047Y-89218661D01*
X83834047Y-89158185D01*
X83773571Y-89037233D01*
X83652619Y-88976757D01*
X83471190Y-88976757D01*
X83350238Y-89037233D01*
X116340000Y-91880823D02*
X116340000Y-91215585D01*
X116400476Y-91094633D01*
X116521428Y-91034157D01*
X116763333Y-91034157D01*
X116884285Y-91094633D01*
X116340000Y-91820347D02*
X116460952Y-91880823D01*
X116763333Y-91880823D01*
X116884285Y-91820347D01*
X116944761Y-91699395D01*
X116944761Y-91578442D01*
X116884285Y-91457490D01*
X116763333Y-91397014D01*
X116460952Y-91397014D01*
X116340000Y-91336538D01*
X115735238Y-91034157D02*
X115735238Y-91880823D01*
X115735238Y-91155109D02*
X115674761Y-91094633D01*
X115553809Y-91034157D01*
X115372380Y-91034157D01*
X115251428Y-91094633D01*
X115190952Y-91215585D01*
X115190952Y-91880823D01*
X114041904Y-91880823D02*
X114041904Y-90610823D01*
X114041904Y-91820347D02*
X114162857Y-91880823D01*
X114404761Y-91880823D01*
X114525714Y-91820347D01*
X114586190Y-91759871D01*
X114646666Y-91638919D01*
X114646666Y-91276061D01*
X114586190Y-91155109D01*
X114525714Y-91094633D01*
X114404761Y-91034157D01*
X114162857Y-91034157D01*
X114041904Y-91094633D01*
X112469523Y-91880823D02*
X112469523Y-90610823D01*
X111985714Y-90610823D01*
X111864761Y-90671300D01*
X111804285Y-90731776D01*
X111743809Y-90852728D01*
X111743809Y-91034157D01*
X111804285Y-91155109D01*
X111864761Y-91215585D01*
X111985714Y-91276061D01*
X112469523Y-91276061D01*
X110473809Y-91759871D02*
X110534285Y-91820347D01*
X110715714Y-91880823D01*
X110836666Y-91880823D01*
X111018095Y-91820347D01*
X111139047Y-91699395D01*
X111199523Y-91578442D01*
X111260000Y-91336538D01*
X111260000Y-91155109D01*
X111199523Y-90913204D01*
X111139047Y-90792252D01*
X111018095Y-90671300D01*
X110836666Y-90610823D01*
X110715714Y-90610823D01*
X110534285Y-90671300D01*
X110473809Y-90731776D01*
X109506190Y-91215585D02*
X109324761Y-91276061D01*
X109264285Y-91336538D01*
X109203809Y-91457490D01*
X109203809Y-91638919D01*
X109264285Y-91759871D01*
X109324761Y-91820347D01*
X109445714Y-91880823D01*
X109929523Y-91880823D01*
X109929523Y-90610823D01*
X109506190Y-90610823D01*
X109385238Y-90671300D01*
X109324761Y-90731776D01*
X109264285Y-90852728D01*
X109264285Y-90973680D01*
X109324761Y-91094633D01*
X109385238Y-91155109D01*
X109506190Y-91215585D01*
X109929523Y-91215585D01*
X107147619Y-91880823D02*
X107147619Y-90610823D01*
X107147619Y-91820347D02*
X107268571Y-91880823D01*
X107510476Y-91880823D01*
X107631428Y-91820347D01*
X107691904Y-91759871D01*
X107752380Y-91638919D01*
X107752380Y-91276061D01*
X107691904Y-91155109D01*
X107631428Y-91094633D01*
X107510476Y-91034157D01*
X107268571Y-91034157D01*
X107147619Y-91094633D01*
X106059047Y-91820347D02*
X106179999Y-91880823D01*
X106421904Y-91880823D01*
X106542857Y-91820347D01*
X106603333Y-91699395D01*
X106603333Y-91215585D01*
X106542857Y-91094633D01*
X106421904Y-91034157D01*
X106179999Y-91034157D01*
X106059047Y-91094633D01*
X105998571Y-91215585D01*
X105998571Y-91336538D01*
X106603333Y-91457490D01*
X105514761Y-91820347D02*
X105393809Y-91880823D01*
X105151904Y-91880823D01*
X105030952Y-91820347D01*
X104970476Y-91699395D01*
X104970476Y-91638919D01*
X105030952Y-91517966D01*
X105151904Y-91457490D01*
X105333333Y-91457490D01*
X105454285Y-91397014D01*
X105514761Y-91276061D01*
X105514761Y-91215585D01*
X105454285Y-91094633D01*
X105333333Y-91034157D01*
X105151904Y-91034157D01*
X105030952Y-91094633D01*
X104426190Y-91880823D02*
X104426190Y-91034157D01*
X104426190Y-90610823D02*
X104486666Y-90671300D01*
X104426190Y-90731776D01*
X104365714Y-90671300D01*
X104426190Y-90610823D01*
X104426190Y-90731776D01*
X103277142Y-91034157D02*
X103277142Y-92062252D01*
X103337619Y-92183204D01*
X103398095Y-92243680D01*
X103519047Y-92304157D01*
X103700476Y-92304157D01*
X103821428Y-92243680D01*
X103277142Y-91820347D02*
X103398095Y-91880823D01*
X103639999Y-91880823D01*
X103760952Y-91820347D01*
X103821428Y-91759871D01*
X103881904Y-91638919D01*
X103881904Y-91276061D01*
X103821428Y-91155109D01*
X103760952Y-91094633D01*
X103639999Y-91034157D01*
X103398095Y-91034157D01*
X103277142Y-91094633D01*
X102672380Y-91034157D02*
X102672380Y-91880823D01*
X102672380Y-91155109D02*
X102611904Y-91094633D01*
X102490952Y-91034157D01*
X102309523Y-91034157D01*
X102188571Y-91094633D01*
X102128095Y-91215585D01*
X102128095Y-91880823D01*
X100737142Y-91034157D02*
X100253333Y-91034157D01*
X100555714Y-91880823D02*
X100555714Y-90792252D01*
X100495238Y-90671300D01*
X100374285Y-90610823D01*
X100253333Y-90610823D01*
X99829999Y-91880823D02*
X99829999Y-91034157D01*
X99829999Y-90610823D02*
X99890476Y-90671300D01*
X99829999Y-90731776D01*
X99769523Y-90671300D01*
X99829999Y-90610823D01*
X99829999Y-90731776D01*
X99043809Y-91880823D02*
X99164761Y-91820347D01*
X99225238Y-91699395D01*
X99225238Y-90610823D01*
X98076190Y-91820347D02*
X98197142Y-91880823D01*
X98439047Y-91880823D01*
X98559999Y-91820347D01*
X98620476Y-91699395D01*
X98620476Y-91215585D01*
X98559999Y-91094633D01*
X98439047Y-91034157D01*
X98197142Y-91034157D01*
X98076190Y-91094633D01*
X98015714Y-91215585D01*
X98015714Y-91336538D01*
X98620476Y-91457490D01*
X97531904Y-91820347D02*
X97410952Y-91880823D01*
X97169047Y-91880823D01*
X97048095Y-91820347D01*
X96987619Y-91699395D01*
X96987619Y-91638919D01*
X97048095Y-91517966D01*
X97169047Y-91457490D01*
X97350476Y-91457490D01*
X97471428Y-91397014D01*
X97531904Y-91276061D01*
X97531904Y-91215585D01*
X97471428Y-91094633D01*
X97350476Y-91034157D01*
X97169047Y-91034157D01*
X97048095Y-91094633D01*
X96382857Y-91820347D02*
X96382857Y-91880823D01*
X96443333Y-92001776D01*
X96503809Y-92062252D01*
X94931428Y-91820347D02*
X94810476Y-91880823D01*
X94568571Y-91880823D01*
X94447619Y-91820347D01*
X94387142Y-91699395D01*
X94387142Y-91638919D01*
X94447619Y-91517966D01*
X94568571Y-91457490D01*
X94749999Y-91457490D01*
X94870952Y-91397014D01*
X94931428Y-91276061D01*
X94931428Y-91215585D01*
X94870952Y-91094633D01*
X94749999Y-91034157D01*
X94568571Y-91034157D01*
X94447619Y-91094633D01*
X93359047Y-91820347D02*
X93479999Y-91880823D01*
X93721904Y-91880823D01*
X93842857Y-91820347D01*
X93903333Y-91699395D01*
X93903333Y-91215585D01*
X93842857Y-91094633D01*
X93721904Y-91034157D01*
X93479999Y-91034157D01*
X93359047Y-91094633D01*
X93298571Y-91215585D01*
X93298571Y-91336538D01*
X93903333Y-91457490D01*
X92270476Y-91820347D02*
X92391428Y-91880823D01*
X92633333Y-91880823D01*
X92754285Y-91820347D01*
X92814761Y-91699395D01*
X92814761Y-91215585D01*
X92754285Y-91094633D01*
X92633333Y-91034157D01*
X92391428Y-91034157D01*
X92270476Y-91094633D01*
X92209999Y-91215585D01*
X92209999Y-91336538D01*
X92814761Y-91457490D01*
X91665714Y-91759871D02*
X91605238Y-91820347D01*
X91665714Y-91880823D01*
X91726190Y-91820347D01*
X91665714Y-91759871D01*
X91665714Y-91880823D01*
X91665714Y-91094633D02*
X91605238Y-91155109D01*
X91665714Y-91215585D01*
X91726190Y-91155109D01*
X91665714Y-91094633D01*
X91665714Y-91215585D01*
X119182380Y-93938223D02*
X119182380Y-92668223D01*
X118638095Y-93938223D02*
X118638095Y-93272985D01*
X118698571Y-93152033D01*
X118819523Y-93091557D01*
X119000952Y-93091557D01*
X119121904Y-93152033D01*
X119182380Y-93212509D01*
X118214761Y-93091557D02*
X117730952Y-93091557D01*
X118033333Y-92668223D02*
X118033333Y-93756795D01*
X117972857Y-93877747D01*
X117851904Y-93938223D01*
X117730952Y-93938223D01*
X117489047Y-93091557D02*
X117005238Y-93091557D01*
X117307619Y-92668223D02*
X117307619Y-93756795D01*
X117247142Y-93877747D01*
X117126190Y-93938223D01*
X117005238Y-93938223D01*
X116581904Y-93091557D02*
X116581904Y-94361557D01*
X116581904Y-93152033D02*
X116460952Y-93091557D01*
X116219047Y-93091557D01*
X116098095Y-93152033D01*
X116037619Y-93212509D01*
X115977142Y-93333461D01*
X115977142Y-93696319D01*
X116037619Y-93817271D01*
X116098095Y-93877747D01*
X116219047Y-93938223D01*
X116460952Y-93938223D01*
X116581904Y-93877747D01*
X115493333Y-93877747D02*
X115372380Y-93938223D01*
X115130476Y-93938223D01*
X115009523Y-93877747D01*
X114949047Y-93756795D01*
X114949047Y-93696319D01*
X115009523Y-93575366D01*
X115130476Y-93514890D01*
X115311904Y-93514890D01*
X115432857Y-93454414D01*
X115493333Y-93333461D01*
X115493333Y-93272985D01*
X115432857Y-93152033D01*
X115311904Y-93091557D01*
X115130476Y-93091557D01*
X115009523Y-93152033D01*
X114404761Y-93817271D02*
X114344285Y-93877747D01*
X114404761Y-93938223D01*
X114465238Y-93877747D01*
X114404761Y-93817271D01*
X114404761Y-93938223D01*
X114404761Y-93152033D02*
X114344285Y-93212509D01*
X114404761Y-93272985D01*
X114465238Y-93212509D01*
X114404761Y-93152033D01*
X114404761Y-93272985D01*
X112892857Y-92607747D02*
X113981428Y-94240604D01*
X111562380Y-92607747D02*
X112650952Y-94240604D01*
X110594761Y-93091557D02*
X110594761Y-94119652D01*
X110655238Y-94240604D01*
X110715714Y-94301080D01*
X110836666Y-94361557D01*
X111018095Y-94361557D01*
X111139047Y-94301080D01*
X110594761Y-93877747D02*
X110715714Y-93938223D01*
X110957619Y-93938223D01*
X111078571Y-93877747D01*
X111139047Y-93817271D01*
X111199523Y-93696319D01*
X111199523Y-93333461D01*
X111139047Y-93212509D01*
X111078571Y-93152033D01*
X110957619Y-93091557D01*
X110715714Y-93091557D01*
X110594761Y-93152033D01*
X109990000Y-93938223D02*
X109990000Y-93091557D01*
X109990000Y-92668223D02*
X110050476Y-92728700D01*
X109990000Y-92789176D01*
X109929523Y-92728700D01*
X109990000Y-92668223D01*
X109990000Y-92789176D01*
X109566666Y-93091557D02*
X109082857Y-93091557D01*
X109385238Y-92668223D02*
X109385238Y-93756795D01*
X109324761Y-93877747D01*
X109203809Y-93938223D01*
X109082857Y-93938223D01*
X108659523Y-93938223D02*
X108659523Y-92668223D01*
X108115238Y-93938223D02*
X108115238Y-93272985D01*
X108175714Y-93152033D01*
X108296666Y-93091557D01*
X108478095Y-93091557D01*
X108599047Y-93152033D01*
X108659523Y-93212509D01*
X106966190Y-93091557D02*
X106966190Y-93938223D01*
X107510476Y-93091557D02*
X107510476Y-93756795D01*
X107450000Y-93877747D01*
X107329047Y-93938223D01*
X107147619Y-93938223D01*
X107026666Y-93877747D01*
X106966190Y-93817271D01*
X106361428Y-93938223D02*
X106361428Y-92668223D01*
X106361428Y-93152033D02*
X106240476Y-93091557D01*
X105998571Y-93091557D01*
X105877619Y-93152033D01*
X105817142Y-93212509D01*
X105756666Y-93333461D01*
X105756666Y-93696319D01*
X105817142Y-93817271D01*
X105877619Y-93877747D01*
X105998571Y-93938223D01*
X106240476Y-93938223D01*
X106361428Y-93877747D01*
X105212380Y-93817271D02*
X105151904Y-93877747D01*
X105212380Y-93938223D01*
X105272857Y-93877747D01*
X105212380Y-93817271D01*
X105212380Y-93938223D01*
X104063333Y-93877747D02*
X104184285Y-93938223D01*
X104426190Y-93938223D01*
X104547142Y-93877747D01*
X104607619Y-93817271D01*
X104668095Y-93696319D01*
X104668095Y-93333461D01*
X104607619Y-93212509D01*
X104547142Y-93152033D01*
X104426190Y-93091557D01*
X104184285Y-93091557D01*
X104063333Y-93152033D01*
X103337619Y-93938223D02*
X103458571Y-93877747D01*
X103519047Y-93817271D01*
X103579523Y-93696319D01*
X103579523Y-93333461D01*
X103519047Y-93212509D01*
X103458571Y-93152033D01*
X103337619Y-93091557D01*
X103156190Y-93091557D01*
X103035238Y-93152033D01*
X102974761Y-93212509D01*
X102914285Y-93333461D01*
X102914285Y-93696319D01*
X102974761Y-93817271D01*
X103035238Y-93877747D01*
X103156190Y-93938223D01*
X103337619Y-93938223D01*
X102369999Y-93938223D02*
X102369999Y-93091557D01*
X102369999Y-93212509D02*
X102309523Y-93152033D01*
X102188571Y-93091557D01*
X102007142Y-93091557D01*
X101886190Y-93152033D01*
X101825714Y-93272985D01*
X101825714Y-93938223D01*
X101825714Y-93272985D02*
X101765238Y-93152033D01*
X101644285Y-93091557D01*
X101462857Y-93091557D01*
X101341904Y-93152033D01*
X101281428Y-93272985D01*
X101281428Y-93938223D01*
X99769523Y-92607747D02*
X100858095Y-94240604D01*
X99467142Y-93091557D02*
X99225238Y-93938223D01*
X98983333Y-93333461D01*
X98741428Y-93938223D01*
X98499523Y-93091557D01*
X98015714Y-93938223D02*
X98015714Y-93091557D01*
X98015714Y-92668223D02*
X98076190Y-92728700D01*
X98015714Y-92789176D01*
X97955238Y-92728700D01*
X98015714Y-92668223D01*
X98015714Y-92789176D01*
X97229523Y-93938223D02*
X97350476Y-93877747D01*
X97410952Y-93756795D01*
X97410952Y-92668223D01*
X96564285Y-93938223D02*
X96685238Y-93877747D01*
X96745714Y-93756795D01*
X96745714Y-92668223D01*
X95596666Y-93877747D02*
X95717619Y-93938223D01*
X95959523Y-93938223D01*
X96080476Y-93877747D01*
X96140952Y-93756795D01*
X96140952Y-93272985D01*
X96080476Y-93152033D01*
X95959523Y-93091557D01*
X95717619Y-93091557D01*
X95596666Y-93152033D01*
X95536190Y-93272985D01*
X95536190Y-93393938D01*
X96140952Y-93514890D01*
X94991904Y-93938223D02*
X94991904Y-93091557D01*
X94991904Y-93212509D02*
X94931428Y-93152033D01*
X94810476Y-93091557D01*
X94629047Y-93091557D01*
X94508095Y-93152033D01*
X94447619Y-93272985D01*
X94447619Y-93938223D01*
X94447619Y-93272985D02*
X94387142Y-93152033D01*
X94266190Y-93091557D01*
X94084761Y-93091557D01*
X93963809Y-93152033D01*
X93903333Y-93272985D01*
X93903333Y-93938223D01*
X92754285Y-93877747D02*
X92875238Y-93938223D01*
X93117142Y-93938223D01*
X93238095Y-93877747D01*
X93298571Y-93817271D01*
X93359047Y-93696319D01*
X93359047Y-93333461D01*
X93298571Y-93212509D01*
X93238095Y-93152033D01*
X93117142Y-93091557D01*
X92875238Y-93091557D01*
X92754285Y-93152033D01*
X92330952Y-93091557D02*
X92028571Y-93938223D01*
X91726190Y-93091557D01*
X90698095Y-93091557D02*
X90698095Y-93938223D01*
X91242380Y-93091557D02*
X91242380Y-93756795D01*
X91181904Y-93877747D01*
X91060952Y-93938223D01*
X90879523Y-93938223D01*
X90758571Y-93877747D01*
X90698095Y-93817271D01*
X89186190Y-92607747D02*
X90274761Y-94240604D01*
X114253571Y-95995623D02*
X114253571Y-95148957D01*
X114253571Y-95269909D02*
X114193095Y-95209433D01*
X114072142Y-95148957D01*
X113890714Y-95148957D01*
X113769761Y-95209433D01*
X113709285Y-95330385D01*
X113709285Y-95995623D01*
X113709285Y-95330385D02*
X113648809Y-95209433D01*
X113527857Y-95148957D01*
X113346428Y-95148957D01*
X113225476Y-95209433D01*
X113165000Y-95330385D01*
X113165000Y-95995623D01*
X112560238Y-95995623D02*
X112560238Y-95148957D01*
X112560238Y-94725623D02*
X112620714Y-94786100D01*
X112560238Y-94846576D01*
X112499761Y-94786100D01*
X112560238Y-94725623D01*
X112560238Y-94846576D01*
X111411190Y-95995623D02*
X111411190Y-94725623D01*
X111411190Y-95935147D02*
X111532142Y-95995623D01*
X111774047Y-95995623D01*
X111895000Y-95935147D01*
X111955476Y-95874671D01*
X112015952Y-95753719D01*
X112015952Y-95390861D01*
X111955476Y-95269909D01*
X111895000Y-95209433D01*
X111774047Y-95148957D01*
X111532142Y-95148957D01*
X111411190Y-95209433D01*
X110806428Y-95995623D02*
X110806428Y-95148957D01*
X110806428Y-94725623D02*
X110866904Y-94786100D01*
X110806428Y-94846576D01*
X110745952Y-94786100D01*
X110806428Y-94725623D01*
X110806428Y-94846576D01*
X110201666Y-95511814D02*
X109234047Y-95511814D01*
X108689761Y-95935147D02*
X108568809Y-95995623D01*
X108326904Y-95995623D01*
X108205952Y-95935147D01*
X108145476Y-95814195D01*
X108145476Y-95753719D01*
X108205952Y-95632766D01*
X108326904Y-95572290D01*
X108508333Y-95572290D01*
X108629285Y-95511814D01*
X108689761Y-95390861D01*
X108689761Y-95330385D01*
X108629285Y-95209433D01*
X108508333Y-95148957D01*
X108326904Y-95148957D01*
X108205952Y-95209433D01*
X107419761Y-95995623D02*
X107540714Y-95935147D01*
X107601190Y-95874671D01*
X107661666Y-95753719D01*
X107661666Y-95390861D01*
X107601190Y-95269909D01*
X107540714Y-95209433D01*
X107419761Y-95148957D01*
X107238333Y-95148957D01*
X107117380Y-95209433D01*
X107056904Y-95269909D01*
X106996428Y-95390861D01*
X106996428Y-95753719D01*
X107056904Y-95874671D01*
X107117380Y-95935147D01*
X107238333Y-95995623D01*
X107419761Y-95995623D01*
X106270714Y-95995623D02*
X106391666Y-95935147D01*
X106452142Y-95814195D01*
X106452142Y-94725623D01*
X105303095Y-95935147D02*
X105424047Y-95995623D01*
X105665952Y-95995623D01*
X105786904Y-95935147D01*
X105847380Y-95814195D01*
X105847380Y-95330385D01*
X105786904Y-95209433D01*
X105665952Y-95148957D01*
X105424047Y-95148957D01*
X105303095Y-95209433D01*
X105242619Y-95330385D01*
X105242619Y-95451338D01*
X105847380Y-95572290D01*
X104698333Y-95148957D02*
X104698333Y-95995623D01*
X104698333Y-95269909D02*
X104637857Y-95209433D01*
X104516904Y-95148957D01*
X104335476Y-95148957D01*
X104214523Y-95209433D01*
X104154047Y-95330385D01*
X104154047Y-95995623D01*
X103367857Y-95995623D02*
X103488809Y-95935147D01*
X103549285Y-95874671D01*
X103609761Y-95753719D01*
X103609761Y-95390861D01*
X103549285Y-95269909D01*
X103488809Y-95209433D01*
X103367857Y-95148957D01*
X103186428Y-95148957D01*
X103065476Y-95209433D01*
X103005000Y-95269909D01*
X102944523Y-95390861D01*
X102944523Y-95753719D01*
X103005000Y-95874671D01*
X103065476Y-95935147D01*
X103186428Y-95995623D01*
X103367857Y-95995623D01*
X102400238Y-95995623D02*
X102400238Y-95148957D01*
X102400238Y-94725623D02*
X102460714Y-94786100D01*
X102400238Y-94846576D01*
X102339761Y-94786100D01*
X102400238Y-94725623D01*
X102400238Y-94846576D01*
X101251190Y-95995623D02*
X101251190Y-94725623D01*
X101251190Y-95935147D02*
X101372142Y-95995623D01*
X101614047Y-95995623D01*
X101735000Y-95935147D01*
X101795476Y-95874671D01*
X101855952Y-95753719D01*
X101855952Y-95390861D01*
X101795476Y-95269909D01*
X101735000Y-95209433D01*
X101614047Y-95148957D01*
X101372142Y-95148957D01*
X101251190Y-95209433D01*
X100646428Y-95511814D02*
X99678809Y-95511814D01*
X98529761Y-95995623D02*
X98529761Y-94725623D01*
X98529761Y-95935147D02*
X98650714Y-95995623D01*
X98892619Y-95995623D01*
X99013571Y-95935147D01*
X99074047Y-95874671D01*
X99134523Y-95753719D01*
X99134523Y-95390861D01*
X99074047Y-95269909D01*
X99013571Y-95209433D01*
X98892619Y-95148957D01*
X98650714Y-95148957D01*
X98529761Y-95209433D01*
X97925000Y-95995623D02*
X97925000Y-95148957D01*
X97925000Y-95390861D02*
X97864523Y-95269909D01*
X97804047Y-95209433D01*
X97683095Y-95148957D01*
X97562142Y-95148957D01*
X97138809Y-95995623D02*
X97138809Y-95148957D01*
X97138809Y-94725623D02*
X97199285Y-94786100D01*
X97138809Y-94846576D01*
X97078333Y-94786100D01*
X97138809Y-94725623D01*
X97138809Y-94846576D01*
X96655000Y-95148957D02*
X96352619Y-95995623D01*
X96050238Y-95148957D01*
X95082619Y-95935147D02*
X95203571Y-95995623D01*
X95445476Y-95995623D01*
X95566428Y-95935147D01*
X95626904Y-95814195D01*
X95626904Y-95330385D01*
X95566428Y-95209433D01*
X95445476Y-95148957D01*
X95203571Y-95148957D01*
X95082619Y-95209433D01*
X95022142Y-95330385D01*
X95022142Y-95451338D01*
X95626904Y-95572290D01*
X94477857Y-95995623D02*
X94477857Y-95148957D01*
X94477857Y-95390861D02*
X94417380Y-95269909D01*
X94356904Y-95209433D01*
X94235952Y-95148957D01*
X94115000Y-95148957D01*
D11*
X120958428Y-70400428D02*
X120595571Y-71924428D01*
X120305285Y-70835857D01*
X120015000Y-71924428D01*
X119652142Y-70400428D01*
X119071571Y-71924428D02*
X119071571Y-70908428D01*
X119071571Y-70400428D02*
X119144142Y-70473000D01*
X119071571Y-70545571D01*
X118999000Y-70473000D01*
X119071571Y-70400428D01*
X119071571Y-70545571D01*
X118128142Y-71924428D02*
X118273285Y-71851857D01*
X118345857Y-71706714D01*
X118345857Y-70400428D01*
X117329857Y-71924428D02*
X117475000Y-71851857D01*
X117547571Y-71706714D01*
X117547571Y-70400428D01*
X116168714Y-71851857D02*
X116313857Y-71924428D01*
X116604142Y-71924428D01*
X116749285Y-71851857D01*
X116821857Y-71706714D01*
X116821857Y-71126142D01*
X116749285Y-70981000D01*
X116604142Y-70908428D01*
X116313857Y-70908428D01*
X116168714Y-70981000D01*
X116096142Y-71126142D01*
X116096142Y-71271285D01*
X116821857Y-71416428D01*
X115443000Y-71924428D02*
X115443000Y-70908428D01*
X115443000Y-71053571D02*
X115370428Y-70981000D01*
X115225285Y-70908428D01*
X115007571Y-70908428D01*
X114862428Y-70981000D01*
X114789857Y-71126142D01*
X114789857Y-71924428D01*
X114789857Y-71126142D02*
X114717285Y-70981000D01*
X114572142Y-70908428D01*
X114354428Y-70908428D01*
X114209285Y-70981000D01*
X114136714Y-71126142D01*
X114136714Y-71924428D01*
X112249857Y-71924428D02*
X112249857Y-70400428D01*
X112249857Y-71126142D02*
X111379000Y-71126142D01*
X111379000Y-71924428D02*
X111379000Y-70400428D01*
X110653285Y-71924428D02*
X110653285Y-70908428D01*
X110653285Y-70400428D02*
X110725857Y-70473000D01*
X110653285Y-70545571D01*
X110580714Y-70473000D01*
X110653285Y-70400428D01*
X110653285Y-70545571D01*
X109709857Y-71924428D02*
X109855000Y-71851857D01*
X109927571Y-71706714D01*
X109927571Y-70400428D01*
X108911571Y-71924428D02*
X109056714Y-71851857D01*
X109129285Y-71706714D01*
X109129285Y-70400428D01*
X108331000Y-71924428D02*
X108331000Y-70908428D01*
X108331000Y-70400428D02*
X108403571Y-70473000D01*
X108331000Y-70545571D01*
X108258428Y-70473000D01*
X108331000Y-70400428D01*
X108331000Y-70545571D01*
X107024714Y-71851857D02*
X107169857Y-71924428D01*
X107460142Y-71924428D01*
X107605285Y-71851857D01*
X107677857Y-71706714D01*
X107677857Y-71126142D01*
X107605285Y-70981000D01*
X107460142Y-70908428D01*
X107169857Y-70908428D01*
X107024714Y-70981000D01*
X106952142Y-71126142D01*
X106952142Y-71271285D01*
X107677857Y-71416428D01*
X106299000Y-71924428D02*
X106299000Y-70908428D01*
X106299000Y-71198714D02*
X106226428Y-71053571D01*
X106153857Y-70981000D01*
X106008714Y-70908428D01*
X105863571Y-70908428D01*
X104194428Y-71924428D02*
X104194428Y-70908428D01*
X104194428Y-71198714D02*
X104121857Y-71053571D01*
X104049285Y-70981000D01*
X103904142Y-70908428D01*
X103759000Y-70908428D01*
X102670428Y-71851857D02*
X102815571Y-71924428D01*
X103105857Y-71924428D01*
X103251000Y-71851857D01*
X103323571Y-71706714D01*
X103323571Y-71126142D01*
X103251000Y-70981000D01*
X103105857Y-70908428D01*
X102815571Y-70908428D01*
X102670428Y-70981000D01*
X102597857Y-71126142D01*
X102597857Y-71271285D01*
X103323571Y-71416428D01*
X102089857Y-70908428D02*
X101727000Y-71924428D01*
X101364142Y-70908428D01*
X100856142Y-70545571D02*
X100783571Y-70473000D01*
X100638428Y-70400428D01*
X100275571Y-70400428D01*
X100130428Y-70473000D01*
X100057857Y-70545571D01*
X99985285Y-70690714D01*
X99985285Y-70835857D01*
X100057857Y-71053571D01*
X100928714Y-71924428D01*
X99985285Y-71924428D01*
X99332142Y-71779285D02*
X99259571Y-71851857D01*
X99332142Y-71924428D01*
X99404714Y-71851857D01*
X99332142Y-71779285D01*
X99332142Y-71924428D01*
X97808142Y-71924428D02*
X98679000Y-71924428D01*
X98243571Y-71924428D02*
X98243571Y-70400428D01*
X98388714Y-70618142D01*
X98533857Y-70763285D01*
X98679000Y-70835857D01*
X95195571Y-71924428D02*
X96066428Y-71924428D01*
X95631000Y-71924428D02*
X95631000Y-70400428D01*
X95776142Y-70618142D01*
X95921285Y-70763285D01*
X96066428Y-70835857D01*
X94469857Y-71924428D02*
X94179571Y-71924428D01*
X94034428Y-71851857D01*
X93961857Y-71779285D01*
X93816714Y-71561571D01*
X93744142Y-71271285D01*
X93744142Y-70690714D01*
X93816714Y-70545571D01*
X93889285Y-70473000D01*
X94034428Y-70400428D01*
X94324714Y-70400428D01*
X94469857Y-70473000D01*
X94542428Y-70545571D01*
X94615000Y-70690714D01*
X94615000Y-71053571D01*
X94542428Y-71198714D01*
X94469857Y-71271285D01*
X94324714Y-71343857D01*
X94034428Y-71343857D01*
X93889285Y-71271285D01*
X93816714Y-71198714D01*
X93744142Y-71053571D01*
X93091000Y-71779285D02*
X93018428Y-71851857D01*
X93091000Y-71924428D01*
X93163571Y-71851857D01*
X93091000Y-71779285D01*
X93091000Y-71924428D01*
X92437857Y-70545571D02*
X92365285Y-70473000D01*
X92220142Y-70400428D01*
X91857285Y-70400428D01*
X91712142Y-70473000D01*
X91639571Y-70545571D01*
X91567000Y-70690714D01*
X91567000Y-70835857D01*
X91639571Y-71053571D01*
X92510428Y-71924428D01*
X91567000Y-71924428D01*
X90986428Y-70545571D02*
X90913857Y-70473000D01*
X90768714Y-70400428D01*
X90405857Y-70400428D01*
X90260714Y-70473000D01*
X90188142Y-70545571D01*
X90115571Y-70690714D01*
X90115571Y-70835857D01*
X90188142Y-71053571D01*
X91059000Y-71924428D01*
X90115571Y-71924428D01*
X88809285Y-70908428D02*
X88809285Y-71924428D01*
X89172142Y-70327857D02*
X89535000Y-71416428D01*
X88591571Y-71416428D01*
X119823857Y-67745428D02*
X119823857Y-68979142D01*
X119751285Y-69124285D01*
X119678714Y-69196857D01*
X119533571Y-69269428D01*
X119243285Y-69269428D01*
X119098142Y-69196857D01*
X119025571Y-69124285D01*
X118953000Y-68979142D01*
X118953000Y-67745428D01*
X118299857Y-69196857D02*
X118082142Y-69269428D01*
X117719285Y-69269428D01*
X117574142Y-69196857D01*
X117501571Y-69124285D01*
X117429000Y-68979142D01*
X117429000Y-68834000D01*
X117501571Y-68688857D01*
X117574142Y-68616285D01*
X117719285Y-68543714D01*
X118009571Y-68471142D01*
X118154714Y-68398571D01*
X118227285Y-68326000D01*
X118299857Y-68180857D01*
X118299857Y-68035714D01*
X118227285Y-67890571D01*
X118154714Y-67818000D01*
X118009571Y-67745428D01*
X117646714Y-67745428D01*
X117429000Y-67818000D01*
X116267857Y-68471142D02*
X116050142Y-68543714D01*
X115977571Y-68616285D01*
X115905000Y-68761428D01*
X115905000Y-68979142D01*
X115977571Y-69124285D01*
X116050142Y-69196857D01*
X116195285Y-69269428D01*
X116775857Y-69269428D01*
X116775857Y-67745428D01*
X116267857Y-67745428D01*
X116122714Y-67818000D01*
X116050142Y-67890571D01*
X115977571Y-68035714D01*
X115977571Y-68180857D01*
X116050142Y-68326000D01*
X116122714Y-68398571D01*
X116267857Y-68471142D01*
X116775857Y-68471142D01*
X114090714Y-68688857D02*
X112929571Y-68688857D01*
X112203857Y-68253428D02*
X111042714Y-68688857D01*
X112203857Y-69124285D01*
X109228428Y-69196857D02*
X109010714Y-69269428D01*
X108647857Y-69269428D01*
X108502714Y-69196857D01*
X108430142Y-69124285D01*
X108357571Y-68979142D01*
X108357571Y-68834000D01*
X108430142Y-68688857D01*
X108502714Y-68616285D01*
X108647857Y-68543714D01*
X108938142Y-68471142D01*
X109083285Y-68398571D01*
X109155857Y-68326000D01*
X109228428Y-68180857D01*
X109228428Y-68035714D01*
X109155857Y-67890571D01*
X109083285Y-67818000D01*
X108938142Y-67745428D01*
X108575285Y-67745428D01*
X108357571Y-67818000D01*
X107123857Y-69196857D02*
X107269000Y-69269428D01*
X107559285Y-69269428D01*
X107704428Y-69196857D01*
X107777000Y-69051714D01*
X107777000Y-68471142D01*
X107704428Y-68326000D01*
X107559285Y-68253428D01*
X107269000Y-68253428D01*
X107123857Y-68326000D01*
X107051285Y-68471142D01*
X107051285Y-68616285D01*
X107777000Y-68761428D01*
X106398142Y-69269428D02*
X106398142Y-68253428D01*
X106398142Y-68543714D02*
X106325571Y-68398571D01*
X106253000Y-68326000D01*
X106107857Y-68253428D01*
X105962714Y-68253428D01*
X105454714Y-69269428D02*
X105454714Y-68253428D01*
X105454714Y-67745428D02*
X105527285Y-67818000D01*
X105454714Y-67890571D01*
X105382142Y-67818000D01*
X105454714Y-67745428D01*
X105454714Y-67890571D01*
X104075857Y-69269428D02*
X104075857Y-68471142D01*
X104148428Y-68326000D01*
X104293571Y-68253428D01*
X104583857Y-68253428D01*
X104729000Y-68326000D01*
X104075857Y-69196857D02*
X104221000Y-69269428D01*
X104583857Y-69269428D01*
X104729000Y-69196857D01*
X104801571Y-69051714D01*
X104801571Y-68906571D01*
X104729000Y-68761428D01*
X104583857Y-68688857D01*
X104221000Y-68688857D01*
X104075857Y-68616285D01*
X103132428Y-69269428D02*
X103277571Y-69196857D01*
X103350142Y-69051714D01*
X103350142Y-67745428D01*
X102551857Y-68688857D02*
X101390714Y-68688857D01*
X100447285Y-69269428D02*
X100592428Y-69196857D01*
X100665000Y-69124285D01*
X100737571Y-68979142D01*
X100737571Y-68543714D01*
X100665000Y-68398571D01*
X100592428Y-68326000D01*
X100447285Y-68253428D01*
X100229571Y-68253428D01*
X100084428Y-68326000D01*
X100011857Y-68398571D01*
X99939285Y-68543714D01*
X99939285Y-68979142D01*
X100011857Y-69124285D01*
X100084428Y-69196857D01*
X100229571Y-69269428D01*
X100447285Y-69269428D01*
X99431285Y-68253428D02*
X99068428Y-69269428D01*
X98705571Y-68253428D01*
X97544428Y-69196857D02*
X97689571Y-69269428D01*
X97979857Y-69269428D01*
X98125000Y-69196857D01*
X98197571Y-69051714D01*
X98197571Y-68471142D01*
X98125000Y-68326000D01*
X97979857Y-68253428D01*
X97689571Y-68253428D01*
X97544428Y-68326000D01*
X97471857Y-68471142D01*
X97471857Y-68616285D01*
X98197571Y-68761428D01*
X96818714Y-69269428D02*
X96818714Y-68253428D01*
X96818714Y-68543714D02*
X96746142Y-68398571D01*
X96673571Y-68326000D01*
X96528428Y-68253428D01*
X96383285Y-68253428D01*
X95875285Y-68688857D02*
X94714142Y-68688857D01*
X93117571Y-69269428D02*
X93625571Y-68543714D01*
X93988428Y-69269428D02*
X93988428Y-67745428D01*
X93407857Y-67745428D01*
X93262714Y-67818000D01*
X93190142Y-67890571D01*
X93117571Y-68035714D01*
X93117571Y-68253428D01*
X93190142Y-68398571D01*
X93262714Y-68471142D01*
X93407857Y-68543714D01*
X93988428Y-68543714D01*
X92029000Y-67745428D02*
X92029000Y-68834000D01*
X92101571Y-69051714D01*
X92246714Y-69196857D01*
X92464428Y-69269428D01*
X92609571Y-69269428D01*
X90505000Y-69269428D02*
X91375857Y-69269428D01*
X90940428Y-69269428D02*
X90940428Y-67745428D01*
X91085571Y-67963142D01*
X91230714Y-68108285D01*
X91375857Y-68180857D01*
X89924428Y-67890571D02*
X89851857Y-67818000D01*
X89706714Y-67745428D01*
X89343857Y-67745428D01*
X89198714Y-67818000D01*
X89126142Y-67890571D01*
X89053571Y-68035714D01*
X89053571Y-68180857D01*
X89126142Y-68398571D01*
X89997000Y-69269428D01*
X89053571Y-69269428D01*
D12*
G36*
X84950122Y-76629776D02*
G01*
X84844388Y-76630355D01*
X84767868Y-76631922D01*
X84715628Y-76634972D01*
X84682737Y-76639996D01*
X84664263Y-76647489D01*
X84655273Y-76657944D01*
X84650837Y-76671853D01*
X84650406Y-76673654D01*
X84643667Y-76706145D01*
X84631192Y-76770252D01*
X84614281Y-76859151D01*
X84594229Y-76966019D01*
X84572336Y-77084033D01*
X84571571Y-77088178D01*
X84549641Y-77203831D01*
X84529123Y-77306014D01*
X84511341Y-77388598D01*
X84497619Y-77445456D01*
X84489282Y-77470458D01*
X84488884Y-77470901D01*
X84464323Y-77483110D01*
X84413685Y-77503456D01*
X84347905Y-77527545D01*
X84347539Y-77527674D01*
X84264683Y-77558818D01*
X84167000Y-77598491D01*
X84074923Y-77638381D01*
X84070566Y-77640353D01*
X83920593Y-77708420D01*
X83588502Y-77481639D01*
X83486626Y-77412504D01*
X83394343Y-77350697D01*
X83316997Y-77299733D01*
X83259936Y-77263127D01*
X83228505Y-77244394D01*
X83225521Y-77243004D01*
X83202679Y-77249190D01*
X83160018Y-77279035D01*
X83095872Y-77333947D01*
X83008579Y-77415334D01*
X82919465Y-77501922D01*
X82833559Y-77587247D01*
X82756673Y-77665108D01*
X82693436Y-77730697D01*
X82648477Y-77779205D01*
X82626424Y-77805825D01*
X82625604Y-77807195D01*
X82623166Y-77825463D01*
X82632350Y-77855295D01*
X82655426Y-77900721D01*
X82694663Y-77965770D01*
X82752330Y-78054470D01*
X82829205Y-78168657D01*
X82897430Y-78269162D01*
X82958418Y-78359303D01*
X83008644Y-78433849D01*
X83044584Y-78487565D01*
X83062713Y-78515218D01*
X83063854Y-78517095D01*
X83061641Y-78543590D01*
X83044862Y-78595086D01*
X83016858Y-78661851D01*
X83006878Y-78683172D01*
X82963328Y-78778159D01*
X82916866Y-78885937D01*
X82879123Y-78979192D01*
X82851927Y-79048406D01*
X82830325Y-79101006D01*
X82817842Y-79128497D01*
X82816291Y-79130616D01*
X82793332Y-79134124D01*
X82739214Y-79143738D01*
X82661132Y-79158089D01*
X82566281Y-79175807D01*
X82461857Y-79195525D01*
X82355056Y-79215874D01*
X82253074Y-79235486D01*
X82163106Y-79252991D01*
X82092347Y-79267022D01*
X82047994Y-79276209D01*
X82037115Y-79278807D01*
X82025878Y-79285218D01*
X82017395Y-79299697D01*
X82011286Y-79327133D01*
X82007168Y-79372411D01*
X82004659Y-79440420D01*
X82003379Y-79536047D01*
X82002946Y-79664180D01*
X82002923Y-79716701D01*
X82002923Y-80143845D01*
X82105500Y-80164091D01*
X82162569Y-80175070D01*
X82247731Y-80191095D01*
X82350628Y-80210233D01*
X82460904Y-80230551D01*
X82491385Y-80236132D01*
X82593145Y-80255917D01*
X82681795Y-80275373D01*
X82749892Y-80292697D01*
X82789996Y-80306088D01*
X82796677Y-80310079D01*
X82813081Y-80338342D01*
X82836601Y-80393109D01*
X82862684Y-80463588D01*
X82867858Y-80478769D01*
X82902044Y-80572896D01*
X82944477Y-80679101D01*
X82986003Y-80774473D01*
X82986208Y-80774916D01*
X83055360Y-80924525D01*
X82600488Y-81593617D01*
X82892500Y-81886116D01*
X82980820Y-81973170D01*
X83061375Y-82049909D01*
X83129640Y-82112237D01*
X83181092Y-82156056D01*
X83211206Y-82177270D01*
X83215526Y-82178616D01*
X83240889Y-82168016D01*
X83292642Y-82138547D01*
X83365132Y-82093705D01*
X83452706Y-82036984D01*
X83547388Y-81973462D01*
X83643484Y-81908668D01*
X83729163Y-81852287D01*
X83798984Y-81807788D01*
X83847506Y-81778639D01*
X83869218Y-81768308D01*
X83895707Y-81777050D01*
X83945938Y-81800087D01*
X84009549Y-81832631D01*
X84016292Y-81836249D01*
X84101954Y-81879210D01*
X84160694Y-81900279D01*
X84197228Y-81900503D01*
X84216269Y-81880928D01*
X84216380Y-81880654D01*
X84225898Y-81857472D01*
X84248597Y-81802441D01*
X84282718Y-81719822D01*
X84326500Y-81613872D01*
X84378184Y-81488852D01*
X84436008Y-81349020D01*
X84492009Y-81213637D01*
X84553553Y-81064234D01*
X84610061Y-80925832D01*
X84659839Y-80802673D01*
X84701194Y-80699002D01*
X84732432Y-80619059D01*
X84751859Y-80567088D01*
X84757846Y-80547692D01*
X84742832Y-80525443D01*
X84703561Y-80489982D01*
X84651193Y-80450887D01*
X84502059Y-80327245D01*
X84385489Y-80185522D01*
X84302882Y-80028704D01*
X84255634Y-79859775D01*
X84245143Y-79681722D01*
X84252769Y-79599539D01*
X84294318Y-79429031D01*
X84365877Y-79278459D01*
X84463005Y-79149309D01*
X84581266Y-79043064D01*
X84716220Y-78961210D01*
X84863429Y-78905232D01*
X85018456Y-78876615D01*
X85176861Y-78876844D01*
X85334206Y-78907405D01*
X85486054Y-78969782D01*
X85627965Y-79065460D01*
X85687197Y-79119572D01*
X85800797Y-79258520D01*
X85879894Y-79410361D01*
X85925014Y-79570667D01*
X85936684Y-79735012D01*
X85915431Y-79898971D01*
X85861780Y-80058118D01*
X85776260Y-80208025D01*
X85659395Y-80344267D01*
X85528807Y-80450887D01*
X85474412Y-80491642D01*
X85435986Y-80526718D01*
X85422154Y-80547726D01*
X85429397Y-80570635D01*
X85449995Y-80625365D01*
X85482254Y-80707672D01*
X85524479Y-80813315D01*
X85574977Y-80938050D01*
X85632052Y-81077636D01*
X85688146Y-81213670D01*
X85750033Y-81363201D01*
X85807356Y-81501767D01*
X85858356Y-81625107D01*
X85901273Y-81728964D01*
X85934347Y-81809080D01*
X85955819Y-81861195D01*
X85963775Y-81880654D01*
X85982571Y-81900423D01*
X86018926Y-81900365D01*
X86077521Y-81879441D01*
X86163032Y-81836613D01*
X86163708Y-81836249D01*
X86228093Y-81803012D01*
X86280139Y-81778802D01*
X86309488Y-81768404D01*
X86310783Y-81768308D01*
X86332876Y-81778855D01*
X86381652Y-81808184D01*
X86451669Y-81852827D01*
X86537486Y-81909314D01*
X86632612Y-81973462D01*
X86729460Y-82038411D01*
X86816747Y-82094896D01*
X86888819Y-82139421D01*
X86940023Y-82168490D01*
X86964474Y-82178616D01*
X86986990Y-82165307D01*
X87032258Y-82128112D01*
X87095756Y-82071128D01*
X87172961Y-81998449D01*
X87259349Y-81914171D01*
X87287601Y-81886016D01*
X87579713Y-81593416D01*
X87357369Y-81267104D01*
X87289798Y-81166897D01*
X87230493Y-81076963D01*
X87182783Y-81002510D01*
X87149993Y-80948751D01*
X87135452Y-80920894D01*
X87135026Y-80918912D01*
X87142692Y-80892655D01*
X87163311Y-80839837D01*
X87193315Y-80769310D01*
X87214375Y-80722093D01*
X87253752Y-80631694D01*
X87290835Y-80540366D01*
X87319585Y-80463200D01*
X87327395Y-80439692D01*
X87349583Y-80376916D01*
X87371273Y-80328411D01*
X87383187Y-80310079D01*
X87409477Y-80298859D01*
X87466858Y-80282954D01*
X87547882Y-80264167D01*
X87645105Y-80244299D01*
X87688615Y-80236132D01*
X87799104Y-80215829D01*
X87905084Y-80196170D01*
X87996199Y-80179088D01*
X88062092Y-80166518D01*
X88074500Y-80164091D01*
X88177077Y-80143845D01*
X88177077Y-79716701D01*
X88176847Y-79576246D01*
X88175901Y-79469979D01*
X88173859Y-79393013D01*
X88170338Y-79340460D01*
X88164957Y-79307433D01*
X88157334Y-79289045D01*
X88147088Y-79280408D01*
X88142885Y-79278807D01*
X88117530Y-79273127D01*
X88061516Y-79261795D01*
X87982036Y-79246179D01*
X87886288Y-79227647D01*
X87781467Y-79207569D01*
X87674768Y-79187312D01*
X87573387Y-79168246D01*
X87484521Y-79151739D01*
X87415363Y-79139159D01*
X87373111Y-79131875D01*
X87363710Y-79130616D01*
X87355193Y-79113763D01*
X87336340Y-79068870D01*
X87310676Y-79004430D01*
X87300877Y-78979192D01*
X87261352Y-78881686D01*
X87214808Y-78773959D01*
X87173123Y-78683172D01*
X87142450Y-78613753D01*
X87122044Y-78556710D01*
X87115232Y-78521777D01*
X87116318Y-78517095D01*
X87130715Y-78494991D01*
X87163588Y-78445831D01*
X87211410Y-78374848D01*
X87270652Y-78287278D01*
X87337785Y-78188357D01*
X87351059Y-78168830D01*
X87428954Y-78053140D01*
X87486213Y-77965044D01*
X87525119Y-77900486D01*
X87547956Y-77855411D01*
X87557006Y-77825763D01*
X87554552Y-77807485D01*
X87554489Y-77807369D01*
X87535173Y-77783361D01*
X87492449Y-77736947D01*
X87430949Y-77672937D01*
X87355302Y-77596145D01*
X87270139Y-77511382D01*
X87260535Y-77501922D01*
X87153210Y-77397989D01*
X87070385Y-77321675D01*
X87010395Y-77271571D01*
X86971577Y-77246270D01*
X86954480Y-77243004D01*
X86929527Y-77257250D01*
X86877745Y-77290156D01*
X86804480Y-77338208D01*
X86715080Y-77397890D01*
X86614889Y-77465688D01*
X86591499Y-77481639D01*
X86259407Y-77708420D01*
X86109435Y-77640353D01*
X86018230Y-77600685D01*
X85920331Y-77560791D01*
X85836169Y-77528983D01*
X85832462Y-77527674D01*
X85766631Y-77503576D01*
X85715884Y-77483200D01*
X85691158Y-77470936D01*
X85691116Y-77470901D01*
X85683271Y-77448734D01*
X85669934Y-77394217D01*
X85652430Y-77313480D01*
X85632083Y-77212650D01*
X85610218Y-77097856D01*
X85608429Y-77088178D01*
X85586496Y-76969904D01*
X85566360Y-76862542D01*
X85549320Y-76772917D01*
X85536672Y-76707851D01*
X85529716Y-76674168D01*
X85529594Y-76673654D01*
X85525361Y-76659325D01*
X85517129Y-76648507D01*
X85499967Y-76640706D01*
X85468942Y-76635429D01*
X85419122Y-76632182D01*
X85345576Y-76630472D01*
X85243371Y-76629807D01*
X85107575Y-76629693D01*
X85090000Y-76629692D01*
X84950122Y-76629776D01*
X84950122Y-76629776D01*
G37*
X84950122Y-76629776D02*
X84844388Y-76630355D01*
X84767868Y-76631922D01*
X84715628Y-76634972D01*
X84682737Y-76639996D01*
X84664263Y-76647489D01*
X84655273Y-76657944D01*
X84650837Y-76671853D01*
X84650406Y-76673654D01*
X84643667Y-76706145D01*
X84631192Y-76770252D01*
X84614281Y-76859151D01*
X84594229Y-76966019D01*
X84572336Y-77084033D01*
X84571571Y-77088178D01*
X84549641Y-77203831D01*
X84529123Y-77306014D01*
X84511341Y-77388598D01*
X84497619Y-77445456D01*
X84489282Y-77470458D01*
X84488884Y-77470901D01*
X84464323Y-77483110D01*
X84413685Y-77503456D01*
X84347905Y-77527545D01*
X84347539Y-77527674D01*
X84264683Y-77558818D01*
X84167000Y-77598491D01*
X84074923Y-77638381D01*
X84070566Y-77640353D01*
X83920593Y-77708420D01*
X83588502Y-77481639D01*
X83486626Y-77412504D01*
X83394343Y-77350697D01*
X83316997Y-77299733D01*
X83259936Y-77263127D01*
X83228505Y-77244394D01*
X83225521Y-77243004D01*
X83202679Y-77249190D01*
X83160018Y-77279035D01*
X83095872Y-77333947D01*
X83008579Y-77415334D01*
X82919465Y-77501922D01*
X82833559Y-77587247D01*
X82756673Y-77665108D01*
X82693436Y-77730697D01*
X82648477Y-77779205D01*
X82626424Y-77805825D01*
X82625604Y-77807195D01*
X82623166Y-77825463D01*
X82632350Y-77855295D01*
X82655426Y-77900721D01*
X82694663Y-77965770D01*
X82752330Y-78054470D01*
X82829205Y-78168657D01*
X82897430Y-78269162D01*
X82958418Y-78359303D01*
X83008644Y-78433849D01*
X83044584Y-78487565D01*
X83062713Y-78515218D01*
X83063854Y-78517095D01*
X83061641Y-78543590D01*
X83044862Y-78595086D01*
X83016858Y-78661851D01*
X83006878Y-78683172D01*
X82963328Y-78778159D01*
X82916866Y-78885937D01*
X82879123Y-78979192D01*
X82851927Y-79048406D01*
X82830325Y-79101006D01*
X82817842Y-79128497D01*
X82816291Y-79130616D01*
X82793332Y-79134124D01*
X82739214Y-79143738D01*
X82661132Y-79158089D01*
X82566281Y-79175807D01*
X82461857Y-79195525D01*
X82355056Y-79215874D01*
X82253074Y-79235486D01*
X82163106Y-79252991D01*
X82092347Y-79267022D01*
X82047994Y-79276209D01*
X82037115Y-79278807D01*
X82025878Y-79285218D01*
X82017395Y-79299697D01*
X82011286Y-79327133D01*
X82007168Y-79372411D01*
X82004659Y-79440420D01*
X82003379Y-79536047D01*
X82002946Y-79664180D01*
X82002923Y-79716701D01*
X82002923Y-80143845D01*
X82105500Y-80164091D01*
X82162569Y-80175070D01*
X82247731Y-80191095D01*
X82350628Y-80210233D01*
X82460904Y-80230551D01*
X82491385Y-80236132D01*
X82593145Y-80255917D01*
X82681795Y-80275373D01*
X82749892Y-80292697D01*
X82789996Y-80306088D01*
X82796677Y-80310079D01*
X82813081Y-80338342D01*
X82836601Y-80393109D01*
X82862684Y-80463588D01*
X82867858Y-80478769D01*
X82902044Y-80572896D01*
X82944477Y-80679101D01*
X82986003Y-80774473D01*
X82986208Y-80774916D01*
X83055360Y-80924525D01*
X82600488Y-81593617D01*
X82892500Y-81886116D01*
X82980820Y-81973170D01*
X83061375Y-82049909D01*
X83129640Y-82112237D01*
X83181092Y-82156056D01*
X83211206Y-82177270D01*
X83215526Y-82178616D01*
X83240889Y-82168016D01*
X83292642Y-82138547D01*
X83365132Y-82093705D01*
X83452706Y-82036984D01*
X83547388Y-81973462D01*
X83643484Y-81908668D01*
X83729163Y-81852287D01*
X83798984Y-81807788D01*
X83847506Y-81778639D01*
X83869218Y-81768308D01*
X83895707Y-81777050D01*
X83945938Y-81800087D01*
X84009549Y-81832631D01*
X84016292Y-81836249D01*
X84101954Y-81879210D01*
X84160694Y-81900279D01*
X84197228Y-81900503D01*
X84216269Y-81880928D01*
X84216380Y-81880654D01*
X84225898Y-81857472D01*
X84248597Y-81802441D01*
X84282718Y-81719822D01*
X84326500Y-81613872D01*
X84378184Y-81488852D01*
X84436008Y-81349020D01*
X84492009Y-81213637D01*
X84553553Y-81064234D01*
X84610061Y-80925832D01*
X84659839Y-80802673D01*
X84701194Y-80699002D01*
X84732432Y-80619059D01*
X84751859Y-80567088D01*
X84757846Y-80547692D01*
X84742832Y-80525443D01*
X84703561Y-80489982D01*
X84651193Y-80450887D01*
X84502059Y-80327245D01*
X84385489Y-80185522D01*
X84302882Y-80028704D01*
X84255634Y-79859775D01*
X84245143Y-79681722D01*
X84252769Y-79599539D01*
X84294318Y-79429031D01*
X84365877Y-79278459D01*
X84463005Y-79149309D01*
X84581266Y-79043064D01*
X84716220Y-78961210D01*
X84863429Y-78905232D01*
X85018456Y-78876615D01*
X85176861Y-78876844D01*
X85334206Y-78907405D01*
X85486054Y-78969782D01*
X85627965Y-79065460D01*
X85687197Y-79119572D01*
X85800797Y-79258520D01*
X85879894Y-79410361D01*
X85925014Y-79570667D01*
X85936684Y-79735012D01*
X85915431Y-79898971D01*
X85861780Y-80058118D01*
X85776260Y-80208025D01*
X85659395Y-80344267D01*
X85528807Y-80450887D01*
X85474412Y-80491642D01*
X85435986Y-80526718D01*
X85422154Y-80547726D01*
X85429397Y-80570635D01*
X85449995Y-80625365D01*
X85482254Y-80707672D01*
X85524479Y-80813315D01*
X85574977Y-80938050D01*
X85632052Y-81077636D01*
X85688146Y-81213670D01*
X85750033Y-81363201D01*
X85807356Y-81501767D01*
X85858356Y-81625107D01*
X85901273Y-81728964D01*
X85934347Y-81809080D01*
X85955819Y-81861195D01*
X85963775Y-81880654D01*
X85982571Y-81900423D01*
X86018926Y-81900365D01*
X86077521Y-81879441D01*
X86163032Y-81836613D01*
X86163708Y-81836249D01*
X86228093Y-81803012D01*
X86280139Y-81778802D01*
X86309488Y-81768404D01*
X86310783Y-81768308D01*
X86332876Y-81778855D01*
X86381652Y-81808184D01*
X86451669Y-81852827D01*
X86537486Y-81909314D01*
X86632612Y-81973462D01*
X86729460Y-82038411D01*
X86816747Y-82094896D01*
X86888819Y-82139421D01*
X86940023Y-82168490D01*
X86964474Y-82178616D01*
X86986990Y-82165307D01*
X87032258Y-82128112D01*
X87095756Y-82071128D01*
X87172961Y-81998449D01*
X87259349Y-81914171D01*
X87287601Y-81886016D01*
X87579713Y-81593416D01*
X87357369Y-81267104D01*
X87289798Y-81166897D01*
X87230493Y-81076963D01*
X87182783Y-81002510D01*
X87149993Y-80948751D01*
X87135452Y-80920894D01*
X87135026Y-80918912D01*
X87142692Y-80892655D01*
X87163311Y-80839837D01*
X87193315Y-80769310D01*
X87214375Y-80722093D01*
X87253752Y-80631694D01*
X87290835Y-80540366D01*
X87319585Y-80463200D01*
X87327395Y-80439692D01*
X87349583Y-80376916D01*
X87371273Y-80328411D01*
X87383187Y-80310079D01*
X87409477Y-80298859D01*
X87466858Y-80282954D01*
X87547882Y-80264167D01*
X87645105Y-80244299D01*
X87688615Y-80236132D01*
X87799104Y-80215829D01*
X87905084Y-80196170D01*
X87996199Y-80179088D01*
X88062092Y-80166518D01*
X88074500Y-80164091D01*
X88177077Y-80143845D01*
X88177077Y-79716701D01*
X88176847Y-79576246D01*
X88175901Y-79469979D01*
X88173859Y-79393013D01*
X88170338Y-79340460D01*
X88164957Y-79307433D01*
X88157334Y-79289045D01*
X88147088Y-79280408D01*
X88142885Y-79278807D01*
X88117530Y-79273127D01*
X88061516Y-79261795D01*
X87982036Y-79246179D01*
X87886288Y-79227647D01*
X87781467Y-79207569D01*
X87674768Y-79187312D01*
X87573387Y-79168246D01*
X87484521Y-79151739D01*
X87415363Y-79139159D01*
X87373111Y-79131875D01*
X87363710Y-79130616D01*
X87355193Y-79113763D01*
X87336340Y-79068870D01*
X87310676Y-79004430D01*
X87300877Y-78979192D01*
X87261352Y-78881686D01*
X87214808Y-78773959D01*
X87173123Y-78683172D01*
X87142450Y-78613753D01*
X87122044Y-78556710D01*
X87115232Y-78521777D01*
X87116318Y-78517095D01*
X87130715Y-78494991D01*
X87163588Y-78445831D01*
X87211410Y-78374848D01*
X87270652Y-78287278D01*
X87337785Y-78188357D01*
X87351059Y-78168830D01*
X87428954Y-78053140D01*
X87486213Y-77965044D01*
X87525119Y-77900486D01*
X87547956Y-77855411D01*
X87557006Y-77825763D01*
X87554552Y-77807485D01*
X87554489Y-77807369D01*
X87535173Y-77783361D01*
X87492449Y-77736947D01*
X87430949Y-77672937D01*
X87355302Y-77596145D01*
X87270139Y-77511382D01*
X87260535Y-77501922D01*
X87153210Y-77397989D01*
X87070385Y-77321675D01*
X87010395Y-77271571D01*
X86971577Y-77246270D01*
X86954480Y-77243004D01*
X86929527Y-77257250D01*
X86877745Y-77290156D01*
X86804480Y-77338208D01*
X86715080Y-77397890D01*
X86614889Y-77465688D01*
X86591499Y-77481639D01*
X86259407Y-77708420D01*
X86109435Y-77640353D01*
X86018230Y-77600685D01*
X85920331Y-77560791D01*
X85836169Y-77528983D01*
X85832462Y-77527674D01*
X85766631Y-77503576D01*
X85715884Y-77483200D01*
X85691158Y-77470936D01*
X85691116Y-77470901D01*
X85683271Y-77448734D01*
X85669934Y-77394217D01*
X85652430Y-77313480D01*
X85632083Y-77212650D01*
X85610218Y-77097856D01*
X85608429Y-77088178D01*
X85586496Y-76969904D01*
X85566360Y-76862542D01*
X85549320Y-76772917D01*
X85536672Y-76707851D01*
X85529716Y-76674168D01*
X85529594Y-76673654D01*
X85525361Y-76659325D01*
X85517129Y-76648507D01*
X85499967Y-76640706D01*
X85468942Y-76635429D01*
X85419122Y-76632182D01*
X85345576Y-76630472D01*
X85243371Y-76629807D01*
X85107575Y-76629693D01*
X85090000Y-76629692D01*
X84950122Y-76629776D01*
G36*
X80844776Y-82989838D02*
G01*
X80767472Y-83040361D01*
X80730186Y-83085590D01*
X80700647Y-83167663D01*
X80698301Y-83232607D01*
X80703615Y-83319445D01*
X80903885Y-83407103D01*
X81001261Y-83451887D01*
X81064887Y-83487913D01*
X81097971Y-83519117D01*
X81103720Y-83549436D01*
X81085342Y-83582805D01*
X81065077Y-83604923D01*
X81006111Y-83640393D01*
X80941976Y-83642879D01*
X80883074Y-83615235D01*
X80839803Y-83560320D01*
X80832064Y-83540928D01*
X80794994Y-83480364D01*
X80752346Y-83454552D01*
X80693846Y-83432471D01*
X80693846Y-83516184D01*
X80699018Y-83573150D01*
X80719277Y-83621189D01*
X80761738Y-83676346D01*
X80768049Y-83683514D01*
X80815280Y-83732585D01*
X80855879Y-83758920D01*
X80906672Y-83771035D01*
X80948780Y-83775003D01*
X81024098Y-83775991D01*
X81077714Y-83763466D01*
X81111162Y-83744869D01*
X81163732Y-83703975D01*
X81200121Y-83659748D01*
X81223150Y-83604126D01*
X81235641Y-83529047D01*
X81240413Y-83426449D01*
X81240794Y-83374376D01*
X81239499Y-83311948D01*
X81121529Y-83311948D01*
X81120161Y-83345438D01*
X81116751Y-83350923D01*
X81094247Y-83343472D01*
X81045818Y-83323753D01*
X80981092Y-83295718D01*
X80967557Y-83289692D01*
X80885756Y-83248096D01*
X80840688Y-83211538D01*
X80830783Y-83177296D01*
X80854474Y-83142648D01*
X80874040Y-83127339D01*
X80944640Y-83096721D01*
X81010720Y-83101780D01*
X81066041Y-83139151D01*
X81104364Y-83205473D01*
X81116651Y-83258116D01*
X81121529Y-83311948D01*
X81239499Y-83311948D01*
X81238270Y-83252720D01*
X81228968Y-83162710D01*
X81210540Y-83097167D01*
X81180640Y-83048912D01*
X81136920Y-83010767D01*
X81117859Y-82998440D01*
X81031274Y-82966336D01*
X80936478Y-82964316D01*
X80844776Y-82989838D01*
X80844776Y-82989838D01*
G37*
X80844776Y-82989838D02*
X80767472Y-83040361D01*
X80730186Y-83085590D01*
X80700647Y-83167663D01*
X80698301Y-83232607D01*
X80703615Y-83319445D01*
X80903885Y-83407103D01*
X81001261Y-83451887D01*
X81064887Y-83487913D01*
X81097971Y-83519117D01*
X81103720Y-83549436D01*
X81085342Y-83582805D01*
X81065077Y-83604923D01*
X81006111Y-83640393D01*
X80941976Y-83642879D01*
X80883074Y-83615235D01*
X80839803Y-83560320D01*
X80832064Y-83540928D01*
X80794994Y-83480364D01*
X80752346Y-83454552D01*
X80693846Y-83432471D01*
X80693846Y-83516184D01*
X80699018Y-83573150D01*
X80719277Y-83621189D01*
X80761738Y-83676346D01*
X80768049Y-83683514D01*
X80815280Y-83732585D01*
X80855879Y-83758920D01*
X80906672Y-83771035D01*
X80948780Y-83775003D01*
X81024098Y-83775991D01*
X81077714Y-83763466D01*
X81111162Y-83744869D01*
X81163732Y-83703975D01*
X81200121Y-83659748D01*
X81223150Y-83604126D01*
X81235641Y-83529047D01*
X81240413Y-83426449D01*
X81240794Y-83374376D01*
X81239499Y-83311948D01*
X81121529Y-83311948D01*
X81120161Y-83345438D01*
X81116751Y-83350923D01*
X81094247Y-83343472D01*
X81045818Y-83323753D01*
X80981092Y-83295718D01*
X80967557Y-83289692D01*
X80885756Y-83248096D01*
X80840688Y-83211538D01*
X80830783Y-83177296D01*
X80854474Y-83142648D01*
X80874040Y-83127339D01*
X80944640Y-83096721D01*
X81010720Y-83101780D01*
X81066041Y-83139151D01*
X81104364Y-83205473D01*
X81116651Y-83258116D01*
X81121529Y-83311948D01*
X81239499Y-83311948D01*
X81238270Y-83252720D01*
X81228968Y-83162710D01*
X81210540Y-83097167D01*
X81180640Y-83048912D01*
X81136920Y-83010767D01*
X81117859Y-82998440D01*
X81031274Y-82966336D01*
X80936478Y-82964316D01*
X80844776Y-82989838D01*
G36*
X81519193Y-82978782D02*
G01*
X81495839Y-82988988D01*
X81440098Y-83033134D01*
X81392431Y-83096967D01*
X81362952Y-83165087D01*
X81358154Y-83198670D01*
X81374240Y-83245556D01*
X81409525Y-83270365D01*
X81447356Y-83285387D01*
X81464679Y-83288155D01*
X81473114Y-83268066D01*
X81489770Y-83224351D01*
X81497077Y-83204598D01*
X81538052Y-83136271D01*
X81597378Y-83102191D01*
X81673448Y-83103239D01*
X81679082Y-83104581D01*
X81719695Y-83123836D01*
X81749552Y-83161375D01*
X81769945Y-83221809D01*
X81782164Y-83309751D01*
X81787500Y-83429813D01*
X81788000Y-83493698D01*
X81788248Y-83594403D01*
X81789874Y-83663054D01*
X81794199Y-83706673D01*
X81802546Y-83732282D01*
X81816235Y-83746903D01*
X81836589Y-83757558D01*
X81837766Y-83758095D01*
X81876962Y-83774667D01*
X81896381Y-83780769D01*
X81899365Y-83762319D01*
X81901919Y-83711323D01*
X81903860Y-83634308D01*
X81905003Y-83537805D01*
X81905231Y-83467184D01*
X81904068Y-83330525D01*
X81899521Y-83226851D01*
X81890001Y-83150108D01*
X81873919Y-83094246D01*
X81849687Y-83053212D01*
X81815714Y-83020954D01*
X81782167Y-82998440D01*
X81701501Y-82968476D01*
X81607619Y-82961718D01*
X81519193Y-82978782D01*
X81519193Y-82978782D01*
G37*
X81519193Y-82978782D02*
X81495839Y-82988988D01*
X81440098Y-83033134D01*
X81392431Y-83096967D01*
X81362952Y-83165087D01*
X81358154Y-83198670D01*
X81374240Y-83245556D01*
X81409525Y-83270365D01*
X81447356Y-83285387D01*
X81464679Y-83288155D01*
X81473114Y-83268066D01*
X81489770Y-83224351D01*
X81497077Y-83204598D01*
X81538052Y-83136271D01*
X81597378Y-83102191D01*
X81673448Y-83103239D01*
X81679082Y-83104581D01*
X81719695Y-83123836D01*
X81749552Y-83161375D01*
X81769945Y-83221809D01*
X81782164Y-83309751D01*
X81787500Y-83429813D01*
X81788000Y-83493698D01*
X81788248Y-83594403D01*
X81789874Y-83663054D01*
X81794199Y-83706673D01*
X81802546Y-83732282D01*
X81816235Y-83746903D01*
X81836589Y-83757558D01*
X81837766Y-83758095D01*
X81876962Y-83774667D01*
X81896381Y-83780769D01*
X81899365Y-83762319D01*
X81901919Y-83711323D01*
X81903860Y-83634308D01*
X81905003Y-83537805D01*
X81905231Y-83467184D01*
X81904068Y-83330525D01*
X81899521Y-83226851D01*
X81890001Y-83150108D01*
X81873919Y-83094246D01*
X81849687Y-83053212D01*
X81815714Y-83020954D01*
X81782167Y-82998440D01*
X81701501Y-82968476D01*
X81607619Y-82961718D01*
X81519193Y-82978782D01*
G36*
X82202667Y-82975528D02*
G01*
X82146410Y-83001117D01*
X82102253Y-83032124D01*
X82069899Y-83066795D01*
X82047562Y-83111520D01*
X82033454Y-83172692D01*
X82025789Y-83256701D01*
X82022780Y-83369940D01*
X82022462Y-83444509D01*
X82022462Y-83735420D01*
X82072227Y-83758095D01*
X82111424Y-83774667D01*
X82130843Y-83780769D01*
X82134558Y-83762610D01*
X82137505Y-83713648D01*
X82139309Y-83642153D01*
X82139692Y-83585385D01*
X82141339Y-83503371D01*
X82145778Y-83438309D01*
X82152260Y-83398467D01*
X82157410Y-83390000D01*
X82192023Y-83398646D01*
X82246360Y-83420823D01*
X82309278Y-83450886D01*
X82369632Y-83483192D01*
X82416279Y-83512098D01*
X82438074Y-83531961D01*
X82438161Y-83532175D01*
X82436286Y-83568935D01*
X82419475Y-83604026D01*
X82389961Y-83632528D01*
X82346884Y-83642061D01*
X82310068Y-83640950D01*
X82257926Y-83640133D01*
X82230556Y-83652349D01*
X82214118Y-83684624D01*
X82212045Y-83690710D01*
X82204919Y-83736739D01*
X82223976Y-83764687D01*
X82273647Y-83778007D01*
X82327303Y-83780470D01*
X82423858Y-83762210D01*
X82473841Y-83736131D01*
X82535571Y-83674868D01*
X82568310Y-83599670D01*
X82571247Y-83520211D01*
X82543576Y-83446167D01*
X82501953Y-83399769D01*
X82460396Y-83373793D01*
X82395078Y-83340907D01*
X82318962Y-83307557D01*
X82306274Y-83302461D01*
X82222667Y-83265565D01*
X82174470Y-83233046D01*
X82158970Y-83200718D01*
X82173450Y-83164394D01*
X82198308Y-83136000D01*
X82257061Y-83101039D01*
X82321707Y-83098417D01*
X82380992Y-83125358D01*
X82423661Y-83179088D01*
X82429261Y-83192950D01*
X82461867Y-83243936D01*
X82509470Y-83281787D01*
X82569539Y-83312850D01*
X82569539Y-83224768D01*
X82566003Y-83170951D01*
X82550844Y-83128534D01*
X82517232Y-83083279D01*
X82484965Y-83048420D01*
X82434791Y-82999062D01*
X82395807Y-82972547D01*
X82353936Y-82961911D01*
X82306540Y-82960154D01*
X82202667Y-82975528D01*
X82202667Y-82975528D01*
G37*
X82202667Y-82975528D02*
X82146410Y-83001117D01*
X82102253Y-83032124D01*
X82069899Y-83066795D01*
X82047562Y-83111520D01*
X82033454Y-83172692D01*
X82025789Y-83256701D01*
X82022780Y-83369940D01*
X82022462Y-83444509D01*
X82022462Y-83735420D01*
X82072227Y-83758095D01*
X82111424Y-83774667D01*
X82130843Y-83780769D01*
X82134558Y-83762610D01*
X82137505Y-83713648D01*
X82139309Y-83642153D01*
X82139692Y-83585385D01*
X82141339Y-83503371D01*
X82145778Y-83438309D01*
X82152260Y-83398467D01*
X82157410Y-83390000D01*
X82192023Y-83398646D01*
X82246360Y-83420823D01*
X82309278Y-83450886D01*
X82369632Y-83483192D01*
X82416279Y-83512098D01*
X82438074Y-83531961D01*
X82438161Y-83532175D01*
X82436286Y-83568935D01*
X82419475Y-83604026D01*
X82389961Y-83632528D01*
X82346884Y-83642061D01*
X82310068Y-83640950D01*
X82257926Y-83640133D01*
X82230556Y-83652349D01*
X82214118Y-83684624D01*
X82212045Y-83690710D01*
X82204919Y-83736739D01*
X82223976Y-83764687D01*
X82273647Y-83778007D01*
X82327303Y-83780470D01*
X82423858Y-83762210D01*
X82473841Y-83736131D01*
X82535571Y-83674868D01*
X82568310Y-83599670D01*
X82571247Y-83520211D01*
X82543576Y-83446167D01*
X82501953Y-83399769D01*
X82460396Y-83373793D01*
X82395078Y-83340907D01*
X82318962Y-83307557D01*
X82306274Y-83302461D01*
X82222667Y-83265565D01*
X82174470Y-83233046D01*
X82158970Y-83200718D01*
X82173450Y-83164394D01*
X82198308Y-83136000D01*
X82257061Y-83101039D01*
X82321707Y-83098417D01*
X82380992Y-83125358D01*
X82423661Y-83179088D01*
X82429261Y-83192950D01*
X82461867Y-83243936D01*
X82509470Y-83281787D01*
X82569539Y-83312850D01*
X82569539Y-83224768D01*
X82566003Y-83170951D01*
X82550844Y-83128534D01*
X82517232Y-83083279D01*
X82484965Y-83048420D01*
X82434791Y-82999062D01*
X82395807Y-82972547D01*
X82353936Y-82961911D01*
X82306540Y-82960154D01*
X82202667Y-82975528D01*
G36*
X82694071Y-82978662D02*
G01*
X82691089Y-83030068D01*
X82688753Y-83108192D01*
X82687251Y-83206857D01*
X82686769Y-83310343D01*
X82686769Y-83660533D01*
X82748599Y-83722363D01*
X82791207Y-83760462D01*
X82828610Y-83775895D01*
X82879730Y-83774918D01*
X82900022Y-83772433D01*
X82963446Y-83765200D01*
X83015905Y-83761055D01*
X83028692Y-83760672D01*
X83071801Y-83763176D01*
X83133456Y-83769462D01*
X83157362Y-83772433D01*
X83216078Y-83777028D01*
X83255536Y-83767046D01*
X83294662Y-83736228D01*
X83308785Y-83722363D01*
X83370615Y-83660533D01*
X83370615Y-83005503D01*
X83320850Y-82982829D01*
X83277998Y-82966034D01*
X83252927Y-82960154D01*
X83246499Y-82978736D01*
X83240491Y-83030655D01*
X83235303Y-83110172D01*
X83231336Y-83211546D01*
X83229423Y-83297192D01*
X83224077Y-83634231D01*
X83177440Y-83640825D01*
X83135024Y-83636214D01*
X83114240Y-83621287D01*
X83108430Y-83593377D01*
X83103470Y-83533925D01*
X83099754Y-83450466D01*
X83097676Y-83350532D01*
X83097376Y-83299104D01*
X83097077Y-83003054D01*
X83035546Y-82981604D01*
X82991996Y-82967020D01*
X82968306Y-82960219D01*
X82967623Y-82960154D01*
X82965246Y-82978642D01*
X82962634Y-83029906D01*
X82960005Y-83107649D01*
X82957579Y-83205574D01*
X82955885Y-83297192D01*
X82950539Y-83634231D01*
X82833308Y-83634231D01*
X82827928Y-83326746D01*
X82822549Y-83019261D01*
X82765399Y-82989707D01*
X82723203Y-82969413D01*
X82698230Y-82960204D01*
X82697509Y-82960154D01*
X82694071Y-82978662D01*
X82694071Y-82978662D01*
G37*
X82694071Y-82978662D02*
X82691089Y-83030068D01*
X82688753Y-83108192D01*
X82687251Y-83206857D01*
X82686769Y-83310343D01*
X82686769Y-83660533D01*
X82748599Y-83722363D01*
X82791207Y-83760462D01*
X82828610Y-83775895D01*
X82879730Y-83774918D01*
X82900022Y-83772433D01*
X82963446Y-83765200D01*
X83015905Y-83761055D01*
X83028692Y-83760672D01*
X83071801Y-83763176D01*
X83133456Y-83769462D01*
X83157362Y-83772433D01*
X83216078Y-83777028D01*
X83255536Y-83767046D01*
X83294662Y-83736228D01*
X83308785Y-83722363D01*
X83370615Y-83660533D01*
X83370615Y-83005503D01*
X83320850Y-82982829D01*
X83277998Y-82966034D01*
X83252927Y-82960154D01*
X83246499Y-82978736D01*
X83240491Y-83030655D01*
X83235303Y-83110172D01*
X83231336Y-83211546D01*
X83229423Y-83297192D01*
X83224077Y-83634231D01*
X83177440Y-83640825D01*
X83135024Y-83636214D01*
X83114240Y-83621287D01*
X83108430Y-83593377D01*
X83103470Y-83533925D01*
X83099754Y-83450466D01*
X83097676Y-83350532D01*
X83097376Y-83299104D01*
X83097077Y-83003054D01*
X83035546Y-82981604D01*
X82991996Y-82967020D01*
X82968306Y-82960219D01*
X82967623Y-82960154D01*
X82965246Y-82978642D01*
X82962634Y-83029906D01*
X82960005Y-83107649D01*
X82957579Y-83205574D01*
X82955885Y-83297192D01*
X82950539Y-83634231D01*
X82833308Y-83634231D01*
X82827928Y-83326746D01*
X82822549Y-83019261D01*
X82765399Y-82989707D01*
X82723203Y-82969413D01*
X82698230Y-82960204D01*
X82697509Y-82960154D01*
X82694071Y-82978662D01*
G36*
X83487919Y-83122289D02*
G01*
X83488167Y-83268320D01*
X83489128Y-83380655D01*
X83491206Y-83464678D01*
X83494807Y-83525769D01*
X83500335Y-83569309D01*
X83508196Y-83600679D01*
X83518793Y-83625262D01*
X83526818Y-83639294D01*
X83593272Y-83715388D01*
X83677530Y-83763084D01*
X83770751Y-83780199D01*
X83864100Y-83764546D01*
X83919688Y-83736418D01*
X83978043Y-83687760D01*
X84017814Y-83628333D01*
X84041810Y-83550507D01*
X84052839Y-83446652D01*
X84054401Y-83370462D01*
X84054191Y-83364986D01*
X83917692Y-83364986D01*
X83916859Y-83452355D01*
X83913039Y-83510192D01*
X83904254Y-83548029D01*
X83888526Y-83575398D01*
X83869734Y-83596042D01*
X83806625Y-83635890D01*
X83738863Y-83639295D01*
X83674821Y-83606025D01*
X83669836Y-83601517D01*
X83648561Y-83578067D01*
X83635221Y-83550166D01*
X83627999Y-83508641D01*
X83625077Y-83444316D01*
X83624615Y-83373200D01*
X83625617Y-83283858D01*
X83629762Y-83224258D01*
X83638764Y-83185089D01*
X83654333Y-83157040D01*
X83667098Y-83142144D01*
X83726400Y-83104575D01*
X83794699Y-83100057D01*
X83859890Y-83128753D01*
X83872472Y-83139406D01*
X83893889Y-83163063D01*
X83907256Y-83191251D01*
X83914434Y-83233245D01*
X83917281Y-83298319D01*
X83917692Y-83364986D01*
X84054191Y-83364986D01*
X84049678Y-83247765D01*
X84033638Y-83155577D01*
X84003472Y-83086269D01*
X83956371Y-83032211D01*
X83919688Y-83004505D01*
X83853010Y-82974572D01*
X83775728Y-82960678D01*
X83703890Y-82964397D01*
X83663692Y-82979400D01*
X83647918Y-82983670D01*
X83637450Y-82967750D01*
X83630144Y-82925089D01*
X83624615Y-82860106D01*
X83618563Y-82787732D01*
X83610156Y-82744187D01*
X83594859Y-82719287D01*
X83568136Y-82702845D01*
X83551346Y-82695564D01*
X83487846Y-82668963D01*
X83487919Y-83122289D01*
X83487919Y-83122289D01*
G37*
X83487919Y-83122289D02*
X83488167Y-83268320D01*
X83489128Y-83380655D01*
X83491206Y-83464678D01*
X83494807Y-83525769D01*
X83500335Y-83569309D01*
X83508196Y-83600679D01*
X83518793Y-83625262D01*
X83526818Y-83639294D01*
X83593272Y-83715388D01*
X83677530Y-83763084D01*
X83770751Y-83780199D01*
X83864100Y-83764546D01*
X83919688Y-83736418D01*
X83978043Y-83687760D01*
X84017814Y-83628333D01*
X84041810Y-83550507D01*
X84052839Y-83446652D01*
X84054401Y-83370462D01*
X84054191Y-83364986D01*
X83917692Y-83364986D01*
X83916859Y-83452355D01*
X83913039Y-83510192D01*
X83904254Y-83548029D01*
X83888526Y-83575398D01*
X83869734Y-83596042D01*
X83806625Y-83635890D01*
X83738863Y-83639295D01*
X83674821Y-83606025D01*
X83669836Y-83601517D01*
X83648561Y-83578067D01*
X83635221Y-83550166D01*
X83627999Y-83508641D01*
X83625077Y-83444316D01*
X83624615Y-83373200D01*
X83625617Y-83283858D01*
X83629762Y-83224258D01*
X83638764Y-83185089D01*
X83654333Y-83157040D01*
X83667098Y-83142144D01*
X83726400Y-83104575D01*
X83794699Y-83100057D01*
X83859890Y-83128753D01*
X83872472Y-83139406D01*
X83893889Y-83163063D01*
X83907256Y-83191251D01*
X83914434Y-83233245D01*
X83917281Y-83298319D01*
X83917692Y-83364986D01*
X84054191Y-83364986D01*
X84049678Y-83247765D01*
X84033638Y-83155577D01*
X84003472Y-83086269D01*
X83956371Y-83032211D01*
X83919688Y-83004505D01*
X83853010Y-82974572D01*
X83775728Y-82960678D01*
X83703890Y-82964397D01*
X83663692Y-82979400D01*
X83647918Y-82983670D01*
X83637450Y-82967750D01*
X83630144Y-82925089D01*
X83624615Y-82860106D01*
X83618563Y-82787732D01*
X83610156Y-82744187D01*
X83594859Y-82719287D01*
X83568136Y-82702845D01*
X83551346Y-82695564D01*
X83487846Y-82668963D01*
X83487919Y-83122289D01*
G36*
X84376638Y-82966670D02*
G01*
X84287883Y-82999421D01*
X84215978Y-83057350D01*
X84187856Y-83098128D01*
X84157198Y-83172954D01*
X84157835Y-83227058D01*
X84190013Y-83263446D01*
X84201919Y-83269633D01*
X84253325Y-83288925D01*
X84279578Y-83283982D01*
X84288470Y-83251587D01*
X84288923Y-83233692D01*
X84305203Y-83167859D01*
X84347635Y-83121807D01*
X84406612Y-83099564D01*
X84472525Y-83105161D01*
X84526105Y-83134229D01*
X84544202Y-83150810D01*
X84557029Y-83170925D01*
X84565694Y-83201332D01*
X84571304Y-83248788D01*
X84574965Y-83320050D01*
X84577785Y-83421875D01*
X84578516Y-83454115D01*
X84581180Y-83564410D01*
X84584208Y-83642036D01*
X84588750Y-83693396D01*
X84595954Y-83724890D01*
X84606967Y-83742920D01*
X84622940Y-83753888D01*
X84633166Y-83758733D01*
X84676594Y-83775301D01*
X84702158Y-83780769D01*
X84710605Y-83762507D01*
X84715761Y-83707296D01*
X84717654Y-83614499D01*
X84716311Y-83483478D01*
X84715893Y-83463269D01*
X84712942Y-83343733D01*
X84709452Y-83256449D01*
X84704486Y-83194591D01*
X84697107Y-83151336D01*
X84686376Y-83119860D01*
X84671355Y-83093339D01*
X84663498Y-83081975D01*
X84618447Y-83031692D01*
X84568060Y-82992581D01*
X84561892Y-82989167D01*
X84471542Y-82962212D01*
X84376638Y-82966670D01*
X84376638Y-82966670D01*
G37*
X84376638Y-82966670D02*
X84287883Y-82999421D01*
X84215978Y-83057350D01*
X84187856Y-83098128D01*
X84157198Y-83172954D01*
X84157835Y-83227058D01*
X84190013Y-83263446D01*
X84201919Y-83269633D01*
X84253325Y-83288925D01*
X84279578Y-83283982D01*
X84288470Y-83251587D01*
X84288923Y-83233692D01*
X84305203Y-83167859D01*
X84347635Y-83121807D01*
X84406612Y-83099564D01*
X84472525Y-83105161D01*
X84526105Y-83134229D01*
X84544202Y-83150810D01*
X84557029Y-83170925D01*
X84565694Y-83201332D01*
X84571304Y-83248788D01*
X84574965Y-83320050D01*
X84577785Y-83421875D01*
X84578516Y-83454115D01*
X84581180Y-83564410D01*
X84584208Y-83642036D01*
X84588750Y-83693396D01*
X84595954Y-83724890D01*
X84606967Y-83742920D01*
X84622940Y-83753888D01*
X84633166Y-83758733D01*
X84676594Y-83775301D01*
X84702158Y-83780769D01*
X84710605Y-83762507D01*
X84715761Y-83707296D01*
X84717654Y-83614499D01*
X84716311Y-83483478D01*
X84715893Y-83463269D01*
X84712942Y-83343733D01*
X84709452Y-83256449D01*
X84704486Y-83194591D01*
X84697107Y-83151336D01*
X84686376Y-83119860D01*
X84671355Y-83093339D01*
X84663498Y-83081975D01*
X84618447Y-83031692D01*
X84568060Y-82992581D01*
X84561892Y-82989167D01*
X84471542Y-82962212D01*
X84376638Y-82966670D01*
G36*
X85036499Y-82968303D02*
G01*
X84959940Y-82996733D01*
X84959064Y-82997279D01*
X84911715Y-83032127D01*
X84876759Y-83072852D01*
X84852175Y-83125925D01*
X84835938Y-83197814D01*
X84826025Y-83294992D01*
X84820414Y-83423928D01*
X84819923Y-83442298D01*
X84812859Y-83719287D01*
X84872305Y-83750028D01*
X84915319Y-83770802D01*
X84941290Y-83780646D01*
X84942491Y-83780769D01*
X84946986Y-83762606D01*
X84950556Y-83713612D01*
X84952752Y-83642031D01*
X84953231Y-83584068D01*
X84953242Y-83490170D01*
X84957534Y-83431203D01*
X84972497Y-83403079D01*
X85004518Y-83401706D01*
X85059986Y-83422998D01*
X85143731Y-83462136D01*
X85205311Y-83494643D01*
X85236983Y-83522845D01*
X85246294Y-83553582D01*
X85246308Y-83555104D01*
X85230943Y-83608054D01*
X85185453Y-83636660D01*
X85115834Y-83640803D01*
X85065687Y-83640084D01*
X85039246Y-83654527D01*
X85022757Y-83689218D01*
X85013267Y-83733416D01*
X85026943Y-83758493D01*
X85032093Y-83762082D01*
X85080575Y-83776496D01*
X85148469Y-83778537D01*
X85218388Y-83768983D01*
X85267932Y-83751522D01*
X85336430Y-83693364D01*
X85375366Y-83612408D01*
X85383077Y-83549160D01*
X85377193Y-83492111D01*
X85355899Y-83445542D01*
X85313735Y-83404181D01*
X85245241Y-83362755D01*
X85144956Y-83315993D01*
X85138846Y-83313350D01*
X85048510Y-83271617D01*
X84992765Y-83237391D01*
X84968871Y-83206635D01*
X84974087Y-83175311D01*
X85005672Y-83139383D01*
X85015117Y-83131116D01*
X85078383Y-83099058D01*
X85143936Y-83100407D01*
X85201028Y-83131838D01*
X85238907Y-83190024D01*
X85242426Y-83201446D01*
X85276700Y-83256837D01*
X85320191Y-83283518D01*
X85383077Y-83309960D01*
X85383077Y-83241548D01*
X85363948Y-83142110D01*
X85307169Y-83050902D01*
X85277622Y-83020389D01*
X85210458Y-82981228D01*
X85125044Y-82963500D01*
X85036499Y-82968303D01*
X85036499Y-82968303D01*
G37*
X85036499Y-82968303D02*
X84959940Y-82996733D01*
X84959064Y-82997279D01*
X84911715Y-83032127D01*
X84876759Y-83072852D01*
X84852175Y-83125925D01*
X84835938Y-83197814D01*
X84826025Y-83294992D01*
X84820414Y-83423928D01*
X84819923Y-83442298D01*
X84812859Y-83719287D01*
X84872305Y-83750028D01*
X84915319Y-83770802D01*
X84941290Y-83780646D01*
X84942491Y-83780769D01*
X84946986Y-83762606D01*
X84950556Y-83713612D01*
X84952752Y-83642031D01*
X84953231Y-83584068D01*
X84953242Y-83490170D01*
X84957534Y-83431203D01*
X84972497Y-83403079D01*
X85004518Y-83401706D01*
X85059986Y-83422998D01*
X85143731Y-83462136D01*
X85205311Y-83494643D01*
X85236983Y-83522845D01*
X85246294Y-83553582D01*
X85246308Y-83555104D01*
X85230943Y-83608054D01*
X85185453Y-83636660D01*
X85115834Y-83640803D01*
X85065687Y-83640084D01*
X85039246Y-83654527D01*
X85022757Y-83689218D01*
X85013267Y-83733416D01*
X85026943Y-83758493D01*
X85032093Y-83762082D01*
X85080575Y-83776496D01*
X85148469Y-83778537D01*
X85218388Y-83768983D01*
X85267932Y-83751522D01*
X85336430Y-83693364D01*
X85375366Y-83612408D01*
X85383077Y-83549160D01*
X85377193Y-83492111D01*
X85355899Y-83445542D01*
X85313735Y-83404181D01*
X85245241Y-83362755D01*
X85144956Y-83315993D01*
X85138846Y-83313350D01*
X85048510Y-83271617D01*
X84992765Y-83237391D01*
X84968871Y-83206635D01*
X84974087Y-83175311D01*
X85005672Y-83139383D01*
X85015117Y-83131116D01*
X85078383Y-83099058D01*
X85143936Y-83100407D01*
X85201028Y-83131838D01*
X85238907Y-83190024D01*
X85242426Y-83201446D01*
X85276700Y-83256837D01*
X85320191Y-83283518D01*
X85383077Y-83309960D01*
X85383077Y-83241548D01*
X85363948Y-83142110D01*
X85307169Y-83050902D01*
X85277622Y-83020389D01*
X85210458Y-82981228D01*
X85125044Y-82963500D01*
X85036499Y-82968303D01*
G36*
X85930154Y-82834120D02*
G01*
X85924428Y-82913980D01*
X85917851Y-82961039D01*
X85908738Y-82981566D01*
X85895402Y-82981829D01*
X85891077Y-82979378D01*
X85833556Y-82961636D01*
X85758732Y-82962672D01*
X85682661Y-82980910D01*
X85635082Y-83004505D01*
X85586298Y-83042198D01*
X85550636Y-83084855D01*
X85526155Y-83139057D01*
X85510913Y-83211384D01*
X85502970Y-83308419D01*
X85500384Y-83436742D01*
X85500338Y-83461358D01*
X85500308Y-83737870D01*
X85561839Y-83759320D01*
X85605541Y-83773912D01*
X85629518Y-83780706D01*
X85630223Y-83780769D01*
X85632585Y-83762345D01*
X85634594Y-83711526D01*
X85636099Y-83634993D01*
X85636947Y-83539430D01*
X85637077Y-83481329D01*
X85637349Y-83366771D01*
X85638748Y-83284667D01*
X85642151Y-83228393D01*
X85648433Y-83191326D01*
X85658471Y-83166844D01*
X85673139Y-83148325D01*
X85682298Y-83139406D01*
X85745211Y-83103466D01*
X85813864Y-83100775D01*
X85876152Y-83131170D01*
X85887671Y-83142144D01*
X85904567Y-83162779D01*
X85916286Y-83187256D01*
X85923767Y-83222647D01*
X85927946Y-83276026D01*
X85929763Y-83354466D01*
X85930154Y-83462617D01*
X85930154Y-83737870D01*
X85991685Y-83759320D01*
X86035387Y-83773912D01*
X86059364Y-83780706D01*
X86060070Y-83780769D01*
X86061874Y-83762069D01*
X86063500Y-83709322D01*
X86064883Y-83627557D01*
X86065958Y-83521805D01*
X86066660Y-83397094D01*
X86066923Y-83258455D01*
X86066923Y-82723806D01*
X85939923Y-82670236D01*
X85930154Y-82834120D01*
X85930154Y-82834120D01*
G37*
X85930154Y-82834120D02*
X85924428Y-82913980D01*
X85917851Y-82961039D01*
X85908738Y-82981566D01*
X85895402Y-82981829D01*
X85891077Y-82979378D01*
X85833556Y-82961636D01*
X85758732Y-82962672D01*
X85682661Y-82980910D01*
X85635082Y-83004505D01*
X85586298Y-83042198D01*
X85550636Y-83084855D01*
X85526155Y-83139057D01*
X85510913Y-83211384D01*
X85502970Y-83308419D01*
X85500384Y-83436742D01*
X85500338Y-83461358D01*
X85500308Y-83737870D01*
X85561839Y-83759320D01*
X85605541Y-83773912D01*
X85629518Y-83780706D01*
X85630223Y-83780769D01*
X85632585Y-83762345D01*
X85634594Y-83711526D01*
X85636099Y-83634993D01*
X85636947Y-83539430D01*
X85637077Y-83481329D01*
X85637349Y-83366771D01*
X85638748Y-83284667D01*
X85642151Y-83228393D01*
X85648433Y-83191326D01*
X85658471Y-83166844D01*
X85673139Y-83148325D01*
X85682298Y-83139406D01*
X85745211Y-83103466D01*
X85813864Y-83100775D01*
X85876152Y-83131170D01*
X85887671Y-83142144D01*
X85904567Y-83162779D01*
X85916286Y-83187256D01*
X85923767Y-83222647D01*
X85927946Y-83276026D01*
X85929763Y-83354466D01*
X85930154Y-83462617D01*
X85930154Y-83737870D01*
X85991685Y-83759320D01*
X86035387Y-83773912D01*
X86059364Y-83780706D01*
X86060070Y-83780769D01*
X86061874Y-83762069D01*
X86063500Y-83709322D01*
X86064883Y-83627557D01*
X86065958Y-83521805D01*
X86066660Y-83397094D01*
X86066923Y-83258455D01*
X86066923Y-82723806D01*
X85939923Y-82670236D01*
X85930154Y-82834120D01*
G36*
X87555746Y-82941745D02*
G01*
X87478714Y-82993567D01*
X87419184Y-83068412D01*
X87383622Y-83163654D01*
X87376429Y-83233756D01*
X87377246Y-83263009D01*
X87384086Y-83285407D01*
X87402888Y-83305474D01*
X87439592Y-83327733D01*
X87500138Y-83356709D01*
X87590466Y-83396927D01*
X87590923Y-83397129D01*
X87674067Y-83435210D01*
X87742247Y-83469025D01*
X87788495Y-83494933D01*
X87805842Y-83509295D01*
X87805846Y-83509411D01*
X87790557Y-83540685D01*
X87754804Y-83575157D01*
X87713758Y-83599990D01*
X87692963Y-83604923D01*
X87636230Y-83587862D01*
X87587373Y-83545133D01*
X87563535Y-83498155D01*
X87540603Y-83463522D01*
X87495682Y-83424081D01*
X87442877Y-83390009D01*
X87396290Y-83371480D01*
X87386548Y-83370462D01*
X87375582Y-83387215D01*
X87374921Y-83430039D01*
X87382980Y-83487781D01*
X87398173Y-83549289D01*
X87418914Y-83603409D01*
X87419962Y-83605510D01*
X87482379Y-83692660D01*
X87563274Y-83751939D01*
X87655144Y-83781034D01*
X87750487Y-83777634D01*
X87841802Y-83739428D01*
X87845862Y-83736741D01*
X87917694Y-83671642D01*
X87964927Y-83586705D01*
X87991066Y-83475021D01*
X87994574Y-83443643D01*
X88000787Y-83295536D01*
X87993339Y-83226468D01*
X87805846Y-83226468D01*
X87803410Y-83269552D01*
X87790086Y-83282126D01*
X87756868Y-83272719D01*
X87704506Y-83250483D01*
X87645976Y-83222610D01*
X87644521Y-83221872D01*
X87594911Y-83195777D01*
X87575000Y-83178363D01*
X87579910Y-83160107D01*
X87600584Y-83136120D01*
X87653181Y-83101406D01*
X87709823Y-83098856D01*
X87760631Y-83124119D01*
X87795724Y-83172847D01*
X87805846Y-83226468D01*
X87993339Y-83226468D01*
X87988008Y-83177036D01*
X87955222Y-83083055D01*
X87909579Y-83017215D01*
X87827198Y-82950681D01*
X87736454Y-82917676D01*
X87643815Y-82915573D01*
X87555746Y-82941745D01*
X87555746Y-82941745D01*
G37*
X87555746Y-82941745D02*
X87478714Y-82993567D01*
X87419184Y-83068412D01*
X87383622Y-83163654D01*
X87376429Y-83233756D01*
X87377246Y-83263009D01*
X87384086Y-83285407D01*
X87402888Y-83305474D01*
X87439592Y-83327733D01*
X87500138Y-83356709D01*
X87590466Y-83396927D01*
X87590923Y-83397129D01*
X87674067Y-83435210D01*
X87742247Y-83469025D01*
X87788495Y-83494933D01*
X87805842Y-83509295D01*
X87805846Y-83509411D01*
X87790557Y-83540685D01*
X87754804Y-83575157D01*
X87713758Y-83599990D01*
X87692963Y-83604923D01*
X87636230Y-83587862D01*
X87587373Y-83545133D01*
X87563535Y-83498155D01*
X87540603Y-83463522D01*
X87495682Y-83424081D01*
X87442877Y-83390009D01*
X87396290Y-83371480D01*
X87386548Y-83370462D01*
X87375582Y-83387215D01*
X87374921Y-83430039D01*
X87382980Y-83487781D01*
X87398173Y-83549289D01*
X87418914Y-83603409D01*
X87419962Y-83605510D01*
X87482379Y-83692660D01*
X87563274Y-83751939D01*
X87655144Y-83781034D01*
X87750487Y-83777634D01*
X87841802Y-83739428D01*
X87845862Y-83736741D01*
X87917694Y-83671642D01*
X87964927Y-83586705D01*
X87991066Y-83475021D01*
X87994574Y-83443643D01*
X88000787Y-83295536D01*
X87993339Y-83226468D01*
X87805846Y-83226468D01*
X87803410Y-83269552D01*
X87790086Y-83282126D01*
X87756868Y-83272719D01*
X87704506Y-83250483D01*
X87645976Y-83222610D01*
X87644521Y-83221872D01*
X87594911Y-83195777D01*
X87575000Y-83178363D01*
X87579910Y-83160107D01*
X87600584Y-83136120D01*
X87653181Y-83101406D01*
X87709823Y-83098856D01*
X87760631Y-83124119D01*
X87795724Y-83172847D01*
X87805846Y-83226468D01*
X87993339Y-83226468D01*
X87988008Y-83177036D01*
X87955222Y-83083055D01*
X87909579Y-83017215D01*
X87827198Y-82950681D01*
X87736454Y-82917676D01*
X87643815Y-82915573D01*
X87555746Y-82941745D01*
G36*
X89073114Y-82929256D02*
G01*
X88981536Y-82977409D01*
X88913951Y-83054905D01*
X88889943Y-83104727D01*
X88871262Y-83179533D01*
X88861699Y-83274052D01*
X88860792Y-83377210D01*
X88868079Y-83477935D01*
X88883097Y-83565153D01*
X88905385Y-83627791D01*
X88912235Y-83638579D01*
X88993368Y-83719105D01*
X89089734Y-83767336D01*
X89194299Y-83781450D01*
X89300032Y-83759629D01*
X89329457Y-83746547D01*
X89386759Y-83706231D01*
X89437050Y-83652775D01*
X89441803Y-83645995D01*
X89461122Y-83613321D01*
X89473892Y-83578394D01*
X89481436Y-83532414D01*
X89485076Y-83466584D01*
X89486135Y-83372105D01*
X89486154Y-83350923D01*
X89486106Y-83344182D01*
X89290769Y-83344182D01*
X89289632Y-83433349D01*
X89285159Y-83492520D01*
X89275754Y-83530741D01*
X89259824Y-83557053D01*
X89251692Y-83565846D01*
X89204942Y-83599261D01*
X89159553Y-83597737D01*
X89113660Y-83568752D01*
X89086288Y-83537809D01*
X89070077Y-83492643D01*
X89060974Y-83421420D01*
X89060349Y-83413114D01*
X89058796Y-83284037D01*
X89075035Y-83188172D01*
X89108848Y-83126107D01*
X89160016Y-83098432D01*
X89178280Y-83096923D01*
X89226240Y-83104513D01*
X89259047Y-83130808D01*
X89279105Y-83181095D01*
X89288822Y-83260664D01*
X89290769Y-83344182D01*
X89486106Y-83344182D01*
X89485426Y-83250249D01*
X89482371Y-83179906D01*
X89475678Y-83131163D01*
X89464040Y-83095288D01*
X89446147Y-83063548D01*
X89442192Y-83057648D01*
X89375733Y-82978104D01*
X89303315Y-82931929D01*
X89215151Y-82913599D01*
X89185213Y-82912703D01*
X89073114Y-82929256D01*
X89073114Y-82929256D01*
G37*
X89073114Y-82929256D02*
X88981536Y-82977409D01*
X88913951Y-83054905D01*
X88889943Y-83104727D01*
X88871262Y-83179533D01*
X88861699Y-83274052D01*
X88860792Y-83377210D01*
X88868079Y-83477935D01*
X88883097Y-83565153D01*
X88905385Y-83627791D01*
X88912235Y-83638579D01*
X88993368Y-83719105D01*
X89089734Y-83767336D01*
X89194299Y-83781450D01*
X89300032Y-83759629D01*
X89329457Y-83746547D01*
X89386759Y-83706231D01*
X89437050Y-83652775D01*
X89441803Y-83645995D01*
X89461122Y-83613321D01*
X89473892Y-83578394D01*
X89481436Y-83532414D01*
X89485076Y-83466584D01*
X89486135Y-83372105D01*
X89486154Y-83350923D01*
X89486106Y-83344182D01*
X89290769Y-83344182D01*
X89289632Y-83433349D01*
X89285159Y-83492520D01*
X89275754Y-83530741D01*
X89259824Y-83557053D01*
X89251692Y-83565846D01*
X89204942Y-83599261D01*
X89159553Y-83597737D01*
X89113660Y-83568752D01*
X89086288Y-83537809D01*
X89070077Y-83492643D01*
X89060974Y-83421420D01*
X89060349Y-83413114D01*
X89058796Y-83284037D01*
X89075035Y-83188172D01*
X89108848Y-83126107D01*
X89160016Y-83098432D01*
X89178280Y-83096923D01*
X89226240Y-83104513D01*
X89259047Y-83130808D01*
X89279105Y-83181095D01*
X89288822Y-83260664D01*
X89290769Y-83344182D01*
X89486106Y-83344182D01*
X89485426Y-83250249D01*
X89482371Y-83179906D01*
X89475678Y-83131163D01*
X89464040Y-83095288D01*
X89446147Y-83063548D01*
X89442192Y-83057648D01*
X89375733Y-82978104D01*
X89303315Y-82931929D01*
X89215151Y-82913599D01*
X89185213Y-82912703D01*
X89073114Y-82929256D01*
G36*
X86818336Y-82937089D02*
G01*
X86755633Y-82973358D01*
X86712039Y-83009358D01*
X86680155Y-83047075D01*
X86658190Y-83093199D01*
X86644351Y-83154421D01*
X86636847Y-83237431D01*
X86633883Y-83348919D01*
X86633539Y-83429062D01*
X86633539Y-83724065D01*
X86799615Y-83798515D01*
X86809385Y-83475402D01*
X86813421Y-83354729D01*
X86817656Y-83267141D01*
X86822903Y-83206650D01*
X86829975Y-83167268D01*
X86839689Y-83143007D01*
X86852856Y-83127880D01*
X86857081Y-83124606D01*
X86921091Y-83099034D01*
X86985792Y-83109153D01*
X87024308Y-83136000D01*
X87039975Y-83155024D01*
X87050820Y-83179988D01*
X87057712Y-83217834D01*
X87061521Y-83275502D01*
X87063117Y-83359935D01*
X87063385Y-83447928D01*
X87063437Y-83558323D01*
X87065328Y-83636463D01*
X87071655Y-83689165D01*
X87085017Y-83723242D01*
X87108015Y-83745511D01*
X87143246Y-83762787D01*
X87190303Y-83780738D01*
X87241697Y-83800278D01*
X87235579Y-83453485D01*
X87233116Y-83328468D01*
X87230233Y-83236082D01*
X87226102Y-83169881D01*
X87219893Y-83123420D01*
X87210774Y-83090256D01*
X87197917Y-83063944D01*
X87182416Y-83040729D01*
X87107629Y-82966569D01*
X87016372Y-82923684D01*
X86917117Y-82913412D01*
X86818336Y-82937089D01*
X86818336Y-82937089D01*
G37*
X86818336Y-82937089D02*
X86755633Y-82973358D01*
X86712039Y-83009358D01*
X86680155Y-83047075D01*
X86658190Y-83093199D01*
X86644351Y-83154421D01*
X86636847Y-83237431D01*
X86633883Y-83348919D01*
X86633539Y-83429062D01*
X86633539Y-83724065D01*
X86799615Y-83798515D01*
X86809385Y-83475402D01*
X86813421Y-83354729D01*
X86817656Y-83267141D01*
X86822903Y-83206650D01*
X86829975Y-83167268D01*
X86839689Y-83143007D01*
X86852856Y-83127880D01*
X86857081Y-83124606D01*
X86921091Y-83099034D01*
X86985792Y-83109153D01*
X87024308Y-83136000D01*
X87039975Y-83155024D01*
X87050820Y-83179988D01*
X87057712Y-83217834D01*
X87061521Y-83275502D01*
X87063117Y-83359935D01*
X87063385Y-83447928D01*
X87063437Y-83558323D01*
X87065328Y-83636463D01*
X87071655Y-83689165D01*
X87085017Y-83723242D01*
X87108015Y-83745511D01*
X87143246Y-83762787D01*
X87190303Y-83780738D01*
X87241697Y-83800278D01*
X87235579Y-83453485D01*
X87233116Y-83328468D01*
X87230233Y-83236082D01*
X87226102Y-83169881D01*
X87219893Y-83123420D01*
X87210774Y-83090256D01*
X87197917Y-83063944D01*
X87182416Y-83040729D01*
X87107629Y-82966569D01*
X87016372Y-82923684D01*
X86917117Y-82913412D01*
X86818336Y-82937089D01*
G36*
X88321114Y-82926505D02*
G01*
X88246461Y-82963727D01*
X88180569Y-83032261D01*
X88162423Y-83057648D01*
X88142655Y-83090866D01*
X88129828Y-83126945D01*
X88122490Y-83175098D01*
X88119187Y-83244536D01*
X88118462Y-83336206D01*
X88121737Y-83461830D01*
X88133123Y-83556154D01*
X88154959Y-83626523D01*
X88189581Y-83680286D01*
X88239330Y-83724788D01*
X88242986Y-83727423D01*
X88292015Y-83754377D01*
X88351055Y-83767712D01*
X88426141Y-83771000D01*
X88548205Y-83771000D01*
X88548256Y-83889497D01*
X88549392Y-83955492D01*
X88556314Y-83994202D01*
X88574402Y-84017419D01*
X88609038Y-84036933D01*
X88617355Y-84040920D01*
X88656280Y-84059603D01*
X88686417Y-84071403D01*
X88708826Y-84072422D01*
X88724567Y-84058761D01*
X88734698Y-84026522D01*
X88740277Y-83971804D01*
X88742365Y-83890711D01*
X88742019Y-83779344D01*
X88740300Y-83633802D01*
X88739763Y-83590269D01*
X88737828Y-83440205D01*
X88736096Y-83342042D01*
X88548308Y-83342042D01*
X88547252Y-83425364D01*
X88542562Y-83479880D01*
X88531949Y-83515837D01*
X88513128Y-83543482D01*
X88500350Y-83556965D01*
X88448110Y-83596417D01*
X88401858Y-83599628D01*
X88354133Y-83567049D01*
X88352923Y-83565846D01*
X88333506Y-83540668D01*
X88321693Y-83506447D01*
X88315735Y-83453748D01*
X88313880Y-83373131D01*
X88313846Y-83355271D01*
X88318330Y-83244175D01*
X88332926Y-83167161D01*
X88359350Y-83120147D01*
X88399317Y-83099050D01*
X88422416Y-83096923D01*
X88477238Y-83106900D01*
X88514842Y-83139752D01*
X88537477Y-83199857D01*
X88547394Y-83291598D01*
X88548308Y-83342042D01*
X88736096Y-83342042D01*
X88735778Y-83324060D01*
X88733127Y-83236679D01*
X88729394Y-83172905D01*
X88724093Y-83127582D01*
X88716742Y-83095555D01*
X88706857Y-83071668D01*
X88693954Y-83050764D01*
X88688421Y-83042898D01*
X88615031Y-82968595D01*
X88522240Y-82926467D01*
X88414904Y-82914722D01*
X88321114Y-82926505D01*
X88321114Y-82926505D01*
G37*
X88321114Y-82926505D02*
X88246461Y-82963727D01*
X88180569Y-83032261D01*
X88162423Y-83057648D01*
X88142655Y-83090866D01*
X88129828Y-83126945D01*
X88122490Y-83175098D01*
X88119187Y-83244536D01*
X88118462Y-83336206D01*
X88121737Y-83461830D01*
X88133123Y-83556154D01*
X88154959Y-83626523D01*
X88189581Y-83680286D01*
X88239330Y-83724788D01*
X88242986Y-83727423D01*
X88292015Y-83754377D01*
X88351055Y-83767712D01*
X88426141Y-83771000D01*
X88548205Y-83771000D01*
X88548256Y-83889497D01*
X88549392Y-83955492D01*
X88556314Y-83994202D01*
X88574402Y-84017419D01*
X88609038Y-84036933D01*
X88617355Y-84040920D01*
X88656280Y-84059603D01*
X88686417Y-84071403D01*
X88708826Y-84072422D01*
X88724567Y-84058761D01*
X88734698Y-84026522D01*
X88740277Y-83971804D01*
X88742365Y-83890711D01*
X88742019Y-83779344D01*
X88740300Y-83633802D01*
X88739763Y-83590269D01*
X88737828Y-83440205D01*
X88736096Y-83342042D01*
X88548308Y-83342042D01*
X88547252Y-83425364D01*
X88542562Y-83479880D01*
X88531949Y-83515837D01*
X88513128Y-83543482D01*
X88500350Y-83556965D01*
X88448110Y-83596417D01*
X88401858Y-83599628D01*
X88354133Y-83567049D01*
X88352923Y-83565846D01*
X88333506Y-83540668D01*
X88321693Y-83506447D01*
X88315735Y-83453748D01*
X88313880Y-83373131D01*
X88313846Y-83355271D01*
X88318330Y-83244175D01*
X88332926Y-83167161D01*
X88359350Y-83120147D01*
X88399317Y-83099050D01*
X88422416Y-83096923D01*
X88477238Y-83106900D01*
X88514842Y-83139752D01*
X88537477Y-83199857D01*
X88547394Y-83291598D01*
X88548308Y-83342042D01*
X88736096Y-83342042D01*
X88735778Y-83324060D01*
X88733127Y-83236679D01*
X88729394Y-83172905D01*
X88724093Y-83127582D01*
X88716742Y-83095555D01*
X88706857Y-83071668D01*
X88693954Y-83050764D01*
X88688421Y-83042898D01*
X88615031Y-82968595D01*
X88522240Y-82926467D01*
X88414904Y-82914722D01*
X88321114Y-82926505D01*
M02*
