G04 #@! TF.GenerationSoftware,KiCad,Pcbnew,(5.1.2)-2*
G04 #@! TF.CreationDate,2020-04-12T20:05:54-04:00*
G04 #@! TF.ProjectId,usb-serial-interface,7573622d-7365-4726-9961-6c2d696e7465,rev?*
G04 #@! TF.SameCoordinates,Original*
G04 #@! TF.FileFunction,Soldermask,Bot*
G04 #@! TF.FilePolarity,Negative*
%FSLAX46Y46*%
G04 Gerber Fmt 4.6, Leading zero omitted, Abs format (unit mm)*
G04 Created by KiCad (PCBNEW (5.1.2)-2) date 2020-04-12 20:05:54*
%MOMM*%
%LPD*%
G04 APERTURE LIST*
%ADD10C,0.100000*%
G04 APERTURE END LIST*
D10*
G36*
X84517007Y-90518582D02*
G01*
X84917563Y-90684498D01*
X84917565Y-90684499D01*
X85278056Y-90925371D01*
X85584629Y-91231944D01*
X85825501Y-91592435D01*
X85825502Y-91592437D01*
X85991418Y-91992993D01*
X86076000Y-92418219D01*
X86076000Y-92851781D01*
X85991418Y-93277007D01*
X85825502Y-93677563D01*
X85825501Y-93677565D01*
X85584629Y-94038056D01*
X85278056Y-94344629D01*
X84917565Y-94585501D01*
X84917564Y-94585502D01*
X84917563Y-94585502D01*
X84517007Y-94751418D01*
X84091781Y-94836000D01*
X83658219Y-94836000D01*
X83232993Y-94751418D01*
X82832437Y-94585502D01*
X82832436Y-94585502D01*
X82832435Y-94585501D01*
X82471944Y-94344629D01*
X82165371Y-94038056D01*
X81924499Y-93677565D01*
X81924498Y-93677563D01*
X81758582Y-93277007D01*
X81674000Y-92851781D01*
X81674000Y-92418219D01*
X81758582Y-91992993D01*
X81924498Y-91592437D01*
X81924499Y-91592435D01*
X82165371Y-91231944D01*
X82471944Y-90925371D01*
X82832435Y-90684499D01*
X82832437Y-90684498D01*
X83232993Y-90518582D01*
X83658219Y-90434000D01*
X84091781Y-90434000D01*
X84517007Y-90518582D01*
X84517007Y-90518582D01*
G37*
G36*
X125517007Y-90268582D02*
G01*
X125917563Y-90434498D01*
X125917565Y-90434499D01*
X126278056Y-90675371D01*
X126584629Y-90981944D01*
X126751673Y-91231944D01*
X126825502Y-91342437D01*
X126991418Y-91742993D01*
X127076000Y-92168219D01*
X127076000Y-92601781D01*
X126991418Y-93027007D01*
X126887864Y-93277007D01*
X126825501Y-93427565D01*
X126584629Y-93788056D01*
X126278056Y-94094629D01*
X125917565Y-94335501D01*
X125917564Y-94335502D01*
X125917563Y-94335502D01*
X125517007Y-94501418D01*
X125091781Y-94586000D01*
X124658219Y-94586000D01*
X124232993Y-94501418D01*
X123832437Y-94335502D01*
X123832436Y-94335502D01*
X123832435Y-94335501D01*
X123471944Y-94094629D01*
X123165371Y-93788056D01*
X122924499Y-93427565D01*
X122862136Y-93277007D01*
X122758582Y-93027007D01*
X122674000Y-92601781D01*
X122674000Y-92168219D01*
X122758582Y-91742993D01*
X122924498Y-91342437D01*
X122998327Y-91231944D01*
X123165371Y-90981944D01*
X123471944Y-90675371D01*
X123832435Y-90434499D01*
X123832437Y-90434498D01*
X124232993Y-90268582D01*
X124658219Y-90184000D01*
X125091781Y-90184000D01*
X125517007Y-90268582D01*
X125517007Y-90268582D01*
G37*
G36*
X90303331Y-84673211D02*
G01*
X90631092Y-84808974D01*
X90926070Y-85006072D01*
X91176928Y-85256930D01*
X91374026Y-85551908D01*
X91509789Y-85879669D01*
X91579000Y-86227616D01*
X91579000Y-86582384D01*
X91509789Y-86930331D01*
X91374026Y-87258092D01*
X91176928Y-87553070D01*
X90926070Y-87803928D01*
X90631092Y-88001026D01*
X90303331Y-88136789D01*
X89955384Y-88206000D01*
X89600616Y-88206000D01*
X89252669Y-88136789D01*
X88924908Y-88001026D01*
X88629930Y-87803928D01*
X88379072Y-87553070D01*
X88181974Y-87258092D01*
X88046211Y-86930331D01*
X87977000Y-86582384D01*
X87977000Y-86227616D01*
X88046211Y-85879669D01*
X88181974Y-85551908D01*
X88379072Y-85256930D01*
X88629930Y-85006072D01*
X88924908Y-84808974D01*
X89252669Y-84673211D01*
X89600616Y-84604000D01*
X89955384Y-84604000D01*
X90303331Y-84673211D01*
X90303331Y-84673211D01*
G37*
G36*
X121841971Y-83901204D02*
G01*
X122003871Y-83933408D01*
X122308883Y-84059748D01*
X122583387Y-84243166D01*
X122816834Y-84476613D01*
X123000252Y-84751117D01*
X123126592Y-85056129D01*
X123191000Y-85379928D01*
X123191000Y-85710072D01*
X123126592Y-86033871D01*
X123000252Y-86338883D01*
X122816834Y-86613387D01*
X122583387Y-86846834D01*
X122308883Y-87030252D01*
X122003871Y-87156592D01*
X121841971Y-87188796D01*
X121680073Y-87221000D01*
X121349927Y-87221000D01*
X121026129Y-87156592D01*
X120721117Y-87030252D01*
X120446613Y-86846834D01*
X120213166Y-86613387D01*
X120029748Y-86338883D01*
X119903408Y-86033871D01*
X119839000Y-85710072D01*
X119839000Y-85379928D01*
X119903408Y-85056129D01*
X120029748Y-84751117D01*
X120213166Y-84476613D01*
X120446613Y-84243166D01*
X120721117Y-84059748D01*
X121026129Y-83933408D01*
X121188029Y-83901204D01*
X121349927Y-83869000D01*
X121680073Y-83869000D01*
X121841971Y-83901204D01*
X121841971Y-83901204D01*
G37*
G36*
X113436000Y-84446000D02*
G01*
X111814000Y-84446000D01*
X111814000Y-82824000D01*
X113436000Y-82824000D01*
X113436000Y-84446000D01*
X113436000Y-84446000D01*
G37*
G36*
X115401560Y-81585166D02*
G01*
X115549153Y-81646301D01*
X115681982Y-81735055D01*
X115794945Y-81848018D01*
X115883699Y-81980847D01*
X115944834Y-82128440D01*
X115976000Y-82285123D01*
X115976000Y-82444877D01*
X115944834Y-82601560D01*
X115883699Y-82749153D01*
X115794945Y-82881982D01*
X115681982Y-82994945D01*
X115549153Y-83083699D01*
X115549152Y-83083700D01*
X115549151Y-83083700D01*
X115401560Y-83144834D01*
X115244878Y-83176000D01*
X115085122Y-83176000D01*
X114928440Y-83144834D01*
X114780849Y-83083700D01*
X114780848Y-83083700D01*
X114780847Y-83083699D01*
X114648018Y-82994945D01*
X114535055Y-82881982D01*
X114446301Y-82749153D01*
X114385166Y-82601560D01*
X114354000Y-82444877D01*
X114354000Y-82285123D01*
X114385166Y-82128440D01*
X114446301Y-81980847D01*
X114535055Y-81848018D01*
X114648018Y-81735055D01*
X114780847Y-81646301D01*
X114928440Y-81585166D01*
X115085122Y-81554000D01*
X115244878Y-81554000D01*
X115401560Y-81585166D01*
X115401560Y-81585166D01*
G37*
G36*
X92601512Y-80738927D02*
G01*
X92750812Y-80768624D01*
X92914784Y-80836544D01*
X93062354Y-80935147D01*
X93187853Y-81060646D01*
X93286456Y-81208216D01*
X93346523Y-81353229D01*
X93358068Y-81374829D01*
X93373613Y-81393771D01*
X93392555Y-81409316D01*
X93414166Y-81420867D01*
X93437615Y-81427980D01*
X93462001Y-81430382D01*
X93486387Y-81427980D01*
X93509836Y-81420867D01*
X93531447Y-81409316D01*
X93550389Y-81393771D01*
X93565934Y-81374829D01*
X93577485Y-81353218D01*
X93584598Y-81329769D01*
X93587000Y-81305383D01*
X93587000Y-80734000D01*
X95389000Y-80734000D01*
X95389000Y-82536000D01*
X93587000Y-82536000D01*
X93587000Y-81964617D01*
X93584598Y-81940231D01*
X93577485Y-81916782D01*
X93565934Y-81895171D01*
X93550389Y-81876229D01*
X93531447Y-81860684D01*
X93509836Y-81849133D01*
X93486387Y-81842020D01*
X93462001Y-81839618D01*
X93437615Y-81842020D01*
X93414166Y-81849133D01*
X93392555Y-81860684D01*
X93373613Y-81876229D01*
X93358068Y-81895171D01*
X93346523Y-81916771D01*
X93286456Y-82061784D01*
X93187853Y-82209354D01*
X93062354Y-82334853D01*
X92914784Y-82433456D01*
X92750812Y-82501376D01*
X92601512Y-82531073D01*
X92576742Y-82536000D01*
X92399258Y-82536000D01*
X92374488Y-82531073D01*
X92225188Y-82501376D01*
X92061216Y-82433456D01*
X91913646Y-82334853D01*
X91788147Y-82209354D01*
X91689544Y-82061784D01*
X91621624Y-81897812D01*
X91587000Y-81723741D01*
X91587000Y-81546259D01*
X91621624Y-81372188D01*
X91689544Y-81208216D01*
X91788147Y-81060646D01*
X91913646Y-80935147D01*
X92061216Y-80836544D01*
X92225188Y-80768624D01*
X92374488Y-80738927D01*
X92399258Y-80734000D01*
X92576742Y-80734000D01*
X92601512Y-80738927D01*
X92601512Y-80738927D01*
G37*
G36*
X112861560Y-80315166D02*
G01*
X113009153Y-80376301D01*
X113141982Y-80465055D01*
X113254945Y-80578018D01*
X113293688Y-80636000D01*
X113343700Y-80710849D01*
X113404834Y-80858440D01*
X113436000Y-81015122D01*
X113436000Y-81174878D01*
X113404834Y-81331560D01*
X113372627Y-81409316D01*
X113343699Y-81479153D01*
X113254945Y-81611982D01*
X113141982Y-81724945D01*
X113009153Y-81813699D01*
X113009152Y-81813700D01*
X113009151Y-81813700D01*
X112861560Y-81874834D01*
X112704878Y-81906000D01*
X112545122Y-81906000D01*
X112388440Y-81874834D01*
X112240849Y-81813700D01*
X112240848Y-81813700D01*
X112240847Y-81813699D01*
X112108018Y-81724945D01*
X111995055Y-81611982D01*
X111906301Y-81479153D01*
X111877374Y-81409316D01*
X111845166Y-81331560D01*
X111814000Y-81174878D01*
X111814000Y-81015122D01*
X111845166Y-80858440D01*
X111906300Y-80710849D01*
X111956313Y-80636000D01*
X111995055Y-80578018D01*
X112108018Y-80465055D01*
X112240847Y-80376301D01*
X112388440Y-80315166D01*
X112545122Y-80284000D01*
X112704878Y-80284000D01*
X112861560Y-80315166D01*
X112861560Y-80315166D01*
G37*
G36*
X115316477Y-79028242D02*
G01*
X115401560Y-79045166D01*
X115549153Y-79106301D01*
X115681982Y-79195055D01*
X115794945Y-79308018D01*
X115833688Y-79366000D01*
X115883700Y-79440849D01*
X115944834Y-79588440D01*
X115976000Y-79745122D01*
X115976000Y-79904878D01*
X115956805Y-80001376D01*
X115944834Y-80061560D01*
X115883699Y-80209153D01*
X115794945Y-80341982D01*
X115681982Y-80454945D01*
X115549153Y-80543699D01*
X115549152Y-80543700D01*
X115549151Y-80543700D01*
X115401560Y-80604834D01*
X115244878Y-80636000D01*
X115085122Y-80636000D01*
X114928440Y-80604834D01*
X114780849Y-80543700D01*
X114780848Y-80543700D01*
X114780847Y-80543699D01*
X114648018Y-80454945D01*
X114535055Y-80341982D01*
X114446301Y-80209153D01*
X114385166Y-80061560D01*
X114373195Y-80001376D01*
X114354000Y-79904878D01*
X114354000Y-79745122D01*
X114385166Y-79588440D01*
X114446300Y-79440849D01*
X114496313Y-79366000D01*
X114535055Y-79308018D01*
X114648018Y-79195055D01*
X114780847Y-79106301D01*
X114928440Y-79045166D01*
X115013523Y-79028242D01*
X115085122Y-79014000D01*
X115244878Y-79014000D01*
X115316477Y-79028242D01*
X115316477Y-79028242D01*
G37*
G36*
X92601512Y-78238927D02*
G01*
X92750812Y-78268624D01*
X92914784Y-78336544D01*
X93062354Y-78435147D01*
X93187853Y-78560646D01*
X93286456Y-78708216D01*
X93354376Y-78872188D01*
X93365405Y-78927638D01*
X93372516Y-78951078D01*
X93384067Y-78972689D01*
X93399613Y-78991631D01*
X93418555Y-79007176D01*
X93440165Y-79018727D01*
X93463614Y-79025840D01*
X93488000Y-79028242D01*
X93512387Y-79025840D01*
X93535835Y-79018727D01*
X93557446Y-79007176D01*
X93576388Y-78991630D01*
X93591933Y-78972688D01*
X93603484Y-78951078D01*
X93610595Y-78927638D01*
X93621624Y-78872188D01*
X93689544Y-78708216D01*
X93788147Y-78560646D01*
X93913646Y-78435147D01*
X94061216Y-78336544D01*
X94225188Y-78268624D01*
X94374488Y-78238927D01*
X94399258Y-78234000D01*
X94576742Y-78234000D01*
X94601512Y-78238927D01*
X94750812Y-78268624D01*
X94914784Y-78336544D01*
X95062354Y-78435147D01*
X95187853Y-78560646D01*
X95286456Y-78708216D01*
X95354376Y-78872188D01*
X95389000Y-79046259D01*
X95389000Y-79223741D01*
X95354376Y-79397812D01*
X95286456Y-79561784D01*
X95187853Y-79709354D01*
X95062354Y-79834853D01*
X94914784Y-79933456D01*
X94750812Y-80001376D01*
X94601512Y-80031073D01*
X94576742Y-80036000D01*
X94399258Y-80036000D01*
X94374488Y-80031073D01*
X94225188Y-80001376D01*
X94061216Y-79933456D01*
X93913646Y-79834853D01*
X93788147Y-79709354D01*
X93689544Y-79561784D01*
X93621624Y-79397812D01*
X93610595Y-79342362D01*
X93603484Y-79318922D01*
X93591933Y-79297311D01*
X93576387Y-79278369D01*
X93557445Y-79262824D01*
X93535835Y-79251273D01*
X93512386Y-79244160D01*
X93488000Y-79241758D01*
X93463613Y-79244160D01*
X93440165Y-79251273D01*
X93418554Y-79262824D01*
X93399612Y-79278370D01*
X93384067Y-79297312D01*
X93372516Y-79318922D01*
X93365405Y-79342362D01*
X93354376Y-79397812D01*
X93286456Y-79561784D01*
X93187853Y-79709354D01*
X93062354Y-79834853D01*
X92914784Y-79933456D01*
X92750812Y-80001376D01*
X92601512Y-80031073D01*
X92576742Y-80036000D01*
X92399258Y-80036000D01*
X92374488Y-80031073D01*
X92225188Y-80001376D01*
X92061216Y-79933456D01*
X91913646Y-79834853D01*
X91788147Y-79709354D01*
X91689544Y-79561784D01*
X91621624Y-79397812D01*
X91587000Y-79223741D01*
X91587000Y-79046259D01*
X91621624Y-78872188D01*
X91689544Y-78708216D01*
X91788147Y-78560646D01*
X91913646Y-78435147D01*
X92061216Y-78336544D01*
X92225188Y-78268624D01*
X92374488Y-78238927D01*
X92399258Y-78234000D01*
X92576742Y-78234000D01*
X92601512Y-78238927D01*
X92601512Y-78238927D01*
G37*
G36*
X112861560Y-77775166D02*
G01*
X113009153Y-77836301D01*
X113141982Y-77925055D01*
X113254945Y-78038018D01*
X113343699Y-78170847D01*
X113404834Y-78318440D01*
X113436000Y-78475123D01*
X113436000Y-78634877D01*
X113404834Y-78791560D01*
X113343699Y-78939153D01*
X113254945Y-79071982D01*
X113141982Y-79184945D01*
X113009153Y-79273699D01*
X113009152Y-79273700D01*
X113009151Y-79273700D01*
X112861560Y-79334834D01*
X112704878Y-79366000D01*
X112545122Y-79366000D01*
X112388440Y-79334834D01*
X112240849Y-79273700D01*
X112240848Y-79273700D01*
X112240847Y-79273699D01*
X112108018Y-79184945D01*
X111995055Y-79071982D01*
X111906301Y-78939153D01*
X111845166Y-78791560D01*
X111814000Y-78634877D01*
X111814000Y-78475123D01*
X111845166Y-78318440D01*
X111906301Y-78170847D01*
X111995055Y-78038018D01*
X112108018Y-77925055D01*
X112240847Y-77836301D01*
X112388440Y-77775166D01*
X112545122Y-77744000D01*
X112704878Y-77744000D01*
X112861560Y-77775166D01*
X112861560Y-77775166D01*
G37*
G36*
X115401560Y-76505166D02*
G01*
X115549153Y-76566301D01*
X115681982Y-76655055D01*
X115794945Y-76768018D01*
X115883699Y-76900847D01*
X115944834Y-77048440D01*
X115976000Y-77205123D01*
X115976000Y-77364877D01*
X115944834Y-77521560D01*
X115883699Y-77669153D01*
X115794945Y-77801982D01*
X115681982Y-77914945D01*
X115549153Y-78003699D01*
X115549152Y-78003700D01*
X115549151Y-78003700D01*
X115401560Y-78064834D01*
X115244878Y-78096000D01*
X115085122Y-78096000D01*
X114928440Y-78064834D01*
X114780849Y-78003700D01*
X114780848Y-78003700D01*
X114780847Y-78003699D01*
X114648018Y-77914945D01*
X114535055Y-77801982D01*
X114446301Y-77669153D01*
X114385166Y-77521560D01*
X114354000Y-77364877D01*
X114354000Y-77205123D01*
X114385166Y-77048440D01*
X114446301Y-76900847D01*
X114535055Y-76768018D01*
X114648018Y-76655055D01*
X114780847Y-76566301D01*
X114928440Y-76505166D01*
X115085122Y-76474000D01*
X115244878Y-76474000D01*
X115401560Y-76505166D01*
X115401560Y-76505166D01*
G37*
G36*
X122003871Y-73773408D02*
G01*
X122308883Y-73899748D01*
X122583387Y-74083166D01*
X122816834Y-74316613D01*
X123000252Y-74591117D01*
X123126592Y-74896129D01*
X123191000Y-75219928D01*
X123191000Y-75550072D01*
X123126592Y-75873871D01*
X123000252Y-76178883D01*
X122816834Y-76453387D01*
X122583387Y-76686834D01*
X122308883Y-76870252D01*
X122003871Y-76996592D01*
X121841971Y-77028796D01*
X121680073Y-77061000D01*
X121349927Y-77061000D01*
X121188029Y-77028796D01*
X121026129Y-76996592D01*
X120721117Y-76870252D01*
X120446613Y-76686834D01*
X120213166Y-76453387D01*
X120029748Y-76178883D01*
X119903408Y-75873871D01*
X119839000Y-75550072D01*
X119839000Y-75219928D01*
X119903408Y-74896129D01*
X120029748Y-74591117D01*
X120213166Y-74316613D01*
X120446613Y-74083166D01*
X120721117Y-73899748D01*
X121026129Y-73773408D01*
X121349927Y-73709000D01*
X121680073Y-73709000D01*
X122003871Y-73773408D01*
X122003871Y-73773408D01*
G37*
G36*
X90303331Y-72633211D02*
G01*
X90631092Y-72768974D01*
X90926070Y-72966072D01*
X91176928Y-73216930D01*
X91374026Y-73511908D01*
X91509789Y-73839669D01*
X91579000Y-74187616D01*
X91579000Y-74542384D01*
X91509789Y-74890331D01*
X91374026Y-75218092D01*
X91176928Y-75513070D01*
X90926070Y-75763928D01*
X90631092Y-75961026D01*
X90303331Y-76096789D01*
X89955384Y-76166000D01*
X89600616Y-76166000D01*
X89252669Y-76096789D01*
X88924908Y-75961026D01*
X88629930Y-75763928D01*
X88379072Y-75513070D01*
X88181974Y-75218092D01*
X88046211Y-74890331D01*
X87977000Y-74542384D01*
X87977000Y-74187616D01*
X88046211Y-73839669D01*
X88181974Y-73511908D01*
X88379072Y-73216930D01*
X88629930Y-72966072D01*
X88924908Y-72768974D01*
X89252669Y-72633211D01*
X89600616Y-72564000D01*
X89955384Y-72564000D01*
X90303331Y-72633211D01*
X90303331Y-72633211D01*
G37*
G36*
X84517007Y-66463582D02*
G01*
X84917563Y-66629498D01*
X84917565Y-66629499D01*
X85278056Y-66870371D01*
X85584629Y-67176944D01*
X85825501Y-67537435D01*
X85825502Y-67537437D01*
X85991418Y-67937993D01*
X86076000Y-68363219D01*
X86076000Y-68796781D01*
X85991418Y-69222007D01*
X85825502Y-69622563D01*
X85825501Y-69622565D01*
X85584629Y-69983056D01*
X85278056Y-70289629D01*
X84917565Y-70530501D01*
X84917564Y-70530502D01*
X84917563Y-70530502D01*
X84517007Y-70696418D01*
X84091781Y-70781000D01*
X83658219Y-70781000D01*
X83232993Y-70696418D01*
X82832437Y-70530502D01*
X82832436Y-70530502D01*
X82832435Y-70530501D01*
X82471944Y-70289629D01*
X82165371Y-69983056D01*
X81924499Y-69622565D01*
X81924498Y-69622563D01*
X81758582Y-69222007D01*
X81674000Y-68796781D01*
X81674000Y-68363219D01*
X81758582Y-67937993D01*
X81924498Y-67537437D01*
X81924499Y-67537435D01*
X82165371Y-67176944D01*
X82471944Y-66870371D01*
X82832435Y-66629499D01*
X82832437Y-66629498D01*
X83232993Y-66463582D01*
X83658219Y-66379000D01*
X84091781Y-66379000D01*
X84517007Y-66463582D01*
X84517007Y-66463582D01*
G37*
G36*
X125517007Y-66463582D02*
G01*
X125917563Y-66629498D01*
X125917565Y-66629499D01*
X126278056Y-66870371D01*
X126584629Y-67176944D01*
X126825501Y-67537435D01*
X126825502Y-67537437D01*
X126991418Y-67937993D01*
X127076000Y-68363219D01*
X127076000Y-68796781D01*
X126991418Y-69222007D01*
X126825502Y-69622563D01*
X126825501Y-69622565D01*
X126584629Y-69983056D01*
X126278056Y-70289629D01*
X125917565Y-70530501D01*
X125917564Y-70530502D01*
X125917563Y-70530502D01*
X125517007Y-70696418D01*
X125091781Y-70781000D01*
X124658219Y-70781000D01*
X124232993Y-70696418D01*
X123832437Y-70530502D01*
X123832436Y-70530502D01*
X123832435Y-70530501D01*
X123471944Y-70289629D01*
X123165371Y-69983056D01*
X122924499Y-69622565D01*
X122924498Y-69622563D01*
X122758582Y-69222007D01*
X122674000Y-68796781D01*
X122674000Y-68363219D01*
X122758582Y-67937993D01*
X122924498Y-67537437D01*
X122924499Y-67537435D01*
X123165371Y-67176944D01*
X123471944Y-66870371D01*
X123832435Y-66629499D01*
X123832437Y-66629498D01*
X124232993Y-66463582D01*
X124658219Y-66379000D01*
X125091781Y-66379000D01*
X125517007Y-66463582D01*
X125517007Y-66463582D01*
G37*
M02*
