G04 #@! TF.GenerationSoftware,KiCad,Pcbnew,(5.1.2)-2*
G04 #@! TF.CreationDate,2020-04-12T20:05:54-04:00*
G04 #@! TF.ProjectId,usb-serial-interface,7573622d-7365-4726-9961-6c2d696e7465,rev?*
G04 #@! TF.SameCoordinates,Original*
G04 #@! TF.FileFunction,Copper,L2,Bot*
G04 #@! TF.FilePolarity,Positive*
%FSLAX46Y46*%
G04 Gerber Fmt 4.6, Leading zero omitted, Abs format (unit mm)*
G04 Created by KiCad (PCBNEW (5.1.2)-2) date 2020-04-12 20:05:54*
%MOMM*%
%LPD*%
G04 APERTURE LIST*
%ADD10C,3.500000*%
%ADD11C,1.700000*%
%ADD12R,1.700000X1.700000*%
%ADD13R,1.520000X1.520000*%
%ADD14C,1.520000*%
%ADD15C,0.450000*%
%ADD16C,0.304800*%
%ADD17C,0.203200*%
%ADD18C,0.254000*%
G04 APERTURE END LIST*
D10*
X89778000Y-74365000D03*
X89778000Y-86405000D03*
D11*
X92488000Y-81635000D03*
X92488000Y-79135000D03*
X94488000Y-79135000D03*
D12*
X94488000Y-81635000D03*
D13*
X112625000Y-83635000D03*
D14*
X115165000Y-82365000D03*
X112625000Y-81095000D03*
X115165000Y-79825000D03*
X112625000Y-78555000D03*
X115165000Y-77285000D03*
D15*
X100076000Y-86106000D03*
X88900000Y-66040000D03*
X120650000Y-66040000D03*
X105410000Y-66040000D03*
X90375000Y-96135000D03*
X105375000Y-96135000D03*
X118745000Y-96135000D03*
X128270000Y-81280000D03*
X81915000Y-81915000D03*
X102235000Y-78740000D03*
X106680000Y-83185000D03*
X97028000Y-85217000D03*
X107569000Y-86741000D03*
X100838000Y-83566000D03*
X108585000Y-80010000D03*
X103634169Y-83961610D03*
X104394000Y-80391000D03*
D16*
X101565554Y-83566000D02*
X104740554Y-86741000D01*
X104740554Y-86741000D02*
X107569000Y-86741000D01*
X107569000Y-86741000D02*
X107569000Y-86741000D01*
X100838000Y-83566000D02*
X101565554Y-83566000D01*
X98907000Y-81635000D02*
X100838000Y-83566000D01*
X94488000Y-81635000D02*
X98907000Y-81635000D01*
D17*
X111470000Y-79710000D02*
X112625000Y-78555000D01*
X111170000Y-80010000D02*
X111470000Y-79710000D01*
X108585000Y-80010000D02*
X111170000Y-80010000D01*
D18*
X104394000Y-80391000D02*
X103634169Y-81150831D01*
X103634169Y-83643412D02*
X103634169Y-83961610D01*
X103634169Y-81150831D02*
X103634169Y-83643412D01*
G36*
X128665001Y-96475000D02*
G01*
X80060000Y-96475000D01*
X80060000Y-92360701D01*
X81090000Y-92360701D01*
X81090000Y-92909299D01*
X81197026Y-93447354D01*
X81406965Y-93954192D01*
X81711750Y-94410334D01*
X82099666Y-94798250D01*
X82555808Y-95103035D01*
X83062646Y-95312974D01*
X83600701Y-95420000D01*
X84149299Y-95420000D01*
X84687354Y-95312974D01*
X85194192Y-95103035D01*
X85650334Y-94798250D01*
X86038250Y-94410334D01*
X86343035Y-93954192D01*
X86552974Y-93447354D01*
X86660000Y-92909299D01*
X86660000Y-92360701D01*
X86610272Y-92110701D01*
X122090000Y-92110701D01*
X122090000Y-92659299D01*
X122197026Y-93197354D01*
X122406965Y-93704192D01*
X122711750Y-94160334D01*
X123099666Y-94548250D01*
X123555808Y-94853035D01*
X124062646Y-95062974D01*
X124600701Y-95170000D01*
X125149299Y-95170000D01*
X125687354Y-95062974D01*
X126194192Y-94853035D01*
X126650334Y-94548250D01*
X127038250Y-94160334D01*
X127343035Y-93704192D01*
X127552974Y-93197354D01*
X127660000Y-92659299D01*
X127660000Y-92110701D01*
X127552974Y-91572646D01*
X127343035Y-91065808D01*
X127038250Y-90609666D01*
X126650334Y-90221750D01*
X126194192Y-89916965D01*
X125687354Y-89707026D01*
X125149299Y-89600000D01*
X124600701Y-89600000D01*
X124062646Y-89707026D01*
X123555808Y-89916965D01*
X123099666Y-90221750D01*
X122711750Y-90609666D01*
X122406965Y-91065808D01*
X122197026Y-91572646D01*
X122090000Y-92110701D01*
X86610272Y-92110701D01*
X86552974Y-91822646D01*
X86343035Y-91315808D01*
X86038250Y-90859666D01*
X85650334Y-90471750D01*
X85194192Y-90166965D01*
X84687354Y-89957026D01*
X84149299Y-89850000D01*
X83600701Y-89850000D01*
X83062646Y-89957026D01*
X82555808Y-90166965D01*
X82099666Y-90471750D01*
X81711750Y-90859666D01*
X81406965Y-91315808D01*
X81197026Y-91822646D01*
X81090000Y-92360701D01*
X80060000Y-92360701D01*
X80060000Y-88074609D01*
X88287997Y-88074609D01*
X88474073Y-88415766D01*
X88891409Y-88631513D01*
X89342815Y-88761696D01*
X89810946Y-88801313D01*
X90277811Y-88748842D01*
X90725468Y-88606297D01*
X91081927Y-88415766D01*
X91268003Y-88074609D01*
X89778000Y-86584605D01*
X88287997Y-88074609D01*
X80060000Y-88074609D01*
X80060000Y-86437946D01*
X87381687Y-86437946D01*
X87434158Y-86904811D01*
X87576703Y-87352468D01*
X87767234Y-87708927D01*
X88108391Y-87895003D01*
X89598395Y-86405000D01*
X89957605Y-86405000D01*
X91447609Y-87895003D01*
X91788766Y-87708927D01*
X92004513Y-87291591D01*
X92134696Y-86840185D01*
X92174313Y-86372054D01*
X92121842Y-85905189D01*
X91979297Y-85457532D01*
X91788766Y-85101073D01*
X91447609Y-84914997D01*
X89957605Y-86405000D01*
X89598395Y-86405000D01*
X88108391Y-84914997D01*
X87767234Y-85101073D01*
X87551487Y-85518409D01*
X87421304Y-85969815D01*
X87381687Y-86437946D01*
X80060000Y-86437946D01*
X80060000Y-84735391D01*
X88287997Y-84735391D01*
X89778000Y-86225395D01*
X91268003Y-84735391D01*
X91081927Y-84394234D01*
X90664591Y-84178487D01*
X90213185Y-84048304D01*
X89745054Y-84008687D01*
X89278189Y-84061158D01*
X88830532Y-84203703D01*
X88474073Y-84394234D01*
X88287997Y-84735391D01*
X80060000Y-84735391D01*
X80060000Y-81703531D01*
X90997389Y-81703531D01*
X91039401Y-81993019D01*
X91137081Y-82268747D01*
X91210528Y-82406157D01*
X91459603Y-82483792D01*
X92308395Y-81635000D01*
X91459603Y-80786208D01*
X91210528Y-80863843D01*
X91084629Y-81127883D01*
X91012661Y-81411411D01*
X90997389Y-81703531D01*
X80060000Y-81703531D01*
X80060000Y-78988740D01*
X91003000Y-78988740D01*
X91003000Y-79281260D01*
X91060068Y-79568158D01*
X91172010Y-79838411D01*
X91334525Y-80081632D01*
X91541368Y-80288475D01*
X91704410Y-80397416D01*
X91639208Y-80606603D01*
X92488000Y-81455395D01*
X92502143Y-81441253D01*
X92681748Y-81620858D01*
X92667605Y-81635000D01*
X92681748Y-81649143D01*
X92502143Y-81828748D01*
X92488000Y-81814605D01*
X91639208Y-82663397D01*
X91716843Y-82912472D01*
X91980883Y-83038371D01*
X92264411Y-83110339D01*
X92556531Y-83125611D01*
X92846019Y-83083599D01*
X93121747Y-82985919D01*
X93197850Y-82945241D01*
X93283506Y-83015537D01*
X93393820Y-83074502D01*
X93513518Y-83110812D01*
X93638000Y-83123072D01*
X95338000Y-83123072D01*
X95462482Y-83110812D01*
X95582180Y-83074502D01*
X95692494Y-83015537D01*
X95789185Y-82936185D01*
X95868537Y-82839494D01*
X95927502Y-82729180D01*
X95963812Y-82609482D01*
X95976072Y-82485000D01*
X95976072Y-82422400D01*
X98580850Y-82422400D01*
X100036327Y-83877878D01*
X100075878Y-83973363D01*
X100169995Y-84114218D01*
X100289782Y-84234005D01*
X100430637Y-84328122D01*
X100587147Y-84392951D01*
X100753297Y-84426000D01*
X100922703Y-84426000D01*
X101088853Y-84392951D01*
X101184337Y-84353400D01*
X101239404Y-84353400D01*
X104156431Y-87270428D01*
X104181085Y-87300469D01*
X104300982Y-87398866D01*
X104437771Y-87471982D01*
X104586197Y-87517006D01*
X104701881Y-87528400D01*
X104701890Y-87528400D01*
X104740553Y-87532208D01*
X104779216Y-87528400D01*
X107222663Y-87528400D01*
X107318147Y-87567951D01*
X107484297Y-87601000D01*
X107653703Y-87601000D01*
X107819853Y-87567951D01*
X107976363Y-87503122D01*
X108117218Y-87409005D01*
X108237005Y-87289218D01*
X108331122Y-87148363D01*
X108395951Y-86991853D01*
X108429000Y-86825703D01*
X108429000Y-86656297D01*
X108395951Y-86490147D01*
X108331122Y-86333637D01*
X108237005Y-86192782D01*
X108117218Y-86072995D01*
X107976363Y-85978878D01*
X107819853Y-85914049D01*
X107653703Y-85881000D01*
X107484297Y-85881000D01*
X107318147Y-85914049D01*
X107222663Y-85953600D01*
X105066705Y-85953600D01*
X104435514Y-85322409D01*
X119255000Y-85322409D01*
X119255000Y-85767591D01*
X119341851Y-86204218D01*
X119512214Y-86615511D01*
X119759544Y-86985666D01*
X120074334Y-87300456D01*
X120444489Y-87547786D01*
X120855782Y-87718149D01*
X121292409Y-87805000D01*
X121737591Y-87805000D01*
X122174218Y-87718149D01*
X122585511Y-87547786D01*
X122955666Y-87300456D01*
X123270456Y-86985666D01*
X123517786Y-86615511D01*
X123688149Y-86204218D01*
X123775000Y-85767591D01*
X123775000Y-85322409D01*
X123688149Y-84885782D01*
X123517786Y-84474489D01*
X123270456Y-84104334D01*
X122955666Y-83789544D01*
X122585511Y-83542214D01*
X122174218Y-83371851D01*
X121737591Y-83285000D01*
X121292409Y-83285000D01*
X120855782Y-83371851D01*
X120444489Y-83542214D01*
X120074334Y-83789544D01*
X119759544Y-84104334D01*
X119512214Y-84474489D01*
X119341851Y-84885782D01*
X119255000Y-85322409D01*
X104435514Y-85322409D01*
X103896791Y-84783686D01*
X104041532Y-84723732D01*
X104182387Y-84629615D01*
X104302174Y-84509828D01*
X104396291Y-84368973D01*
X104461120Y-84212463D01*
X104494169Y-84046313D01*
X104494169Y-83876907D01*
X104461120Y-83710757D01*
X104396291Y-83554247D01*
X104396169Y-83554064D01*
X104396169Y-82875000D01*
X111226928Y-82875000D01*
X111226928Y-84395000D01*
X111239188Y-84519482D01*
X111275498Y-84639180D01*
X111334463Y-84749494D01*
X111413815Y-84846185D01*
X111510506Y-84925537D01*
X111620820Y-84984502D01*
X111740518Y-85020812D01*
X111865000Y-85033072D01*
X113385000Y-85033072D01*
X113509482Y-85020812D01*
X113629180Y-84984502D01*
X113739494Y-84925537D01*
X113836185Y-84846185D01*
X113915537Y-84749494D01*
X113974502Y-84639180D01*
X114010812Y-84519482D01*
X114023072Y-84395000D01*
X114023072Y-83166918D01*
X114081433Y-83254261D01*
X114275739Y-83448567D01*
X114504220Y-83601233D01*
X114758093Y-83706391D01*
X115027604Y-83760000D01*
X115302396Y-83760000D01*
X115571907Y-83706391D01*
X115825780Y-83601233D01*
X116054261Y-83448567D01*
X116248567Y-83254261D01*
X116401233Y-83025780D01*
X116506391Y-82771907D01*
X116560000Y-82502396D01*
X116560000Y-82227604D01*
X116506391Y-81958093D01*
X116401233Y-81704220D01*
X116248567Y-81475739D01*
X116054261Y-81281433D01*
X115825780Y-81128767D01*
X115744260Y-81095000D01*
X115825780Y-81061233D01*
X116054261Y-80908567D01*
X116248567Y-80714261D01*
X116401233Y-80485780D01*
X116506391Y-80231907D01*
X116560000Y-79962396D01*
X116560000Y-79687604D01*
X116506391Y-79418093D01*
X116401233Y-79164220D01*
X116248567Y-78935739D01*
X116054261Y-78741433D01*
X115825780Y-78588767D01*
X115744260Y-78555000D01*
X115825780Y-78521233D01*
X116054261Y-78368567D01*
X116248567Y-78174261D01*
X116401233Y-77945780D01*
X116506391Y-77691907D01*
X116560000Y-77422396D01*
X116560000Y-77147604D01*
X116506391Y-76878093D01*
X116401233Y-76624220D01*
X116248567Y-76395739D01*
X116054261Y-76201433D01*
X115825780Y-76048767D01*
X115571907Y-75943609D01*
X115302396Y-75890000D01*
X115027604Y-75890000D01*
X114758093Y-75943609D01*
X114504220Y-76048767D01*
X114275739Y-76201433D01*
X114081433Y-76395739D01*
X113928767Y-76624220D01*
X113823609Y-76878093D01*
X113770000Y-77147604D01*
X113770000Y-77422396D01*
X113823609Y-77691907D01*
X113928767Y-77945780D01*
X114081433Y-78174261D01*
X114275739Y-78368567D01*
X114504220Y-78521233D01*
X114585740Y-78555000D01*
X114504220Y-78588767D01*
X114275739Y-78741433D01*
X114081433Y-78935739D01*
X113928767Y-79164220D01*
X113823609Y-79418093D01*
X113770000Y-79687604D01*
X113770000Y-79962396D01*
X113823609Y-80231907D01*
X113928767Y-80485780D01*
X114081433Y-80714261D01*
X114275739Y-80908567D01*
X114504220Y-81061233D01*
X114585740Y-81095000D01*
X114504220Y-81128767D01*
X114275739Y-81281433D01*
X114081433Y-81475739D01*
X113928767Y-81704220D01*
X113823609Y-81958093D01*
X113770000Y-82227604D01*
X113770000Y-82369499D01*
X113739494Y-82344463D01*
X113629180Y-82285498D01*
X113509482Y-82249188D01*
X113385000Y-82236928D01*
X113360069Y-82236928D01*
X113409531Y-82059137D01*
X112625000Y-81274605D01*
X111840469Y-82059137D01*
X111889931Y-82236928D01*
X111865000Y-82236928D01*
X111740518Y-82249188D01*
X111620820Y-82285498D01*
X111510506Y-82344463D01*
X111413815Y-82423815D01*
X111334463Y-82520506D01*
X111275498Y-82630820D01*
X111239188Y-82750518D01*
X111226928Y-82875000D01*
X104396169Y-82875000D01*
X104396169Y-81466461D01*
X104644637Y-81217994D01*
X104644853Y-81217951D01*
X104801363Y-81153122D01*
X104942218Y-81059005D01*
X105062005Y-80939218D01*
X105156122Y-80798363D01*
X105220951Y-80641853D01*
X105254000Y-80475703D01*
X105254000Y-80306297D01*
X105220951Y-80140147D01*
X105156122Y-79983637D01*
X105117141Y-79925297D01*
X107725000Y-79925297D01*
X107725000Y-80094703D01*
X107758049Y-80260853D01*
X107822878Y-80417363D01*
X107916995Y-80558218D01*
X108036782Y-80678005D01*
X108177637Y-80772122D01*
X108334147Y-80836951D01*
X108500297Y-80870000D01*
X108669703Y-80870000D01*
X108835853Y-80836951D01*
X108992363Y-80772122D01*
X109030559Y-80746600D01*
X111133817Y-80746600D01*
X111170000Y-80750164D01*
X111206183Y-80746600D01*
X111206186Y-80746600D01*
X111275845Y-80739739D01*
X111237939Y-80892606D01*
X111225105Y-81167097D01*
X111266069Y-81438817D01*
X111359256Y-81697326D01*
X111420975Y-81812794D01*
X111660863Y-81879531D01*
X112445395Y-81095000D01*
X112804605Y-81095000D01*
X113589137Y-81879531D01*
X113829025Y-81812794D01*
X113945924Y-81564108D01*
X114012061Y-81297394D01*
X114024895Y-81022903D01*
X113983931Y-80751183D01*
X113890744Y-80492674D01*
X113829025Y-80377206D01*
X113589137Y-80310469D01*
X112804605Y-81095000D01*
X112445395Y-81095000D01*
X112431253Y-81080858D01*
X112610858Y-80901253D01*
X112625000Y-80915395D01*
X113409531Y-80130863D01*
X113342794Y-79890975D01*
X113203293Y-79825400D01*
X113285780Y-79791233D01*
X113514261Y-79638567D01*
X113708567Y-79444261D01*
X113861233Y-79215780D01*
X113966391Y-78961907D01*
X114020000Y-78692396D01*
X114020000Y-78417604D01*
X113966391Y-78148093D01*
X113861233Y-77894220D01*
X113708567Y-77665739D01*
X113514261Y-77471433D01*
X113285780Y-77318767D01*
X113031907Y-77213609D01*
X112762396Y-77160000D01*
X112487604Y-77160000D01*
X112218093Y-77213609D01*
X111964220Y-77318767D01*
X111735739Y-77471433D01*
X111541433Y-77665739D01*
X111388767Y-77894220D01*
X111283609Y-78148093D01*
X111230000Y-78417604D01*
X111230000Y-78692396D01*
X111265819Y-78872472D01*
X110864891Y-79273400D01*
X109030559Y-79273400D01*
X108992363Y-79247878D01*
X108835853Y-79183049D01*
X108669703Y-79150000D01*
X108500297Y-79150000D01*
X108334147Y-79183049D01*
X108177637Y-79247878D01*
X108036782Y-79341995D01*
X107916995Y-79461782D01*
X107822878Y-79602637D01*
X107758049Y-79759147D01*
X107725000Y-79925297D01*
X105117141Y-79925297D01*
X105062005Y-79842782D01*
X104942218Y-79722995D01*
X104801363Y-79628878D01*
X104644853Y-79564049D01*
X104478703Y-79531000D01*
X104309297Y-79531000D01*
X104143147Y-79564049D01*
X103986637Y-79628878D01*
X103845782Y-79722995D01*
X103725995Y-79842782D01*
X103631878Y-79983637D01*
X103567049Y-80140147D01*
X103567006Y-80140363D01*
X103121822Y-80585547D01*
X103092747Y-80609409D01*
X103037152Y-80677153D01*
X102997524Y-80725439D01*
X102965043Y-80786208D01*
X102926767Y-80857817D01*
X102883195Y-81001454D01*
X102873982Y-81095000D01*
X102868483Y-81150831D01*
X102872169Y-81188254D01*
X102872170Y-83554063D01*
X102872047Y-83554247D01*
X102812093Y-83698988D01*
X102149682Y-83036578D01*
X102125023Y-83006531D01*
X102005126Y-82908134D01*
X101868337Y-82835018D01*
X101719911Y-82789994D01*
X101604227Y-82778600D01*
X101604217Y-82778600D01*
X101565554Y-82774792D01*
X101526891Y-82778600D01*
X101184337Y-82778600D01*
X101149878Y-82764327D01*
X99491127Y-81105577D01*
X99466469Y-81075531D01*
X99346572Y-80977134D01*
X99209783Y-80904018D01*
X99061357Y-80858994D01*
X98945673Y-80847600D01*
X98945663Y-80847600D01*
X98907000Y-80843792D01*
X98868337Y-80847600D01*
X95976072Y-80847600D01*
X95976072Y-80785000D01*
X95963812Y-80660518D01*
X95927502Y-80540820D01*
X95868537Y-80430506D01*
X95789185Y-80333815D01*
X95692494Y-80254463D01*
X95582180Y-80195498D01*
X95540310Y-80182797D01*
X95641475Y-80081632D01*
X95803990Y-79838411D01*
X95915932Y-79568158D01*
X95973000Y-79281260D01*
X95973000Y-78988740D01*
X95915932Y-78701842D01*
X95803990Y-78431589D01*
X95641475Y-78188368D01*
X95434632Y-77981525D01*
X95191411Y-77819010D01*
X94921158Y-77707068D01*
X94634260Y-77650000D01*
X94341740Y-77650000D01*
X94054842Y-77707068D01*
X93784589Y-77819010D01*
X93541368Y-77981525D01*
X93488000Y-78034893D01*
X93434632Y-77981525D01*
X93191411Y-77819010D01*
X92921158Y-77707068D01*
X92634260Y-77650000D01*
X92341740Y-77650000D01*
X92054842Y-77707068D01*
X91784589Y-77819010D01*
X91541368Y-77981525D01*
X91334525Y-78188368D01*
X91172010Y-78431589D01*
X91060068Y-78701842D01*
X91003000Y-78988740D01*
X80060000Y-78988740D01*
X80060000Y-76034609D01*
X88287997Y-76034609D01*
X88474073Y-76375766D01*
X88891409Y-76591513D01*
X89342815Y-76721696D01*
X89810946Y-76761313D01*
X90277811Y-76708842D01*
X90725468Y-76566297D01*
X91081927Y-76375766D01*
X91268003Y-76034609D01*
X89778000Y-74544605D01*
X88287997Y-76034609D01*
X80060000Y-76034609D01*
X80060000Y-74397946D01*
X87381687Y-74397946D01*
X87434158Y-74864811D01*
X87576703Y-75312468D01*
X87767234Y-75668927D01*
X88108391Y-75855003D01*
X89598395Y-74365000D01*
X89957605Y-74365000D01*
X91447609Y-75855003D01*
X91788766Y-75668927D01*
X92004513Y-75251591D01*
X92030232Y-75162409D01*
X119255000Y-75162409D01*
X119255000Y-75607591D01*
X119341851Y-76044218D01*
X119512214Y-76455511D01*
X119759544Y-76825666D01*
X120074334Y-77140456D01*
X120444489Y-77387786D01*
X120855782Y-77558149D01*
X121292409Y-77645000D01*
X121737591Y-77645000D01*
X122174218Y-77558149D01*
X122585511Y-77387786D01*
X122955666Y-77140456D01*
X123270456Y-76825666D01*
X123517786Y-76455511D01*
X123688149Y-76044218D01*
X123775000Y-75607591D01*
X123775000Y-75162409D01*
X123688149Y-74725782D01*
X123517786Y-74314489D01*
X123270456Y-73944334D01*
X122955666Y-73629544D01*
X122585511Y-73382214D01*
X122174218Y-73211851D01*
X121737591Y-73125000D01*
X121292409Y-73125000D01*
X120855782Y-73211851D01*
X120444489Y-73382214D01*
X120074334Y-73629544D01*
X119759544Y-73944334D01*
X119512214Y-74314489D01*
X119341851Y-74725782D01*
X119255000Y-75162409D01*
X92030232Y-75162409D01*
X92134696Y-74800185D01*
X92174313Y-74332054D01*
X92121842Y-73865189D01*
X91979297Y-73417532D01*
X91788766Y-73061073D01*
X91447609Y-72874997D01*
X89957605Y-74365000D01*
X89598395Y-74365000D01*
X88108391Y-72874997D01*
X87767234Y-73061073D01*
X87551487Y-73478409D01*
X87421304Y-73929815D01*
X87381687Y-74397946D01*
X80060000Y-74397946D01*
X80060000Y-72695391D01*
X88287997Y-72695391D01*
X89778000Y-74185395D01*
X91268003Y-72695391D01*
X91081927Y-72354234D01*
X90664591Y-72138487D01*
X90213185Y-72008304D01*
X89745054Y-71968687D01*
X89278189Y-72021158D01*
X88830532Y-72163703D01*
X88474073Y-72354234D01*
X88287997Y-72695391D01*
X80060000Y-72695391D01*
X80060000Y-68305701D01*
X81090000Y-68305701D01*
X81090000Y-68854299D01*
X81197026Y-69392354D01*
X81406965Y-69899192D01*
X81711750Y-70355334D01*
X82099666Y-70743250D01*
X82555808Y-71048035D01*
X83062646Y-71257974D01*
X83600701Y-71365000D01*
X84149299Y-71365000D01*
X84687354Y-71257974D01*
X85194192Y-71048035D01*
X85650334Y-70743250D01*
X86038250Y-70355334D01*
X86343035Y-69899192D01*
X86552974Y-69392354D01*
X86660000Y-68854299D01*
X86660000Y-68305701D01*
X122090000Y-68305701D01*
X122090000Y-68854299D01*
X122197026Y-69392354D01*
X122406965Y-69899192D01*
X122711750Y-70355334D01*
X123099666Y-70743250D01*
X123555808Y-71048035D01*
X124062646Y-71257974D01*
X124600701Y-71365000D01*
X125149299Y-71365000D01*
X125687354Y-71257974D01*
X126194192Y-71048035D01*
X126650334Y-70743250D01*
X127038250Y-70355334D01*
X127343035Y-69899192D01*
X127552974Y-69392354D01*
X127660000Y-68854299D01*
X127660000Y-68305701D01*
X127552974Y-67767646D01*
X127343035Y-67260808D01*
X127038250Y-66804666D01*
X126650334Y-66416750D01*
X126194192Y-66111965D01*
X125687354Y-65902026D01*
X125149299Y-65795000D01*
X124600701Y-65795000D01*
X124062646Y-65902026D01*
X123555808Y-66111965D01*
X123099666Y-66416750D01*
X122711750Y-66804666D01*
X122406965Y-67260808D01*
X122197026Y-67767646D01*
X122090000Y-68305701D01*
X86660000Y-68305701D01*
X86552974Y-67767646D01*
X86343035Y-67260808D01*
X86038250Y-66804666D01*
X85650334Y-66416750D01*
X85194192Y-66111965D01*
X84687354Y-65902026D01*
X84149299Y-65795000D01*
X83600701Y-65795000D01*
X83062646Y-65902026D01*
X82555808Y-66111965D01*
X82099666Y-66416750D01*
X81711750Y-66804666D01*
X81406965Y-67260808D01*
X81197026Y-67767646D01*
X81090000Y-68305701D01*
X80060000Y-68305701D01*
X80060000Y-64795000D01*
X128665000Y-64795000D01*
X128665001Y-96475000D01*
X128665001Y-96475000D01*
G37*
X128665001Y-96475000D02*
X80060000Y-96475000D01*
X80060000Y-92360701D01*
X81090000Y-92360701D01*
X81090000Y-92909299D01*
X81197026Y-93447354D01*
X81406965Y-93954192D01*
X81711750Y-94410334D01*
X82099666Y-94798250D01*
X82555808Y-95103035D01*
X83062646Y-95312974D01*
X83600701Y-95420000D01*
X84149299Y-95420000D01*
X84687354Y-95312974D01*
X85194192Y-95103035D01*
X85650334Y-94798250D01*
X86038250Y-94410334D01*
X86343035Y-93954192D01*
X86552974Y-93447354D01*
X86660000Y-92909299D01*
X86660000Y-92360701D01*
X86610272Y-92110701D01*
X122090000Y-92110701D01*
X122090000Y-92659299D01*
X122197026Y-93197354D01*
X122406965Y-93704192D01*
X122711750Y-94160334D01*
X123099666Y-94548250D01*
X123555808Y-94853035D01*
X124062646Y-95062974D01*
X124600701Y-95170000D01*
X125149299Y-95170000D01*
X125687354Y-95062974D01*
X126194192Y-94853035D01*
X126650334Y-94548250D01*
X127038250Y-94160334D01*
X127343035Y-93704192D01*
X127552974Y-93197354D01*
X127660000Y-92659299D01*
X127660000Y-92110701D01*
X127552974Y-91572646D01*
X127343035Y-91065808D01*
X127038250Y-90609666D01*
X126650334Y-90221750D01*
X126194192Y-89916965D01*
X125687354Y-89707026D01*
X125149299Y-89600000D01*
X124600701Y-89600000D01*
X124062646Y-89707026D01*
X123555808Y-89916965D01*
X123099666Y-90221750D01*
X122711750Y-90609666D01*
X122406965Y-91065808D01*
X122197026Y-91572646D01*
X122090000Y-92110701D01*
X86610272Y-92110701D01*
X86552974Y-91822646D01*
X86343035Y-91315808D01*
X86038250Y-90859666D01*
X85650334Y-90471750D01*
X85194192Y-90166965D01*
X84687354Y-89957026D01*
X84149299Y-89850000D01*
X83600701Y-89850000D01*
X83062646Y-89957026D01*
X82555808Y-90166965D01*
X82099666Y-90471750D01*
X81711750Y-90859666D01*
X81406965Y-91315808D01*
X81197026Y-91822646D01*
X81090000Y-92360701D01*
X80060000Y-92360701D01*
X80060000Y-88074609D01*
X88287997Y-88074609D01*
X88474073Y-88415766D01*
X88891409Y-88631513D01*
X89342815Y-88761696D01*
X89810946Y-88801313D01*
X90277811Y-88748842D01*
X90725468Y-88606297D01*
X91081927Y-88415766D01*
X91268003Y-88074609D01*
X89778000Y-86584605D01*
X88287997Y-88074609D01*
X80060000Y-88074609D01*
X80060000Y-86437946D01*
X87381687Y-86437946D01*
X87434158Y-86904811D01*
X87576703Y-87352468D01*
X87767234Y-87708927D01*
X88108391Y-87895003D01*
X89598395Y-86405000D01*
X89957605Y-86405000D01*
X91447609Y-87895003D01*
X91788766Y-87708927D01*
X92004513Y-87291591D01*
X92134696Y-86840185D01*
X92174313Y-86372054D01*
X92121842Y-85905189D01*
X91979297Y-85457532D01*
X91788766Y-85101073D01*
X91447609Y-84914997D01*
X89957605Y-86405000D01*
X89598395Y-86405000D01*
X88108391Y-84914997D01*
X87767234Y-85101073D01*
X87551487Y-85518409D01*
X87421304Y-85969815D01*
X87381687Y-86437946D01*
X80060000Y-86437946D01*
X80060000Y-84735391D01*
X88287997Y-84735391D01*
X89778000Y-86225395D01*
X91268003Y-84735391D01*
X91081927Y-84394234D01*
X90664591Y-84178487D01*
X90213185Y-84048304D01*
X89745054Y-84008687D01*
X89278189Y-84061158D01*
X88830532Y-84203703D01*
X88474073Y-84394234D01*
X88287997Y-84735391D01*
X80060000Y-84735391D01*
X80060000Y-81703531D01*
X90997389Y-81703531D01*
X91039401Y-81993019D01*
X91137081Y-82268747D01*
X91210528Y-82406157D01*
X91459603Y-82483792D01*
X92308395Y-81635000D01*
X91459603Y-80786208D01*
X91210528Y-80863843D01*
X91084629Y-81127883D01*
X91012661Y-81411411D01*
X90997389Y-81703531D01*
X80060000Y-81703531D01*
X80060000Y-78988740D01*
X91003000Y-78988740D01*
X91003000Y-79281260D01*
X91060068Y-79568158D01*
X91172010Y-79838411D01*
X91334525Y-80081632D01*
X91541368Y-80288475D01*
X91704410Y-80397416D01*
X91639208Y-80606603D01*
X92488000Y-81455395D01*
X92502143Y-81441253D01*
X92681748Y-81620858D01*
X92667605Y-81635000D01*
X92681748Y-81649143D01*
X92502143Y-81828748D01*
X92488000Y-81814605D01*
X91639208Y-82663397D01*
X91716843Y-82912472D01*
X91980883Y-83038371D01*
X92264411Y-83110339D01*
X92556531Y-83125611D01*
X92846019Y-83083599D01*
X93121747Y-82985919D01*
X93197850Y-82945241D01*
X93283506Y-83015537D01*
X93393820Y-83074502D01*
X93513518Y-83110812D01*
X93638000Y-83123072D01*
X95338000Y-83123072D01*
X95462482Y-83110812D01*
X95582180Y-83074502D01*
X95692494Y-83015537D01*
X95789185Y-82936185D01*
X95868537Y-82839494D01*
X95927502Y-82729180D01*
X95963812Y-82609482D01*
X95976072Y-82485000D01*
X95976072Y-82422400D01*
X98580850Y-82422400D01*
X100036327Y-83877878D01*
X100075878Y-83973363D01*
X100169995Y-84114218D01*
X100289782Y-84234005D01*
X100430637Y-84328122D01*
X100587147Y-84392951D01*
X100753297Y-84426000D01*
X100922703Y-84426000D01*
X101088853Y-84392951D01*
X101184337Y-84353400D01*
X101239404Y-84353400D01*
X104156431Y-87270428D01*
X104181085Y-87300469D01*
X104300982Y-87398866D01*
X104437771Y-87471982D01*
X104586197Y-87517006D01*
X104701881Y-87528400D01*
X104701890Y-87528400D01*
X104740553Y-87532208D01*
X104779216Y-87528400D01*
X107222663Y-87528400D01*
X107318147Y-87567951D01*
X107484297Y-87601000D01*
X107653703Y-87601000D01*
X107819853Y-87567951D01*
X107976363Y-87503122D01*
X108117218Y-87409005D01*
X108237005Y-87289218D01*
X108331122Y-87148363D01*
X108395951Y-86991853D01*
X108429000Y-86825703D01*
X108429000Y-86656297D01*
X108395951Y-86490147D01*
X108331122Y-86333637D01*
X108237005Y-86192782D01*
X108117218Y-86072995D01*
X107976363Y-85978878D01*
X107819853Y-85914049D01*
X107653703Y-85881000D01*
X107484297Y-85881000D01*
X107318147Y-85914049D01*
X107222663Y-85953600D01*
X105066705Y-85953600D01*
X104435514Y-85322409D01*
X119255000Y-85322409D01*
X119255000Y-85767591D01*
X119341851Y-86204218D01*
X119512214Y-86615511D01*
X119759544Y-86985666D01*
X120074334Y-87300456D01*
X120444489Y-87547786D01*
X120855782Y-87718149D01*
X121292409Y-87805000D01*
X121737591Y-87805000D01*
X122174218Y-87718149D01*
X122585511Y-87547786D01*
X122955666Y-87300456D01*
X123270456Y-86985666D01*
X123517786Y-86615511D01*
X123688149Y-86204218D01*
X123775000Y-85767591D01*
X123775000Y-85322409D01*
X123688149Y-84885782D01*
X123517786Y-84474489D01*
X123270456Y-84104334D01*
X122955666Y-83789544D01*
X122585511Y-83542214D01*
X122174218Y-83371851D01*
X121737591Y-83285000D01*
X121292409Y-83285000D01*
X120855782Y-83371851D01*
X120444489Y-83542214D01*
X120074334Y-83789544D01*
X119759544Y-84104334D01*
X119512214Y-84474489D01*
X119341851Y-84885782D01*
X119255000Y-85322409D01*
X104435514Y-85322409D01*
X103896791Y-84783686D01*
X104041532Y-84723732D01*
X104182387Y-84629615D01*
X104302174Y-84509828D01*
X104396291Y-84368973D01*
X104461120Y-84212463D01*
X104494169Y-84046313D01*
X104494169Y-83876907D01*
X104461120Y-83710757D01*
X104396291Y-83554247D01*
X104396169Y-83554064D01*
X104396169Y-82875000D01*
X111226928Y-82875000D01*
X111226928Y-84395000D01*
X111239188Y-84519482D01*
X111275498Y-84639180D01*
X111334463Y-84749494D01*
X111413815Y-84846185D01*
X111510506Y-84925537D01*
X111620820Y-84984502D01*
X111740518Y-85020812D01*
X111865000Y-85033072D01*
X113385000Y-85033072D01*
X113509482Y-85020812D01*
X113629180Y-84984502D01*
X113739494Y-84925537D01*
X113836185Y-84846185D01*
X113915537Y-84749494D01*
X113974502Y-84639180D01*
X114010812Y-84519482D01*
X114023072Y-84395000D01*
X114023072Y-83166918D01*
X114081433Y-83254261D01*
X114275739Y-83448567D01*
X114504220Y-83601233D01*
X114758093Y-83706391D01*
X115027604Y-83760000D01*
X115302396Y-83760000D01*
X115571907Y-83706391D01*
X115825780Y-83601233D01*
X116054261Y-83448567D01*
X116248567Y-83254261D01*
X116401233Y-83025780D01*
X116506391Y-82771907D01*
X116560000Y-82502396D01*
X116560000Y-82227604D01*
X116506391Y-81958093D01*
X116401233Y-81704220D01*
X116248567Y-81475739D01*
X116054261Y-81281433D01*
X115825780Y-81128767D01*
X115744260Y-81095000D01*
X115825780Y-81061233D01*
X116054261Y-80908567D01*
X116248567Y-80714261D01*
X116401233Y-80485780D01*
X116506391Y-80231907D01*
X116560000Y-79962396D01*
X116560000Y-79687604D01*
X116506391Y-79418093D01*
X116401233Y-79164220D01*
X116248567Y-78935739D01*
X116054261Y-78741433D01*
X115825780Y-78588767D01*
X115744260Y-78555000D01*
X115825780Y-78521233D01*
X116054261Y-78368567D01*
X116248567Y-78174261D01*
X116401233Y-77945780D01*
X116506391Y-77691907D01*
X116560000Y-77422396D01*
X116560000Y-77147604D01*
X116506391Y-76878093D01*
X116401233Y-76624220D01*
X116248567Y-76395739D01*
X116054261Y-76201433D01*
X115825780Y-76048767D01*
X115571907Y-75943609D01*
X115302396Y-75890000D01*
X115027604Y-75890000D01*
X114758093Y-75943609D01*
X114504220Y-76048767D01*
X114275739Y-76201433D01*
X114081433Y-76395739D01*
X113928767Y-76624220D01*
X113823609Y-76878093D01*
X113770000Y-77147604D01*
X113770000Y-77422396D01*
X113823609Y-77691907D01*
X113928767Y-77945780D01*
X114081433Y-78174261D01*
X114275739Y-78368567D01*
X114504220Y-78521233D01*
X114585740Y-78555000D01*
X114504220Y-78588767D01*
X114275739Y-78741433D01*
X114081433Y-78935739D01*
X113928767Y-79164220D01*
X113823609Y-79418093D01*
X113770000Y-79687604D01*
X113770000Y-79962396D01*
X113823609Y-80231907D01*
X113928767Y-80485780D01*
X114081433Y-80714261D01*
X114275739Y-80908567D01*
X114504220Y-81061233D01*
X114585740Y-81095000D01*
X114504220Y-81128767D01*
X114275739Y-81281433D01*
X114081433Y-81475739D01*
X113928767Y-81704220D01*
X113823609Y-81958093D01*
X113770000Y-82227604D01*
X113770000Y-82369499D01*
X113739494Y-82344463D01*
X113629180Y-82285498D01*
X113509482Y-82249188D01*
X113385000Y-82236928D01*
X113360069Y-82236928D01*
X113409531Y-82059137D01*
X112625000Y-81274605D01*
X111840469Y-82059137D01*
X111889931Y-82236928D01*
X111865000Y-82236928D01*
X111740518Y-82249188D01*
X111620820Y-82285498D01*
X111510506Y-82344463D01*
X111413815Y-82423815D01*
X111334463Y-82520506D01*
X111275498Y-82630820D01*
X111239188Y-82750518D01*
X111226928Y-82875000D01*
X104396169Y-82875000D01*
X104396169Y-81466461D01*
X104644637Y-81217994D01*
X104644853Y-81217951D01*
X104801363Y-81153122D01*
X104942218Y-81059005D01*
X105062005Y-80939218D01*
X105156122Y-80798363D01*
X105220951Y-80641853D01*
X105254000Y-80475703D01*
X105254000Y-80306297D01*
X105220951Y-80140147D01*
X105156122Y-79983637D01*
X105117141Y-79925297D01*
X107725000Y-79925297D01*
X107725000Y-80094703D01*
X107758049Y-80260853D01*
X107822878Y-80417363D01*
X107916995Y-80558218D01*
X108036782Y-80678005D01*
X108177637Y-80772122D01*
X108334147Y-80836951D01*
X108500297Y-80870000D01*
X108669703Y-80870000D01*
X108835853Y-80836951D01*
X108992363Y-80772122D01*
X109030559Y-80746600D01*
X111133817Y-80746600D01*
X111170000Y-80750164D01*
X111206183Y-80746600D01*
X111206186Y-80746600D01*
X111275845Y-80739739D01*
X111237939Y-80892606D01*
X111225105Y-81167097D01*
X111266069Y-81438817D01*
X111359256Y-81697326D01*
X111420975Y-81812794D01*
X111660863Y-81879531D01*
X112445395Y-81095000D01*
X112804605Y-81095000D01*
X113589137Y-81879531D01*
X113829025Y-81812794D01*
X113945924Y-81564108D01*
X114012061Y-81297394D01*
X114024895Y-81022903D01*
X113983931Y-80751183D01*
X113890744Y-80492674D01*
X113829025Y-80377206D01*
X113589137Y-80310469D01*
X112804605Y-81095000D01*
X112445395Y-81095000D01*
X112431253Y-81080858D01*
X112610858Y-80901253D01*
X112625000Y-80915395D01*
X113409531Y-80130863D01*
X113342794Y-79890975D01*
X113203293Y-79825400D01*
X113285780Y-79791233D01*
X113514261Y-79638567D01*
X113708567Y-79444261D01*
X113861233Y-79215780D01*
X113966391Y-78961907D01*
X114020000Y-78692396D01*
X114020000Y-78417604D01*
X113966391Y-78148093D01*
X113861233Y-77894220D01*
X113708567Y-77665739D01*
X113514261Y-77471433D01*
X113285780Y-77318767D01*
X113031907Y-77213609D01*
X112762396Y-77160000D01*
X112487604Y-77160000D01*
X112218093Y-77213609D01*
X111964220Y-77318767D01*
X111735739Y-77471433D01*
X111541433Y-77665739D01*
X111388767Y-77894220D01*
X111283609Y-78148093D01*
X111230000Y-78417604D01*
X111230000Y-78692396D01*
X111265819Y-78872472D01*
X110864891Y-79273400D01*
X109030559Y-79273400D01*
X108992363Y-79247878D01*
X108835853Y-79183049D01*
X108669703Y-79150000D01*
X108500297Y-79150000D01*
X108334147Y-79183049D01*
X108177637Y-79247878D01*
X108036782Y-79341995D01*
X107916995Y-79461782D01*
X107822878Y-79602637D01*
X107758049Y-79759147D01*
X107725000Y-79925297D01*
X105117141Y-79925297D01*
X105062005Y-79842782D01*
X104942218Y-79722995D01*
X104801363Y-79628878D01*
X104644853Y-79564049D01*
X104478703Y-79531000D01*
X104309297Y-79531000D01*
X104143147Y-79564049D01*
X103986637Y-79628878D01*
X103845782Y-79722995D01*
X103725995Y-79842782D01*
X103631878Y-79983637D01*
X103567049Y-80140147D01*
X103567006Y-80140363D01*
X103121822Y-80585547D01*
X103092747Y-80609409D01*
X103037152Y-80677153D01*
X102997524Y-80725439D01*
X102965043Y-80786208D01*
X102926767Y-80857817D01*
X102883195Y-81001454D01*
X102873982Y-81095000D01*
X102868483Y-81150831D01*
X102872169Y-81188254D01*
X102872170Y-83554063D01*
X102872047Y-83554247D01*
X102812093Y-83698988D01*
X102149682Y-83036578D01*
X102125023Y-83006531D01*
X102005126Y-82908134D01*
X101868337Y-82835018D01*
X101719911Y-82789994D01*
X101604227Y-82778600D01*
X101604217Y-82778600D01*
X101565554Y-82774792D01*
X101526891Y-82778600D01*
X101184337Y-82778600D01*
X101149878Y-82764327D01*
X99491127Y-81105577D01*
X99466469Y-81075531D01*
X99346572Y-80977134D01*
X99209783Y-80904018D01*
X99061357Y-80858994D01*
X98945673Y-80847600D01*
X98945663Y-80847600D01*
X98907000Y-80843792D01*
X98868337Y-80847600D01*
X95976072Y-80847600D01*
X95976072Y-80785000D01*
X95963812Y-80660518D01*
X95927502Y-80540820D01*
X95868537Y-80430506D01*
X95789185Y-80333815D01*
X95692494Y-80254463D01*
X95582180Y-80195498D01*
X95540310Y-80182797D01*
X95641475Y-80081632D01*
X95803990Y-79838411D01*
X95915932Y-79568158D01*
X95973000Y-79281260D01*
X95973000Y-78988740D01*
X95915932Y-78701842D01*
X95803990Y-78431589D01*
X95641475Y-78188368D01*
X95434632Y-77981525D01*
X95191411Y-77819010D01*
X94921158Y-77707068D01*
X94634260Y-77650000D01*
X94341740Y-77650000D01*
X94054842Y-77707068D01*
X93784589Y-77819010D01*
X93541368Y-77981525D01*
X93488000Y-78034893D01*
X93434632Y-77981525D01*
X93191411Y-77819010D01*
X92921158Y-77707068D01*
X92634260Y-77650000D01*
X92341740Y-77650000D01*
X92054842Y-77707068D01*
X91784589Y-77819010D01*
X91541368Y-77981525D01*
X91334525Y-78188368D01*
X91172010Y-78431589D01*
X91060068Y-78701842D01*
X91003000Y-78988740D01*
X80060000Y-78988740D01*
X80060000Y-76034609D01*
X88287997Y-76034609D01*
X88474073Y-76375766D01*
X88891409Y-76591513D01*
X89342815Y-76721696D01*
X89810946Y-76761313D01*
X90277811Y-76708842D01*
X90725468Y-76566297D01*
X91081927Y-76375766D01*
X91268003Y-76034609D01*
X89778000Y-74544605D01*
X88287997Y-76034609D01*
X80060000Y-76034609D01*
X80060000Y-74397946D01*
X87381687Y-74397946D01*
X87434158Y-74864811D01*
X87576703Y-75312468D01*
X87767234Y-75668927D01*
X88108391Y-75855003D01*
X89598395Y-74365000D01*
X89957605Y-74365000D01*
X91447609Y-75855003D01*
X91788766Y-75668927D01*
X92004513Y-75251591D01*
X92030232Y-75162409D01*
X119255000Y-75162409D01*
X119255000Y-75607591D01*
X119341851Y-76044218D01*
X119512214Y-76455511D01*
X119759544Y-76825666D01*
X120074334Y-77140456D01*
X120444489Y-77387786D01*
X120855782Y-77558149D01*
X121292409Y-77645000D01*
X121737591Y-77645000D01*
X122174218Y-77558149D01*
X122585511Y-77387786D01*
X122955666Y-77140456D01*
X123270456Y-76825666D01*
X123517786Y-76455511D01*
X123688149Y-76044218D01*
X123775000Y-75607591D01*
X123775000Y-75162409D01*
X123688149Y-74725782D01*
X123517786Y-74314489D01*
X123270456Y-73944334D01*
X122955666Y-73629544D01*
X122585511Y-73382214D01*
X122174218Y-73211851D01*
X121737591Y-73125000D01*
X121292409Y-73125000D01*
X120855782Y-73211851D01*
X120444489Y-73382214D01*
X120074334Y-73629544D01*
X119759544Y-73944334D01*
X119512214Y-74314489D01*
X119341851Y-74725782D01*
X119255000Y-75162409D01*
X92030232Y-75162409D01*
X92134696Y-74800185D01*
X92174313Y-74332054D01*
X92121842Y-73865189D01*
X91979297Y-73417532D01*
X91788766Y-73061073D01*
X91447609Y-72874997D01*
X89957605Y-74365000D01*
X89598395Y-74365000D01*
X88108391Y-72874997D01*
X87767234Y-73061073D01*
X87551487Y-73478409D01*
X87421304Y-73929815D01*
X87381687Y-74397946D01*
X80060000Y-74397946D01*
X80060000Y-72695391D01*
X88287997Y-72695391D01*
X89778000Y-74185395D01*
X91268003Y-72695391D01*
X91081927Y-72354234D01*
X90664591Y-72138487D01*
X90213185Y-72008304D01*
X89745054Y-71968687D01*
X89278189Y-72021158D01*
X88830532Y-72163703D01*
X88474073Y-72354234D01*
X88287997Y-72695391D01*
X80060000Y-72695391D01*
X80060000Y-68305701D01*
X81090000Y-68305701D01*
X81090000Y-68854299D01*
X81197026Y-69392354D01*
X81406965Y-69899192D01*
X81711750Y-70355334D01*
X82099666Y-70743250D01*
X82555808Y-71048035D01*
X83062646Y-71257974D01*
X83600701Y-71365000D01*
X84149299Y-71365000D01*
X84687354Y-71257974D01*
X85194192Y-71048035D01*
X85650334Y-70743250D01*
X86038250Y-70355334D01*
X86343035Y-69899192D01*
X86552974Y-69392354D01*
X86660000Y-68854299D01*
X86660000Y-68305701D01*
X122090000Y-68305701D01*
X122090000Y-68854299D01*
X122197026Y-69392354D01*
X122406965Y-69899192D01*
X122711750Y-70355334D01*
X123099666Y-70743250D01*
X123555808Y-71048035D01*
X124062646Y-71257974D01*
X124600701Y-71365000D01*
X125149299Y-71365000D01*
X125687354Y-71257974D01*
X126194192Y-71048035D01*
X126650334Y-70743250D01*
X127038250Y-70355334D01*
X127343035Y-69899192D01*
X127552974Y-69392354D01*
X127660000Y-68854299D01*
X127660000Y-68305701D01*
X127552974Y-67767646D01*
X127343035Y-67260808D01*
X127038250Y-66804666D01*
X126650334Y-66416750D01*
X126194192Y-66111965D01*
X125687354Y-65902026D01*
X125149299Y-65795000D01*
X124600701Y-65795000D01*
X124062646Y-65902026D01*
X123555808Y-66111965D01*
X123099666Y-66416750D01*
X122711750Y-66804666D01*
X122406965Y-67260808D01*
X122197026Y-67767646D01*
X122090000Y-68305701D01*
X86660000Y-68305701D01*
X86552974Y-67767646D01*
X86343035Y-67260808D01*
X86038250Y-66804666D01*
X85650334Y-66416750D01*
X85194192Y-66111965D01*
X84687354Y-65902026D01*
X84149299Y-65795000D01*
X83600701Y-65795000D01*
X83062646Y-65902026D01*
X82555808Y-66111965D01*
X82099666Y-66416750D01*
X81711750Y-66804666D01*
X81406965Y-67260808D01*
X81197026Y-67767646D01*
X81090000Y-68305701D01*
X80060000Y-68305701D01*
X80060000Y-64795000D01*
X128665000Y-64795000D01*
X128665001Y-96475000D01*
M02*
