M48
; DRILL file {KiCad (5.1.2)-2} date 4/12/2020 8:05:40 PM
; FORMAT={-:-/ absolute / inch / decimal}
; #@! TF.CreationDate,2020-04-12T20:05:40-04:00
; #@! TF.GenerationSoftware,Kicad,Pcbnew,(5.1.2)-2
; #@! TF.FileFunction,Plated,1,2,PTH
FMAT,2
INCH
T1C0.0079
T2C0.0299
T3C0.0362
T4C0.0917
%
G90
G05
T1
X3.225Y-3.225
X3.5Y-2.6
X3.5581Y-3.7848
X3.82Y-3.355
X3.94Y-3.39
X3.97Y-3.29
X4.025Y-3.1
X4.0801Y-3.3056
X4.11Y-3.165
X4.1486Y-3.7848
X4.15Y-2.6
X4.2Y-3.275
X4.235Y-3.415
X4.275Y-3.15
X4.675Y-3.7848
X4.75Y-2.6
X5.05Y-3.2
T2
X4.4341Y-3.0927
X4.4341Y-3.1927
X4.4341Y-3.2927
X4.5341Y-3.0427
X4.5341Y-3.1427
X4.5341Y-3.2427
T3
X3.6413Y-3.1156
X3.6413Y-3.214
X3.72Y-3.1156
X3.72Y-3.214
T4
X3.5346Y-2.9278
X3.5346Y-3.4018
T0
M30
