G04 #@! TF.GenerationSoftware,KiCad,Pcbnew,(5.1.2)-2*
G04 #@! TF.CreationDate,2020-04-12T20:05:53-04:00*
G04 #@! TF.ProjectId,usb-serial-interface,7573622d-7365-4726-9961-6c2d696e7465,rev?*
G04 #@! TF.SameCoordinates,Original*
G04 #@! TF.FileFunction,Copper,L1,Top*
G04 #@! TF.FilePolarity,Positive*
%FSLAX46Y46*%
G04 Gerber Fmt 4.6, Leading zero omitted, Abs format (unit mm)*
G04 Created by KiCad (PCBNEW (5.1.2)-2) date 2020-04-12 20:05:53*
%MOMM*%
%LPD*%
G04 APERTURE LIST*
%ADD10R,1.200000X1.400000*%
%ADD11R,1.000000X1.400000*%
%ADD12C,0.100000*%
%ADD13C,0.875000*%
%ADD14C,3.500000*%
%ADD15C,1.700000*%
%ADD16R,1.700000X1.700000*%
%ADD17R,1.520000X1.520000*%
%ADD18C,1.520000*%
%ADD19C,2.600000*%
%ADD20C,0.250000*%
%ADD21C,0.450000*%
%ADD22C,0.254000*%
%ADD23C,0.304800*%
%ADD24C,0.203200*%
G04 APERTURE END LIST*
D10*
X97782000Y-83396000D03*
D11*
X99502000Y-83396000D03*
X99502000Y-81196000D03*
X97602000Y-81196000D03*
D12*
G36*
X106957691Y-71801053D02*
G01*
X106978926Y-71804203D01*
X106999750Y-71809419D01*
X107019962Y-71816651D01*
X107039368Y-71825830D01*
X107057781Y-71836866D01*
X107075024Y-71849654D01*
X107090930Y-71864070D01*
X107105346Y-71879976D01*
X107118134Y-71897219D01*
X107129170Y-71915632D01*
X107138349Y-71935038D01*
X107145581Y-71955250D01*
X107150797Y-71976074D01*
X107153947Y-71997309D01*
X107155000Y-72018750D01*
X107155000Y-72456250D01*
X107153947Y-72477691D01*
X107150797Y-72498926D01*
X107145581Y-72519750D01*
X107138349Y-72539962D01*
X107129170Y-72559368D01*
X107118134Y-72577781D01*
X107105346Y-72595024D01*
X107090930Y-72610930D01*
X107075024Y-72625346D01*
X107057781Y-72638134D01*
X107039368Y-72649170D01*
X107019962Y-72658349D01*
X106999750Y-72665581D01*
X106978926Y-72670797D01*
X106957691Y-72673947D01*
X106936250Y-72675000D01*
X106423750Y-72675000D01*
X106402309Y-72673947D01*
X106381074Y-72670797D01*
X106360250Y-72665581D01*
X106340038Y-72658349D01*
X106320632Y-72649170D01*
X106302219Y-72638134D01*
X106284976Y-72625346D01*
X106269070Y-72610930D01*
X106254654Y-72595024D01*
X106241866Y-72577781D01*
X106230830Y-72559368D01*
X106221651Y-72539962D01*
X106214419Y-72519750D01*
X106209203Y-72498926D01*
X106206053Y-72477691D01*
X106205000Y-72456250D01*
X106205000Y-72018750D01*
X106206053Y-71997309D01*
X106209203Y-71976074D01*
X106214419Y-71955250D01*
X106221651Y-71935038D01*
X106230830Y-71915632D01*
X106241866Y-71897219D01*
X106254654Y-71879976D01*
X106269070Y-71864070D01*
X106284976Y-71849654D01*
X106302219Y-71836866D01*
X106320632Y-71825830D01*
X106340038Y-71816651D01*
X106360250Y-71809419D01*
X106381074Y-71804203D01*
X106402309Y-71801053D01*
X106423750Y-71800000D01*
X106936250Y-71800000D01*
X106957691Y-71801053D01*
X106957691Y-71801053D01*
G37*
D13*
X106680000Y-72237500D03*
D12*
G36*
X106957691Y-73376053D02*
G01*
X106978926Y-73379203D01*
X106999750Y-73384419D01*
X107019962Y-73391651D01*
X107039368Y-73400830D01*
X107057781Y-73411866D01*
X107075024Y-73424654D01*
X107090930Y-73439070D01*
X107105346Y-73454976D01*
X107118134Y-73472219D01*
X107129170Y-73490632D01*
X107138349Y-73510038D01*
X107145581Y-73530250D01*
X107150797Y-73551074D01*
X107153947Y-73572309D01*
X107155000Y-73593750D01*
X107155000Y-74031250D01*
X107153947Y-74052691D01*
X107150797Y-74073926D01*
X107145581Y-74094750D01*
X107138349Y-74114962D01*
X107129170Y-74134368D01*
X107118134Y-74152781D01*
X107105346Y-74170024D01*
X107090930Y-74185930D01*
X107075024Y-74200346D01*
X107057781Y-74213134D01*
X107039368Y-74224170D01*
X107019962Y-74233349D01*
X106999750Y-74240581D01*
X106978926Y-74245797D01*
X106957691Y-74248947D01*
X106936250Y-74250000D01*
X106423750Y-74250000D01*
X106402309Y-74248947D01*
X106381074Y-74245797D01*
X106360250Y-74240581D01*
X106340038Y-74233349D01*
X106320632Y-74224170D01*
X106302219Y-74213134D01*
X106284976Y-74200346D01*
X106269070Y-74185930D01*
X106254654Y-74170024D01*
X106241866Y-74152781D01*
X106230830Y-74134368D01*
X106221651Y-74114962D01*
X106214419Y-74094750D01*
X106209203Y-74073926D01*
X106206053Y-74052691D01*
X106205000Y-74031250D01*
X106205000Y-73593750D01*
X106206053Y-73572309D01*
X106209203Y-73551074D01*
X106214419Y-73530250D01*
X106221651Y-73510038D01*
X106230830Y-73490632D01*
X106241866Y-73472219D01*
X106254654Y-73454976D01*
X106269070Y-73439070D01*
X106284976Y-73424654D01*
X106302219Y-73411866D01*
X106320632Y-73400830D01*
X106340038Y-73391651D01*
X106360250Y-73384419D01*
X106381074Y-73379203D01*
X106402309Y-73376053D01*
X106423750Y-73375000D01*
X106936250Y-73375000D01*
X106957691Y-73376053D01*
X106957691Y-73376053D01*
G37*
D13*
X106680000Y-73812500D03*
D12*
G36*
X101877691Y-73376053D02*
G01*
X101898926Y-73379203D01*
X101919750Y-73384419D01*
X101939962Y-73391651D01*
X101959368Y-73400830D01*
X101977781Y-73411866D01*
X101995024Y-73424654D01*
X102010930Y-73439070D01*
X102025346Y-73454976D01*
X102038134Y-73472219D01*
X102049170Y-73490632D01*
X102058349Y-73510038D01*
X102065581Y-73530250D01*
X102070797Y-73551074D01*
X102073947Y-73572309D01*
X102075000Y-73593750D01*
X102075000Y-74031250D01*
X102073947Y-74052691D01*
X102070797Y-74073926D01*
X102065581Y-74094750D01*
X102058349Y-74114962D01*
X102049170Y-74134368D01*
X102038134Y-74152781D01*
X102025346Y-74170024D01*
X102010930Y-74185930D01*
X101995024Y-74200346D01*
X101977781Y-74213134D01*
X101959368Y-74224170D01*
X101939962Y-74233349D01*
X101919750Y-74240581D01*
X101898926Y-74245797D01*
X101877691Y-74248947D01*
X101856250Y-74250000D01*
X101343750Y-74250000D01*
X101322309Y-74248947D01*
X101301074Y-74245797D01*
X101280250Y-74240581D01*
X101260038Y-74233349D01*
X101240632Y-74224170D01*
X101222219Y-74213134D01*
X101204976Y-74200346D01*
X101189070Y-74185930D01*
X101174654Y-74170024D01*
X101161866Y-74152781D01*
X101150830Y-74134368D01*
X101141651Y-74114962D01*
X101134419Y-74094750D01*
X101129203Y-74073926D01*
X101126053Y-74052691D01*
X101125000Y-74031250D01*
X101125000Y-73593750D01*
X101126053Y-73572309D01*
X101129203Y-73551074D01*
X101134419Y-73530250D01*
X101141651Y-73510038D01*
X101150830Y-73490632D01*
X101161866Y-73472219D01*
X101174654Y-73454976D01*
X101189070Y-73439070D01*
X101204976Y-73424654D01*
X101222219Y-73411866D01*
X101240632Y-73400830D01*
X101260038Y-73391651D01*
X101280250Y-73384419D01*
X101301074Y-73379203D01*
X101322309Y-73376053D01*
X101343750Y-73375000D01*
X101856250Y-73375000D01*
X101877691Y-73376053D01*
X101877691Y-73376053D01*
G37*
D13*
X101600000Y-73812500D03*
D12*
G36*
X101877691Y-71801053D02*
G01*
X101898926Y-71804203D01*
X101919750Y-71809419D01*
X101939962Y-71816651D01*
X101959368Y-71825830D01*
X101977781Y-71836866D01*
X101995024Y-71849654D01*
X102010930Y-71864070D01*
X102025346Y-71879976D01*
X102038134Y-71897219D01*
X102049170Y-71915632D01*
X102058349Y-71935038D01*
X102065581Y-71955250D01*
X102070797Y-71976074D01*
X102073947Y-71997309D01*
X102075000Y-72018750D01*
X102075000Y-72456250D01*
X102073947Y-72477691D01*
X102070797Y-72498926D01*
X102065581Y-72519750D01*
X102058349Y-72539962D01*
X102049170Y-72559368D01*
X102038134Y-72577781D01*
X102025346Y-72595024D01*
X102010930Y-72610930D01*
X101995024Y-72625346D01*
X101977781Y-72638134D01*
X101959368Y-72649170D01*
X101939962Y-72658349D01*
X101919750Y-72665581D01*
X101898926Y-72670797D01*
X101877691Y-72673947D01*
X101856250Y-72675000D01*
X101343750Y-72675000D01*
X101322309Y-72673947D01*
X101301074Y-72670797D01*
X101280250Y-72665581D01*
X101260038Y-72658349D01*
X101240632Y-72649170D01*
X101222219Y-72638134D01*
X101204976Y-72625346D01*
X101189070Y-72610930D01*
X101174654Y-72595024D01*
X101161866Y-72577781D01*
X101150830Y-72559368D01*
X101141651Y-72539962D01*
X101134419Y-72519750D01*
X101129203Y-72498926D01*
X101126053Y-72477691D01*
X101125000Y-72456250D01*
X101125000Y-72018750D01*
X101126053Y-71997309D01*
X101129203Y-71976074D01*
X101134419Y-71955250D01*
X101141651Y-71935038D01*
X101150830Y-71915632D01*
X101161866Y-71897219D01*
X101174654Y-71879976D01*
X101189070Y-71864070D01*
X101204976Y-71849654D01*
X101222219Y-71836866D01*
X101240632Y-71825830D01*
X101260038Y-71816651D01*
X101280250Y-71809419D01*
X101301074Y-71804203D01*
X101322309Y-71801053D01*
X101343750Y-71800000D01*
X101856250Y-71800000D01*
X101877691Y-71801053D01*
X101877691Y-71801053D01*
G37*
D13*
X101600000Y-72237500D03*
D14*
X89778000Y-74365000D03*
X89778000Y-86405000D03*
D15*
X92488000Y-81635000D03*
X92488000Y-79135000D03*
X94488000Y-79135000D03*
D16*
X94488000Y-81635000D03*
D17*
X112625000Y-83635000D03*
D18*
X115165000Y-82365000D03*
X112625000Y-81095000D03*
X115165000Y-79825000D03*
X112625000Y-78555000D03*
X115165000Y-77285000D03*
D12*
G36*
X109751691Y-88108053D02*
G01*
X109772926Y-88111203D01*
X109793750Y-88116419D01*
X109813962Y-88123651D01*
X109833368Y-88132830D01*
X109851781Y-88143866D01*
X109869024Y-88156654D01*
X109884930Y-88171070D01*
X109899346Y-88186976D01*
X109912134Y-88204219D01*
X109923170Y-88222632D01*
X109932349Y-88242038D01*
X109939581Y-88262250D01*
X109944797Y-88283074D01*
X109947947Y-88304309D01*
X109949000Y-88325750D01*
X109949000Y-88763250D01*
X109947947Y-88784691D01*
X109944797Y-88805926D01*
X109939581Y-88826750D01*
X109932349Y-88846962D01*
X109923170Y-88866368D01*
X109912134Y-88884781D01*
X109899346Y-88902024D01*
X109884930Y-88917930D01*
X109869024Y-88932346D01*
X109851781Y-88945134D01*
X109833368Y-88956170D01*
X109813962Y-88965349D01*
X109793750Y-88972581D01*
X109772926Y-88977797D01*
X109751691Y-88980947D01*
X109730250Y-88982000D01*
X109217750Y-88982000D01*
X109196309Y-88980947D01*
X109175074Y-88977797D01*
X109154250Y-88972581D01*
X109134038Y-88965349D01*
X109114632Y-88956170D01*
X109096219Y-88945134D01*
X109078976Y-88932346D01*
X109063070Y-88917930D01*
X109048654Y-88902024D01*
X109035866Y-88884781D01*
X109024830Y-88866368D01*
X109015651Y-88846962D01*
X109008419Y-88826750D01*
X109003203Y-88805926D01*
X109000053Y-88784691D01*
X108999000Y-88763250D01*
X108999000Y-88325750D01*
X109000053Y-88304309D01*
X109003203Y-88283074D01*
X109008419Y-88262250D01*
X109015651Y-88242038D01*
X109024830Y-88222632D01*
X109035866Y-88204219D01*
X109048654Y-88186976D01*
X109063070Y-88171070D01*
X109078976Y-88156654D01*
X109096219Y-88143866D01*
X109114632Y-88132830D01*
X109134038Y-88123651D01*
X109154250Y-88116419D01*
X109175074Y-88111203D01*
X109196309Y-88108053D01*
X109217750Y-88107000D01*
X109730250Y-88107000D01*
X109751691Y-88108053D01*
X109751691Y-88108053D01*
G37*
D13*
X109474000Y-88544500D03*
D12*
G36*
X109751691Y-86533053D02*
G01*
X109772926Y-86536203D01*
X109793750Y-86541419D01*
X109813962Y-86548651D01*
X109833368Y-86557830D01*
X109851781Y-86568866D01*
X109869024Y-86581654D01*
X109884930Y-86596070D01*
X109899346Y-86611976D01*
X109912134Y-86629219D01*
X109923170Y-86647632D01*
X109932349Y-86667038D01*
X109939581Y-86687250D01*
X109944797Y-86708074D01*
X109947947Y-86729309D01*
X109949000Y-86750750D01*
X109949000Y-87188250D01*
X109947947Y-87209691D01*
X109944797Y-87230926D01*
X109939581Y-87251750D01*
X109932349Y-87271962D01*
X109923170Y-87291368D01*
X109912134Y-87309781D01*
X109899346Y-87327024D01*
X109884930Y-87342930D01*
X109869024Y-87357346D01*
X109851781Y-87370134D01*
X109833368Y-87381170D01*
X109813962Y-87390349D01*
X109793750Y-87397581D01*
X109772926Y-87402797D01*
X109751691Y-87405947D01*
X109730250Y-87407000D01*
X109217750Y-87407000D01*
X109196309Y-87405947D01*
X109175074Y-87402797D01*
X109154250Y-87397581D01*
X109134038Y-87390349D01*
X109114632Y-87381170D01*
X109096219Y-87370134D01*
X109078976Y-87357346D01*
X109063070Y-87342930D01*
X109048654Y-87327024D01*
X109035866Y-87309781D01*
X109024830Y-87291368D01*
X109015651Y-87271962D01*
X109008419Y-87251750D01*
X109003203Y-87230926D01*
X109000053Y-87209691D01*
X108999000Y-87188250D01*
X108999000Y-86750750D01*
X109000053Y-86729309D01*
X109003203Y-86708074D01*
X109008419Y-86687250D01*
X109015651Y-86667038D01*
X109024830Y-86647632D01*
X109035866Y-86629219D01*
X109048654Y-86611976D01*
X109063070Y-86596070D01*
X109078976Y-86581654D01*
X109096219Y-86568866D01*
X109114632Y-86557830D01*
X109134038Y-86548651D01*
X109154250Y-86541419D01*
X109175074Y-86536203D01*
X109196309Y-86533053D01*
X109217750Y-86532000D01*
X109730250Y-86532000D01*
X109751691Y-86533053D01*
X109751691Y-86533053D01*
G37*
D13*
X109474000Y-86969500D03*
D12*
G36*
X109497691Y-71801053D02*
G01*
X109518926Y-71804203D01*
X109539750Y-71809419D01*
X109559962Y-71816651D01*
X109579368Y-71825830D01*
X109597781Y-71836866D01*
X109615024Y-71849654D01*
X109630930Y-71864070D01*
X109645346Y-71879976D01*
X109658134Y-71897219D01*
X109669170Y-71915632D01*
X109678349Y-71935038D01*
X109685581Y-71955250D01*
X109690797Y-71976074D01*
X109693947Y-71997309D01*
X109695000Y-72018750D01*
X109695000Y-72456250D01*
X109693947Y-72477691D01*
X109690797Y-72498926D01*
X109685581Y-72519750D01*
X109678349Y-72539962D01*
X109669170Y-72559368D01*
X109658134Y-72577781D01*
X109645346Y-72595024D01*
X109630930Y-72610930D01*
X109615024Y-72625346D01*
X109597781Y-72638134D01*
X109579368Y-72649170D01*
X109559962Y-72658349D01*
X109539750Y-72665581D01*
X109518926Y-72670797D01*
X109497691Y-72673947D01*
X109476250Y-72675000D01*
X108963750Y-72675000D01*
X108942309Y-72673947D01*
X108921074Y-72670797D01*
X108900250Y-72665581D01*
X108880038Y-72658349D01*
X108860632Y-72649170D01*
X108842219Y-72638134D01*
X108824976Y-72625346D01*
X108809070Y-72610930D01*
X108794654Y-72595024D01*
X108781866Y-72577781D01*
X108770830Y-72559368D01*
X108761651Y-72539962D01*
X108754419Y-72519750D01*
X108749203Y-72498926D01*
X108746053Y-72477691D01*
X108745000Y-72456250D01*
X108745000Y-72018750D01*
X108746053Y-71997309D01*
X108749203Y-71976074D01*
X108754419Y-71955250D01*
X108761651Y-71935038D01*
X108770830Y-71915632D01*
X108781866Y-71897219D01*
X108794654Y-71879976D01*
X108809070Y-71864070D01*
X108824976Y-71849654D01*
X108842219Y-71836866D01*
X108860632Y-71825830D01*
X108880038Y-71816651D01*
X108900250Y-71809419D01*
X108921074Y-71804203D01*
X108942309Y-71801053D01*
X108963750Y-71800000D01*
X109476250Y-71800000D01*
X109497691Y-71801053D01*
X109497691Y-71801053D01*
G37*
D13*
X109220000Y-72237500D03*
D12*
G36*
X109497691Y-73376053D02*
G01*
X109518926Y-73379203D01*
X109539750Y-73384419D01*
X109559962Y-73391651D01*
X109579368Y-73400830D01*
X109597781Y-73411866D01*
X109615024Y-73424654D01*
X109630930Y-73439070D01*
X109645346Y-73454976D01*
X109658134Y-73472219D01*
X109669170Y-73490632D01*
X109678349Y-73510038D01*
X109685581Y-73530250D01*
X109690797Y-73551074D01*
X109693947Y-73572309D01*
X109695000Y-73593750D01*
X109695000Y-74031250D01*
X109693947Y-74052691D01*
X109690797Y-74073926D01*
X109685581Y-74094750D01*
X109678349Y-74114962D01*
X109669170Y-74134368D01*
X109658134Y-74152781D01*
X109645346Y-74170024D01*
X109630930Y-74185930D01*
X109615024Y-74200346D01*
X109597781Y-74213134D01*
X109579368Y-74224170D01*
X109559962Y-74233349D01*
X109539750Y-74240581D01*
X109518926Y-74245797D01*
X109497691Y-74248947D01*
X109476250Y-74250000D01*
X108963750Y-74250000D01*
X108942309Y-74248947D01*
X108921074Y-74245797D01*
X108900250Y-74240581D01*
X108880038Y-74233349D01*
X108860632Y-74224170D01*
X108842219Y-74213134D01*
X108824976Y-74200346D01*
X108809070Y-74185930D01*
X108794654Y-74170024D01*
X108781866Y-74152781D01*
X108770830Y-74134368D01*
X108761651Y-74114962D01*
X108754419Y-74094750D01*
X108749203Y-74073926D01*
X108746053Y-74052691D01*
X108745000Y-74031250D01*
X108745000Y-73593750D01*
X108746053Y-73572309D01*
X108749203Y-73551074D01*
X108754419Y-73530250D01*
X108761651Y-73510038D01*
X108770830Y-73490632D01*
X108781866Y-73472219D01*
X108794654Y-73454976D01*
X108809070Y-73439070D01*
X108824976Y-73424654D01*
X108842219Y-73411866D01*
X108860632Y-73400830D01*
X108880038Y-73391651D01*
X108900250Y-73384419D01*
X108921074Y-73379203D01*
X108942309Y-73376053D01*
X108963750Y-73375000D01*
X109476250Y-73375000D01*
X109497691Y-73376053D01*
X109497691Y-73376053D01*
G37*
D13*
X109220000Y-73812500D03*
D12*
G36*
X104417691Y-73376053D02*
G01*
X104438926Y-73379203D01*
X104459750Y-73384419D01*
X104479962Y-73391651D01*
X104499368Y-73400830D01*
X104517781Y-73411866D01*
X104535024Y-73424654D01*
X104550930Y-73439070D01*
X104565346Y-73454976D01*
X104578134Y-73472219D01*
X104589170Y-73490632D01*
X104598349Y-73510038D01*
X104605581Y-73530250D01*
X104610797Y-73551074D01*
X104613947Y-73572309D01*
X104615000Y-73593750D01*
X104615000Y-74031250D01*
X104613947Y-74052691D01*
X104610797Y-74073926D01*
X104605581Y-74094750D01*
X104598349Y-74114962D01*
X104589170Y-74134368D01*
X104578134Y-74152781D01*
X104565346Y-74170024D01*
X104550930Y-74185930D01*
X104535024Y-74200346D01*
X104517781Y-74213134D01*
X104499368Y-74224170D01*
X104479962Y-74233349D01*
X104459750Y-74240581D01*
X104438926Y-74245797D01*
X104417691Y-74248947D01*
X104396250Y-74250000D01*
X103883750Y-74250000D01*
X103862309Y-74248947D01*
X103841074Y-74245797D01*
X103820250Y-74240581D01*
X103800038Y-74233349D01*
X103780632Y-74224170D01*
X103762219Y-74213134D01*
X103744976Y-74200346D01*
X103729070Y-74185930D01*
X103714654Y-74170024D01*
X103701866Y-74152781D01*
X103690830Y-74134368D01*
X103681651Y-74114962D01*
X103674419Y-74094750D01*
X103669203Y-74073926D01*
X103666053Y-74052691D01*
X103665000Y-74031250D01*
X103665000Y-73593750D01*
X103666053Y-73572309D01*
X103669203Y-73551074D01*
X103674419Y-73530250D01*
X103681651Y-73510038D01*
X103690830Y-73490632D01*
X103701866Y-73472219D01*
X103714654Y-73454976D01*
X103729070Y-73439070D01*
X103744976Y-73424654D01*
X103762219Y-73411866D01*
X103780632Y-73400830D01*
X103800038Y-73391651D01*
X103820250Y-73384419D01*
X103841074Y-73379203D01*
X103862309Y-73376053D01*
X103883750Y-73375000D01*
X104396250Y-73375000D01*
X104417691Y-73376053D01*
X104417691Y-73376053D01*
G37*
D13*
X104140000Y-73812500D03*
D12*
G36*
X104417691Y-71801053D02*
G01*
X104438926Y-71804203D01*
X104459750Y-71809419D01*
X104479962Y-71816651D01*
X104499368Y-71825830D01*
X104517781Y-71836866D01*
X104535024Y-71849654D01*
X104550930Y-71864070D01*
X104565346Y-71879976D01*
X104578134Y-71897219D01*
X104589170Y-71915632D01*
X104598349Y-71935038D01*
X104605581Y-71955250D01*
X104610797Y-71976074D01*
X104613947Y-71997309D01*
X104615000Y-72018750D01*
X104615000Y-72456250D01*
X104613947Y-72477691D01*
X104610797Y-72498926D01*
X104605581Y-72519750D01*
X104598349Y-72539962D01*
X104589170Y-72559368D01*
X104578134Y-72577781D01*
X104565346Y-72595024D01*
X104550930Y-72610930D01*
X104535024Y-72625346D01*
X104517781Y-72638134D01*
X104499368Y-72649170D01*
X104479962Y-72658349D01*
X104459750Y-72665581D01*
X104438926Y-72670797D01*
X104417691Y-72673947D01*
X104396250Y-72675000D01*
X103883750Y-72675000D01*
X103862309Y-72673947D01*
X103841074Y-72670797D01*
X103820250Y-72665581D01*
X103800038Y-72658349D01*
X103780632Y-72649170D01*
X103762219Y-72638134D01*
X103744976Y-72625346D01*
X103729070Y-72610930D01*
X103714654Y-72595024D01*
X103701866Y-72577781D01*
X103690830Y-72559368D01*
X103681651Y-72539962D01*
X103674419Y-72519750D01*
X103669203Y-72498926D01*
X103666053Y-72477691D01*
X103665000Y-72456250D01*
X103665000Y-72018750D01*
X103666053Y-71997309D01*
X103669203Y-71976074D01*
X103674419Y-71955250D01*
X103681651Y-71935038D01*
X103690830Y-71915632D01*
X103701866Y-71897219D01*
X103714654Y-71879976D01*
X103729070Y-71864070D01*
X103744976Y-71849654D01*
X103762219Y-71836866D01*
X103780632Y-71825830D01*
X103800038Y-71816651D01*
X103820250Y-71809419D01*
X103841074Y-71804203D01*
X103862309Y-71801053D01*
X103883750Y-71800000D01*
X104396250Y-71800000D01*
X104417691Y-71801053D01*
X104417691Y-71801053D01*
G37*
D13*
X104140000Y-72237500D03*
D12*
G36*
X107754504Y-81886204D02*
G01*
X107778773Y-81889804D01*
X107802571Y-81895765D01*
X107825671Y-81904030D01*
X107847849Y-81914520D01*
X107868893Y-81927133D01*
X107888598Y-81941747D01*
X107906777Y-81958223D01*
X107923253Y-81976402D01*
X107937867Y-81996107D01*
X107950480Y-82017151D01*
X107960970Y-82039329D01*
X107969235Y-82062429D01*
X107975196Y-82086227D01*
X107978796Y-82110496D01*
X107980000Y-82135000D01*
X107980000Y-84235000D01*
X107978796Y-84259504D01*
X107975196Y-84283773D01*
X107969235Y-84307571D01*
X107960970Y-84330671D01*
X107950480Y-84352849D01*
X107937867Y-84373893D01*
X107923253Y-84393598D01*
X107906777Y-84411777D01*
X107888598Y-84428253D01*
X107868893Y-84442867D01*
X107847849Y-84455480D01*
X107825671Y-84465970D01*
X107802571Y-84474235D01*
X107778773Y-84480196D01*
X107754504Y-84483796D01*
X107730000Y-84485000D01*
X105630000Y-84485000D01*
X105605496Y-84483796D01*
X105581227Y-84480196D01*
X105557429Y-84474235D01*
X105534329Y-84465970D01*
X105512151Y-84455480D01*
X105491107Y-84442867D01*
X105471402Y-84428253D01*
X105453223Y-84411777D01*
X105436747Y-84393598D01*
X105422133Y-84373893D01*
X105409520Y-84352849D01*
X105399030Y-84330671D01*
X105390765Y-84307571D01*
X105384804Y-84283773D01*
X105381204Y-84259504D01*
X105380000Y-84235000D01*
X105380000Y-82135000D01*
X105381204Y-82110496D01*
X105384804Y-82086227D01*
X105390765Y-82062429D01*
X105399030Y-82039329D01*
X105409520Y-82017151D01*
X105422133Y-81996107D01*
X105436747Y-81976402D01*
X105453223Y-81958223D01*
X105471402Y-81941747D01*
X105491107Y-81927133D01*
X105512151Y-81914520D01*
X105534329Y-81904030D01*
X105557429Y-81895765D01*
X105581227Y-81889804D01*
X105605496Y-81886204D01*
X105630000Y-81885000D01*
X107730000Y-81885000D01*
X107754504Y-81886204D01*
X107754504Y-81886204D01*
G37*
D19*
X106680000Y-83185000D03*
D12*
G36*
X105098626Y-81810301D02*
G01*
X105104693Y-81811201D01*
X105110643Y-81812691D01*
X105116418Y-81814758D01*
X105121962Y-81817380D01*
X105127223Y-81820533D01*
X105132150Y-81824187D01*
X105136694Y-81828306D01*
X105140813Y-81832850D01*
X105144467Y-81837777D01*
X105147620Y-81843038D01*
X105150242Y-81848582D01*
X105152309Y-81854357D01*
X105153799Y-81860307D01*
X105154699Y-81866374D01*
X105155000Y-81872500D01*
X105155000Y-81997500D01*
X105154699Y-82003626D01*
X105153799Y-82009693D01*
X105152309Y-82015643D01*
X105150242Y-82021418D01*
X105147620Y-82026962D01*
X105144467Y-82032223D01*
X105140813Y-82037150D01*
X105136694Y-82041694D01*
X105132150Y-82045813D01*
X105127223Y-82049467D01*
X105121962Y-82052620D01*
X105116418Y-82055242D01*
X105110643Y-82057309D01*
X105104693Y-82058799D01*
X105098626Y-82059699D01*
X105092500Y-82060000D01*
X104392500Y-82060000D01*
X104386374Y-82059699D01*
X104380307Y-82058799D01*
X104374357Y-82057309D01*
X104368582Y-82055242D01*
X104363038Y-82052620D01*
X104357777Y-82049467D01*
X104352850Y-82045813D01*
X104348306Y-82041694D01*
X104344187Y-82037150D01*
X104340533Y-82032223D01*
X104337380Y-82026962D01*
X104334758Y-82021418D01*
X104332691Y-82015643D01*
X104331201Y-82009693D01*
X104330301Y-82003626D01*
X104330000Y-81997500D01*
X104330000Y-81872500D01*
X104330301Y-81866374D01*
X104331201Y-81860307D01*
X104332691Y-81854357D01*
X104334758Y-81848582D01*
X104337380Y-81843038D01*
X104340533Y-81837777D01*
X104344187Y-81832850D01*
X104348306Y-81828306D01*
X104352850Y-81824187D01*
X104357777Y-81820533D01*
X104363038Y-81817380D01*
X104368582Y-81814758D01*
X104374357Y-81812691D01*
X104380307Y-81811201D01*
X104386374Y-81810301D01*
X104392500Y-81810000D01*
X105092500Y-81810000D01*
X105098626Y-81810301D01*
X105098626Y-81810301D01*
G37*
D20*
X104742500Y-81935000D03*
D12*
G36*
X105098626Y-82310301D02*
G01*
X105104693Y-82311201D01*
X105110643Y-82312691D01*
X105116418Y-82314758D01*
X105121962Y-82317380D01*
X105127223Y-82320533D01*
X105132150Y-82324187D01*
X105136694Y-82328306D01*
X105140813Y-82332850D01*
X105144467Y-82337777D01*
X105147620Y-82343038D01*
X105150242Y-82348582D01*
X105152309Y-82354357D01*
X105153799Y-82360307D01*
X105154699Y-82366374D01*
X105155000Y-82372500D01*
X105155000Y-82497500D01*
X105154699Y-82503626D01*
X105153799Y-82509693D01*
X105152309Y-82515643D01*
X105150242Y-82521418D01*
X105147620Y-82526962D01*
X105144467Y-82532223D01*
X105140813Y-82537150D01*
X105136694Y-82541694D01*
X105132150Y-82545813D01*
X105127223Y-82549467D01*
X105121962Y-82552620D01*
X105116418Y-82555242D01*
X105110643Y-82557309D01*
X105104693Y-82558799D01*
X105098626Y-82559699D01*
X105092500Y-82560000D01*
X104392500Y-82560000D01*
X104386374Y-82559699D01*
X104380307Y-82558799D01*
X104374357Y-82557309D01*
X104368582Y-82555242D01*
X104363038Y-82552620D01*
X104357777Y-82549467D01*
X104352850Y-82545813D01*
X104348306Y-82541694D01*
X104344187Y-82537150D01*
X104340533Y-82532223D01*
X104337380Y-82526962D01*
X104334758Y-82521418D01*
X104332691Y-82515643D01*
X104331201Y-82509693D01*
X104330301Y-82503626D01*
X104330000Y-82497500D01*
X104330000Y-82372500D01*
X104330301Y-82366374D01*
X104331201Y-82360307D01*
X104332691Y-82354357D01*
X104334758Y-82348582D01*
X104337380Y-82343038D01*
X104340533Y-82337777D01*
X104344187Y-82332850D01*
X104348306Y-82328306D01*
X104352850Y-82324187D01*
X104357777Y-82320533D01*
X104363038Y-82317380D01*
X104368582Y-82314758D01*
X104374357Y-82312691D01*
X104380307Y-82311201D01*
X104386374Y-82310301D01*
X104392500Y-82310000D01*
X105092500Y-82310000D01*
X105098626Y-82310301D01*
X105098626Y-82310301D01*
G37*
D20*
X104742500Y-82435000D03*
D12*
G36*
X105098626Y-82810301D02*
G01*
X105104693Y-82811201D01*
X105110643Y-82812691D01*
X105116418Y-82814758D01*
X105121962Y-82817380D01*
X105127223Y-82820533D01*
X105132150Y-82824187D01*
X105136694Y-82828306D01*
X105140813Y-82832850D01*
X105144467Y-82837777D01*
X105147620Y-82843038D01*
X105150242Y-82848582D01*
X105152309Y-82854357D01*
X105153799Y-82860307D01*
X105154699Y-82866374D01*
X105155000Y-82872500D01*
X105155000Y-82997500D01*
X105154699Y-83003626D01*
X105153799Y-83009693D01*
X105152309Y-83015643D01*
X105150242Y-83021418D01*
X105147620Y-83026962D01*
X105144467Y-83032223D01*
X105140813Y-83037150D01*
X105136694Y-83041694D01*
X105132150Y-83045813D01*
X105127223Y-83049467D01*
X105121962Y-83052620D01*
X105116418Y-83055242D01*
X105110643Y-83057309D01*
X105104693Y-83058799D01*
X105098626Y-83059699D01*
X105092500Y-83060000D01*
X104392500Y-83060000D01*
X104386374Y-83059699D01*
X104380307Y-83058799D01*
X104374357Y-83057309D01*
X104368582Y-83055242D01*
X104363038Y-83052620D01*
X104357777Y-83049467D01*
X104352850Y-83045813D01*
X104348306Y-83041694D01*
X104344187Y-83037150D01*
X104340533Y-83032223D01*
X104337380Y-83026962D01*
X104334758Y-83021418D01*
X104332691Y-83015643D01*
X104331201Y-83009693D01*
X104330301Y-83003626D01*
X104330000Y-82997500D01*
X104330000Y-82872500D01*
X104330301Y-82866374D01*
X104331201Y-82860307D01*
X104332691Y-82854357D01*
X104334758Y-82848582D01*
X104337380Y-82843038D01*
X104340533Y-82837777D01*
X104344187Y-82832850D01*
X104348306Y-82828306D01*
X104352850Y-82824187D01*
X104357777Y-82820533D01*
X104363038Y-82817380D01*
X104368582Y-82814758D01*
X104374357Y-82812691D01*
X104380307Y-82811201D01*
X104386374Y-82810301D01*
X104392500Y-82810000D01*
X105092500Y-82810000D01*
X105098626Y-82810301D01*
X105098626Y-82810301D01*
G37*
D20*
X104742500Y-82935000D03*
D12*
G36*
X105098626Y-83310301D02*
G01*
X105104693Y-83311201D01*
X105110643Y-83312691D01*
X105116418Y-83314758D01*
X105121962Y-83317380D01*
X105127223Y-83320533D01*
X105132150Y-83324187D01*
X105136694Y-83328306D01*
X105140813Y-83332850D01*
X105144467Y-83337777D01*
X105147620Y-83343038D01*
X105150242Y-83348582D01*
X105152309Y-83354357D01*
X105153799Y-83360307D01*
X105154699Y-83366374D01*
X105155000Y-83372500D01*
X105155000Y-83497500D01*
X105154699Y-83503626D01*
X105153799Y-83509693D01*
X105152309Y-83515643D01*
X105150242Y-83521418D01*
X105147620Y-83526962D01*
X105144467Y-83532223D01*
X105140813Y-83537150D01*
X105136694Y-83541694D01*
X105132150Y-83545813D01*
X105127223Y-83549467D01*
X105121962Y-83552620D01*
X105116418Y-83555242D01*
X105110643Y-83557309D01*
X105104693Y-83558799D01*
X105098626Y-83559699D01*
X105092500Y-83560000D01*
X104392500Y-83560000D01*
X104386374Y-83559699D01*
X104380307Y-83558799D01*
X104374357Y-83557309D01*
X104368582Y-83555242D01*
X104363038Y-83552620D01*
X104357777Y-83549467D01*
X104352850Y-83545813D01*
X104348306Y-83541694D01*
X104344187Y-83537150D01*
X104340533Y-83532223D01*
X104337380Y-83526962D01*
X104334758Y-83521418D01*
X104332691Y-83515643D01*
X104331201Y-83509693D01*
X104330301Y-83503626D01*
X104330000Y-83497500D01*
X104330000Y-83372500D01*
X104330301Y-83366374D01*
X104331201Y-83360307D01*
X104332691Y-83354357D01*
X104334758Y-83348582D01*
X104337380Y-83343038D01*
X104340533Y-83337777D01*
X104344187Y-83332850D01*
X104348306Y-83328306D01*
X104352850Y-83324187D01*
X104357777Y-83320533D01*
X104363038Y-83317380D01*
X104368582Y-83314758D01*
X104374357Y-83312691D01*
X104380307Y-83311201D01*
X104386374Y-83310301D01*
X104392500Y-83310000D01*
X105092500Y-83310000D01*
X105098626Y-83310301D01*
X105098626Y-83310301D01*
G37*
D20*
X104742500Y-83435000D03*
D12*
G36*
X105098626Y-83810301D02*
G01*
X105104693Y-83811201D01*
X105110643Y-83812691D01*
X105116418Y-83814758D01*
X105121962Y-83817380D01*
X105127223Y-83820533D01*
X105132150Y-83824187D01*
X105136694Y-83828306D01*
X105140813Y-83832850D01*
X105144467Y-83837777D01*
X105147620Y-83843038D01*
X105150242Y-83848582D01*
X105152309Y-83854357D01*
X105153799Y-83860307D01*
X105154699Y-83866374D01*
X105155000Y-83872500D01*
X105155000Y-83997500D01*
X105154699Y-84003626D01*
X105153799Y-84009693D01*
X105152309Y-84015643D01*
X105150242Y-84021418D01*
X105147620Y-84026962D01*
X105144467Y-84032223D01*
X105140813Y-84037150D01*
X105136694Y-84041694D01*
X105132150Y-84045813D01*
X105127223Y-84049467D01*
X105121962Y-84052620D01*
X105116418Y-84055242D01*
X105110643Y-84057309D01*
X105104693Y-84058799D01*
X105098626Y-84059699D01*
X105092500Y-84060000D01*
X104392500Y-84060000D01*
X104386374Y-84059699D01*
X104380307Y-84058799D01*
X104374357Y-84057309D01*
X104368582Y-84055242D01*
X104363038Y-84052620D01*
X104357777Y-84049467D01*
X104352850Y-84045813D01*
X104348306Y-84041694D01*
X104344187Y-84037150D01*
X104340533Y-84032223D01*
X104337380Y-84026962D01*
X104334758Y-84021418D01*
X104332691Y-84015643D01*
X104331201Y-84009693D01*
X104330301Y-84003626D01*
X104330000Y-83997500D01*
X104330000Y-83872500D01*
X104330301Y-83866374D01*
X104331201Y-83860307D01*
X104332691Y-83854357D01*
X104334758Y-83848582D01*
X104337380Y-83843038D01*
X104340533Y-83837777D01*
X104344187Y-83832850D01*
X104348306Y-83828306D01*
X104352850Y-83824187D01*
X104357777Y-83820533D01*
X104363038Y-83817380D01*
X104368582Y-83814758D01*
X104374357Y-83812691D01*
X104380307Y-83811201D01*
X104386374Y-83810301D01*
X104392500Y-83810000D01*
X105092500Y-83810000D01*
X105098626Y-83810301D01*
X105098626Y-83810301D01*
G37*
D20*
X104742500Y-83935000D03*
D12*
G36*
X105098626Y-84310301D02*
G01*
X105104693Y-84311201D01*
X105110643Y-84312691D01*
X105116418Y-84314758D01*
X105121962Y-84317380D01*
X105127223Y-84320533D01*
X105132150Y-84324187D01*
X105136694Y-84328306D01*
X105140813Y-84332850D01*
X105144467Y-84337777D01*
X105147620Y-84343038D01*
X105150242Y-84348582D01*
X105152309Y-84354357D01*
X105153799Y-84360307D01*
X105154699Y-84366374D01*
X105155000Y-84372500D01*
X105155000Y-84497500D01*
X105154699Y-84503626D01*
X105153799Y-84509693D01*
X105152309Y-84515643D01*
X105150242Y-84521418D01*
X105147620Y-84526962D01*
X105144467Y-84532223D01*
X105140813Y-84537150D01*
X105136694Y-84541694D01*
X105132150Y-84545813D01*
X105127223Y-84549467D01*
X105121962Y-84552620D01*
X105116418Y-84555242D01*
X105110643Y-84557309D01*
X105104693Y-84558799D01*
X105098626Y-84559699D01*
X105092500Y-84560000D01*
X104392500Y-84560000D01*
X104386374Y-84559699D01*
X104380307Y-84558799D01*
X104374357Y-84557309D01*
X104368582Y-84555242D01*
X104363038Y-84552620D01*
X104357777Y-84549467D01*
X104352850Y-84545813D01*
X104348306Y-84541694D01*
X104344187Y-84537150D01*
X104340533Y-84532223D01*
X104337380Y-84526962D01*
X104334758Y-84521418D01*
X104332691Y-84515643D01*
X104331201Y-84509693D01*
X104330301Y-84503626D01*
X104330000Y-84497500D01*
X104330000Y-84372500D01*
X104330301Y-84366374D01*
X104331201Y-84360307D01*
X104332691Y-84354357D01*
X104334758Y-84348582D01*
X104337380Y-84343038D01*
X104340533Y-84337777D01*
X104344187Y-84332850D01*
X104348306Y-84328306D01*
X104352850Y-84324187D01*
X104357777Y-84320533D01*
X104363038Y-84317380D01*
X104368582Y-84314758D01*
X104374357Y-84312691D01*
X104380307Y-84311201D01*
X104386374Y-84310301D01*
X104392500Y-84310000D01*
X105092500Y-84310000D01*
X105098626Y-84310301D01*
X105098626Y-84310301D01*
G37*
D20*
X104742500Y-84435000D03*
D12*
G36*
X105498626Y-84710301D02*
G01*
X105504693Y-84711201D01*
X105510643Y-84712691D01*
X105516418Y-84714758D01*
X105521962Y-84717380D01*
X105527223Y-84720533D01*
X105532150Y-84724187D01*
X105536694Y-84728306D01*
X105540813Y-84732850D01*
X105544467Y-84737777D01*
X105547620Y-84743038D01*
X105550242Y-84748582D01*
X105552309Y-84754357D01*
X105553799Y-84760307D01*
X105554699Y-84766374D01*
X105555000Y-84772500D01*
X105555000Y-85472500D01*
X105554699Y-85478626D01*
X105553799Y-85484693D01*
X105552309Y-85490643D01*
X105550242Y-85496418D01*
X105547620Y-85501962D01*
X105544467Y-85507223D01*
X105540813Y-85512150D01*
X105536694Y-85516694D01*
X105532150Y-85520813D01*
X105527223Y-85524467D01*
X105521962Y-85527620D01*
X105516418Y-85530242D01*
X105510643Y-85532309D01*
X105504693Y-85533799D01*
X105498626Y-85534699D01*
X105492500Y-85535000D01*
X105367500Y-85535000D01*
X105361374Y-85534699D01*
X105355307Y-85533799D01*
X105349357Y-85532309D01*
X105343582Y-85530242D01*
X105338038Y-85527620D01*
X105332777Y-85524467D01*
X105327850Y-85520813D01*
X105323306Y-85516694D01*
X105319187Y-85512150D01*
X105315533Y-85507223D01*
X105312380Y-85501962D01*
X105309758Y-85496418D01*
X105307691Y-85490643D01*
X105306201Y-85484693D01*
X105305301Y-85478626D01*
X105305000Y-85472500D01*
X105305000Y-84772500D01*
X105305301Y-84766374D01*
X105306201Y-84760307D01*
X105307691Y-84754357D01*
X105309758Y-84748582D01*
X105312380Y-84743038D01*
X105315533Y-84737777D01*
X105319187Y-84732850D01*
X105323306Y-84728306D01*
X105327850Y-84724187D01*
X105332777Y-84720533D01*
X105338038Y-84717380D01*
X105343582Y-84714758D01*
X105349357Y-84712691D01*
X105355307Y-84711201D01*
X105361374Y-84710301D01*
X105367500Y-84710000D01*
X105492500Y-84710000D01*
X105498626Y-84710301D01*
X105498626Y-84710301D01*
G37*
D20*
X105430000Y-85122500D03*
D12*
G36*
X105998626Y-84710301D02*
G01*
X106004693Y-84711201D01*
X106010643Y-84712691D01*
X106016418Y-84714758D01*
X106021962Y-84717380D01*
X106027223Y-84720533D01*
X106032150Y-84724187D01*
X106036694Y-84728306D01*
X106040813Y-84732850D01*
X106044467Y-84737777D01*
X106047620Y-84743038D01*
X106050242Y-84748582D01*
X106052309Y-84754357D01*
X106053799Y-84760307D01*
X106054699Y-84766374D01*
X106055000Y-84772500D01*
X106055000Y-85472500D01*
X106054699Y-85478626D01*
X106053799Y-85484693D01*
X106052309Y-85490643D01*
X106050242Y-85496418D01*
X106047620Y-85501962D01*
X106044467Y-85507223D01*
X106040813Y-85512150D01*
X106036694Y-85516694D01*
X106032150Y-85520813D01*
X106027223Y-85524467D01*
X106021962Y-85527620D01*
X106016418Y-85530242D01*
X106010643Y-85532309D01*
X106004693Y-85533799D01*
X105998626Y-85534699D01*
X105992500Y-85535000D01*
X105867500Y-85535000D01*
X105861374Y-85534699D01*
X105855307Y-85533799D01*
X105849357Y-85532309D01*
X105843582Y-85530242D01*
X105838038Y-85527620D01*
X105832777Y-85524467D01*
X105827850Y-85520813D01*
X105823306Y-85516694D01*
X105819187Y-85512150D01*
X105815533Y-85507223D01*
X105812380Y-85501962D01*
X105809758Y-85496418D01*
X105807691Y-85490643D01*
X105806201Y-85484693D01*
X105805301Y-85478626D01*
X105805000Y-85472500D01*
X105805000Y-84772500D01*
X105805301Y-84766374D01*
X105806201Y-84760307D01*
X105807691Y-84754357D01*
X105809758Y-84748582D01*
X105812380Y-84743038D01*
X105815533Y-84737777D01*
X105819187Y-84732850D01*
X105823306Y-84728306D01*
X105827850Y-84724187D01*
X105832777Y-84720533D01*
X105838038Y-84717380D01*
X105843582Y-84714758D01*
X105849357Y-84712691D01*
X105855307Y-84711201D01*
X105861374Y-84710301D01*
X105867500Y-84710000D01*
X105992500Y-84710000D01*
X105998626Y-84710301D01*
X105998626Y-84710301D01*
G37*
D20*
X105930000Y-85122500D03*
D12*
G36*
X106498626Y-84710301D02*
G01*
X106504693Y-84711201D01*
X106510643Y-84712691D01*
X106516418Y-84714758D01*
X106521962Y-84717380D01*
X106527223Y-84720533D01*
X106532150Y-84724187D01*
X106536694Y-84728306D01*
X106540813Y-84732850D01*
X106544467Y-84737777D01*
X106547620Y-84743038D01*
X106550242Y-84748582D01*
X106552309Y-84754357D01*
X106553799Y-84760307D01*
X106554699Y-84766374D01*
X106555000Y-84772500D01*
X106555000Y-85472500D01*
X106554699Y-85478626D01*
X106553799Y-85484693D01*
X106552309Y-85490643D01*
X106550242Y-85496418D01*
X106547620Y-85501962D01*
X106544467Y-85507223D01*
X106540813Y-85512150D01*
X106536694Y-85516694D01*
X106532150Y-85520813D01*
X106527223Y-85524467D01*
X106521962Y-85527620D01*
X106516418Y-85530242D01*
X106510643Y-85532309D01*
X106504693Y-85533799D01*
X106498626Y-85534699D01*
X106492500Y-85535000D01*
X106367500Y-85535000D01*
X106361374Y-85534699D01*
X106355307Y-85533799D01*
X106349357Y-85532309D01*
X106343582Y-85530242D01*
X106338038Y-85527620D01*
X106332777Y-85524467D01*
X106327850Y-85520813D01*
X106323306Y-85516694D01*
X106319187Y-85512150D01*
X106315533Y-85507223D01*
X106312380Y-85501962D01*
X106309758Y-85496418D01*
X106307691Y-85490643D01*
X106306201Y-85484693D01*
X106305301Y-85478626D01*
X106305000Y-85472500D01*
X106305000Y-84772500D01*
X106305301Y-84766374D01*
X106306201Y-84760307D01*
X106307691Y-84754357D01*
X106309758Y-84748582D01*
X106312380Y-84743038D01*
X106315533Y-84737777D01*
X106319187Y-84732850D01*
X106323306Y-84728306D01*
X106327850Y-84724187D01*
X106332777Y-84720533D01*
X106338038Y-84717380D01*
X106343582Y-84714758D01*
X106349357Y-84712691D01*
X106355307Y-84711201D01*
X106361374Y-84710301D01*
X106367500Y-84710000D01*
X106492500Y-84710000D01*
X106498626Y-84710301D01*
X106498626Y-84710301D01*
G37*
D20*
X106430000Y-85122500D03*
D12*
G36*
X106998626Y-84710301D02*
G01*
X107004693Y-84711201D01*
X107010643Y-84712691D01*
X107016418Y-84714758D01*
X107021962Y-84717380D01*
X107027223Y-84720533D01*
X107032150Y-84724187D01*
X107036694Y-84728306D01*
X107040813Y-84732850D01*
X107044467Y-84737777D01*
X107047620Y-84743038D01*
X107050242Y-84748582D01*
X107052309Y-84754357D01*
X107053799Y-84760307D01*
X107054699Y-84766374D01*
X107055000Y-84772500D01*
X107055000Y-85472500D01*
X107054699Y-85478626D01*
X107053799Y-85484693D01*
X107052309Y-85490643D01*
X107050242Y-85496418D01*
X107047620Y-85501962D01*
X107044467Y-85507223D01*
X107040813Y-85512150D01*
X107036694Y-85516694D01*
X107032150Y-85520813D01*
X107027223Y-85524467D01*
X107021962Y-85527620D01*
X107016418Y-85530242D01*
X107010643Y-85532309D01*
X107004693Y-85533799D01*
X106998626Y-85534699D01*
X106992500Y-85535000D01*
X106867500Y-85535000D01*
X106861374Y-85534699D01*
X106855307Y-85533799D01*
X106849357Y-85532309D01*
X106843582Y-85530242D01*
X106838038Y-85527620D01*
X106832777Y-85524467D01*
X106827850Y-85520813D01*
X106823306Y-85516694D01*
X106819187Y-85512150D01*
X106815533Y-85507223D01*
X106812380Y-85501962D01*
X106809758Y-85496418D01*
X106807691Y-85490643D01*
X106806201Y-85484693D01*
X106805301Y-85478626D01*
X106805000Y-85472500D01*
X106805000Y-84772500D01*
X106805301Y-84766374D01*
X106806201Y-84760307D01*
X106807691Y-84754357D01*
X106809758Y-84748582D01*
X106812380Y-84743038D01*
X106815533Y-84737777D01*
X106819187Y-84732850D01*
X106823306Y-84728306D01*
X106827850Y-84724187D01*
X106832777Y-84720533D01*
X106838038Y-84717380D01*
X106843582Y-84714758D01*
X106849357Y-84712691D01*
X106855307Y-84711201D01*
X106861374Y-84710301D01*
X106867500Y-84710000D01*
X106992500Y-84710000D01*
X106998626Y-84710301D01*
X106998626Y-84710301D01*
G37*
D20*
X106930000Y-85122500D03*
D12*
G36*
X107498626Y-84710301D02*
G01*
X107504693Y-84711201D01*
X107510643Y-84712691D01*
X107516418Y-84714758D01*
X107521962Y-84717380D01*
X107527223Y-84720533D01*
X107532150Y-84724187D01*
X107536694Y-84728306D01*
X107540813Y-84732850D01*
X107544467Y-84737777D01*
X107547620Y-84743038D01*
X107550242Y-84748582D01*
X107552309Y-84754357D01*
X107553799Y-84760307D01*
X107554699Y-84766374D01*
X107555000Y-84772500D01*
X107555000Y-85472500D01*
X107554699Y-85478626D01*
X107553799Y-85484693D01*
X107552309Y-85490643D01*
X107550242Y-85496418D01*
X107547620Y-85501962D01*
X107544467Y-85507223D01*
X107540813Y-85512150D01*
X107536694Y-85516694D01*
X107532150Y-85520813D01*
X107527223Y-85524467D01*
X107521962Y-85527620D01*
X107516418Y-85530242D01*
X107510643Y-85532309D01*
X107504693Y-85533799D01*
X107498626Y-85534699D01*
X107492500Y-85535000D01*
X107367500Y-85535000D01*
X107361374Y-85534699D01*
X107355307Y-85533799D01*
X107349357Y-85532309D01*
X107343582Y-85530242D01*
X107338038Y-85527620D01*
X107332777Y-85524467D01*
X107327850Y-85520813D01*
X107323306Y-85516694D01*
X107319187Y-85512150D01*
X107315533Y-85507223D01*
X107312380Y-85501962D01*
X107309758Y-85496418D01*
X107307691Y-85490643D01*
X107306201Y-85484693D01*
X107305301Y-85478626D01*
X107305000Y-85472500D01*
X107305000Y-84772500D01*
X107305301Y-84766374D01*
X107306201Y-84760307D01*
X107307691Y-84754357D01*
X107309758Y-84748582D01*
X107312380Y-84743038D01*
X107315533Y-84737777D01*
X107319187Y-84732850D01*
X107323306Y-84728306D01*
X107327850Y-84724187D01*
X107332777Y-84720533D01*
X107338038Y-84717380D01*
X107343582Y-84714758D01*
X107349357Y-84712691D01*
X107355307Y-84711201D01*
X107361374Y-84710301D01*
X107367500Y-84710000D01*
X107492500Y-84710000D01*
X107498626Y-84710301D01*
X107498626Y-84710301D01*
G37*
D20*
X107430000Y-85122500D03*
D12*
G36*
X107998626Y-84710301D02*
G01*
X108004693Y-84711201D01*
X108010643Y-84712691D01*
X108016418Y-84714758D01*
X108021962Y-84717380D01*
X108027223Y-84720533D01*
X108032150Y-84724187D01*
X108036694Y-84728306D01*
X108040813Y-84732850D01*
X108044467Y-84737777D01*
X108047620Y-84743038D01*
X108050242Y-84748582D01*
X108052309Y-84754357D01*
X108053799Y-84760307D01*
X108054699Y-84766374D01*
X108055000Y-84772500D01*
X108055000Y-85472500D01*
X108054699Y-85478626D01*
X108053799Y-85484693D01*
X108052309Y-85490643D01*
X108050242Y-85496418D01*
X108047620Y-85501962D01*
X108044467Y-85507223D01*
X108040813Y-85512150D01*
X108036694Y-85516694D01*
X108032150Y-85520813D01*
X108027223Y-85524467D01*
X108021962Y-85527620D01*
X108016418Y-85530242D01*
X108010643Y-85532309D01*
X108004693Y-85533799D01*
X107998626Y-85534699D01*
X107992500Y-85535000D01*
X107867500Y-85535000D01*
X107861374Y-85534699D01*
X107855307Y-85533799D01*
X107849357Y-85532309D01*
X107843582Y-85530242D01*
X107838038Y-85527620D01*
X107832777Y-85524467D01*
X107827850Y-85520813D01*
X107823306Y-85516694D01*
X107819187Y-85512150D01*
X107815533Y-85507223D01*
X107812380Y-85501962D01*
X107809758Y-85496418D01*
X107807691Y-85490643D01*
X107806201Y-85484693D01*
X107805301Y-85478626D01*
X107805000Y-85472500D01*
X107805000Y-84772500D01*
X107805301Y-84766374D01*
X107806201Y-84760307D01*
X107807691Y-84754357D01*
X107809758Y-84748582D01*
X107812380Y-84743038D01*
X107815533Y-84737777D01*
X107819187Y-84732850D01*
X107823306Y-84728306D01*
X107827850Y-84724187D01*
X107832777Y-84720533D01*
X107838038Y-84717380D01*
X107843582Y-84714758D01*
X107849357Y-84712691D01*
X107855307Y-84711201D01*
X107861374Y-84710301D01*
X107867500Y-84710000D01*
X107992500Y-84710000D01*
X107998626Y-84710301D01*
X107998626Y-84710301D01*
G37*
D20*
X107930000Y-85122500D03*
D12*
G36*
X108973626Y-84310301D02*
G01*
X108979693Y-84311201D01*
X108985643Y-84312691D01*
X108991418Y-84314758D01*
X108996962Y-84317380D01*
X109002223Y-84320533D01*
X109007150Y-84324187D01*
X109011694Y-84328306D01*
X109015813Y-84332850D01*
X109019467Y-84337777D01*
X109022620Y-84343038D01*
X109025242Y-84348582D01*
X109027309Y-84354357D01*
X109028799Y-84360307D01*
X109029699Y-84366374D01*
X109030000Y-84372500D01*
X109030000Y-84497500D01*
X109029699Y-84503626D01*
X109028799Y-84509693D01*
X109027309Y-84515643D01*
X109025242Y-84521418D01*
X109022620Y-84526962D01*
X109019467Y-84532223D01*
X109015813Y-84537150D01*
X109011694Y-84541694D01*
X109007150Y-84545813D01*
X109002223Y-84549467D01*
X108996962Y-84552620D01*
X108991418Y-84555242D01*
X108985643Y-84557309D01*
X108979693Y-84558799D01*
X108973626Y-84559699D01*
X108967500Y-84560000D01*
X108267500Y-84560000D01*
X108261374Y-84559699D01*
X108255307Y-84558799D01*
X108249357Y-84557309D01*
X108243582Y-84555242D01*
X108238038Y-84552620D01*
X108232777Y-84549467D01*
X108227850Y-84545813D01*
X108223306Y-84541694D01*
X108219187Y-84537150D01*
X108215533Y-84532223D01*
X108212380Y-84526962D01*
X108209758Y-84521418D01*
X108207691Y-84515643D01*
X108206201Y-84509693D01*
X108205301Y-84503626D01*
X108205000Y-84497500D01*
X108205000Y-84372500D01*
X108205301Y-84366374D01*
X108206201Y-84360307D01*
X108207691Y-84354357D01*
X108209758Y-84348582D01*
X108212380Y-84343038D01*
X108215533Y-84337777D01*
X108219187Y-84332850D01*
X108223306Y-84328306D01*
X108227850Y-84324187D01*
X108232777Y-84320533D01*
X108238038Y-84317380D01*
X108243582Y-84314758D01*
X108249357Y-84312691D01*
X108255307Y-84311201D01*
X108261374Y-84310301D01*
X108267500Y-84310000D01*
X108967500Y-84310000D01*
X108973626Y-84310301D01*
X108973626Y-84310301D01*
G37*
D20*
X108617500Y-84435000D03*
D12*
G36*
X108973626Y-83810301D02*
G01*
X108979693Y-83811201D01*
X108985643Y-83812691D01*
X108991418Y-83814758D01*
X108996962Y-83817380D01*
X109002223Y-83820533D01*
X109007150Y-83824187D01*
X109011694Y-83828306D01*
X109015813Y-83832850D01*
X109019467Y-83837777D01*
X109022620Y-83843038D01*
X109025242Y-83848582D01*
X109027309Y-83854357D01*
X109028799Y-83860307D01*
X109029699Y-83866374D01*
X109030000Y-83872500D01*
X109030000Y-83997500D01*
X109029699Y-84003626D01*
X109028799Y-84009693D01*
X109027309Y-84015643D01*
X109025242Y-84021418D01*
X109022620Y-84026962D01*
X109019467Y-84032223D01*
X109015813Y-84037150D01*
X109011694Y-84041694D01*
X109007150Y-84045813D01*
X109002223Y-84049467D01*
X108996962Y-84052620D01*
X108991418Y-84055242D01*
X108985643Y-84057309D01*
X108979693Y-84058799D01*
X108973626Y-84059699D01*
X108967500Y-84060000D01*
X108267500Y-84060000D01*
X108261374Y-84059699D01*
X108255307Y-84058799D01*
X108249357Y-84057309D01*
X108243582Y-84055242D01*
X108238038Y-84052620D01*
X108232777Y-84049467D01*
X108227850Y-84045813D01*
X108223306Y-84041694D01*
X108219187Y-84037150D01*
X108215533Y-84032223D01*
X108212380Y-84026962D01*
X108209758Y-84021418D01*
X108207691Y-84015643D01*
X108206201Y-84009693D01*
X108205301Y-84003626D01*
X108205000Y-83997500D01*
X108205000Y-83872500D01*
X108205301Y-83866374D01*
X108206201Y-83860307D01*
X108207691Y-83854357D01*
X108209758Y-83848582D01*
X108212380Y-83843038D01*
X108215533Y-83837777D01*
X108219187Y-83832850D01*
X108223306Y-83828306D01*
X108227850Y-83824187D01*
X108232777Y-83820533D01*
X108238038Y-83817380D01*
X108243582Y-83814758D01*
X108249357Y-83812691D01*
X108255307Y-83811201D01*
X108261374Y-83810301D01*
X108267500Y-83810000D01*
X108967500Y-83810000D01*
X108973626Y-83810301D01*
X108973626Y-83810301D01*
G37*
D20*
X108617500Y-83935000D03*
D12*
G36*
X108973626Y-83310301D02*
G01*
X108979693Y-83311201D01*
X108985643Y-83312691D01*
X108991418Y-83314758D01*
X108996962Y-83317380D01*
X109002223Y-83320533D01*
X109007150Y-83324187D01*
X109011694Y-83328306D01*
X109015813Y-83332850D01*
X109019467Y-83337777D01*
X109022620Y-83343038D01*
X109025242Y-83348582D01*
X109027309Y-83354357D01*
X109028799Y-83360307D01*
X109029699Y-83366374D01*
X109030000Y-83372500D01*
X109030000Y-83497500D01*
X109029699Y-83503626D01*
X109028799Y-83509693D01*
X109027309Y-83515643D01*
X109025242Y-83521418D01*
X109022620Y-83526962D01*
X109019467Y-83532223D01*
X109015813Y-83537150D01*
X109011694Y-83541694D01*
X109007150Y-83545813D01*
X109002223Y-83549467D01*
X108996962Y-83552620D01*
X108991418Y-83555242D01*
X108985643Y-83557309D01*
X108979693Y-83558799D01*
X108973626Y-83559699D01*
X108967500Y-83560000D01*
X108267500Y-83560000D01*
X108261374Y-83559699D01*
X108255307Y-83558799D01*
X108249357Y-83557309D01*
X108243582Y-83555242D01*
X108238038Y-83552620D01*
X108232777Y-83549467D01*
X108227850Y-83545813D01*
X108223306Y-83541694D01*
X108219187Y-83537150D01*
X108215533Y-83532223D01*
X108212380Y-83526962D01*
X108209758Y-83521418D01*
X108207691Y-83515643D01*
X108206201Y-83509693D01*
X108205301Y-83503626D01*
X108205000Y-83497500D01*
X108205000Y-83372500D01*
X108205301Y-83366374D01*
X108206201Y-83360307D01*
X108207691Y-83354357D01*
X108209758Y-83348582D01*
X108212380Y-83343038D01*
X108215533Y-83337777D01*
X108219187Y-83332850D01*
X108223306Y-83328306D01*
X108227850Y-83324187D01*
X108232777Y-83320533D01*
X108238038Y-83317380D01*
X108243582Y-83314758D01*
X108249357Y-83312691D01*
X108255307Y-83311201D01*
X108261374Y-83310301D01*
X108267500Y-83310000D01*
X108967500Y-83310000D01*
X108973626Y-83310301D01*
X108973626Y-83310301D01*
G37*
D20*
X108617500Y-83435000D03*
D12*
G36*
X108973626Y-82810301D02*
G01*
X108979693Y-82811201D01*
X108985643Y-82812691D01*
X108991418Y-82814758D01*
X108996962Y-82817380D01*
X109002223Y-82820533D01*
X109007150Y-82824187D01*
X109011694Y-82828306D01*
X109015813Y-82832850D01*
X109019467Y-82837777D01*
X109022620Y-82843038D01*
X109025242Y-82848582D01*
X109027309Y-82854357D01*
X109028799Y-82860307D01*
X109029699Y-82866374D01*
X109030000Y-82872500D01*
X109030000Y-82997500D01*
X109029699Y-83003626D01*
X109028799Y-83009693D01*
X109027309Y-83015643D01*
X109025242Y-83021418D01*
X109022620Y-83026962D01*
X109019467Y-83032223D01*
X109015813Y-83037150D01*
X109011694Y-83041694D01*
X109007150Y-83045813D01*
X109002223Y-83049467D01*
X108996962Y-83052620D01*
X108991418Y-83055242D01*
X108985643Y-83057309D01*
X108979693Y-83058799D01*
X108973626Y-83059699D01*
X108967500Y-83060000D01*
X108267500Y-83060000D01*
X108261374Y-83059699D01*
X108255307Y-83058799D01*
X108249357Y-83057309D01*
X108243582Y-83055242D01*
X108238038Y-83052620D01*
X108232777Y-83049467D01*
X108227850Y-83045813D01*
X108223306Y-83041694D01*
X108219187Y-83037150D01*
X108215533Y-83032223D01*
X108212380Y-83026962D01*
X108209758Y-83021418D01*
X108207691Y-83015643D01*
X108206201Y-83009693D01*
X108205301Y-83003626D01*
X108205000Y-82997500D01*
X108205000Y-82872500D01*
X108205301Y-82866374D01*
X108206201Y-82860307D01*
X108207691Y-82854357D01*
X108209758Y-82848582D01*
X108212380Y-82843038D01*
X108215533Y-82837777D01*
X108219187Y-82832850D01*
X108223306Y-82828306D01*
X108227850Y-82824187D01*
X108232777Y-82820533D01*
X108238038Y-82817380D01*
X108243582Y-82814758D01*
X108249357Y-82812691D01*
X108255307Y-82811201D01*
X108261374Y-82810301D01*
X108267500Y-82810000D01*
X108967500Y-82810000D01*
X108973626Y-82810301D01*
X108973626Y-82810301D01*
G37*
D20*
X108617500Y-82935000D03*
D12*
G36*
X108973626Y-82310301D02*
G01*
X108979693Y-82311201D01*
X108985643Y-82312691D01*
X108991418Y-82314758D01*
X108996962Y-82317380D01*
X109002223Y-82320533D01*
X109007150Y-82324187D01*
X109011694Y-82328306D01*
X109015813Y-82332850D01*
X109019467Y-82337777D01*
X109022620Y-82343038D01*
X109025242Y-82348582D01*
X109027309Y-82354357D01*
X109028799Y-82360307D01*
X109029699Y-82366374D01*
X109030000Y-82372500D01*
X109030000Y-82497500D01*
X109029699Y-82503626D01*
X109028799Y-82509693D01*
X109027309Y-82515643D01*
X109025242Y-82521418D01*
X109022620Y-82526962D01*
X109019467Y-82532223D01*
X109015813Y-82537150D01*
X109011694Y-82541694D01*
X109007150Y-82545813D01*
X109002223Y-82549467D01*
X108996962Y-82552620D01*
X108991418Y-82555242D01*
X108985643Y-82557309D01*
X108979693Y-82558799D01*
X108973626Y-82559699D01*
X108967500Y-82560000D01*
X108267500Y-82560000D01*
X108261374Y-82559699D01*
X108255307Y-82558799D01*
X108249357Y-82557309D01*
X108243582Y-82555242D01*
X108238038Y-82552620D01*
X108232777Y-82549467D01*
X108227850Y-82545813D01*
X108223306Y-82541694D01*
X108219187Y-82537150D01*
X108215533Y-82532223D01*
X108212380Y-82526962D01*
X108209758Y-82521418D01*
X108207691Y-82515643D01*
X108206201Y-82509693D01*
X108205301Y-82503626D01*
X108205000Y-82497500D01*
X108205000Y-82372500D01*
X108205301Y-82366374D01*
X108206201Y-82360307D01*
X108207691Y-82354357D01*
X108209758Y-82348582D01*
X108212380Y-82343038D01*
X108215533Y-82337777D01*
X108219187Y-82332850D01*
X108223306Y-82328306D01*
X108227850Y-82324187D01*
X108232777Y-82320533D01*
X108238038Y-82317380D01*
X108243582Y-82314758D01*
X108249357Y-82312691D01*
X108255307Y-82311201D01*
X108261374Y-82310301D01*
X108267500Y-82310000D01*
X108967500Y-82310000D01*
X108973626Y-82310301D01*
X108973626Y-82310301D01*
G37*
D20*
X108617500Y-82435000D03*
D12*
G36*
X108973626Y-81810301D02*
G01*
X108979693Y-81811201D01*
X108985643Y-81812691D01*
X108991418Y-81814758D01*
X108996962Y-81817380D01*
X109002223Y-81820533D01*
X109007150Y-81824187D01*
X109011694Y-81828306D01*
X109015813Y-81832850D01*
X109019467Y-81837777D01*
X109022620Y-81843038D01*
X109025242Y-81848582D01*
X109027309Y-81854357D01*
X109028799Y-81860307D01*
X109029699Y-81866374D01*
X109030000Y-81872500D01*
X109030000Y-81997500D01*
X109029699Y-82003626D01*
X109028799Y-82009693D01*
X109027309Y-82015643D01*
X109025242Y-82021418D01*
X109022620Y-82026962D01*
X109019467Y-82032223D01*
X109015813Y-82037150D01*
X109011694Y-82041694D01*
X109007150Y-82045813D01*
X109002223Y-82049467D01*
X108996962Y-82052620D01*
X108991418Y-82055242D01*
X108985643Y-82057309D01*
X108979693Y-82058799D01*
X108973626Y-82059699D01*
X108967500Y-82060000D01*
X108267500Y-82060000D01*
X108261374Y-82059699D01*
X108255307Y-82058799D01*
X108249357Y-82057309D01*
X108243582Y-82055242D01*
X108238038Y-82052620D01*
X108232777Y-82049467D01*
X108227850Y-82045813D01*
X108223306Y-82041694D01*
X108219187Y-82037150D01*
X108215533Y-82032223D01*
X108212380Y-82026962D01*
X108209758Y-82021418D01*
X108207691Y-82015643D01*
X108206201Y-82009693D01*
X108205301Y-82003626D01*
X108205000Y-81997500D01*
X108205000Y-81872500D01*
X108205301Y-81866374D01*
X108206201Y-81860307D01*
X108207691Y-81854357D01*
X108209758Y-81848582D01*
X108212380Y-81843038D01*
X108215533Y-81837777D01*
X108219187Y-81832850D01*
X108223306Y-81828306D01*
X108227850Y-81824187D01*
X108232777Y-81820533D01*
X108238038Y-81817380D01*
X108243582Y-81814758D01*
X108249357Y-81812691D01*
X108255307Y-81811201D01*
X108261374Y-81810301D01*
X108267500Y-81810000D01*
X108967500Y-81810000D01*
X108973626Y-81810301D01*
X108973626Y-81810301D01*
G37*
D20*
X108617500Y-81935000D03*
D12*
G36*
X107998626Y-80835301D02*
G01*
X108004693Y-80836201D01*
X108010643Y-80837691D01*
X108016418Y-80839758D01*
X108021962Y-80842380D01*
X108027223Y-80845533D01*
X108032150Y-80849187D01*
X108036694Y-80853306D01*
X108040813Y-80857850D01*
X108044467Y-80862777D01*
X108047620Y-80868038D01*
X108050242Y-80873582D01*
X108052309Y-80879357D01*
X108053799Y-80885307D01*
X108054699Y-80891374D01*
X108055000Y-80897500D01*
X108055000Y-81597500D01*
X108054699Y-81603626D01*
X108053799Y-81609693D01*
X108052309Y-81615643D01*
X108050242Y-81621418D01*
X108047620Y-81626962D01*
X108044467Y-81632223D01*
X108040813Y-81637150D01*
X108036694Y-81641694D01*
X108032150Y-81645813D01*
X108027223Y-81649467D01*
X108021962Y-81652620D01*
X108016418Y-81655242D01*
X108010643Y-81657309D01*
X108004693Y-81658799D01*
X107998626Y-81659699D01*
X107992500Y-81660000D01*
X107867500Y-81660000D01*
X107861374Y-81659699D01*
X107855307Y-81658799D01*
X107849357Y-81657309D01*
X107843582Y-81655242D01*
X107838038Y-81652620D01*
X107832777Y-81649467D01*
X107827850Y-81645813D01*
X107823306Y-81641694D01*
X107819187Y-81637150D01*
X107815533Y-81632223D01*
X107812380Y-81626962D01*
X107809758Y-81621418D01*
X107807691Y-81615643D01*
X107806201Y-81609693D01*
X107805301Y-81603626D01*
X107805000Y-81597500D01*
X107805000Y-80897500D01*
X107805301Y-80891374D01*
X107806201Y-80885307D01*
X107807691Y-80879357D01*
X107809758Y-80873582D01*
X107812380Y-80868038D01*
X107815533Y-80862777D01*
X107819187Y-80857850D01*
X107823306Y-80853306D01*
X107827850Y-80849187D01*
X107832777Y-80845533D01*
X107838038Y-80842380D01*
X107843582Y-80839758D01*
X107849357Y-80837691D01*
X107855307Y-80836201D01*
X107861374Y-80835301D01*
X107867500Y-80835000D01*
X107992500Y-80835000D01*
X107998626Y-80835301D01*
X107998626Y-80835301D01*
G37*
D20*
X107930000Y-81247500D03*
D12*
G36*
X107498626Y-80835301D02*
G01*
X107504693Y-80836201D01*
X107510643Y-80837691D01*
X107516418Y-80839758D01*
X107521962Y-80842380D01*
X107527223Y-80845533D01*
X107532150Y-80849187D01*
X107536694Y-80853306D01*
X107540813Y-80857850D01*
X107544467Y-80862777D01*
X107547620Y-80868038D01*
X107550242Y-80873582D01*
X107552309Y-80879357D01*
X107553799Y-80885307D01*
X107554699Y-80891374D01*
X107555000Y-80897500D01*
X107555000Y-81597500D01*
X107554699Y-81603626D01*
X107553799Y-81609693D01*
X107552309Y-81615643D01*
X107550242Y-81621418D01*
X107547620Y-81626962D01*
X107544467Y-81632223D01*
X107540813Y-81637150D01*
X107536694Y-81641694D01*
X107532150Y-81645813D01*
X107527223Y-81649467D01*
X107521962Y-81652620D01*
X107516418Y-81655242D01*
X107510643Y-81657309D01*
X107504693Y-81658799D01*
X107498626Y-81659699D01*
X107492500Y-81660000D01*
X107367500Y-81660000D01*
X107361374Y-81659699D01*
X107355307Y-81658799D01*
X107349357Y-81657309D01*
X107343582Y-81655242D01*
X107338038Y-81652620D01*
X107332777Y-81649467D01*
X107327850Y-81645813D01*
X107323306Y-81641694D01*
X107319187Y-81637150D01*
X107315533Y-81632223D01*
X107312380Y-81626962D01*
X107309758Y-81621418D01*
X107307691Y-81615643D01*
X107306201Y-81609693D01*
X107305301Y-81603626D01*
X107305000Y-81597500D01*
X107305000Y-80897500D01*
X107305301Y-80891374D01*
X107306201Y-80885307D01*
X107307691Y-80879357D01*
X107309758Y-80873582D01*
X107312380Y-80868038D01*
X107315533Y-80862777D01*
X107319187Y-80857850D01*
X107323306Y-80853306D01*
X107327850Y-80849187D01*
X107332777Y-80845533D01*
X107338038Y-80842380D01*
X107343582Y-80839758D01*
X107349357Y-80837691D01*
X107355307Y-80836201D01*
X107361374Y-80835301D01*
X107367500Y-80835000D01*
X107492500Y-80835000D01*
X107498626Y-80835301D01*
X107498626Y-80835301D01*
G37*
D20*
X107430000Y-81247500D03*
D12*
G36*
X106998626Y-80835301D02*
G01*
X107004693Y-80836201D01*
X107010643Y-80837691D01*
X107016418Y-80839758D01*
X107021962Y-80842380D01*
X107027223Y-80845533D01*
X107032150Y-80849187D01*
X107036694Y-80853306D01*
X107040813Y-80857850D01*
X107044467Y-80862777D01*
X107047620Y-80868038D01*
X107050242Y-80873582D01*
X107052309Y-80879357D01*
X107053799Y-80885307D01*
X107054699Y-80891374D01*
X107055000Y-80897500D01*
X107055000Y-81597500D01*
X107054699Y-81603626D01*
X107053799Y-81609693D01*
X107052309Y-81615643D01*
X107050242Y-81621418D01*
X107047620Y-81626962D01*
X107044467Y-81632223D01*
X107040813Y-81637150D01*
X107036694Y-81641694D01*
X107032150Y-81645813D01*
X107027223Y-81649467D01*
X107021962Y-81652620D01*
X107016418Y-81655242D01*
X107010643Y-81657309D01*
X107004693Y-81658799D01*
X106998626Y-81659699D01*
X106992500Y-81660000D01*
X106867500Y-81660000D01*
X106861374Y-81659699D01*
X106855307Y-81658799D01*
X106849357Y-81657309D01*
X106843582Y-81655242D01*
X106838038Y-81652620D01*
X106832777Y-81649467D01*
X106827850Y-81645813D01*
X106823306Y-81641694D01*
X106819187Y-81637150D01*
X106815533Y-81632223D01*
X106812380Y-81626962D01*
X106809758Y-81621418D01*
X106807691Y-81615643D01*
X106806201Y-81609693D01*
X106805301Y-81603626D01*
X106805000Y-81597500D01*
X106805000Y-80897500D01*
X106805301Y-80891374D01*
X106806201Y-80885307D01*
X106807691Y-80879357D01*
X106809758Y-80873582D01*
X106812380Y-80868038D01*
X106815533Y-80862777D01*
X106819187Y-80857850D01*
X106823306Y-80853306D01*
X106827850Y-80849187D01*
X106832777Y-80845533D01*
X106838038Y-80842380D01*
X106843582Y-80839758D01*
X106849357Y-80837691D01*
X106855307Y-80836201D01*
X106861374Y-80835301D01*
X106867500Y-80835000D01*
X106992500Y-80835000D01*
X106998626Y-80835301D01*
X106998626Y-80835301D01*
G37*
D20*
X106930000Y-81247500D03*
D12*
G36*
X106498626Y-80835301D02*
G01*
X106504693Y-80836201D01*
X106510643Y-80837691D01*
X106516418Y-80839758D01*
X106521962Y-80842380D01*
X106527223Y-80845533D01*
X106532150Y-80849187D01*
X106536694Y-80853306D01*
X106540813Y-80857850D01*
X106544467Y-80862777D01*
X106547620Y-80868038D01*
X106550242Y-80873582D01*
X106552309Y-80879357D01*
X106553799Y-80885307D01*
X106554699Y-80891374D01*
X106555000Y-80897500D01*
X106555000Y-81597500D01*
X106554699Y-81603626D01*
X106553799Y-81609693D01*
X106552309Y-81615643D01*
X106550242Y-81621418D01*
X106547620Y-81626962D01*
X106544467Y-81632223D01*
X106540813Y-81637150D01*
X106536694Y-81641694D01*
X106532150Y-81645813D01*
X106527223Y-81649467D01*
X106521962Y-81652620D01*
X106516418Y-81655242D01*
X106510643Y-81657309D01*
X106504693Y-81658799D01*
X106498626Y-81659699D01*
X106492500Y-81660000D01*
X106367500Y-81660000D01*
X106361374Y-81659699D01*
X106355307Y-81658799D01*
X106349357Y-81657309D01*
X106343582Y-81655242D01*
X106338038Y-81652620D01*
X106332777Y-81649467D01*
X106327850Y-81645813D01*
X106323306Y-81641694D01*
X106319187Y-81637150D01*
X106315533Y-81632223D01*
X106312380Y-81626962D01*
X106309758Y-81621418D01*
X106307691Y-81615643D01*
X106306201Y-81609693D01*
X106305301Y-81603626D01*
X106305000Y-81597500D01*
X106305000Y-80897500D01*
X106305301Y-80891374D01*
X106306201Y-80885307D01*
X106307691Y-80879357D01*
X106309758Y-80873582D01*
X106312380Y-80868038D01*
X106315533Y-80862777D01*
X106319187Y-80857850D01*
X106323306Y-80853306D01*
X106327850Y-80849187D01*
X106332777Y-80845533D01*
X106338038Y-80842380D01*
X106343582Y-80839758D01*
X106349357Y-80837691D01*
X106355307Y-80836201D01*
X106361374Y-80835301D01*
X106367500Y-80835000D01*
X106492500Y-80835000D01*
X106498626Y-80835301D01*
X106498626Y-80835301D01*
G37*
D20*
X106430000Y-81247500D03*
D12*
G36*
X105998626Y-80835301D02*
G01*
X106004693Y-80836201D01*
X106010643Y-80837691D01*
X106016418Y-80839758D01*
X106021962Y-80842380D01*
X106027223Y-80845533D01*
X106032150Y-80849187D01*
X106036694Y-80853306D01*
X106040813Y-80857850D01*
X106044467Y-80862777D01*
X106047620Y-80868038D01*
X106050242Y-80873582D01*
X106052309Y-80879357D01*
X106053799Y-80885307D01*
X106054699Y-80891374D01*
X106055000Y-80897500D01*
X106055000Y-81597500D01*
X106054699Y-81603626D01*
X106053799Y-81609693D01*
X106052309Y-81615643D01*
X106050242Y-81621418D01*
X106047620Y-81626962D01*
X106044467Y-81632223D01*
X106040813Y-81637150D01*
X106036694Y-81641694D01*
X106032150Y-81645813D01*
X106027223Y-81649467D01*
X106021962Y-81652620D01*
X106016418Y-81655242D01*
X106010643Y-81657309D01*
X106004693Y-81658799D01*
X105998626Y-81659699D01*
X105992500Y-81660000D01*
X105867500Y-81660000D01*
X105861374Y-81659699D01*
X105855307Y-81658799D01*
X105849357Y-81657309D01*
X105843582Y-81655242D01*
X105838038Y-81652620D01*
X105832777Y-81649467D01*
X105827850Y-81645813D01*
X105823306Y-81641694D01*
X105819187Y-81637150D01*
X105815533Y-81632223D01*
X105812380Y-81626962D01*
X105809758Y-81621418D01*
X105807691Y-81615643D01*
X105806201Y-81609693D01*
X105805301Y-81603626D01*
X105805000Y-81597500D01*
X105805000Y-80897500D01*
X105805301Y-80891374D01*
X105806201Y-80885307D01*
X105807691Y-80879357D01*
X105809758Y-80873582D01*
X105812380Y-80868038D01*
X105815533Y-80862777D01*
X105819187Y-80857850D01*
X105823306Y-80853306D01*
X105827850Y-80849187D01*
X105832777Y-80845533D01*
X105838038Y-80842380D01*
X105843582Y-80839758D01*
X105849357Y-80837691D01*
X105855307Y-80836201D01*
X105861374Y-80835301D01*
X105867500Y-80835000D01*
X105992500Y-80835000D01*
X105998626Y-80835301D01*
X105998626Y-80835301D01*
G37*
D20*
X105930000Y-81247500D03*
D12*
G36*
X105498626Y-80835301D02*
G01*
X105504693Y-80836201D01*
X105510643Y-80837691D01*
X105516418Y-80839758D01*
X105521962Y-80842380D01*
X105527223Y-80845533D01*
X105532150Y-80849187D01*
X105536694Y-80853306D01*
X105540813Y-80857850D01*
X105544467Y-80862777D01*
X105547620Y-80868038D01*
X105550242Y-80873582D01*
X105552309Y-80879357D01*
X105553799Y-80885307D01*
X105554699Y-80891374D01*
X105555000Y-80897500D01*
X105555000Y-81597500D01*
X105554699Y-81603626D01*
X105553799Y-81609693D01*
X105552309Y-81615643D01*
X105550242Y-81621418D01*
X105547620Y-81626962D01*
X105544467Y-81632223D01*
X105540813Y-81637150D01*
X105536694Y-81641694D01*
X105532150Y-81645813D01*
X105527223Y-81649467D01*
X105521962Y-81652620D01*
X105516418Y-81655242D01*
X105510643Y-81657309D01*
X105504693Y-81658799D01*
X105498626Y-81659699D01*
X105492500Y-81660000D01*
X105367500Y-81660000D01*
X105361374Y-81659699D01*
X105355307Y-81658799D01*
X105349357Y-81657309D01*
X105343582Y-81655242D01*
X105338038Y-81652620D01*
X105332777Y-81649467D01*
X105327850Y-81645813D01*
X105323306Y-81641694D01*
X105319187Y-81637150D01*
X105315533Y-81632223D01*
X105312380Y-81626962D01*
X105309758Y-81621418D01*
X105307691Y-81615643D01*
X105306201Y-81609693D01*
X105305301Y-81603626D01*
X105305000Y-81597500D01*
X105305000Y-80897500D01*
X105305301Y-80891374D01*
X105306201Y-80885307D01*
X105307691Y-80879357D01*
X105309758Y-80873582D01*
X105312380Y-80868038D01*
X105315533Y-80862777D01*
X105319187Y-80857850D01*
X105323306Y-80853306D01*
X105327850Y-80849187D01*
X105332777Y-80845533D01*
X105338038Y-80842380D01*
X105343582Y-80839758D01*
X105349357Y-80837691D01*
X105355307Y-80836201D01*
X105361374Y-80835301D01*
X105367500Y-80835000D01*
X105492500Y-80835000D01*
X105498626Y-80835301D01*
X105498626Y-80835301D01*
G37*
D20*
X105430000Y-81247500D03*
D12*
G36*
X105052691Y-87854053D02*
G01*
X105073926Y-87857203D01*
X105094750Y-87862419D01*
X105114962Y-87869651D01*
X105134368Y-87878830D01*
X105152781Y-87889866D01*
X105170024Y-87902654D01*
X105185930Y-87917070D01*
X105200346Y-87932976D01*
X105213134Y-87950219D01*
X105224170Y-87968632D01*
X105233349Y-87988038D01*
X105240581Y-88008250D01*
X105245797Y-88029074D01*
X105248947Y-88050309D01*
X105250000Y-88071750D01*
X105250000Y-88509250D01*
X105248947Y-88530691D01*
X105245797Y-88551926D01*
X105240581Y-88572750D01*
X105233349Y-88592962D01*
X105224170Y-88612368D01*
X105213134Y-88630781D01*
X105200346Y-88648024D01*
X105185930Y-88663930D01*
X105170024Y-88678346D01*
X105152781Y-88691134D01*
X105134368Y-88702170D01*
X105114962Y-88711349D01*
X105094750Y-88718581D01*
X105073926Y-88723797D01*
X105052691Y-88726947D01*
X105031250Y-88728000D01*
X104518750Y-88728000D01*
X104497309Y-88726947D01*
X104476074Y-88723797D01*
X104455250Y-88718581D01*
X104435038Y-88711349D01*
X104415632Y-88702170D01*
X104397219Y-88691134D01*
X104379976Y-88678346D01*
X104364070Y-88663930D01*
X104349654Y-88648024D01*
X104336866Y-88630781D01*
X104325830Y-88612368D01*
X104316651Y-88592962D01*
X104309419Y-88572750D01*
X104304203Y-88551926D01*
X104301053Y-88530691D01*
X104300000Y-88509250D01*
X104300000Y-88071750D01*
X104301053Y-88050309D01*
X104304203Y-88029074D01*
X104309419Y-88008250D01*
X104316651Y-87988038D01*
X104325830Y-87968632D01*
X104336866Y-87950219D01*
X104349654Y-87932976D01*
X104364070Y-87917070D01*
X104379976Y-87902654D01*
X104397219Y-87889866D01*
X104415632Y-87878830D01*
X104435038Y-87869651D01*
X104455250Y-87862419D01*
X104476074Y-87857203D01*
X104497309Y-87854053D01*
X104518750Y-87853000D01*
X105031250Y-87853000D01*
X105052691Y-87854053D01*
X105052691Y-87854053D01*
G37*
D13*
X104775000Y-88290500D03*
D12*
G36*
X105052691Y-86279053D02*
G01*
X105073926Y-86282203D01*
X105094750Y-86287419D01*
X105114962Y-86294651D01*
X105134368Y-86303830D01*
X105152781Y-86314866D01*
X105170024Y-86327654D01*
X105185930Y-86342070D01*
X105200346Y-86357976D01*
X105213134Y-86375219D01*
X105224170Y-86393632D01*
X105233349Y-86413038D01*
X105240581Y-86433250D01*
X105245797Y-86454074D01*
X105248947Y-86475309D01*
X105250000Y-86496750D01*
X105250000Y-86934250D01*
X105248947Y-86955691D01*
X105245797Y-86976926D01*
X105240581Y-86997750D01*
X105233349Y-87017962D01*
X105224170Y-87037368D01*
X105213134Y-87055781D01*
X105200346Y-87073024D01*
X105185930Y-87088930D01*
X105170024Y-87103346D01*
X105152781Y-87116134D01*
X105134368Y-87127170D01*
X105114962Y-87136349D01*
X105094750Y-87143581D01*
X105073926Y-87148797D01*
X105052691Y-87151947D01*
X105031250Y-87153000D01*
X104518750Y-87153000D01*
X104497309Y-87151947D01*
X104476074Y-87148797D01*
X104455250Y-87143581D01*
X104435038Y-87136349D01*
X104415632Y-87127170D01*
X104397219Y-87116134D01*
X104379976Y-87103346D01*
X104364070Y-87088930D01*
X104349654Y-87073024D01*
X104336866Y-87055781D01*
X104325830Y-87037368D01*
X104316651Y-87017962D01*
X104309419Y-86997750D01*
X104304203Y-86976926D01*
X104301053Y-86955691D01*
X104300000Y-86934250D01*
X104300000Y-86496750D01*
X104301053Y-86475309D01*
X104304203Y-86454074D01*
X104309419Y-86433250D01*
X104316651Y-86413038D01*
X104325830Y-86393632D01*
X104336866Y-86375219D01*
X104349654Y-86357976D01*
X104364070Y-86342070D01*
X104379976Y-86327654D01*
X104397219Y-86314866D01*
X104415632Y-86303830D01*
X104435038Y-86294651D01*
X104455250Y-86287419D01*
X104476074Y-86282203D01*
X104497309Y-86279053D01*
X104518750Y-86278000D01*
X105031250Y-86278000D01*
X105052691Y-86279053D01*
X105052691Y-86279053D01*
G37*
D13*
X104775000Y-86715500D03*
D12*
G36*
X106703691Y-86279053D02*
G01*
X106724926Y-86282203D01*
X106745750Y-86287419D01*
X106765962Y-86294651D01*
X106785368Y-86303830D01*
X106803781Y-86314866D01*
X106821024Y-86327654D01*
X106836930Y-86342070D01*
X106851346Y-86357976D01*
X106864134Y-86375219D01*
X106875170Y-86393632D01*
X106884349Y-86413038D01*
X106891581Y-86433250D01*
X106896797Y-86454074D01*
X106899947Y-86475309D01*
X106901000Y-86496750D01*
X106901000Y-86934250D01*
X106899947Y-86955691D01*
X106896797Y-86976926D01*
X106891581Y-86997750D01*
X106884349Y-87017962D01*
X106875170Y-87037368D01*
X106864134Y-87055781D01*
X106851346Y-87073024D01*
X106836930Y-87088930D01*
X106821024Y-87103346D01*
X106803781Y-87116134D01*
X106785368Y-87127170D01*
X106765962Y-87136349D01*
X106745750Y-87143581D01*
X106724926Y-87148797D01*
X106703691Y-87151947D01*
X106682250Y-87153000D01*
X106169750Y-87153000D01*
X106148309Y-87151947D01*
X106127074Y-87148797D01*
X106106250Y-87143581D01*
X106086038Y-87136349D01*
X106066632Y-87127170D01*
X106048219Y-87116134D01*
X106030976Y-87103346D01*
X106015070Y-87088930D01*
X106000654Y-87073024D01*
X105987866Y-87055781D01*
X105976830Y-87037368D01*
X105967651Y-87017962D01*
X105960419Y-86997750D01*
X105955203Y-86976926D01*
X105952053Y-86955691D01*
X105951000Y-86934250D01*
X105951000Y-86496750D01*
X105952053Y-86475309D01*
X105955203Y-86454074D01*
X105960419Y-86433250D01*
X105967651Y-86413038D01*
X105976830Y-86393632D01*
X105987866Y-86375219D01*
X106000654Y-86357976D01*
X106015070Y-86342070D01*
X106030976Y-86327654D01*
X106048219Y-86314866D01*
X106066632Y-86303830D01*
X106086038Y-86294651D01*
X106106250Y-86287419D01*
X106127074Y-86282203D01*
X106148309Y-86279053D01*
X106169750Y-86278000D01*
X106682250Y-86278000D01*
X106703691Y-86279053D01*
X106703691Y-86279053D01*
G37*
D13*
X106426000Y-86715500D03*
D12*
G36*
X106703691Y-87854053D02*
G01*
X106724926Y-87857203D01*
X106745750Y-87862419D01*
X106765962Y-87869651D01*
X106785368Y-87878830D01*
X106803781Y-87889866D01*
X106821024Y-87902654D01*
X106836930Y-87917070D01*
X106851346Y-87932976D01*
X106864134Y-87950219D01*
X106875170Y-87968632D01*
X106884349Y-87988038D01*
X106891581Y-88008250D01*
X106896797Y-88029074D01*
X106899947Y-88050309D01*
X106901000Y-88071750D01*
X106901000Y-88509250D01*
X106899947Y-88530691D01*
X106896797Y-88551926D01*
X106891581Y-88572750D01*
X106884349Y-88592962D01*
X106875170Y-88612368D01*
X106864134Y-88630781D01*
X106851346Y-88648024D01*
X106836930Y-88663930D01*
X106821024Y-88678346D01*
X106803781Y-88691134D01*
X106785368Y-88702170D01*
X106765962Y-88711349D01*
X106745750Y-88718581D01*
X106724926Y-88723797D01*
X106703691Y-88726947D01*
X106682250Y-88728000D01*
X106169750Y-88728000D01*
X106148309Y-88726947D01*
X106127074Y-88723797D01*
X106106250Y-88718581D01*
X106086038Y-88711349D01*
X106066632Y-88702170D01*
X106048219Y-88691134D01*
X106030976Y-88678346D01*
X106015070Y-88663930D01*
X106000654Y-88648024D01*
X105987866Y-88630781D01*
X105976830Y-88612368D01*
X105967651Y-88592962D01*
X105960419Y-88572750D01*
X105955203Y-88551926D01*
X105952053Y-88530691D01*
X105951000Y-88509250D01*
X105951000Y-88071750D01*
X105952053Y-88050309D01*
X105955203Y-88029074D01*
X105960419Y-88008250D01*
X105967651Y-87988038D01*
X105976830Y-87968632D01*
X105987866Y-87950219D01*
X106000654Y-87932976D01*
X106015070Y-87917070D01*
X106030976Y-87902654D01*
X106048219Y-87889866D01*
X106066632Y-87878830D01*
X106086038Y-87869651D01*
X106106250Y-87862419D01*
X106127074Y-87857203D01*
X106148309Y-87854053D01*
X106169750Y-87853000D01*
X106682250Y-87853000D01*
X106703691Y-87854053D01*
X106703691Y-87854053D01*
G37*
D13*
X106426000Y-88290500D03*
D12*
G36*
X101496691Y-86076053D02*
G01*
X101517926Y-86079203D01*
X101538750Y-86084419D01*
X101558962Y-86091651D01*
X101578368Y-86100830D01*
X101596781Y-86111866D01*
X101614024Y-86124654D01*
X101629930Y-86139070D01*
X101644346Y-86154976D01*
X101657134Y-86172219D01*
X101668170Y-86190632D01*
X101677349Y-86210038D01*
X101684581Y-86230250D01*
X101689797Y-86251074D01*
X101692947Y-86272309D01*
X101694000Y-86293750D01*
X101694000Y-86731250D01*
X101692947Y-86752691D01*
X101689797Y-86773926D01*
X101684581Y-86794750D01*
X101677349Y-86814962D01*
X101668170Y-86834368D01*
X101657134Y-86852781D01*
X101644346Y-86870024D01*
X101629930Y-86885930D01*
X101614024Y-86900346D01*
X101596781Y-86913134D01*
X101578368Y-86924170D01*
X101558962Y-86933349D01*
X101538750Y-86940581D01*
X101517926Y-86945797D01*
X101496691Y-86948947D01*
X101475250Y-86950000D01*
X100962750Y-86950000D01*
X100941309Y-86948947D01*
X100920074Y-86945797D01*
X100899250Y-86940581D01*
X100879038Y-86933349D01*
X100859632Y-86924170D01*
X100841219Y-86913134D01*
X100823976Y-86900346D01*
X100808070Y-86885930D01*
X100793654Y-86870024D01*
X100780866Y-86852781D01*
X100769830Y-86834368D01*
X100760651Y-86814962D01*
X100753419Y-86794750D01*
X100748203Y-86773926D01*
X100745053Y-86752691D01*
X100744000Y-86731250D01*
X100744000Y-86293750D01*
X100745053Y-86272309D01*
X100748203Y-86251074D01*
X100753419Y-86230250D01*
X100760651Y-86210038D01*
X100769830Y-86190632D01*
X100780866Y-86172219D01*
X100793654Y-86154976D01*
X100808070Y-86139070D01*
X100823976Y-86124654D01*
X100841219Y-86111866D01*
X100859632Y-86100830D01*
X100879038Y-86091651D01*
X100899250Y-86084419D01*
X100920074Y-86079203D01*
X100941309Y-86076053D01*
X100962750Y-86075000D01*
X101475250Y-86075000D01*
X101496691Y-86076053D01*
X101496691Y-86076053D01*
G37*
D13*
X101219000Y-86512500D03*
D12*
G36*
X101496691Y-84501053D02*
G01*
X101517926Y-84504203D01*
X101538750Y-84509419D01*
X101558962Y-84516651D01*
X101578368Y-84525830D01*
X101596781Y-84536866D01*
X101614024Y-84549654D01*
X101629930Y-84564070D01*
X101644346Y-84579976D01*
X101657134Y-84597219D01*
X101668170Y-84615632D01*
X101677349Y-84635038D01*
X101684581Y-84655250D01*
X101689797Y-84676074D01*
X101692947Y-84697309D01*
X101694000Y-84718750D01*
X101694000Y-85156250D01*
X101692947Y-85177691D01*
X101689797Y-85198926D01*
X101684581Y-85219750D01*
X101677349Y-85239962D01*
X101668170Y-85259368D01*
X101657134Y-85277781D01*
X101644346Y-85295024D01*
X101629930Y-85310930D01*
X101614024Y-85325346D01*
X101596781Y-85338134D01*
X101578368Y-85349170D01*
X101558962Y-85358349D01*
X101538750Y-85365581D01*
X101517926Y-85370797D01*
X101496691Y-85373947D01*
X101475250Y-85375000D01*
X100962750Y-85375000D01*
X100941309Y-85373947D01*
X100920074Y-85370797D01*
X100899250Y-85365581D01*
X100879038Y-85358349D01*
X100859632Y-85349170D01*
X100841219Y-85338134D01*
X100823976Y-85325346D01*
X100808070Y-85310930D01*
X100793654Y-85295024D01*
X100780866Y-85277781D01*
X100769830Y-85259368D01*
X100760651Y-85239962D01*
X100753419Y-85219750D01*
X100748203Y-85198926D01*
X100745053Y-85177691D01*
X100744000Y-85156250D01*
X100744000Y-84718750D01*
X100745053Y-84697309D01*
X100748203Y-84676074D01*
X100753419Y-84655250D01*
X100760651Y-84635038D01*
X100769830Y-84615632D01*
X100780866Y-84597219D01*
X100793654Y-84579976D01*
X100808070Y-84564070D01*
X100823976Y-84549654D01*
X100841219Y-84536866D01*
X100859632Y-84525830D01*
X100879038Y-84516651D01*
X100899250Y-84509419D01*
X100920074Y-84504203D01*
X100941309Y-84501053D01*
X100962750Y-84500000D01*
X101475250Y-84500000D01*
X101496691Y-84501053D01*
X101496691Y-84501053D01*
G37*
D13*
X101219000Y-84937500D03*
D12*
G36*
X103147691Y-84501053D02*
G01*
X103168926Y-84504203D01*
X103189750Y-84509419D01*
X103209962Y-84516651D01*
X103229368Y-84525830D01*
X103247781Y-84536866D01*
X103265024Y-84549654D01*
X103280930Y-84564070D01*
X103295346Y-84579976D01*
X103308134Y-84597219D01*
X103319170Y-84615632D01*
X103328349Y-84635038D01*
X103335581Y-84655250D01*
X103340797Y-84676074D01*
X103343947Y-84697309D01*
X103345000Y-84718750D01*
X103345000Y-85156250D01*
X103343947Y-85177691D01*
X103340797Y-85198926D01*
X103335581Y-85219750D01*
X103328349Y-85239962D01*
X103319170Y-85259368D01*
X103308134Y-85277781D01*
X103295346Y-85295024D01*
X103280930Y-85310930D01*
X103265024Y-85325346D01*
X103247781Y-85338134D01*
X103229368Y-85349170D01*
X103209962Y-85358349D01*
X103189750Y-85365581D01*
X103168926Y-85370797D01*
X103147691Y-85373947D01*
X103126250Y-85375000D01*
X102613750Y-85375000D01*
X102592309Y-85373947D01*
X102571074Y-85370797D01*
X102550250Y-85365581D01*
X102530038Y-85358349D01*
X102510632Y-85349170D01*
X102492219Y-85338134D01*
X102474976Y-85325346D01*
X102459070Y-85310930D01*
X102444654Y-85295024D01*
X102431866Y-85277781D01*
X102420830Y-85259368D01*
X102411651Y-85239962D01*
X102404419Y-85219750D01*
X102399203Y-85198926D01*
X102396053Y-85177691D01*
X102395000Y-85156250D01*
X102395000Y-84718750D01*
X102396053Y-84697309D01*
X102399203Y-84676074D01*
X102404419Y-84655250D01*
X102411651Y-84635038D01*
X102420830Y-84615632D01*
X102431866Y-84597219D01*
X102444654Y-84579976D01*
X102459070Y-84564070D01*
X102474976Y-84549654D01*
X102492219Y-84536866D01*
X102510632Y-84525830D01*
X102530038Y-84516651D01*
X102550250Y-84509419D01*
X102571074Y-84504203D01*
X102592309Y-84501053D01*
X102613750Y-84500000D01*
X103126250Y-84500000D01*
X103147691Y-84501053D01*
X103147691Y-84501053D01*
G37*
D13*
X102870000Y-84937500D03*
D12*
G36*
X103147691Y-86076053D02*
G01*
X103168926Y-86079203D01*
X103189750Y-86084419D01*
X103209962Y-86091651D01*
X103229368Y-86100830D01*
X103247781Y-86111866D01*
X103265024Y-86124654D01*
X103280930Y-86139070D01*
X103295346Y-86154976D01*
X103308134Y-86172219D01*
X103319170Y-86190632D01*
X103328349Y-86210038D01*
X103335581Y-86230250D01*
X103340797Y-86251074D01*
X103343947Y-86272309D01*
X103345000Y-86293750D01*
X103345000Y-86731250D01*
X103343947Y-86752691D01*
X103340797Y-86773926D01*
X103335581Y-86794750D01*
X103328349Y-86814962D01*
X103319170Y-86834368D01*
X103308134Y-86852781D01*
X103295346Y-86870024D01*
X103280930Y-86885930D01*
X103265024Y-86900346D01*
X103247781Y-86913134D01*
X103229368Y-86924170D01*
X103209962Y-86933349D01*
X103189750Y-86940581D01*
X103168926Y-86945797D01*
X103147691Y-86948947D01*
X103126250Y-86950000D01*
X102613750Y-86950000D01*
X102592309Y-86948947D01*
X102571074Y-86945797D01*
X102550250Y-86940581D01*
X102530038Y-86933349D01*
X102510632Y-86924170D01*
X102492219Y-86913134D01*
X102474976Y-86900346D01*
X102459070Y-86885930D01*
X102444654Y-86870024D01*
X102431866Y-86852781D01*
X102420830Y-86834368D01*
X102411651Y-86814962D01*
X102404419Y-86794750D01*
X102399203Y-86773926D01*
X102396053Y-86752691D01*
X102395000Y-86731250D01*
X102395000Y-86293750D01*
X102396053Y-86272309D01*
X102399203Y-86251074D01*
X102404419Y-86230250D01*
X102411651Y-86210038D01*
X102420830Y-86190632D01*
X102431866Y-86172219D01*
X102444654Y-86154976D01*
X102459070Y-86139070D01*
X102474976Y-86124654D01*
X102492219Y-86111866D01*
X102510632Y-86100830D01*
X102530038Y-86091651D01*
X102550250Y-86084419D01*
X102571074Y-86079203D01*
X102592309Y-86076053D01*
X102613750Y-86075000D01*
X103126250Y-86075000D01*
X103147691Y-86076053D01*
X103147691Y-86076053D01*
G37*
D13*
X102870000Y-86512500D03*
D21*
X100076000Y-86106000D03*
X88900000Y-66040000D03*
X120650000Y-66040000D03*
X105410000Y-66040000D03*
X90375000Y-96135000D03*
X105375000Y-96135000D03*
X118745000Y-96135000D03*
X128270000Y-81280000D03*
X81915000Y-81915000D03*
X102235000Y-78740000D03*
X106680000Y-83185000D03*
X97028000Y-85217000D03*
X107569000Y-86741000D03*
X100838000Y-83566000D03*
X108585000Y-80010000D03*
X103634169Y-83961610D03*
X104394000Y-80391000D03*
D22*
X105930000Y-82435000D02*
X106680000Y-83185000D01*
X104742500Y-82435000D02*
X105930000Y-82435000D01*
X105930000Y-86219500D02*
X106426000Y-86715500D01*
X105930000Y-85122500D02*
X105930000Y-86219500D01*
X105430000Y-86060500D02*
X104775000Y-86715500D01*
X105430000Y-85122500D02*
X105430000Y-86060500D01*
X104775000Y-86715500D02*
X106426000Y-86715500D01*
D23*
X107543500Y-86715500D02*
X107569000Y-86741000D01*
X106426000Y-86715500D02*
X107543500Y-86715500D01*
X100668000Y-83396000D02*
X100838000Y-83566000D01*
X99502000Y-83396000D02*
X100668000Y-83396000D01*
D24*
X104742500Y-82935000D02*
X102493000Y-82935000D01*
X100754000Y-81196000D02*
X99502000Y-81196000D01*
X102493000Y-82935000D02*
X100754000Y-81196000D01*
X99502000Y-80996000D02*
X99502000Y-81196000D01*
X93813000Y-77810000D02*
X96316000Y-77810000D01*
X96316000Y-77810000D02*
X99502000Y-80996000D01*
X92488000Y-79135000D02*
X93813000Y-77810000D01*
X102104000Y-83435000D02*
X104742500Y-83435000D01*
X97602000Y-81196000D02*
X97602000Y-81396000D01*
X97602000Y-81396000D02*
X98600399Y-82394399D01*
X98600399Y-82394399D02*
X101063399Y-82394399D01*
X101063399Y-82394399D02*
X102104000Y-83435000D01*
X97602000Y-80996000D02*
X97602000Y-81196000D01*
X95337999Y-79984999D02*
X96590999Y-79984999D01*
X96590999Y-79984999D02*
X97602000Y-80996000D01*
X94488000Y-79135000D02*
X95337999Y-79984999D01*
D22*
X107255000Y-72237500D02*
X109220000Y-72237500D01*
X106680000Y-72237500D02*
X107255000Y-72237500D01*
X102175000Y-72237500D02*
X104140000Y-72237500D01*
X101600000Y-72237500D02*
X102175000Y-72237500D01*
X106930000Y-80260000D02*
X106930000Y-81247500D01*
X106930000Y-80260000D02*
X107815000Y-79375000D01*
X107815000Y-79375000D02*
X109220000Y-79375000D01*
X109220000Y-73812500D02*
X109220000Y-79375000D01*
D24*
X109220000Y-79375000D02*
X110940000Y-79375000D01*
X111390000Y-79825000D02*
X115165000Y-79825000D01*
X110940000Y-79375000D02*
X111390000Y-79825000D01*
X106771390Y-85976390D02*
X108480890Y-85976390D01*
X109012388Y-86507888D02*
X109474000Y-86969500D01*
X106430000Y-85635000D02*
X106771390Y-85976390D01*
X108480890Y-85976390D02*
X109012388Y-86507888D01*
X106430000Y-85122500D02*
X106430000Y-85635000D01*
D22*
X107430000Y-80735000D02*
X108155000Y-80010000D01*
X107430000Y-81247500D02*
X107430000Y-80735000D01*
X108155000Y-80010000D02*
X108585000Y-80010000D01*
X102364510Y-73047990D02*
X102061612Y-73350888D01*
X105340490Y-73047990D02*
X102364510Y-73047990D01*
X102061612Y-73350888D02*
X101600000Y-73812500D01*
X106105000Y-73812500D02*
X105340490Y-73047990D01*
X106680000Y-73812500D02*
X106105000Y-73812500D01*
X104394000Y-77279500D02*
X104394000Y-80391000D01*
X106680000Y-74993500D02*
X104394000Y-77279500D01*
X106680000Y-73812500D02*
X106680000Y-74993500D01*
D23*
X103660779Y-83935000D02*
X103634169Y-83961610D01*
X104742500Y-83935000D02*
X103660779Y-83935000D01*
X103626500Y-84435000D02*
X103124000Y-84937500D01*
X104742500Y-84435000D02*
X103626500Y-84435000D01*
X103634169Y-84427331D02*
X103124000Y-84937500D01*
X103634169Y-83961610D02*
X103634169Y-84427331D01*
D24*
X103998390Y-87149792D02*
X104399988Y-87551390D01*
X104399988Y-87551390D02*
X108480890Y-87551390D01*
X108480890Y-87551390D02*
X109012388Y-88082888D01*
X109012388Y-88082888D02*
X109474000Y-88544500D01*
X103998390Y-86065890D02*
X103998390Y-87149792D01*
X102870000Y-84937500D02*
X103998390Y-86065890D01*
D23*
X101219000Y-84937500D02*
X102870000Y-84937500D01*
D22*
G36*
X128665001Y-96475000D02*
G01*
X80060000Y-96475000D01*
X80060000Y-92360701D01*
X81090000Y-92360701D01*
X81090000Y-92909299D01*
X81197026Y-93447354D01*
X81406965Y-93954192D01*
X81711750Y-94410334D01*
X82099666Y-94798250D01*
X82555808Y-95103035D01*
X83062646Y-95312974D01*
X83600701Y-95420000D01*
X84149299Y-95420000D01*
X84687354Y-95312974D01*
X85194192Y-95103035D01*
X85650334Y-94798250D01*
X86038250Y-94410334D01*
X86343035Y-93954192D01*
X86552974Y-93447354D01*
X86660000Y-92909299D01*
X86660000Y-92360701D01*
X86610272Y-92110701D01*
X122090000Y-92110701D01*
X122090000Y-92659299D01*
X122197026Y-93197354D01*
X122406965Y-93704192D01*
X122711750Y-94160334D01*
X123099666Y-94548250D01*
X123555808Y-94853035D01*
X124062646Y-95062974D01*
X124600701Y-95170000D01*
X125149299Y-95170000D01*
X125687354Y-95062974D01*
X126194192Y-94853035D01*
X126650334Y-94548250D01*
X127038250Y-94160334D01*
X127343035Y-93704192D01*
X127552974Y-93197354D01*
X127660000Y-92659299D01*
X127660000Y-92110701D01*
X127552974Y-91572646D01*
X127343035Y-91065808D01*
X127038250Y-90609666D01*
X126650334Y-90221750D01*
X126194192Y-89916965D01*
X125687354Y-89707026D01*
X125149299Y-89600000D01*
X124600701Y-89600000D01*
X124062646Y-89707026D01*
X123555808Y-89916965D01*
X123099666Y-90221750D01*
X122711750Y-90609666D01*
X122406965Y-91065808D01*
X122197026Y-91572646D01*
X122090000Y-92110701D01*
X86610272Y-92110701D01*
X86552974Y-91822646D01*
X86343035Y-91315808D01*
X86038250Y-90859666D01*
X85650334Y-90471750D01*
X85194192Y-90166965D01*
X84687354Y-89957026D01*
X84149299Y-89850000D01*
X83600701Y-89850000D01*
X83062646Y-89957026D01*
X82555808Y-90166965D01*
X82099666Y-90471750D01*
X81711750Y-90859666D01*
X81406965Y-91315808D01*
X81197026Y-91822646D01*
X81090000Y-92360701D01*
X80060000Y-92360701D01*
X80060000Y-88074609D01*
X88287997Y-88074609D01*
X88474073Y-88415766D01*
X88891409Y-88631513D01*
X89342815Y-88761696D01*
X89810946Y-88801313D01*
X90277811Y-88748842D01*
X90343264Y-88728000D01*
X103661928Y-88728000D01*
X103674188Y-88852482D01*
X103710498Y-88972180D01*
X103769463Y-89082494D01*
X103848815Y-89179185D01*
X103945506Y-89258537D01*
X104055820Y-89317502D01*
X104175518Y-89353812D01*
X104300000Y-89366072D01*
X104489250Y-89363000D01*
X104648000Y-89204250D01*
X104648000Y-88417500D01*
X104902000Y-88417500D01*
X104902000Y-89204250D01*
X105060750Y-89363000D01*
X105250000Y-89366072D01*
X105374482Y-89353812D01*
X105494180Y-89317502D01*
X105600500Y-89260672D01*
X105706820Y-89317502D01*
X105826518Y-89353812D01*
X105951000Y-89366072D01*
X106140250Y-89363000D01*
X106299000Y-89204250D01*
X106299000Y-88417500D01*
X106553000Y-88417500D01*
X106553000Y-89204250D01*
X106711750Y-89363000D01*
X106901000Y-89366072D01*
X107025482Y-89353812D01*
X107145180Y-89317502D01*
X107255494Y-89258537D01*
X107352185Y-89179185D01*
X107431537Y-89082494D01*
X107490502Y-88972180D01*
X107526812Y-88852482D01*
X107539072Y-88728000D01*
X107536000Y-88576250D01*
X107377250Y-88417500D01*
X106553000Y-88417500D01*
X106299000Y-88417500D01*
X104902000Y-88417500D01*
X104648000Y-88417500D01*
X103823750Y-88417500D01*
X103665000Y-88576250D01*
X103661928Y-88728000D01*
X90343264Y-88728000D01*
X90725468Y-88606297D01*
X91081927Y-88415766D01*
X91268003Y-88074609D01*
X89778000Y-86584605D01*
X88287997Y-88074609D01*
X80060000Y-88074609D01*
X80060000Y-86437946D01*
X87381687Y-86437946D01*
X87434158Y-86904811D01*
X87576703Y-87352468D01*
X87767234Y-87708927D01*
X88108391Y-87895003D01*
X89598395Y-86405000D01*
X89957605Y-86405000D01*
X91447609Y-87895003D01*
X91788766Y-87708927D01*
X92004513Y-87291591D01*
X92103025Y-86950000D01*
X100105928Y-86950000D01*
X100118188Y-87074482D01*
X100154498Y-87194180D01*
X100213463Y-87304494D01*
X100292815Y-87401185D01*
X100389506Y-87480537D01*
X100499820Y-87539502D01*
X100619518Y-87575812D01*
X100744000Y-87588072D01*
X100933250Y-87585000D01*
X101092000Y-87426250D01*
X101092000Y-86639500D01*
X101346000Y-86639500D01*
X101346000Y-87426250D01*
X101504750Y-87585000D01*
X101694000Y-87588072D01*
X101818482Y-87575812D01*
X101938180Y-87539502D01*
X102044500Y-87482672D01*
X102150820Y-87539502D01*
X102270518Y-87575812D01*
X102395000Y-87588072D01*
X102584250Y-87585000D01*
X102743000Y-87426250D01*
X102743000Y-86639500D01*
X101346000Y-86639500D01*
X101092000Y-86639500D01*
X100267750Y-86639500D01*
X100109000Y-86798250D01*
X100105928Y-86950000D01*
X92103025Y-86950000D01*
X92134696Y-86840185D01*
X92174313Y-86372054D01*
X92121842Y-85905189D01*
X91979297Y-85457532D01*
X91788766Y-85101073D01*
X91447609Y-84914997D01*
X89957605Y-86405000D01*
X89598395Y-86405000D01*
X88108391Y-84914997D01*
X87767234Y-85101073D01*
X87551487Y-85518409D01*
X87421304Y-85969815D01*
X87381687Y-86437946D01*
X80060000Y-86437946D01*
X80060000Y-84735391D01*
X88287997Y-84735391D01*
X89778000Y-86225395D01*
X91268003Y-84735391D01*
X91081927Y-84394234D01*
X90664591Y-84178487D01*
X90378570Y-84096000D01*
X96543928Y-84096000D01*
X96556188Y-84220482D01*
X96592498Y-84340180D01*
X96651463Y-84450494D01*
X96730815Y-84547185D01*
X96827506Y-84626537D01*
X96937820Y-84685502D01*
X97057518Y-84721812D01*
X97182000Y-84734072D01*
X97496250Y-84731000D01*
X97655000Y-84572250D01*
X97655000Y-83523000D01*
X96705750Y-83523000D01*
X96547000Y-83681750D01*
X96543928Y-84096000D01*
X90378570Y-84096000D01*
X90213185Y-84048304D01*
X89745054Y-84008687D01*
X89278189Y-84061158D01*
X88830532Y-84203703D01*
X88474073Y-84394234D01*
X88287997Y-84735391D01*
X80060000Y-84735391D01*
X80060000Y-81703531D01*
X90997389Y-81703531D01*
X91039401Y-81993019D01*
X91137081Y-82268747D01*
X91210528Y-82406157D01*
X91459603Y-82483792D01*
X92308395Y-81635000D01*
X91459603Y-80786208D01*
X91210528Y-80863843D01*
X91084629Y-81127883D01*
X91012661Y-81411411D01*
X90997389Y-81703531D01*
X80060000Y-81703531D01*
X80060000Y-78988740D01*
X91003000Y-78988740D01*
X91003000Y-79281260D01*
X91060068Y-79568158D01*
X91172010Y-79838411D01*
X91334525Y-80081632D01*
X91541368Y-80288475D01*
X91704410Y-80397416D01*
X91639208Y-80606603D01*
X92488000Y-81455395D01*
X92502143Y-81441253D01*
X92681748Y-81620858D01*
X92667605Y-81635000D01*
X92681748Y-81649143D01*
X92502143Y-81828748D01*
X92488000Y-81814605D01*
X91639208Y-82663397D01*
X91716843Y-82912472D01*
X91980883Y-83038371D01*
X92264411Y-83110339D01*
X92556531Y-83125611D01*
X92846019Y-83083599D01*
X93121747Y-82985919D01*
X93197850Y-82945241D01*
X93283506Y-83015537D01*
X93393820Y-83074502D01*
X93513518Y-83110812D01*
X93638000Y-83123072D01*
X95338000Y-83123072D01*
X95462482Y-83110812D01*
X95582180Y-83074502D01*
X95692494Y-83015537D01*
X95789185Y-82936185D01*
X95868537Y-82839494D01*
X95927502Y-82729180D01*
X95963812Y-82609482D01*
X95976072Y-82485000D01*
X95976072Y-80785000D01*
X95969828Y-80721599D01*
X96285890Y-80721599D01*
X96463928Y-80899637D01*
X96463928Y-81896000D01*
X96476188Y-82020482D01*
X96512498Y-82140180D01*
X96571463Y-82250494D01*
X96649369Y-82345423D01*
X96592498Y-82451820D01*
X96556188Y-82571518D01*
X96543928Y-82696000D01*
X96547000Y-83110250D01*
X96705750Y-83269000D01*
X97655000Y-83269000D01*
X97655000Y-83249000D01*
X97909000Y-83249000D01*
X97909000Y-83269000D01*
X97929000Y-83269000D01*
X97929000Y-83523000D01*
X97909000Y-83523000D01*
X97909000Y-84572250D01*
X98067750Y-84731000D01*
X98382000Y-84734072D01*
X98506482Y-84721812D01*
X98626180Y-84685502D01*
X98692000Y-84650320D01*
X98757820Y-84685502D01*
X98877518Y-84721812D01*
X99002000Y-84734072D01*
X100002000Y-84734072D01*
X100105928Y-84723836D01*
X100105928Y-85156250D01*
X100122392Y-85323408D01*
X100171150Y-85484142D01*
X100250329Y-85632275D01*
X100268100Y-85653930D01*
X100213463Y-85720506D01*
X100154498Y-85830820D01*
X100118188Y-85950518D01*
X100105928Y-86075000D01*
X100109000Y-86226750D01*
X100267750Y-86385500D01*
X101092000Y-86385500D01*
X101092000Y-86365500D01*
X101346000Y-86365500D01*
X101346000Y-86385500D01*
X102743000Y-86385500D01*
X102743000Y-86365500D01*
X102997000Y-86365500D01*
X102997000Y-86385500D01*
X103017000Y-86385500D01*
X103017000Y-86639500D01*
X102997000Y-86639500D01*
X102997000Y-87426250D01*
X103155750Y-87585000D01*
X103345000Y-87588072D01*
X103400680Y-87582588D01*
X103422208Y-87608820D01*
X103475016Y-87673167D01*
X103503123Y-87696234D01*
X103661970Y-87855081D01*
X103665000Y-88004750D01*
X103823750Y-88163500D01*
X103984737Y-88163500D01*
X103988775Y-88166814D01*
X104116739Y-88235212D01*
X104255589Y-88277332D01*
X104363802Y-88287990D01*
X104363811Y-88287990D01*
X104399987Y-88291553D01*
X104436163Y-88287990D01*
X108175781Y-88287990D01*
X108360928Y-88473138D01*
X108360928Y-88763250D01*
X108377392Y-88930408D01*
X108426150Y-89091142D01*
X108505329Y-89239275D01*
X108611885Y-89369115D01*
X108741725Y-89475671D01*
X108889858Y-89554850D01*
X109050592Y-89603608D01*
X109217750Y-89620072D01*
X109730250Y-89620072D01*
X109897408Y-89603608D01*
X110058142Y-89554850D01*
X110206275Y-89475671D01*
X110336115Y-89369115D01*
X110442671Y-89239275D01*
X110521850Y-89091142D01*
X110570608Y-88930408D01*
X110587072Y-88763250D01*
X110587072Y-88325750D01*
X110570608Y-88158592D01*
X110521850Y-87997858D01*
X110442671Y-87849725D01*
X110366574Y-87757000D01*
X110442671Y-87664275D01*
X110521850Y-87516142D01*
X110570608Y-87355408D01*
X110587072Y-87188250D01*
X110587072Y-86750750D01*
X110570608Y-86583592D01*
X110521850Y-86422858D01*
X110442671Y-86274725D01*
X110336115Y-86144885D01*
X110206275Y-86038329D01*
X110058142Y-85959150D01*
X109897408Y-85910392D01*
X109730250Y-85893928D01*
X109440138Y-85893928D01*
X109027335Y-85481126D01*
X109004265Y-85453015D01*
X108892103Y-85360966D01*
X108819968Y-85322409D01*
X119255000Y-85322409D01*
X119255000Y-85767591D01*
X119341851Y-86204218D01*
X119512214Y-86615511D01*
X119759544Y-86985666D01*
X120074334Y-87300456D01*
X120444489Y-87547786D01*
X120855782Y-87718149D01*
X121292409Y-87805000D01*
X121737591Y-87805000D01*
X122174218Y-87718149D01*
X122585511Y-87547786D01*
X122955666Y-87300456D01*
X123270456Y-86985666D01*
X123517786Y-86615511D01*
X123688149Y-86204218D01*
X123775000Y-85767591D01*
X123775000Y-85322409D01*
X123688149Y-84885782D01*
X123517786Y-84474489D01*
X123270456Y-84104334D01*
X122955666Y-83789544D01*
X122585511Y-83542214D01*
X122174218Y-83371851D01*
X121737591Y-83285000D01*
X121292409Y-83285000D01*
X120855782Y-83371851D01*
X120444489Y-83542214D01*
X120074334Y-83789544D01*
X119759544Y-84104334D01*
X119512214Y-84474489D01*
X119341851Y-84885782D01*
X119255000Y-85322409D01*
X108819968Y-85322409D01*
X108764139Y-85292568D01*
X108693072Y-85271010D01*
X108693072Y-85198072D01*
X108967500Y-85198072D01*
X109104175Y-85184611D01*
X109235597Y-85144744D01*
X109356717Y-85080004D01*
X109462879Y-84992879D01*
X109550004Y-84886717D01*
X109614744Y-84765597D01*
X109654611Y-84634175D01*
X109668072Y-84497500D01*
X109668072Y-84372500D01*
X109654611Y-84235825D01*
X109639193Y-84185000D01*
X109654611Y-84134175D01*
X109668072Y-83997500D01*
X109668072Y-83872500D01*
X109654611Y-83735825D01*
X109639193Y-83685000D01*
X109654611Y-83634175D01*
X109668072Y-83497500D01*
X109668072Y-83372500D01*
X109654611Y-83235825D01*
X109639193Y-83185000D01*
X109654611Y-83134175D01*
X109668072Y-82997500D01*
X109668072Y-82872500D01*
X109654611Y-82735825D01*
X109639193Y-82685000D01*
X109654611Y-82634175D01*
X109668072Y-82497500D01*
X109668072Y-82372500D01*
X109654611Y-82235825D01*
X109639193Y-82185000D01*
X109654611Y-82134175D01*
X109668072Y-81997500D01*
X109668072Y-81872500D01*
X109654611Y-81735825D01*
X109614744Y-81604403D01*
X109550004Y-81483283D01*
X109462879Y-81377121D01*
X109356717Y-81289996D01*
X109235597Y-81225256D01*
X109104175Y-81185389D01*
X108967500Y-81171928D01*
X108693072Y-81171928D01*
X108693072Y-80897500D01*
X108689967Y-80865969D01*
X108835853Y-80836951D01*
X108992363Y-80772122D01*
X109133218Y-80678005D01*
X109253005Y-80558218D01*
X109347122Y-80417363D01*
X109411951Y-80260853D01*
X109441639Y-80111600D01*
X110634891Y-80111600D01*
X110843554Y-80320263D01*
X110866625Y-80348375D01*
X110978787Y-80440424D01*
X111106751Y-80508822D01*
X111245601Y-80550942D01*
X111335161Y-80559763D01*
X111304076Y-80625892D01*
X111237939Y-80892606D01*
X111225105Y-81167097D01*
X111266069Y-81438817D01*
X111359256Y-81697326D01*
X111420975Y-81812794D01*
X111660863Y-81879531D01*
X112445395Y-81095000D01*
X112431252Y-81080858D01*
X112610858Y-80901253D01*
X112625000Y-80915395D01*
X112639143Y-80901253D01*
X112818748Y-81080858D01*
X112804605Y-81095000D01*
X113589137Y-81879531D01*
X113829025Y-81812794D01*
X113945924Y-81564108D01*
X114012061Y-81297394D01*
X114024895Y-81022903D01*
X113983931Y-80751183D01*
X113915590Y-80561600D01*
X113979428Y-80561600D01*
X114081433Y-80714261D01*
X114275739Y-80908567D01*
X114504220Y-81061233D01*
X114585740Y-81095000D01*
X114504220Y-81128767D01*
X114275739Y-81281433D01*
X114081433Y-81475739D01*
X113928767Y-81704220D01*
X113823609Y-81958093D01*
X113770000Y-82227604D01*
X113770000Y-82369499D01*
X113739494Y-82344463D01*
X113629180Y-82285498D01*
X113509482Y-82249188D01*
X113385000Y-82236928D01*
X113360069Y-82236928D01*
X113409531Y-82059137D01*
X112625000Y-81274605D01*
X111840469Y-82059137D01*
X111889931Y-82236928D01*
X111865000Y-82236928D01*
X111740518Y-82249188D01*
X111620820Y-82285498D01*
X111510506Y-82344463D01*
X111413815Y-82423815D01*
X111334463Y-82520506D01*
X111275498Y-82630820D01*
X111239188Y-82750518D01*
X111226928Y-82875000D01*
X111226928Y-84395000D01*
X111239188Y-84519482D01*
X111275498Y-84639180D01*
X111334463Y-84749494D01*
X111413815Y-84846185D01*
X111510506Y-84925537D01*
X111620820Y-84984502D01*
X111740518Y-85020812D01*
X111865000Y-85033072D01*
X113385000Y-85033072D01*
X113509482Y-85020812D01*
X113629180Y-84984502D01*
X113739494Y-84925537D01*
X113836185Y-84846185D01*
X113915537Y-84749494D01*
X113974502Y-84639180D01*
X114010812Y-84519482D01*
X114023072Y-84395000D01*
X114023072Y-83166918D01*
X114081433Y-83254261D01*
X114275739Y-83448567D01*
X114504220Y-83601233D01*
X114758093Y-83706391D01*
X115027604Y-83760000D01*
X115302396Y-83760000D01*
X115571907Y-83706391D01*
X115825780Y-83601233D01*
X116054261Y-83448567D01*
X116248567Y-83254261D01*
X116401233Y-83025780D01*
X116506391Y-82771907D01*
X116560000Y-82502396D01*
X116560000Y-82227604D01*
X116506391Y-81958093D01*
X116401233Y-81704220D01*
X116248567Y-81475739D01*
X116054261Y-81281433D01*
X115825780Y-81128767D01*
X115744260Y-81095000D01*
X115825780Y-81061233D01*
X116054261Y-80908567D01*
X116248567Y-80714261D01*
X116401233Y-80485780D01*
X116506391Y-80231907D01*
X116560000Y-79962396D01*
X116560000Y-79687604D01*
X116506391Y-79418093D01*
X116401233Y-79164220D01*
X116248567Y-78935739D01*
X116054261Y-78741433D01*
X115825780Y-78588767D01*
X115744260Y-78555000D01*
X115825780Y-78521233D01*
X116054261Y-78368567D01*
X116248567Y-78174261D01*
X116401233Y-77945780D01*
X116506391Y-77691907D01*
X116560000Y-77422396D01*
X116560000Y-77147604D01*
X116506391Y-76878093D01*
X116401233Y-76624220D01*
X116248567Y-76395739D01*
X116054261Y-76201433D01*
X115825780Y-76048767D01*
X115571907Y-75943609D01*
X115302396Y-75890000D01*
X115027604Y-75890000D01*
X114758093Y-75943609D01*
X114504220Y-76048767D01*
X114275739Y-76201433D01*
X114081433Y-76395739D01*
X113928767Y-76624220D01*
X113823609Y-76878093D01*
X113770000Y-77147604D01*
X113770000Y-77422396D01*
X113823609Y-77691907D01*
X113928767Y-77945780D01*
X114081433Y-78174261D01*
X114275739Y-78368567D01*
X114504220Y-78521233D01*
X114585740Y-78555000D01*
X114504220Y-78588767D01*
X114275739Y-78741433D01*
X114081433Y-78935739D01*
X113979428Y-79088400D01*
X113913996Y-79088400D01*
X113966391Y-78961907D01*
X114020000Y-78692396D01*
X114020000Y-78417604D01*
X113966391Y-78148093D01*
X113861233Y-77894220D01*
X113708567Y-77665739D01*
X113514261Y-77471433D01*
X113285780Y-77318767D01*
X113031907Y-77213609D01*
X112762396Y-77160000D01*
X112487604Y-77160000D01*
X112218093Y-77213609D01*
X111964220Y-77318767D01*
X111735739Y-77471433D01*
X111541433Y-77665739D01*
X111388767Y-77894220D01*
X111283609Y-78148093D01*
X111230000Y-78417604D01*
X111230000Y-78692396D01*
X111230532Y-78695071D01*
X111223249Y-78691178D01*
X111084399Y-78649058D01*
X110976186Y-78638400D01*
X110976183Y-78638400D01*
X110940000Y-78634836D01*
X110903817Y-78638400D01*
X109982000Y-78638400D01*
X109982000Y-75162409D01*
X119255000Y-75162409D01*
X119255000Y-75607591D01*
X119341851Y-76044218D01*
X119512214Y-76455511D01*
X119759544Y-76825666D01*
X120074334Y-77140456D01*
X120444489Y-77387786D01*
X120855782Y-77558149D01*
X121292409Y-77645000D01*
X121737591Y-77645000D01*
X122174218Y-77558149D01*
X122585511Y-77387786D01*
X122955666Y-77140456D01*
X123270456Y-76825666D01*
X123517786Y-76455511D01*
X123688149Y-76044218D01*
X123775000Y-75607591D01*
X123775000Y-75162409D01*
X123688149Y-74725782D01*
X123517786Y-74314489D01*
X123270456Y-73944334D01*
X122955666Y-73629544D01*
X122585511Y-73382214D01*
X122174218Y-73211851D01*
X121737591Y-73125000D01*
X121292409Y-73125000D01*
X120855782Y-73211851D01*
X120444489Y-73382214D01*
X120074334Y-73629544D01*
X119759544Y-73944334D01*
X119512214Y-74314489D01*
X119341851Y-74725782D01*
X119255000Y-75162409D01*
X109982000Y-75162409D01*
X109982000Y-74719277D01*
X110082115Y-74637115D01*
X110188671Y-74507275D01*
X110267850Y-74359142D01*
X110316608Y-74198408D01*
X110333072Y-74031250D01*
X110333072Y-73593750D01*
X110316608Y-73426592D01*
X110267850Y-73265858D01*
X110188671Y-73117725D01*
X110112574Y-73025000D01*
X110188671Y-72932275D01*
X110267850Y-72784142D01*
X110316608Y-72623408D01*
X110333072Y-72456250D01*
X110333072Y-72018750D01*
X110316608Y-71851592D01*
X110267850Y-71690858D01*
X110188671Y-71542725D01*
X110082115Y-71412885D01*
X109952275Y-71306329D01*
X109804142Y-71227150D01*
X109643408Y-71178392D01*
X109476250Y-71161928D01*
X108963750Y-71161928D01*
X108796592Y-71178392D01*
X108635858Y-71227150D01*
X108487725Y-71306329D01*
X108357885Y-71412885D01*
X108306499Y-71475500D01*
X107593501Y-71475500D01*
X107542115Y-71412885D01*
X107412275Y-71306329D01*
X107264142Y-71227150D01*
X107103408Y-71178392D01*
X106936250Y-71161928D01*
X106423750Y-71161928D01*
X106256592Y-71178392D01*
X106095858Y-71227150D01*
X105947725Y-71306329D01*
X105817885Y-71412885D01*
X105711329Y-71542725D01*
X105632150Y-71690858D01*
X105583392Y-71851592D01*
X105566928Y-72018750D01*
X105566928Y-72320392D01*
X105489868Y-72297016D01*
X105377916Y-72285990D01*
X105377913Y-72285990D01*
X105340490Y-72282304D01*
X105303067Y-72285990D01*
X105253072Y-72285990D01*
X105253072Y-72018750D01*
X105236608Y-71851592D01*
X105187850Y-71690858D01*
X105108671Y-71542725D01*
X105002115Y-71412885D01*
X104872275Y-71306329D01*
X104724142Y-71227150D01*
X104563408Y-71178392D01*
X104396250Y-71161928D01*
X103883750Y-71161928D01*
X103716592Y-71178392D01*
X103555858Y-71227150D01*
X103407725Y-71306329D01*
X103277885Y-71412885D01*
X103226499Y-71475500D01*
X102513501Y-71475500D01*
X102462115Y-71412885D01*
X102332275Y-71306329D01*
X102184142Y-71227150D01*
X102023408Y-71178392D01*
X101856250Y-71161928D01*
X101343750Y-71161928D01*
X101176592Y-71178392D01*
X101015858Y-71227150D01*
X100867725Y-71306329D01*
X100737885Y-71412885D01*
X100631329Y-71542725D01*
X100552150Y-71690858D01*
X100503392Y-71851592D01*
X100486928Y-72018750D01*
X100486928Y-72456250D01*
X100503392Y-72623408D01*
X100552150Y-72784142D01*
X100631329Y-72932275D01*
X100707426Y-73025000D01*
X100631329Y-73117725D01*
X100552150Y-73265858D01*
X100503392Y-73426592D01*
X100486928Y-73593750D01*
X100486928Y-74031250D01*
X100503392Y-74198408D01*
X100552150Y-74359142D01*
X100631329Y-74507275D01*
X100737885Y-74637115D01*
X100867725Y-74743671D01*
X101015858Y-74822850D01*
X101176592Y-74871608D01*
X101343750Y-74888072D01*
X101856250Y-74888072D01*
X102023408Y-74871608D01*
X102184142Y-74822850D01*
X102332275Y-74743671D01*
X102462115Y-74637115D01*
X102568671Y-74507275D01*
X102647850Y-74359142D01*
X102680957Y-74250000D01*
X103026928Y-74250000D01*
X103039188Y-74374482D01*
X103075498Y-74494180D01*
X103134463Y-74604494D01*
X103213815Y-74701185D01*
X103310506Y-74780537D01*
X103420820Y-74839502D01*
X103540518Y-74875812D01*
X103665000Y-74888072D01*
X103854250Y-74885000D01*
X104013000Y-74726250D01*
X104013000Y-73939500D01*
X103188750Y-73939500D01*
X103030000Y-74098250D01*
X103026928Y-74250000D01*
X102680957Y-74250000D01*
X102696608Y-74198408D01*
X102713072Y-74031250D01*
X102713072Y-73809990D01*
X104287000Y-73809990D01*
X104287000Y-73939500D01*
X104267000Y-73939500D01*
X104267000Y-74726250D01*
X104425750Y-74885000D01*
X104615000Y-74888072D01*
X104739482Y-74875812D01*
X104859180Y-74839502D01*
X104969494Y-74780537D01*
X105066185Y-74701185D01*
X105145537Y-74604494D01*
X105204502Y-74494180D01*
X105240812Y-74374482D01*
X105253072Y-74250000D01*
X105250000Y-74098250D01*
X105091252Y-73939502D01*
X105154372Y-73939502D01*
X105539720Y-74324851D01*
X105563578Y-74353922D01*
X105679608Y-74449145D01*
X105680518Y-74449631D01*
X105711329Y-74507275D01*
X105817885Y-74637115D01*
X105895257Y-74700612D01*
X103881654Y-76714216D01*
X103852578Y-76738078D01*
X103796983Y-76805822D01*
X103757355Y-76854108D01*
X103744535Y-76878093D01*
X103686598Y-76986486D01*
X103643026Y-77130123D01*
X103634804Y-77213609D01*
X103628314Y-77279500D01*
X103632000Y-77316923D01*
X103632001Y-79983453D01*
X103631878Y-79983637D01*
X103567049Y-80140147D01*
X103534000Y-80306297D01*
X103534000Y-80475703D01*
X103567049Y-80641853D01*
X103631878Y-80798363D01*
X103725995Y-80939218D01*
X103845782Y-81059005D01*
X103986637Y-81153122D01*
X104143147Y-81217951D01*
X104146370Y-81218592D01*
X104124403Y-81225256D01*
X104003283Y-81289996D01*
X103897121Y-81377121D01*
X103809996Y-81483283D01*
X103745256Y-81604403D01*
X103705389Y-81735825D01*
X103691928Y-81872500D01*
X103691928Y-81997500D01*
X103705389Y-82134175D01*
X103712098Y-82156290D01*
X103707232Y-82171089D01*
X103704055Y-82198400D01*
X102798109Y-82198400D01*
X101300446Y-80700737D01*
X101277375Y-80672625D01*
X101165213Y-80580576D01*
X101037249Y-80512178D01*
X100898399Y-80470058D01*
X100790186Y-80459400D01*
X100790183Y-80459400D01*
X100754000Y-80455836D01*
X100717817Y-80459400D01*
X100636467Y-80459400D01*
X100627812Y-80371518D01*
X100591502Y-80251820D01*
X100532537Y-80141506D01*
X100453185Y-80044815D01*
X100356494Y-79965463D01*
X100246180Y-79906498D01*
X100126482Y-79870188D01*
X100002000Y-79857928D01*
X99405637Y-79857928D01*
X96862446Y-77314737D01*
X96839375Y-77286625D01*
X96727213Y-77194576D01*
X96599249Y-77126178D01*
X96460399Y-77084058D01*
X96352186Y-77073400D01*
X96352183Y-77073400D01*
X96316000Y-77069836D01*
X96279817Y-77073400D01*
X93849186Y-77073400D01*
X93813000Y-77069836D01*
X93776814Y-77073400D01*
X93668601Y-77084058D01*
X93529751Y-77126178D01*
X93401787Y-77194576D01*
X93343911Y-77242074D01*
X93289625Y-77286625D01*
X93266559Y-77314731D01*
X92882009Y-77699281D01*
X92634260Y-77650000D01*
X92341740Y-77650000D01*
X92054842Y-77707068D01*
X91784589Y-77819010D01*
X91541368Y-77981525D01*
X91334525Y-78188368D01*
X91172010Y-78431589D01*
X91060068Y-78701842D01*
X91003000Y-78988740D01*
X80060000Y-78988740D01*
X80060000Y-76034609D01*
X88287997Y-76034609D01*
X88474073Y-76375766D01*
X88891409Y-76591513D01*
X89342815Y-76721696D01*
X89810946Y-76761313D01*
X90277811Y-76708842D01*
X90725468Y-76566297D01*
X91081927Y-76375766D01*
X91268003Y-76034609D01*
X89778000Y-74544605D01*
X88287997Y-76034609D01*
X80060000Y-76034609D01*
X80060000Y-74397946D01*
X87381687Y-74397946D01*
X87434158Y-74864811D01*
X87576703Y-75312468D01*
X87767234Y-75668927D01*
X88108391Y-75855003D01*
X89598395Y-74365000D01*
X89957605Y-74365000D01*
X91447609Y-75855003D01*
X91788766Y-75668927D01*
X92004513Y-75251591D01*
X92134696Y-74800185D01*
X92174313Y-74332054D01*
X92121842Y-73865189D01*
X91979297Y-73417532D01*
X91788766Y-73061073D01*
X91447609Y-72874997D01*
X89957605Y-74365000D01*
X89598395Y-74365000D01*
X88108391Y-72874997D01*
X87767234Y-73061073D01*
X87551487Y-73478409D01*
X87421304Y-73929815D01*
X87381687Y-74397946D01*
X80060000Y-74397946D01*
X80060000Y-72695391D01*
X88287997Y-72695391D01*
X89778000Y-74185395D01*
X91268003Y-72695391D01*
X91081927Y-72354234D01*
X90664591Y-72138487D01*
X90213185Y-72008304D01*
X89745054Y-71968687D01*
X89278189Y-72021158D01*
X88830532Y-72163703D01*
X88474073Y-72354234D01*
X88287997Y-72695391D01*
X80060000Y-72695391D01*
X80060000Y-68305701D01*
X81090000Y-68305701D01*
X81090000Y-68854299D01*
X81197026Y-69392354D01*
X81406965Y-69899192D01*
X81711750Y-70355334D01*
X82099666Y-70743250D01*
X82555808Y-71048035D01*
X83062646Y-71257974D01*
X83600701Y-71365000D01*
X84149299Y-71365000D01*
X84687354Y-71257974D01*
X85194192Y-71048035D01*
X85650334Y-70743250D01*
X86038250Y-70355334D01*
X86343035Y-69899192D01*
X86552974Y-69392354D01*
X86660000Y-68854299D01*
X86660000Y-68305701D01*
X122090000Y-68305701D01*
X122090000Y-68854299D01*
X122197026Y-69392354D01*
X122406965Y-69899192D01*
X122711750Y-70355334D01*
X123099666Y-70743250D01*
X123555808Y-71048035D01*
X124062646Y-71257974D01*
X124600701Y-71365000D01*
X125149299Y-71365000D01*
X125687354Y-71257974D01*
X126194192Y-71048035D01*
X126650334Y-70743250D01*
X127038250Y-70355334D01*
X127343035Y-69899192D01*
X127552974Y-69392354D01*
X127660000Y-68854299D01*
X127660000Y-68305701D01*
X127552974Y-67767646D01*
X127343035Y-67260808D01*
X127038250Y-66804666D01*
X126650334Y-66416750D01*
X126194192Y-66111965D01*
X125687354Y-65902026D01*
X125149299Y-65795000D01*
X124600701Y-65795000D01*
X124062646Y-65902026D01*
X123555808Y-66111965D01*
X123099666Y-66416750D01*
X122711750Y-66804666D01*
X122406965Y-67260808D01*
X122197026Y-67767646D01*
X122090000Y-68305701D01*
X86660000Y-68305701D01*
X86552974Y-67767646D01*
X86343035Y-67260808D01*
X86038250Y-66804666D01*
X85650334Y-66416750D01*
X85194192Y-66111965D01*
X84687354Y-65902026D01*
X84149299Y-65795000D01*
X83600701Y-65795000D01*
X83062646Y-65902026D01*
X82555808Y-66111965D01*
X82099666Y-66416750D01*
X81711750Y-66804666D01*
X81406965Y-67260808D01*
X81197026Y-67767646D01*
X81090000Y-68305701D01*
X80060000Y-68305701D01*
X80060000Y-64795000D01*
X128665000Y-64795000D01*
X128665001Y-96475000D01*
X128665001Y-96475000D01*
G37*
X128665001Y-96475000D02*
X80060000Y-96475000D01*
X80060000Y-92360701D01*
X81090000Y-92360701D01*
X81090000Y-92909299D01*
X81197026Y-93447354D01*
X81406965Y-93954192D01*
X81711750Y-94410334D01*
X82099666Y-94798250D01*
X82555808Y-95103035D01*
X83062646Y-95312974D01*
X83600701Y-95420000D01*
X84149299Y-95420000D01*
X84687354Y-95312974D01*
X85194192Y-95103035D01*
X85650334Y-94798250D01*
X86038250Y-94410334D01*
X86343035Y-93954192D01*
X86552974Y-93447354D01*
X86660000Y-92909299D01*
X86660000Y-92360701D01*
X86610272Y-92110701D01*
X122090000Y-92110701D01*
X122090000Y-92659299D01*
X122197026Y-93197354D01*
X122406965Y-93704192D01*
X122711750Y-94160334D01*
X123099666Y-94548250D01*
X123555808Y-94853035D01*
X124062646Y-95062974D01*
X124600701Y-95170000D01*
X125149299Y-95170000D01*
X125687354Y-95062974D01*
X126194192Y-94853035D01*
X126650334Y-94548250D01*
X127038250Y-94160334D01*
X127343035Y-93704192D01*
X127552974Y-93197354D01*
X127660000Y-92659299D01*
X127660000Y-92110701D01*
X127552974Y-91572646D01*
X127343035Y-91065808D01*
X127038250Y-90609666D01*
X126650334Y-90221750D01*
X126194192Y-89916965D01*
X125687354Y-89707026D01*
X125149299Y-89600000D01*
X124600701Y-89600000D01*
X124062646Y-89707026D01*
X123555808Y-89916965D01*
X123099666Y-90221750D01*
X122711750Y-90609666D01*
X122406965Y-91065808D01*
X122197026Y-91572646D01*
X122090000Y-92110701D01*
X86610272Y-92110701D01*
X86552974Y-91822646D01*
X86343035Y-91315808D01*
X86038250Y-90859666D01*
X85650334Y-90471750D01*
X85194192Y-90166965D01*
X84687354Y-89957026D01*
X84149299Y-89850000D01*
X83600701Y-89850000D01*
X83062646Y-89957026D01*
X82555808Y-90166965D01*
X82099666Y-90471750D01*
X81711750Y-90859666D01*
X81406965Y-91315808D01*
X81197026Y-91822646D01*
X81090000Y-92360701D01*
X80060000Y-92360701D01*
X80060000Y-88074609D01*
X88287997Y-88074609D01*
X88474073Y-88415766D01*
X88891409Y-88631513D01*
X89342815Y-88761696D01*
X89810946Y-88801313D01*
X90277811Y-88748842D01*
X90343264Y-88728000D01*
X103661928Y-88728000D01*
X103674188Y-88852482D01*
X103710498Y-88972180D01*
X103769463Y-89082494D01*
X103848815Y-89179185D01*
X103945506Y-89258537D01*
X104055820Y-89317502D01*
X104175518Y-89353812D01*
X104300000Y-89366072D01*
X104489250Y-89363000D01*
X104648000Y-89204250D01*
X104648000Y-88417500D01*
X104902000Y-88417500D01*
X104902000Y-89204250D01*
X105060750Y-89363000D01*
X105250000Y-89366072D01*
X105374482Y-89353812D01*
X105494180Y-89317502D01*
X105600500Y-89260672D01*
X105706820Y-89317502D01*
X105826518Y-89353812D01*
X105951000Y-89366072D01*
X106140250Y-89363000D01*
X106299000Y-89204250D01*
X106299000Y-88417500D01*
X106553000Y-88417500D01*
X106553000Y-89204250D01*
X106711750Y-89363000D01*
X106901000Y-89366072D01*
X107025482Y-89353812D01*
X107145180Y-89317502D01*
X107255494Y-89258537D01*
X107352185Y-89179185D01*
X107431537Y-89082494D01*
X107490502Y-88972180D01*
X107526812Y-88852482D01*
X107539072Y-88728000D01*
X107536000Y-88576250D01*
X107377250Y-88417500D01*
X106553000Y-88417500D01*
X106299000Y-88417500D01*
X104902000Y-88417500D01*
X104648000Y-88417500D01*
X103823750Y-88417500D01*
X103665000Y-88576250D01*
X103661928Y-88728000D01*
X90343264Y-88728000D01*
X90725468Y-88606297D01*
X91081927Y-88415766D01*
X91268003Y-88074609D01*
X89778000Y-86584605D01*
X88287997Y-88074609D01*
X80060000Y-88074609D01*
X80060000Y-86437946D01*
X87381687Y-86437946D01*
X87434158Y-86904811D01*
X87576703Y-87352468D01*
X87767234Y-87708927D01*
X88108391Y-87895003D01*
X89598395Y-86405000D01*
X89957605Y-86405000D01*
X91447609Y-87895003D01*
X91788766Y-87708927D01*
X92004513Y-87291591D01*
X92103025Y-86950000D01*
X100105928Y-86950000D01*
X100118188Y-87074482D01*
X100154498Y-87194180D01*
X100213463Y-87304494D01*
X100292815Y-87401185D01*
X100389506Y-87480537D01*
X100499820Y-87539502D01*
X100619518Y-87575812D01*
X100744000Y-87588072D01*
X100933250Y-87585000D01*
X101092000Y-87426250D01*
X101092000Y-86639500D01*
X101346000Y-86639500D01*
X101346000Y-87426250D01*
X101504750Y-87585000D01*
X101694000Y-87588072D01*
X101818482Y-87575812D01*
X101938180Y-87539502D01*
X102044500Y-87482672D01*
X102150820Y-87539502D01*
X102270518Y-87575812D01*
X102395000Y-87588072D01*
X102584250Y-87585000D01*
X102743000Y-87426250D01*
X102743000Y-86639500D01*
X101346000Y-86639500D01*
X101092000Y-86639500D01*
X100267750Y-86639500D01*
X100109000Y-86798250D01*
X100105928Y-86950000D01*
X92103025Y-86950000D01*
X92134696Y-86840185D01*
X92174313Y-86372054D01*
X92121842Y-85905189D01*
X91979297Y-85457532D01*
X91788766Y-85101073D01*
X91447609Y-84914997D01*
X89957605Y-86405000D01*
X89598395Y-86405000D01*
X88108391Y-84914997D01*
X87767234Y-85101073D01*
X87551487Y-85518409D01*
X87421304Y-85969815D01*
X87381687Y-86437946D01*
X80060000Y-86437946D01*
X80060000Y-84735391D01*
X88287997Y-84735391D01*
X89778000Y-86225395D01*
X91268003Y-84735391D01*
X91081927Y-84394234D01*
X90664591Y-84178487D01*
X90378570Y-84096000D01*
X96543928Y-84096000D01*
X96556188Y-84220482D01*
X96592498Y-84340180D01*
X96651463Y-84450494D01*
X96730815Y-84547185D01*
X96827506Y-84626537D01*
X96937820Y-84685502D01*
X97057518Y-84721812D01*
X97182000Y-84734072D01*
X97496250Y-84731000D01*
X97655000Y-84572250D01*
X97655000Y-83523000D01*
X96705750Y-83523000D01*
X96547000Y-83681750D01*
X96543928Y-84096000D01*
X90378570Y-84096000D01*
X90213185Y-84048304D01*
X89745054Y-84008687D01*
X89278189Y-84061158D01*
X88830532Y-84203703D01*
X88474073Y-84394234D01*
X88287997Y-84735391D01*
X80060000Y-84735391D01*
X80060000Y-81703531D01*
X90997389Y-81703531D01*
X91039401Y-81993019D01*
X91137081Y-82268747D01*
X91210528Y-82406157D01*
X91459603Y-82483792D01*
X92308395Y-81635000D01*
X91459603Y-80786208D01*
X91210528Y-80863843D01*
X91084629Y-81127883D01*
X91012661Y-81411411D01*
X90997389Y-81703531D01*
X80060000Y-81703531D01*
X80060000Y-78988740D01*
X91003000Y-78988740D01*
X91003000Y-79281260D01*
X91060068Y-79568158D01*
X91172010Y-79838411D01*
X91334525Y-80081632D01*
X91541368Y-80288475D01*
X91704410Y-80397416D01*
X91639208Y-80606603D01*
X92488000Y-81455395D01*
X92502143Y-81441253D01*
X92681748Y-81620858D01*
X92667605Y-81635000D01*
X92681748Y-81649143D01*
X92502143Y-81828748D01*
X92488000Y-81814605D01*
X91639208Y-82663397D01*
X91716843Y-82912472D01*
X91980883Y-83038371D01*
X92264411Y-83110339D01*
X92556531Y-83125611D01*
X92846019Y-83083599D01*
X93121747Y-82985919D01*
X93197850Y-82945241D01*
X93283506Y-83015537D01*
X93393820Y-83074502D01*
X93513518Y-83110812D01*
X93638000Y-83123072D01*
X95338000Y-83123072D01*
X95462482Y-83110812D01*
X95582180Y-83074502D01*
X95692494Y-83015537D01*
X95789185Y-82936185D01*
X95868537Y-82839494D01*
X95927502Y-82729180D01*
X95963812Y-82609482D01*
X95976072Y-82485000D01*
X95976072Y-80785000D01*
X95969828Y-80721599D01*
X96285890Y-80721599D01*
X96463928Y-80899637D01*
X96463928Y-81896000D01*
X96476188Y-82020482D01*
X96512498Y-82140180D01*
X96571463Y-82250494D01*
X96649369Y-82345423D01*
X96592498Y-82451820D01*
X96556188Y-82571518D01*
X96543928Y-82696000D01*
X96547000Y-83110250D01*
X96705750Y-83269000D01*
X97655000Y-83269000D01*
X97655000Y-83249000D01*
X97909000Y-83249000D01*
X97909000Y-83269000D01*
X97929000Y-83269000D01*
X97929000Y-83523000D01*
X97909000Y-83523000D01*
X97909000Y-84572250D01*
X98067750Y-84731000D01*
X98382000Y-84734072D01*
X98506482Y-84721812D01*
X98626180Y-84685502D01*
X98692000Y-84650320D01*
X98757820Y-84685502D01*
X98877518Y-84721812D01*
X99002000Y-84734072D01*
X100002000Y-84734072D01*
X100105928Y-84723836D01*
X100105928Y-85156250D01*
X100122392Y-85323408D01*
X100171150Y-85484142D01*
X100250329Y-85632275D01*
X100268100Y-85653930D01*
X100213463Y-85720506D01*
X100154498Y-85830820D01*
X100118188Y-85950518D01*
X100105928Y-86075000D01*
X100109000Y-86226750D01*
X100267750Y-86385500D01*
X101092000Y-86385500D01*
X101092000Y-86365500D01*
X101346000Y-86365500D01*
X101346000Y-86385500D01*
X102743000Y-86385500D01*
X102743000Y-86365500D01*
X102997000Y-86365500D01*
X102997000Y-86385500D01*
X103017000Y-86385500D01*
X103017000Y-86639500D01*
X102997000Y-86639500D01*
X102997000Y-87426250D01*
X103155750Y-87585000D01*
X103345000Y-87588072D01*
X103400680Y-87582588D01*
X103422208Y-87608820D01*
X103475016Y-87673167D01*
X103503123Y-87696234D01*
X103661970Y-87855081D01*
X103665000Y-88004750D01*
X103823750Y-88163500D01*
X103984737Y-88163500D01*
X103988775Y-88166814D01*
X104116739Y-88235212D01*
X104255589Y-88277332D01*
X104363802Y-88287990D01*
X104363811Y-88287990D01*
X104399987Y-88291553D01*
X104436163Y-88287990D01*
X108175781Y-88287990D01*
X108360928Y-88473138D01*
X108360928Y-88763250D01*
X108377392Y-88930408D01*
X108426150Y-89091142D01*
X108505329Y-89239275D01*
X108611885Y-89369115D01*
X108741725Y-89475671D01*
X108889858Y-89554850D01*
X109050592Y-89603608D01*
X109217750Y-89620072D01*
X109730250Y-89620072D01*
X109897408Y-89603608D01*
X110058142Y-89554850D01*
X110206275Y-89475671D01*
X110336115Y-89369115D01*
X110442671Y-89239275D01*
X110521850Y-89091142D01*
X110570608Y-88930408D01*
X110587072Y-88763250D01*
X110587072Y-88325750D01*
X110570608Y-88158592D01*
X110521850Y-87997858D01*
X110442671Y-87849725D01*
X110366574Y-87757000D01*
X110442671Y-87664275D01*
X110521850Y-87516142D01*
X110570608Y-87355408D01*
X110587072Y-87188250D01*
X110587072Y-86750750D01*
X110570608Y-86583592D01*
X110521850Y-86422858D01*
X110442671Y-86274725D01*
X110336115Y-86144885D01*
X110206275Y-86038329D01*
X110058142Y-85959150D01*
X109897408Y-85910392D01*
X109730250Y-85893928D01*
X109440138Y-85893928D01*
X109027335Y-85481126D01*
X109004265Y-85453015D01*
X108892103Y-85360966D01*
X108819968Y-85322409D01*
X119255000Y-85322409D01*
X119255000Y-85767591D01*
X119341851Y-86204218D01*
X119512214Y-86615511D01*
X119759544Y-86985666D01*
X120074334Y-87300456D01*
X120444489Y-87547786D01*
X120855782Y-87718149D01*
X121292409Y-87805000D01*
X121737591Y-87805000D01*
X122174218Y-87718149D01*
X122585511Y-87547786D01*
X122955666Y-87300456D01*
X123270456Y-86985666D01*
X123517786Y-86615511D01*
X123688149Y-86204218D01*
X123775000Y-85767591D01*
X123775000Y-85322409D01*
X123688149Y-84885782D01*
X123517786Y-84474489D01*
X123270456Y-84104334D01*
X122955666Y-83789544D01*
X122585511Y-83542214D01*
X122174218Y-83371851D01*
X121737591Y-83285000D01*
X121292409Y-83285000D01*
X120855782Y-83371851D01*
X120444489Y-83542214D01*
X120074334Y-83789544D01*
X119759544Y-84104334D01*
X119512214Y-84474489D01*
X119341851Y-84885782D01*
X119255000Y-85322409D01*
X108819968Y-85322409D01*
X108764139Y-85292568D01*
X108693072Y-85271010D01*
X108693072Y-85198072D01*
X108967500Y-85198072D01*
X109104175Y-85184611D01*
X109235597Y-85144744D01*
X109356717Y-85080004D01*
X109462879Y-84992879D01*
X109550004Y-84886717D01*
X109614744Y-84765597D01*
X109654611Y-84634175D01*
X109668072Y-84497500D01*
X109668072Y-84372500D01*
X109654611Y-84235825D01*
X109639193Y-84185000D01*
X109654611Y-84134175D01*
X109668072Y-83997500D01*
X109668072Y-83872500D01*
X109654611Y-83735825D01*
X109639193Y-83685000D01*
X109654611Y-83634175D01*
X109668072Y-83497500D01*
X109668072Y-83372500D01*
X109654611Y-83235825D01*
X109639193Y-83185000D01*
X109654611Y-83134175D01*
X109668072Y-82997500D01*
X109668072Y-82872500D01*
X109654611Y-82735825D01*
X109639193Y-82685000D01*
X109654611Y-82634175D01*
X109668072Y-82497500D01*
X109668072Y-82372500D01*
X109654611Y-82235825D01*
X109639193Y-82185000D01*
X109654611Y-82134175D01*
X109668072Y-81997500D01*
X109668072Y-81872500D01*
X109654611Y-81735825D01*
X109614744Y-81604403D01*
X109550004Y-81483283D01*
X109462879Y-81377121D01*
X109356717Y-81289996D01*
X109235597Y-81225256D01*
X109104175Y-81185389D01*
X108967500Y-81171928D01*
X108693072Y-81171928D01*
X108693072Y-80897500D01*
X108689967Y-80865969D01*
X108835853Y-80836951D01*
X108992363Y-80772122D01*
X109133218Y-80678005D01*
X109253005Y-80558218D01*
X109347122Y-80417363D01*
X109411951Y-80260853D01*
X109441639Y-80111600D01*
X110634891Y-80111600D01*
X110843554Y-80320263D01*
X110866625Y-80348375D01*
X110978787Y-80440424D01*
X111106751Y-80508822D01*
X111245601Y-80550942D01*
X111335161Y-80559763D01*
X111304076Y-80625892D01*
X111237939Y-80892606D01*
X111225105Y-81167097D01*
X111266069Y-81438817D01*
X111359256Y-81697326D01*
X111420975Y-81812794D01*
X111660863Y-81879531D01*
X112445395Y-81095000D01*
X112431252Y-81080858D01*
X112610858Y-80901253D01*
X112625000Y-80915395D01*
X112639143Y-80901253D01*
X112818748Y-81080858D01*
X112804605Y-81095000D01*
X113589137Y-81879531D01*
X113829025Y-81812794D01*
X113945924Y-81564108D01*
X114012061Y-81297394D01*
X114024895Y-81022903D01*
X113983931Y-80751183D01*
X113915590Y-80561600D01*
X113979428Y-80561600D01*
X114081433Y-80714261D01*
X114275739Y-80908567D01*
X114504220Y-81061233D01*
X114585740Y-81095000D01*
X114504220Y-81128767D01*
X114275739Y-81281433D01*
X114081433Y-81475739D01*
X113928767Y-81704220D01*
X113823609Y-81958093D01*
X113770000Y-82227604D01*
X113770000Y-82369499D01*
X113739494Y-82344463D01*
X113629180Y-82285498D01*
X113509482Y-82249188D01*
X113385000Y-82236928D01*
X113360069Y-82236928D01*
X113409531Y-82059137D01*
X112625000Y-81274605D01*
X111840469Y-82059137D01*
X111889931Y-82236928D01*
X111865000Y-82236928D01*
X111740518Y-82249188D01*
X111620820Y-82285498D01*
X111510506Y-82344463D01*
X111413815Y-82423815D01*
X111334463Y-82520506D01*
X111275498Y-82630820D01*
X111239188Y-82750518D01*
X111226928Y-82875000D01*
X111226928Y-84395000D01*
X111239188Y-84519482D01*
X111275498Y-84639180D01*
X111334463Y-84749494D01*
X111413815Y-84846185D01*
X111510506Y-84925537D01*
X111620820Y-84984502D01*
X111740518Y-85020812D01*
X111865000Y-85033072D01*
X113385000Y-85033072D01*
X113509482Y-85020812D01*
X113629180Y-84984502D01*
X113739494Y-84925537D01*
X113836185Y-84846185D01*
X113915537Y-84749494D01*
X113974502Y-84639180D01*
X114010812Y-84519482D01*
X114023072Y-84395000D01*
X114023072Y-83166918D01*
X114081433Y-83254261D01*
X114275739Y-83448567D01*
X114504220Y-83601233D01*
X114758093Y-83706391D01*
X115027604Y-83760000D01*
X115302396Y-83760000D01*
X115571907Y-83706391D01*
X115825780Y-83601233D01*
X116054261Y-83448567D01*
X116248567Y-83254261D01*
X116401233Y-83025780D01*
X116506391Y-82771907D01*
X116560000Y-82502396D01*
X116560000Y-82227604D01*
X116506391Y-81958093D01*
X116401233Y-81704220D01*
X116248567Y-81475739D01*
X116054261Y-81281433D01*
X115825780Y-81128767D01*
X115744260Y-81095000D01*
X115825780Y-81061233D01*
X116054261Y-80908567D01*
X116248567Y-80714261D01*
X116401233Y-80485780D01*
X116506391Y-80231907D01*
X116560000Y-79962396D01*
X116560000Y-79687604D01*
X116506391Y-79418093D01*
X116401233Y-79164220D01*
X116248567Y-78935739D01*
X116054261Y-78741433D01*
X115825780Y-78588767D01*
X115744260Y-78555000D01*
X115825780Y-78521233D01*
X116054261Y-78368567D01*
X116248567Y-78174261D01*
X116401233Y-77945780D01*
X116506391Y-77691907D01*
X116560000Y-77422396D01*
X116560000Y-77147604D01*
X116506391Y-76878093D01*
X116401233Y-76624220D01*
X116248567Y-76395739D01*
X116054261Y-76201433D01*
X115825780Y-76048767D01*
X115571907Y-75943609D01*
X115302396Y-75890000D01*
X115027604Y-75890000D01*
X114758093Y-75943609D01*
X114504220Y-76048767D01*
X114275739Y-76201433D01*
X114081433Y-76395739D01*
X113928767Y-76624220D01*
X113823609Y-76878093D01*
X113770000Y-77147604D01*
X113770000Y-77422396D01*
X113823609Y-77691907D01*
X113928767Y-77945780D01*
X114081433Y-78174261D01*
X114275739Y-78368567D01*
X114504220Y-78521233D01*
X114585740Y-78555000D01*
X114504220Y-78588767D01*
X114275739Y-78741433D01*
X114081433Y-78935739D01*
X113979428Y-79088400D01*
X113913996Y-79088400D01*
X113966391Y-78961907D01*
X114020000Y-78692396D01*
X114020000Y-78417604D01*
X113966391Y-78148093D01*
X113861233Y-77894220D01*
X113708567Y-77665739D01*
X113514261Y-77471433D01*
X113285780Y-77318767D01*
X113031907Y-77213609D01*
X112762396Y-77160000D01*
X112487604Y-77160000D01*
X112218093Y-77213609D01*
X111964220Y-77318767D01*
X111735739Y-77471433D01*
X111541433Y-77665739D01*
X111388767Y-77894220D01*
X111283609Y-78148093D01*
X111230000Y-78417604D01*
X111230000Y-78692396D01*
X111230532Y-78695071D01*
X111223249Y-78691178D01*
X111084399Y-78649058D01*
X110976186Y-78638400D01*
X110976183Y-78638400D01*
X110940000Y-78634836D01*
X110903817Y-78638400D01*
X109982000Y-78638400D01*
X109982000Y-75162409D01*
X119255000Y-75162409D01*
X119255000Y-75607591D01*
X119341851Y-76044218D01*
X119512214Y-76455511D01*
X119759544Y-76825666D01*
X120074334Y-77140456D01*
X120444489Y-77387786D01*
X120855782Y-77558149D01*
X121292409Y-77645000D01*
X121737591Y-77645000D01*
X122174218Y-77558149D01*
X122585511Y-77387786D01*
X122955666Y-77140456D01*
X123270456Y-76825666D01*
X123517786Y-76455511D01*
X123688149Y-76044218D01*
X123775000Y-75607591D01*
X123775000Y-75162409D01*
X123688149Y-74725782D01*
X123517786Y-74314489D01*
X123270456Y-73944334D01*
X122955666Y-73629544D01*
X122585511Y-73382214D01*
X122174218Y-73211851D01*
X121737591Y-73125000D01*
X121292409Y-73125000D01*
X120855782Y-73211851D01*
X120444489Y-73382214D01*
X120074334Y-73629544D01*
X119759544Y-73944334D01*
X119512214Y-74314489D01*
X119341851Y-74725782D01*
X119255000Y-75162409D01*
X109982000Y-75162409D01*
X109982000Y-74719277D01*
X110082115Y-74637115D01*
X110188671Y-74507275D01*
X110267850Y-74359142D01*
X110316608Y-74198408D01*
X110333072Y-74031250D01*
X110333072Y-73593750D01*
X110316608Y-73426592D01*
X110267850Y-73265858D01*
X110188671Y-73117725D01*
X110112574Y-73025000D01*
X110188671Y-72932275D01*
X110267850Y-72784142D01*
X110316608Y-72623408D01*
X110333072Y-72456250D01*
X110333072Y-72018750D01*
X110316608Y-71851592D01*
X110267850Y-71690858D01*
X110188671Y-71542725D01*
X110082115Y-71412885D01*
X109952275Y-71306329D01*
X109804142Y-71227150D01*
X109643408Y-71178392D01*
X109476250Y-71161928D01*
X108963750Y-71161928D01*
X108796592Y-71178392D01*
X108635858Y-71227150D01*
X108487725Y-71306329D01*
X108357885Y-71412885D01*
X108306499Y-71475500D01*
X107593501Y-71475500D01*
X107542115Y-71412885D01*
X107412275Y-71306329D01*
X107264142Y-71227150D01*
X107103408Y-71178392D01*
X106936250Y-71161928D01*
X106423750Y-71161928D01*
X106256592Y-71178392D01*
X106095858Y-71227150D01*
X105947725Y-71306329D01*
X105817885Y-71412885D01*
X105711329Y-71542725D01*
X105632150Y-71690858D01*
X105583392Y-71851592D01*
X105566928Y-72018750D01*
X105566928Y-72320392D01*
X105489868Y-72297016D01*
X105377916Y-72285990D01*
X105377913Y-72285990D01*
X105340490Y-72282304D01*
X105303067Y-72285990D01*
X105253072Y-72285990D01*
X105253072Y-72018750D01*
X105236608Y-71851592D01*
X105187850Y-71690858D01*
X105108671Y-71542725D01*
X105002115Y-71412885D01*
X104872275Y-71306329D01*
X104724142Y-71227150D01*
X104563408Y-71178392D01*
X104396250Y-71161928D01*
X103883750Y-71161928D01*
X103716592Y-71178392D01*
X103555858Y-71227150D01*
X103407725Y-71306329D01*
X103277885Y-71412885D01*
X103226499Y-71475500D01*
X102513501Y-71475500D01*
X102462115Y-71412885D01*
X102332275Y-71306329D01*
X102184142Y-71227150D01*
X102023408Y-71178392D01*
X101856250Y-71161928D01*
X101343750Y-71161928D01*
X101176592Y-71178392D01*
X101015858Y-71227150D01*
X100867725Y-71306329D01*
X100737885Y-71412885D01*
X100631329Y-71542725D01*
X100552150Y-71690858D01*
X100503392Y-71851592D01*
X100486928Y-72018750D01*
X100486928Y-72456250D01*
X100503392Y-72623408D01*
X100552150Y-72784142D01*
X100631329Y-72932275D01*
X100707426Y-73025000D01*
X100631329Y-73117725D01*
X100552150Y-73265858D01*
X100503392Y-73426592D01*
X100486928Y-73593750D01*
X100486928Y-74031250D01*
X100503392Y-74198408D01*
X100552150Y-74359142D01*
X100631329Y-74507275D01*
X100737885Y-74637115D01*
X100867725Y-74743671D01*
X101015858Y-74822850D01*
X101176592Y-74871608D01*
X101343750Y-74888072D01*
X101856250Y-74888072D01*
X102023408Y-74871608D01*
X102184142Y-74822850D01*
X102332275Y-74743671D01*
X102462115Y-74637115D01*
X102568671Y-74507275D01*
X102647850Y-74359142D01*
X102680957Y-74250000D01*
X103026928Y-74250000D01*
X103039188Y-74374482D01*
X103075498Y-74494180D01*
X103134463Y-74604494D01*
X103213815Y-74701185D01*
X103310506Y-74780537D01*
X103420820Y-74839502D01*
X103540518Y-74875812D01*
X103665000Y-74888072D01*
X103854250Y-74885000D01*
X104013000Y-74726250D01*
X104013000Y-73939500D01*
X103188750Y-73939500D01*
X103030000Y-74098250D01*
X103026928Y-74250000D01*
X102680957Y-74250000D01*
X102696608Y-74198408D01*
X102713072Y-74031250D01*
X102713072Y-73809990D01*
X104287000Y-73809990D01*
X104287000Y-73939500D01*
X104267000Y-73939500D01*
X104267000Y-74726250D01*
X104425750Y-74885000D01*
X104615000Y-74888072D01*
X104739482Y-74875812D01*
X104859180Y-74839502D01*
X104969494Y-74780537D01*
X105066185Y-74701185D01*
X105145537Y-74604494D01*
X105204502Y-74494180D01*
X105240812Y-74374482D01*
X105253072Y-74250000D01*
X105250000Y-74098250D01*
X105091252Y-73939502D01*
X105154372Y-73939502D01*
X105539720Y-74324851D01*
X105563578Y-74353922D01*
X105679608Y-74449145D01*
X105680518Y-74449631D01*
X105711329Y-74507275D01*
X105817885Y-74637115D01*
X105895257Y-74700612D01*
X103881654Y-76714216D01*
X103852578Y-76738078D01*
X103796983Y-76805822D01*
X103757355Y-76854108D01*
X103744535Y-76878093D01*
X103686598Y-76986486D01*
X103643026Y-77130123D01*
X103634804Y-77213609D01*
X103628314Y-77279500D01*
X103632000Y-77316923D01*
X103632001Y-79983453D01*
X103631878Y-79983637D01*
X103567049Y-80140147D01*
X103534000Y-80306297D01*
X103534000Y-80475703D01*
X103567049Y-80641853D01*
X103631878Y-80798363D01*
X103725995Y-80939218D01*
X103845782Y-81059005D01*
X103986637Y-81153122D01*
X104143147Y-81217951D01*
X104146370Y-81218592D01*
X104124403Y-81225256D01*
X104003283Y-81289996D01*
X103897121Y-81377121D01*
X103809996Y-81483283D01*
X103745256Y-81604403D01*
X103705389Y-81735825D01*
X103691928Y-81872500D01*
X103691928Y-81997500D01*
X103705389Y-82134175D01*
X103712098Y-82156290D01*
X103707232Y-82171089D01*
X103704055Y-82198400D01*
X102798109Y-82198400D01*
X101300446Y-80700737D01*
X101277375Y-80672625D01*
X101165213Y-80580576D01*
X101037249Y-80512178D01*
X100898399Y-80470058D01*
X100790186Y-80459400D01*
X100790183Y-80459400D01*
X100754000Y-80455836D01*
X100717817Y-80459400D01*
X100636467Y-80459400D01*
X100627812Y-80371518D01*
X100591502Y-80251820D01*
X100532537Y-80141506D01*
X100453185Y-80044815D01*
X100356494Y-79965463D01*
X100246180Y-79906498D01*
X100126482Y-79870188D01*
X100002000Y-79857928D01*
X99405637Y-79857928D01*
X96862446Y-77314737D01*
X96839375Y-77286625D01*
X96727213Y-77194576D01*
X96599249Y-77126178D01*
X96460399Y-77084058D01*
X96352186Y-77073400D01*
X96352183Y-77073400D01*
X96316000Y-77069836D01*
X96279817Y-77073400D01*
X93849186Y-77073400D01*
X93813000Y-77069836D01*
X93776814Y-77073400D01*
X93668601Y-77084058D01*
X93529751Y-77126178D01*
X93401787Y-77194576D01*
X93343911Y-77242074D01*
X93289625Y-77286625D01*
X93266559Y-77314731D01*
X92882009Y-77699281D01*
X92634260Y-77650000D01*
X92341740Y-77650000D01*
X92054842Y-77707068D01*
X91784589Y-77819010D01*
X91541368Y-77981525D01*
X91334525Y-78188368D01*
X91172010Y-78431589D01*
X91060068Y-78701842D01*
X91003000Y-78988740D01*
X80060000Y-78988740D01*
X80060000Y-76034609D01*
X88287997Y-76034609D01*
X88474073Y-76375766D01*
X88891409Y-76591513D01*
X89342815Y-76721696D01*
X89810946Y-76761313D01*
X90277811Y-76708842D01*
X90725468Y-76566297D01*
X91081927Y-76375766D01*
X91268003Y-76034609D01*
X89778000Y-74544605D01*
X88287997Y-76034609D01*
X80060000Y-76034609D01*
X80060000Y-74397946D01*
X87381687Y-74397946D01*
X87434158Y-74864811D01*
X87576703Y-75312468D01*
X87767234Y-75668927D01*
X88108391Y-75855003D01*
X89598395Y-74365000D01*
X89957605Y-74365000D01*
X91447609Y-75855003D01*
X91788766Y-75668927D01*
X92004513Y-75251591D01*
X92134696Y-74800185D01*
X92174313Y-74332054D01*
X92121842Y-73865189D01*
X91979297Y-73417532D01*
X91788766Y-73061073D01*
X91447609Y-72874997D01*
X89957605Y-74365000D01*
X89598395Y-74365000D01*
X88108391Y-72874997D01*
X87767234Y-73061073D01*
X87551487Y-73478409D01*
X87421304Y-73929815D01*
X87381687Y-74397946D01*
X80060000Y-74397946D01*
X80060000Y-72695391D01*
X88287997Y-72695391D01*
X89778000Y-74185395D01*
X91268003Y-72695391D01*
X91081927Y-72354234D01*
X90664591Y-72138487D01*
X90213185Y-72008304D01*
X89745054Y-71968687D01*
X89278189Y-72021158D01*
X88830532Y-72163703D01*
X88474073Y-72354234D01*
X88287997Y-72695391D01*
X80060000Y-72695391D01*
X80060000Y-68305701D01*
X81090000Y-68305701D01*
X81090000Y-68854299D01*
X81197026Y-69392354D01*
X81406965Y-69899192D01*
X81711750Y-70355334D01*
X82099666Y-70743250D01*
X82555808Y-71048035D01*
X83062646Y-71257974D01*
X83600701Y-71365000D01*
X84149299Y-71365000D01*
X84687354Y-71257974D01*
X85194192Y-71048035D01*
X85650334Y-70743250D01*
X86038250Y-70355334D01*
X86343035Y-69899192D01*
X86552974Y-69392354D01*
X86660000Y-68854299D01*
X86660000Y-68305701D01*
X122090000Y-68305701D01*
X122090000Y-68854299D01*
X122197026Y-69392354D01*
X122406965Y-69899192D01*
X122711750Y-70355334D01*
X123099666Y-70743250D01*
X123555808Y-71048035D01*
X124062646Y-71257974D01*
X124600701Y-71365000D01*
X125149299Y-71365000D01*
X125687354Y-71257974D01*
X126194192Y-71048035D01*
X126650334Y-70743250D01*
X127038250Y-70355334D01*
X127343035Y-69899192D01*
X127552974Y-69392354D01*
X127660000Y-68854299D01*
X127660000Y-68305701D01*
X127552974Y-67767646D01*
X127343035Y-67260808D01*
X127038250Y-66804666D01*
X126650334Y-66416750D01*
X126194192Y-66111965D01*
X125687354Y-65902026D01*
X125149299Y-65795000D01*
X124600701Y-65795000D01*
X124062646Y-65902026D01*
X123555808Y-66111965D01*
X123099666Y-66416750D01*
X122711750Y-66804666D01*
X122406965Y-67260808D01*
X122197026Y-67767646D01*
X122090000Y-68305701D01*
X86660000Y-68305701D01*
X86552974Y-67767646D01*
X86343035Y-67260808D01*
X86038250Y-66804666D01*
X85650334Y-66416750D01*
X85194192Y-66111965D01*
X84687354Y-65902026D01*
X84149299Y-65795000D01*
X83600701Y-65795000D01*
X83062646Y-65902026D01*
X82555808Y-66111965D01*
X82099666Y-66416750D01*
X81711750Y-66804666D01*
X81406965Y-67260808D01*
X81197026Y-67767646D01*
X81090000Y-68305701D01*
X80060000Y-68305701D01*
X80060000Y-64795000D01*
X128665000Y-64795000D01*
X128665001Y-96475000D01*
G36*
X106807000Y-83058000D02*
G01*
X106827000Y-83058000D01*
X106827000Y-83312000D01*
X106807000Y-83312000D01*
X106807000Y-83332000D01*
X106553000Y-83332000D01*
X106553000Y-83312000D01*
X106533000Y-83312000D01*
X106533000Y-83058000D01*
X106553000Y-83058000D01*
X106553000Y-83038000D01*
X106807000Y-83038000D01*
X106807000Y-83058000D01*
X106807000Y-83058000D01*
G37*
X106807000Y-83058000D02*
X106827000Y-83058000D01*
X106827000Y-83312000D01*
X106807000Y-83312000D01*
X106807000Y-83332000D01*
X106553000Y-83332000D01*
X106553000Y-83312000D01*
X106533000Y-83312000D01*
X106533000Y-83058000D01*
X106553000Y-83058000D01*
X106553000Y-83038000D01*
X106807000Y-83038000D01*
X106807000Y-83058000D01*
M02*
